# Blender 4.4.1
# www.blender.org
mtllib Hair4.mtl
o Cube
v -0.554611 3.707755 0.542315
v -0.498125 4.804635 0.488895
v -0.558417 3.750838 -0.437314
v -0.498074 4.800975 -0.473823
v -0.628362 3.680893 -0.257858
v -0.663496 3.645759 0.069065
v -0.629075 3.680893 0.316755
v -0.623235 3.931592 0.559254
v -0.602833 4.317835 0.567662
v -0.568070 4.609615 0.558840
v -0.568070 4.874580 0.293875
v -0.604724 4.917081 -0.001635
v -0.568020 4.870920 -0.278803
v -0.568306 4.605955 -0.547495
v -0.603441 4.321457 -0.560123
v -0.628362 3.945858 -0.501677
v -0.568733 3.688267 -0.477872
v -0.303054 4.870920 -0.543768
v 0.000000 4.906054 -0.578902
v -0.359591 3.670250 0.606678
v 0.000000 3.635116 0.639008
v 0.000000 4.909715 0.593974
v -0.303105 4.874580 0.558840
v -0.773507 3.916507 0.329047
v -0.768645 4.321457 0.309161
v -0.717735 4.628323 0.312583
v -0.828701 3.910862 0.003936
v -0.823960 4.321457 0.001968
v -0.769929 4.651978 -0.001635
v -0.778026 3.927150 -0.275073
v -0.768645 4.321457 -0.305225
v -0.717684 4.624663 -0.297511
v -0.543095 3.927150 -0.616315
v -0.431514 4.467242 -0.679404
v -0.322049 4.675426 -0.697159
v 0.000000 4.439704 -0.772152
v 0.000000 4.735948 -0.707261
v 0.000000 3.896597 0.743605
v 0.000000 4.317835 0.779691
v 0.000000 4.691752 0.762782
v -0.376978 3.912884 0.696975
v -0.468009 4.317835 0.726506
v -0.321205 4.624701 0.712107
v -0.587441 3.538602 -0.251268
v -0.603729 3.487928 0.027740
v -0.460097 3.503585 0.406463
v 0.000000 3.467511 0.532897
v 0.000000 5.071259 -0.313799
v -0.321762 5.020584 -0.297511
v 0.000000 5.137600 -0.001635
v -0.339621 5.082285 -0.001635
v 0.000000 5.082286 0.317858
v -0.323333 5.031611 0.301571
v -0.593389 3.715866 -0.347586
v -0.645929 3.663326 -0.094396
v -0.646285 3.663326 0.192910
v -0.589583 3.689003 0.452587
v -0.589227 3.821485 0.548983
v -0.610775 4.119392 0.586510
v -0.586549 4.471111 0.557745
v -0.533098 4.707125 0.523867
v -0.533098 4.839608 0.391385
v -0.587157 4.899514 0.140614
v -0.586870 4.899514 -0.140157
v -0.533047 4.835948 -0.376313
v -0.533047 4.703465 -0.508795
v -0.585873 4.463706 -0.553809
v -0.615901 4.133657 -0.530900
v -0.593389 3.848348 -0.469495
v -0.548220 3.719552 -0.469134
v -0.400564 4.835948 -0.508795
v -0.160805 4.888487 -0.561335
v -0.457101 3.689003 0.574496
v -0.186958 3.652683 0.622843
v -0.160856 4.892148 0.576407
v -0.400615 4.839608 0.523867
v -0.768817 4.113660 0.342156
v -0.744591 4.484087 0.303564
v -0.803363 3.919006 0.143440
v -0.796302 4.321457 0.155565
v -0.744591 4.643834 0.149968
v -0.826330 4.116160 0.002952
v -0.796302 4.481204 0.001968
v -0.803364 3.919006 -0.135569
v -0.796302 4.321457 -0.151629
v -0.743021 4.632807 -0.145908
v -0.773336 4.124303 -0.290149
v -0.743308 4.473060 -0.303232
v -0.698675 3.925861 0.442349
v -0.685435 4.317835 0.440213
v -0.642902 4.618969 0.435711
v -0.642902 4.751452 0.303229
v -0.687326 4.784530 -0.001635
v -0.642852 4.747791 -0.288157
v -0.642852 4.615309 -0.420640
v -0.686043 4.321457 -0.432674
v -0.703194 3.936504 -0.388375
v -0.703194 3.804022 -0.266465
v -0.746099 3.778311 0.036500
v -0.699032 3.793378 0.345953
v -0.487304 4.167914 -0.656100
v -0.361426 4.567434 -0.708063
v -0.275906 4.439704 -0.745559
v -0.170446 4.705687 -0.702210
v 0.000000 4.597694 -0.739706
v -0.570373 3.936504 -0.570537
v -0.502122 4.365067 -0.639545
v -0.445178 4.666072 -0.622327
v -0.312408 4.798555 -0.618600
v 0.000000 4.846383 -0.641218
v -0.555914 3.807708 -0.547094
v 0.000000 4.101894 0.784699
v 0.000000 4.539372 0.763929
v -0.195347 3.904741 0.720290
v -0.243122 4.317835 0.753098
v -0.169602 4.632845 0.737444
v -0.420234 4.110038 0.734792
v -0.394489 4.473098 0.723011
v 0.000000 4.827926 0.676576
v -0.312459 4.751452 0.633672
v -0.444334 4.615347 0.637275
v -0.535421 4.317835 0.647084
v -0.500107 3.922238 0.628114
v -0.367981 3.789756 0.653628
v 0.000000 3.764045 0.693108
v -0.595585 3.513265 -0.111764
v -0.528947 3.480058 0.238354
v -0.221150 3.469850 0.479392
v -0.578087 3.613434 -0.364570
v 0.000000 3.545991 0.609005
v -0.393783 3.576541 0.493230
v -0.526265 3.576541 0.371321
v -0.618258 3.566844 0.036862
v -0.592547 3.609748 -0.266104
v -0.170159 5.045921 -0.305655
v 0.000000 5.109943 -0.161382
v -0.331477 5.056949 -0.153238
v -0.179874 5.109943 -0.001635
v 0.000000 5.109943 0.158112
v -0.331477 5.056949 0.149968
v -0.171730 5.056949 0.309715
v 0.000000 4.988657 -0.446350
v -0.312408 4.945752 -0.420640
v -0.444891 4.945752 -0.288157
v -0.472172 4.999683 -0.001635
v -0.446461 4.956779 0.292217
v -0.312459 4.949412 0.435711
v 0.000000 4.992317 0.461422
v -0.165533 4.970865 0.448567
v -0.422778 4.894510 0.413548
v -0.459317 4.978231 0.145291
v -0.459317 4.978231 -0.148561
v -0.422728 4.890850 -0.398476
v -0.165482 4.967204 -0.433495
v -0.175802 5.083446 0.154040
v -0.175802 5.083446 -0.157310
v -0.605402 3.588295 -0.114621
v -0.572261 3.571692 0.204091
v -0.489424 3.627450 0.495960
v -0.201794 3.555944 0.574169
v -0.570383 3.664650 -0.367619
v -0.190849 3.776901 0.673368
v -0.478300 3.803809 0.603107
v -0.515504 4.114715 0.660651
v -0.491279 4.475788 0.634872
v -0.422778 4.729289 0.578770
v -0.165533 4.764307 0.655124
v -0.207764 4.484537 0.737964
v -0.216975 4.105966 0.759746
v -0.165482 4.822469 -0.629909
v -0.422728 4.725628 -0.563698
v -0.473650 4.490188 -0.630936
v -0.536248 4.150785 -0.605041
v -0.559297 3.828028 -0.519835
v -0.190135 4.582564 -0.723885
v -0.724824 3.791166 0.168175
v -0.724646 3.791166 -0.114982
v -0.648292 3.826185 -0.367980
v -0.694618 4.128981 -0.410524
v -0.664591 4.468383 -0.428520
v -0.587949 4.725628 -0.398476
v -0.665588 4.771674 -0.144834
v -0.665874 4.771674 0.145291
v -0.588000 4.729289 0.413548
v -0.665266 4.475788 0.432456
v -0.689492 4.114715 0.466134
v -0.644129 3.807431 0.447468
v -0.769805 4.477132 -0.150632
v -0.799833 4.120232 -0.143599
v -0.769805 4.477132 0.154568
v -0.799833 4.120232 0.149502
v -0.495298 3.685459 0.489982
v -0.445908 4.655927 0.438281
v -0.499187 3.724754 -0.380639
v -0.445857 4.652267 -0.412450
v -0.560965 3.662977 -0.222138
v -0.591997 3.631945 0.066610
v -0.561594 3.662977 0.285378
v -0.556446 3.886358 0.501761
v -0.538346 4.225120 0.507406
v -0.508598 4.487424 0.492650
v -0.507686 4.717704 0.266034
v -0.540237 4.756103 0.003745
v -0.507635 4.714044 -0.240202
v -0.507922 4.480019 -0.477954
v -0.538954 4.228742 -0.489107
v -0.560965 3.897002 -0.437486
v -0.511885 3.669489 -0.413766
v -0.273610 4.714044 -0.474227
v 0.000000 4.795839 -0.505259
v -0.323050 3.652333 0.546829
v 0.000000 3.621302 0.575385
v 0.000000 4.799500 0.531091
v -0.273661 4.717704 0.500059
v -0.688634 3.869835 0.301618
v -0.684867 4.228742 0.278670
v -0.641394 4.507570 0.271545
v -0.737910 3.866092 0.009086
v -0.733723 4.228742 0.007348
v -0.684867 4.510928 0.007348
v -0.693153 3.880478 -0.237343
v -0.684867 4.228742 -0.263974
v -0.640110 4.496542 -0.260453
v -0.489241 3.880478 -0.536043
v -0.390689 4.428165 -0.591765
v -0.290420 4.496542 -0.610142
v 0.000000 4.397122 -0.676378
v 0.000000 4.549996 -0.619065
v 0.000000 3.851827 0.668188
v 0.000000 4.214477 0.740780
v 0.000000 4.569097 0.669595
v -0.338337 3.866213 0.627003
v -0.419265 4.225120 0.647702
v -0.291096 4.503948 0.624838
v -0.528409 3.537301 -0.213622
v -0.542794 3.492544 0.032806
v -0.410696 3.478642 0.404847
v 0.000000 3.474511 0.476281
v 0.000000 4.890989 -0.271111
v -0.290134 4.846232 -0.256726
v 0.000000 4.950872 0.003745
v -0.306090 4.902016 0.003745
v 0.000000 4.894650 0.296943
v -0.290184 4.849893 0.282557
v -0.530076 3.693865 -0.301388
v -0.576481 3.647461 -0.077764
v -0.576796 3.647461 0.175994
v -0.526187 3.668896 0.410732
v -0.525872 3.785909 0.495872
v -0.544833 4.048606 0.529437
v -0.522830 4.350759 0.501830
v -0.476797 4.569803 0.469170
v -0.476797 4.686816 0.352158
v -0.524721 4.740587 0.129383
v -0.523438 4.729560 -0.118291
v -0.476746 4.683156 -0.326326
v -0.477033 4.566143 -0.447065
v -0.523438 4.354381 -0.483531
v -0.549959 4.062872 -0.463297
v -0.530076 3.810878 -0.409063
v -0.490181 3.697122 -0.408743
v -0.359734 4.683156 -0.443339
v -0.147972 4.729560 -0.489743
v -0.409174 3.668896 0.518406
v -0.170576 3.636817 0.561107
v -0.148022 4.733220 0.515575
v -0.359785 4.686816 0.469170
v -0.684491 4.043967 0.313196
v -0.662489 4.362642 0.276909
v -0.715532 3.873285 0.132300
v -0.709295 4.228742 0.143009
v -0.662489 4.503736 0.141248
v -0.735816 4.047417 0.008217
v -0.709295 4.369835 0.007348
v -0.715532 3.873285 -0.114128
v -0.709295 4.228742 -0.128313
v -0.662489 4.503736 -0.126552
v -0.689010 4.054610 -0.250658
v -0.662489 4.362642 -0.262213
v -0.622540 3.878096 0.401689
v -0.611303 4.225120 0.394840
v -0.575300 4.499308 0.380296
v -0.575300 4.616321 0.263284
v -0.611910 4.628002 0.007348
v -0.573729 4.605293 -0.248464
v -0.574016 4.488281 -0.369203
v -0.611910 4.228742 -0.376541
v -0.627059 3.888740 -0.337414
v -0.627059 3.771727 -0.229740
v -0.664953 3.749019 0.037848
v -0.622855 3.761084 0.316549
v -0.439965 4.093128 -0.571182
v -0.325199 4.418597 -0.619773
v -0.249665 4.397122 -0.652891
v -0.156520 4.523270 -0.614603
v 0.000000 4.478651 -0.647721
v -0.509748 3.888740 -0.498306
v -0.449466 4.267260 -0.559255
v -0.399171 4.488281 -0.544048
v -0.282159 4.605293 -0.544048
v 0.000000 4.698300 -0.564025
v -0.500563 3.774984 -0.474904
v 0.000000 4.033152 0.704484
v 0.000000 4.416977 0.683938
v -0.177915 3.859020 0.647596
v -0.220639 4.225120 0.671190
v -0.157196 4.511140 0.647217
v -0.376542 4.040344 0.660404
v -0.354539 4.359020 0.638072
v 0.000000 4.678804 0.607651
v -0.281315 4.605331 0.569756
v -0.399847 4.495686 0.558744
v -0.478806 4.225120 0.577554
v -0.447088 3.874474 0.566184
v -0.330997 3.761084 0.585115
v 0.000000 3.738375 0.619985
v -0.535601 3.514923 -0.090408
v -0.476745 3.485593 0.218827
v -0.201303 3.476577 0.429023
v -0.520147 3.603395 -0.313694
v 0.000000 3.542584 0.548884
v -0.353778 3.570809 0.441246
v -0.470790 3.570809 0.333571
v -0.552040 3.562244 0.038167
v -0.529332 3.600139 -0.229421
v -0.156233 4.868611 -0.263919
v 0.000000 4.926444 -0.137348
v -0.298897 4.879638 -0.130155
v -0.164997 4.926444 0.003745
v 0.000000 4.926444 0.144838
v -0.298897 4.879638 0.137645
v -0.156284 4.872271 0.289750
v 0.000000 4.818033 -0.388185
v -0.281872 4.780138 -0.365477
v -0.398884 4.780138 -0.248464
v -0.423164 4.829060 0.003745
v -0.398935 4.783798 0.274296
v -0.281923 4.783798 0.391308
v 0.000000 4.821693 0.414017
v -0.152153 4.802746 0.402663
v -0.379360 4.735307 0.371733
v -0.411809 4.810112 0.133514
v -0.411809 4.810112 -0.126025
v -0.379309 4.731647 -0.345901
v -0.152102 4.799086 -0.376831
v -0.161400 4.903041 0.141242
v -0.161400 4.903041 -0.133752
v -0.540686 3.581192 -0.095627
v -0.511415 3.566527 0.185869
v -0.442242 3.625175 0.402937
v -0.188199 3.562019 0.472013
v -0.509756 3.648630 -0.319082
v -0.174549 3.749730 0.602550
v -0.459145 3.773496 0.563575
v -0.460687 4.044476 0.594921
v -0.438684 4.354889 0.569951
v -0.379360 4.589378 0.517662
v -0.151545 4.616686 0.588703
v -0.188275 4.362617 0.661005
v -0.197017 4.036748 0.682444
v -0.152389 4.626415 -0.554037
v -0.379596 4.585718 -0.495557
v -0.424319 4.451530 -0.548435
v -0.479607 4.078000 -0.528780
v -0.499964 3.792931 -0.453524
v -0.173910 4.414524 -0.633747
v -0.646164 3.760373 0.154147
v -0.646006 3.760373 -0.095946
v -0.578568 3.791303 -0.319401
v -0.619485 4.058741 -0.356978
v -0.592963 4.358511 -0.372872
v -0.525238 4.585718 -0.345901
v -0.592963 4.616648 -0.122421
v -0.594247 4.627675 0.133514
v -0.525289 4.589378 0.371733
v -0.592355 4.354889 0.391171
v -0.614966 4.048098 0.419515
v -0.574363 3.773496 0.406210
v -0.685892 4.366239 -0.127433
v -0.712413 4.051013 -0.121221
v -0.685892 4.366239 0.142129
v -0.712413 4.051013 0.137655
v 0.554611 3.707755 0.542315
v 0.498125 4.804635 0.488895
v 0.558417 3.750838 -0.437314
v 0.498074 4.800975 -0.473823
v 0.628362 3.680893 -0.257858
v 0.663496 3.645759 0.069065
v 0.629075 3.680893 0.316755
v 0.623235 3.931592 0.559254
v 0.602833 4.317835 0.567662
v 0.568070 4.609615 0.558840
v 0.568070 4.874580 0.293875
v 0.604724 4.917081 -0.001635
v 0.568020 4.870920 -0.278803
v 0.568306 4.605955 -0.547495
v 0.603441 4.321457 -0.560123
v 0.628362 3.945858 -0.501677
v 0.568733 3.688267 -0.477872
v 0.303054 4.870920 -0.543768
v 0.359591 3.670250 0.606678
v 0.303105 4.874580 0.558840
v 0.773507 3.916507 0.329047
v 0.768645 4.321457 0.309161
v 0.717735 4.628323 0.312583
v 0.828701 3.910862 0.003936
v 0.823960 4.321457 0.001968
v 0.769929 4.651978 -0.001635
v 0.778026 3.927150 -0.275073
v 0.768645 4.321457 -0.305225
v 0.717684 4.624663 -0.297511
v 0.543095 3.927150 -0.616315
v 0.431514 4.467242 -0.679404
v 0.322049 4.675426 -0.697159
v 0.376978 3.912884 0.696975
v 0.468009 4.317835 0.726506
v 0.321205 4.624701 0.712107
v 0.587441 3.538602 -0.251268
v 0.603729 3.487928 0.027740
v 0.460097 3.503585 0.406463
v 0.321762 5.020584 -0.297511
v 0.339621 5.082285 -0.001635
v 0.323333 5.031611 0.301571
v 0.593389 3.715866 -0.347586
v 0.645929 3.663326 -0.094396
v 0.646285 3.663326 0.192910
v 0.589583 3.689003 0.452587
v 0.589227 3.821485 0.548983
v 0.610775 4.119392 0.586510
v 0.586549 4.471111 0.557745
v 0.533098 4.707125 0.523867
v 0.533098 4.839608 0.391385
v 0.587157 4.899514 0.140614
v 0.586870 4.899514 -0.140157
v 0.533047 4.835948 -0.376313
v 0.533047 4.703465 -0.508795
v 0.585873 4.463706 -0.553809
v 0.615901 4.133657 -0.530900
v 0.593389 3.848348 -0.469495
v 0.548220 3.719552 -0.469134
v 0.400564 4.835948 -0.508795
v 0.160805 4.888487 -0.561335
v 0.457101 3.689003 0.574496
v 0.186958 3.652683 0.622843
v 0.160856 4.892148 0.576407
v 0.400615 4.839608 0.523867
v 0.768817 4.113660 0.342156
v 0.744591 4.484087 0.303564
v 0.803363 3.919006 0.143440
v 0.796302 4.321457 0.155565
v 0.744591 4.643834 0.149968
v 0.826330 4.116160 0.002952
v 0.796302 4.481204 0.001968
v 0.803364 3.919006 -0.135569
v 0.796302 4.321457 -0.151629
v 0.743021 4.632807 -0.145908
v 0.773336 4.124303 -0.290149
v 0.743308 4.473060 -0.303232
v 0.698675 3.925861 0.442349
v 0.685435 4.317835 0.440213
v 0.642902 4.618969 0.435711
v 0.642902 4.751452 0.303229
v 0.687326 4.784530 -0.001635
v 0.642852 4.747791 -0.288157
v 0.642852 4.615309 -0.420640
v 0.686043 4.321457 -0.432674
v 0.703194 3.936504 -0.388375
v 0.703194 3.804022 -0.266465
v 0.746099 3.778311 0.036500
v 0.699032 3.793378 0.345953
v 0.487304 4.167914 -0.656100
v 0.361426 4.567434 -0.708063
v 0.275906 4.439704 -0.745559
v 0.170446 4.705687 -0.702210
v 0.570373 3.936504 -0.570537
v 0.502122 4.365067 -0.639545
v 0.445178 4.666072 -0.622327
v 0.312408 4.798555 -0.618600
v 0.555914 3.807708 -0.547094
v 0.195347 3.904741 0.720290
v 0.243122 4.317835 0.753098
v 0.169602 4.632845 0.737444
v 0.420234 4.110038 0.734792
v 0.394489 4.473098 0.723011
v 0.312459 4.751452 0.633672
v 0.444334 4.615347 0.637275
v 0.535421 4.317835 0.647084
v 0.500107 3.922238 0.628114
v 0.367981 3.789756 0.653628
v 0.595585 3.513265 -0.111764
v 0.528947 3.480058 0.238354
v 0.221150 3.469850 0.479392
v 0.578087 3.613434 -0.364570
v 0.393783 3.576541 0.493230
v 0.526265 3.576541 0.371321
v 0.618258 3.566844 0.036862
v 0.592547 3.609748 -0.266104
v 0.170159 5.045921 -0.305655
v 0.331477 5.056949 -0.153238
v 0.179874 5.109943 -0.001635
v 0.331477 5.056949 0.149968
v 0.171730 5.056949 0.309715
v 0.312408 4.945752 -0.420640
v 0.444891 4.945752 -0.288157
v 0.472172 4.999683 -0.001635
v 0.446461 4.956779 0.292217
v 0.312459 4.949412 0.435711
v 0.165533 4.970865 0.448567
v 0.422778 4.894510 0.413548
v 0.459317 4.978231 0.145291
v 0.459317 4.978231 -0.148561
v 0.422728 4.890850 -0.398476
v 0.165482 4.967204 -0.433495
v 0.175802 5.083446 0.154040
v 0.175802 5.083446 -0.157310
v 0.605402 3.588295 -0.114621
v 0.572261 3.571692 0.204091
v 0.489424 3.627450 0.495960
v 0.201794 3.555944 0.574169
v 0.570383 3.664650 -0.367619
v 0.190849 3.776901 0.673368
v 0.478300 3.803809 0.603107
v 0.515504 4.114715 0.660651
v 0.491279 4.475788 0.634872
v 0.422778 4.729289 0.578770
v 0.165533 4.764307 0.655124
v 0.207764 4.484537 0.737964
v 0.216975 4.105966 0.759746
v 0.165482 4.822469 -0.629909
v 0.422728 4.725628 -0.563698
v 0.473650 4.490188 -0.630936
v 0.536248 4.150785 -0.605041
v 0.559297 3.828028 -0.519835
v 0.190135 4.582564 -0.723885
v 0.724824 3.791166 0.168175
v 0.724646 3.791166 -0.114982
v 0.648292 3.826185 -0.367980
v 0.694618 4.128981 -0.410524
v 0.664591 4.468383 -0.428520
v 0.587949 4.725628 -0.398476
v 0.665588 4.771674 -0.144834
v 0.665874 4.771674 0.145291
v 0.588000 4.729289 0.413548
v 0.665266 4.475788 0.432456
v 0.689492 4.114715 0.466134
v 0.644129 3.807431 0.447468
v 0.769805 4.477132 -0.150632
v 0.799833 4.120232 -0.143599
v 0.769805 4.477132 0.154568
v 0.799833 4.120232 0.149502
v 0.495298 3.685459 0.489982
v 0.445908 4.655927 0.438281
v 0.499187 3.724754 -0.380639
v 0.445857 4.652267 -0.412450
v 0.560965 3.662977 -0.222138
v 0.591997 3.631945 0.066610
v 0.561594 3.662977 0.285378
v 0.556446 3.886358 0.501761
v 0.538346 4.225120 0.507406
v 0.508598 4.487424 0.492650
v 0.507686 4.717704 0.266034
v 0.540237 4.756103 0.003745
v 0.507635 4.714044 -0.240202
v 0.507922 4.480019 -0.477954
v 0.538954 4.228742 -0.489107
v 0.560965 3.897002 -0.437486
v 0.511885 3.669489 -0.413766
v 0.273610 4.714044 -0.474227
v 0.323050 3.652333 0.546829
v 0.273661 4.717704 0.500059
v 0.688634 3.869835 0.301618
v 0.684867 4.228742 0.278670
v 0.641394 4.507570 0.271545
v 0.737910 3.866092 0.009086
v 0.733723 4.228742 0.007348
v 0.684867 4.510928 0.007348
v 0.693153 3.880478 -0.237343
v 0.684867 4.228742 -0.263974
v 0.640110 4.496542 -0.260453
v 0.489241 3.880478 -0.536043
v 0.390689 4.428165 -0.591765
v 0.290420 4.496542 -0.610142
v 0.338337 3.866213 0.627003
v 0.419265 4.225120 0.647702
v 0.291096 4.503948 0.624838
v 0.528409 3.537301 -0.213622
v 0.542794 3.492544 0.032806
v 0.410696 3.478642 0.404847
v 0.290134 4.846232 -0.256726
v 0.306090 4.902016 0.003745
v 0.290184 4.849893 0.282557
v 0.530076 3.693865 -0.301388
v 0.576481 3.647461 -0.077764
v 0.576796 3.647461 0.175994
v 0.526187 3.668896 0.410732
v 0.525872 3.785909 0.495872
v 0.544833 4.048606 0.529437
v 0.522830 4.350759 0.501830
v 0.476797 4.569803 0.469170
v 0.476797 4.686816 0.352158
v 0.524721 4.740587 0.129383
v 0.523438 4.729560 -0.118291
v 0.476746 4.683156 -0.326326
v 0.477033 4.566143 -0.447065
v 0.523438 4.354381 -0.483531
v 0.549959 4.062872 -0.463297
v 0.530076 3.810878 -0.409063
v 0.490181 3.697122 -0.408743
v 0.359734 4.683156 -0.443339
v 0.147972 4.729560 -0.489743
v 0.409174 3.668896 0.518406
v 0.170576 3.636817 0.561107
v 0.148022 4.733220 0.515575
v 0.359785 4.686816 0.469170
v 0.684491 4.043967 0.313196
v 0.662489 4.362642 0.276909
v 0.715532 3.873285 0.132300
v 0.709295 4.228742 0.143009
v 0.662489 4.503736 0.141248
v 0.735816 4.047417 0.008217
v 0.709295 4.369835 0.007348
v 0.715532 3.873285 -0.114128
v 0.709295 4.228742 -0.128313
v 0.662489 4.503736 -0.126552
v 0.689010 4.054610 -0.250658
v 0.662489 4.362642 -0.262213
v 0.622540 3.878096 0.401689
v 0.611303 4.225120 0.394840
v 0.575300 4.499308 0.380296
v 0.575300 4.616321 0.263284
v 0.611910 4.628002 0.007348
v 0.573729 4.605293 -0.248464
v 0.574016 4.488281 -0.369203
v 0.611910 4.228742 -0.376541
v 0.627059 3.888740 -0.337414
v 0.627059 3.771727 -0.229740
v 0.664953 3.749019 0.037848
v 0.622855 3.761084 0.316549
v 0.439965 4.093128 -0.571182
v 0.325199 4.418059 -0.619773
v 0.249665 4.397122 -0.652891
v 0.156520 4.523270 -0.614603
v 0.509748 3.888740 -0.498306
v 0.449466 4.267260 -0.559255
v 0.399171 4.488281 -0.544048
v 0.282159 4.605293 -0.544048
v 0.500563 3.774984 -0.474904
v 0.177915 3.859020 0.647596
v 0.220639 4.225120 0.671190
v 0.157196 4.511140 0.647217
v 0.376542 4.040344 0.660404
v 0.354539 4.359020 0.638072
v 0.281315 4.605331 0.569756
v 0.399847 4.495686 0.558744
v 0.478806 4.225120 0.577554
v 0.447088 3.874474 0.566184
v 0.330997 3.761084 0.585115
v 0.535601 3.514923 -0.090408
v 0.476745 3.485593 0.218827
v 0.201303 3.476577 0.429023
v 0.520147 3.603395 -0.313694
v 0.353778 3.570809 0.441246
v 0.470790 3.570809 0.333571
v 0.552040 3.562244 0.038167
v 0.529332 3.600139 -0.229421
v 0.156233 4.868611 -0.263919
v 0.298897 4.879638 -0.130155
v 0.164997 4.926444 0.003745
v 0.298897 4.879638 0.137645
v 0.156284 4.872271 0.289750
v 0.281872 4.780138 -0.365477
v 0.398884 4.780138 -0.248464
v 0.423164 4.829060 0.003745
v 0.398935 4.783798 0.274296
v 0.281923 4.783798 0.391308
v 0.152153 4.802746 0.402663
v 0.379360 4.735307 0.371733
v 0.411809 4.810112 0.133514
v 0.411809 4.810112 -0.126025
v 0.379309 4.731647 -0.345901
v 0.152102 4.799086 -0.376831
v 0.161400 4.903041 0.141242
v 0.161400 4.903041 -0.133752
v 0.540686 3.581192 -0.095627
v 0.511415 3.566527 0.185869
v 0.442242 3.625175 0.402937
v 0.188199 3.562019 0.472013
v 0.509756 3.648630 -0.319082
v 0.174549 3.749730 0.602550
v 0.459145 3.773496 0.563575
v 0.460687 4.044476 0.594921
v 0.438684 4.354889 0.569951
v 0.379360 4.589378 0.517662
v 0.151545 4.616686 0.588703
v 0.188275 4.362617 0.661005
v 0.197017 4.036748 0.682444
v 0.152389 4.626415 -0.554037
v 0.379596 4.585718 -0.495557
v 0.424319 4.457458 -0.561264
v 0.479607 4.078000 -0.528780
v 0.499964 3.792931 -0.453524
v 0.173910 4.414524 -0.633747
v 0.646164 3.760373 0.154147
v 0.646006 3.760373 -0.095946
v 0.578568 3.791303 -0.319401
v 0.619485 4.058741 -0.356978
v 0.592963 4.358511 -0.372872
v 0.525238 4.585718 -0.345901
v 0.592963 4.616648 -0.122421
v 0.594247 4.627675 0.133514
v 0.525289 4.589378 0.371733
v 0.592355 4.354889 0.391171
v 0.614966 4.048098 0.419515
v 0.574363 3.773496 0.406210
v 0.685892 4.366239 -0.127433
v 0.712413 4.051013 -0.121221
v 0.685892 4.366239 0.142129
v 0.712413 4.051013 0.137655
vn 0.9840 -0.0121 -0.1776
vn 0.9841 -0.0121 -0.1774
vn 0.9732 -0.1529 -0.1720
vn 0.9840 -0.0102 0.1776
vn 0.9840 -0.0100 0.1776
vn 0.9841 -0.0100 0.1774
vn 0.9841 -0.0102 0.1774
vn 0.9704 -0.1680 0.1733
vn 0.9704 -0.1683 0.1730
vn 0.9701 -0.1713 0.1722
vn 0.7774 0.3687 -0.5097
vn 0.8397 -0.0855 -0.5363
vn 0.8398 -0.0855 -0.5361
vn 0.8359 -0.0854 -0.5422
vn 0.8422 -0.1141 -0.5269
vn 0.8429 -0.1220 -0.5241
vn 0.8425 -0.1179 -0.5256
vn 0.7503 -0.4786 -0.4560
vn 0.8367 -0.5214 -0.1678
vn 0.8367 -0.5214 -0.1677
vn 0.8269 -0.5182 0.2184
vn 0.7644 -0.4559 0.4559
vn 0.8426 -0.1401 0.5200
vn 0.8362 0.0258 0.5479
vn 0.8348 0.0281 0.5498
vn 0.8375 0.0274 0.5457
vn 0.8376 0.0238 0.5457
vn 0.7353 0.4469 0.5096
vn 0.8313 0.5286 0.1718
vn 0.8534 0.4875 -0.1846
vn 0.8533 0.4871 -0.1863
vn 0.8534 0.4875 -0.1844
vn 0.0839 -0.2075 0.9746
vn 0.0950 -0.2026 0.9746
vn 0.0826 -0.2080 0.9746
vn 0.9316 0.1637 0.3246
vn 0.6175 -0.0196 0.7863
vn 0.5814 -0.1933 0.7903
vn 0.5546 -0.5433 0.6303
vn 0.1513 -0.7157 0.6818
vn 0.1190 -0.0146 -0.9928
vn 0.1194 -0.0143 -0.9927
vn 0.1115 -0.0200 -0.9936
vn 0.1226 -0.0832 -0.9890
vn 0.1677 -0.5241 -0.8350
vn 0.1677 -0.5214 -0.8367
vn 0.1677 -0.5213 -0.8367
vn 0.4559 -0.4559 -0.7644
vn 0.5784 -0.1260 -0.8059
vn 0.6853 -0.0383 -0.7272
vn 0.4730 0.2461 -0.8460
vn 0.1315 0.3419 -0.9305
vn 0.1317 0.3418 -0.9305
vn 0.1272 0.3456 -0.9297
vn 0.9894 0.0002 0.1453
vn 0.1466 0.3757 -0.9151
vn 0.3420 0.6692 -0.6597
vn 0.8448 0.4248 -0.3253
vn 0.9838 0.1517 0.0954
vn 0.1689 -0.9708 0.1705
vn 0.1697 -0.9706 -0.1705
vn 0.1705 -0.9705 -0.1705
vn 0.1678 -0.8367 0.5213
vn 0.4786 -0.7503 0.4560
vn 0.5223 -0.8358 0.1691
vn 0.5233 -0.8349 0.1704
vn 0.5344 -0.8249 -0.1843
vn 0.4559 -0.7644 -0.4559
vn 0.1677 -0.8356 -0.5231
vn 0.1677 -0.8367 -0.5213
vn 0.1677 -0.8356 -0.5232
vn 0.1490 -0.8385 -0.5241
vn 0.1491 -0.8394 -0.5227
vn 0.1489 -0.8377 -0.5255
vn 0.1677 -0.8345 -0.5249
vn 0.4560 -0.7503 -0.4786
vn 0.4746 -0.7371 -0.4810
vn 0.4815 -0.7457 -0.4604
vn 0.5213 -0.8367 -0.1678
vn 0.5214 -0.8367 -0.1678
vn 0.5214 -0.8367 -0.1677
vn 0.5214 -0.8367 0.1678
vn 0.5161 -0.8213 0.2431
vn 0.5177 -0.8205 0.2425
vn 0.5176 -0.8205 0.2426
vn 0.5192 -0.8197 0.2420
vn 0.4755 -0.7401 0.4755
vn 0.4560 -0.7503 0.4786
vn 0.4559 -0.7644 0.4559
vn 0.1494 -0.8393 0.5227
vn 0.1497 -0.8393 0.5227
vn 0.1491 -0.8394 0.5227
vn 0.1677 -0.8367 0.5213
vn 0.1507 -0.9740 -0.1692
vn 0.1512 -0.9739 -0.1692
vn 0.1502 -0.9741 -0.1692
vn 0.1689 -0.9708 -0.1705
vn 0.1502 -0.9741 0.1692
vn 0.1521 -0.9574 0.2454
vn 0.1707 -0.9532 0.2496
vn 0.8884 0.4373 0.1400
vn 0.8845 0.4449 0.1406
vn 0.8847 0.4445 0.1405
vn 0.8886 0.4368 0.1400
vn 0.9897 0.1119 0.0894
vn 0.7599 0.6144 -0.2123
vn 0.7876 0.5773 -0.2155
vn 0.9182 0.2685 -0.2913
vn 0.4850 0.6979 -0.5270
vn 0.6882 0.6376 -0.3462
vn 0.5568 0.5690 -0.6051
vn 0.2654 0.5844 -0.7668
vn 0.3309 0.6269 -0.7054
vn 0.1653 0.7010 -0.6938
vn 0.8569 0.3182 0.4055
vn 0.9248 0.1533 0.3483
vn 0.9459 -0.3198 -0.0543
vn 0.1266 0.3741 -0.9187
vn 0.1268 0.3738 -0.9188
vn 0.1180 0.3807 -0.9171
vn 0.1178 0.3808 -0.9171
vn 0.1226 0.3496 -0.9288
vn 0.4067 0.2356 -0.8827
vn 0.3935 0.3268 -0.8593
vn 0.4583 0.2956 -0.8382
vn 0.5489 0.1340 -0.8251
vn 0.5436 0.2277 -0.8079
vn 0.6857 0.0744 -0.7241
vn 0.6844 -0.1831 -0.7057
vn 0.6813 -0.2896 -0.6723
vn 0.5797 -0.2619 -0.7716
vn 0.4805 -0.4589 -0.7474
vn 0.4748 -0.4796 -0.7379
vn 0.4560 -0.4786 -0.7503
vn 0.1677 -0.5270 -0.8332
vn 0.2995 -0.5116 -0.8053
vn 0.2398 -0.5954 -0.7668
vn 0.1025 -0.0920 -0.9905
vn 0.1261 -0.0901 -0.9879
vn 0.1416 -0.0235 -0.9896
vn 0.1279 0.2086 -0.9696
vn 0.1282 0.2089 -0.9695
vn 0.1200 0.1994 -0.9725
vn 0.1198 0.1991 -0.9726
vn 0.1111 -0.0203 -0.9936
vn 0.1247 -0.5180 0.8463
vn 0.1424 -0.5331 0.8340
vn 0.1704 -0.7174 0.6756
vn 0.5441 -0.5628 0.6222
vn 0.5426 -0.5774 0.6101
vn 0.4559 -0.4559 0.7644
vn 0.6763 -0.2337 0.6986
vn 0.6160 -0.1492 0.7735
vn 0.5694 -0.1205 0.8132
vn 0.7867 -0.0551 0.6148
vn 0.7195 0.0266 0.6940
vn 0.6368 0.0482 0.7695
vn 0.9570 -0.1408 -0.2536
vn 0.9035 0.3177 0.2875
vn 0.7760 0.3769 0.5056
vn 0.0953 -0.2025 0.9746
vn 0.3898 -0.0093 0.9208
vn 0.0861 -0.1606 0.9833
vn 0.8533 0.4870 -0.1865
vn 0.8393 0.5215 -0.1539
vn 0.8560 0.5002 -0.1307
vn 0.8347 0.5286 0.1545
vn 0.8254 0.5429 0.1547
vn 0.8215 0.5439 0.1713
vn 0.7504 0.4476 0.4864
vn 0.7366 0.4698 0.4865
vn 0.7254 0.4661 0.5065
vn 0.8346 0.0279 0.5501
vn 0.8346 0.0281 0.5501
vn 0.8348 0.0241 0.5500
vn 0.8375 0.0236 0.5459
vn 0.8376 0.0236 0.5457
vn 0.8344 -0.1321 0.5350
vn 0.8344 -0.1320 0.5351
vn 0.8339 -0.1367 0.5348
vn 0.8332 -0.1416 0.5345
vn 0.8361 -0.1566 0.5257
vn 0.7504 -0.4635 0.4712
vn 0.7401 -0.4755 0.4755
vn 0.7503 -0.4786 0.4560
vn 0.8446 -0.4986 0.1951
vn 0.8452 -0.4988 0.1919
vn 0.8446 -0.4986 0.1952
vn 0.8440 -0.4984 0.1983
vn 0.8358 -0.5209 0.1737
vn 0.8332 -0.5202 -0.1875
vn 0.8331 -0.5202 -0.1878
vn 0.8331 -0.5202 -0.1881
vn 0.7401 -0.4755 -0.4755
vn 0.7503 -0.4560 -0.4786
vn 0.7644 -0.4559 -0.4559
vn 0.8360 -0.1329 -0.5324
vn 0.8370 -0.1375 -0.5297
vn 0.8349 -0.1282 -0.5353
vn 0.8422 -0.1140 -0.5270
vn 0.8378 0.0255 -0.5454
vn 0.8379 0.0220 -0.5453
vn 0.8379 0.0222 -0.5454
vn 0.8378 0.0258 -0.5454
vn 0.8358 -0.0854 -0.5424
vn 0.8036 0.4712 -0.3636
vn 0.8339 0.3233 -0.4473
vn 0.8001 0.3214 -0.5065
vn 0.9706 -0.1663 0.1739
vn 0.9708 -0.1655 0.1739
vn 0.9705 -0.1672 0.1739
vn 0.9695 -0.1585 0.1868
vn 0.9840 -0.0102 0.1779
vn 0.9840 -0.0100 0.1779
vn 0.9840 -0.0103 0.1779
vn 0.9840 -0.0103 0.1776
vn 0.9841 -0.0104 0.1774
vn 0.9719 -0.1627 -0.1702
vn 0.9705 -0.1672 -0.1739
vn 0.9722 -0.1619 -0.1691
vn 0.9733 -0.1580 -0.1664
vn 0.9730 -0.1593 -0.1667
vn 0.9728 -0.1605 -0.1670
vn 0.9840 -0.0121 -0.1778
vn 0.9872 -0.0127 -0.1592
vn 0.9864 -0.0163 -0.1633
vn 0.9857 -0.0198 -0.1672
vn 0.9857 -0.0199 -0.1674
vn 0.1085 -0.2125 0.9711
vn -0.9840 0.0121 0.1776
vn -0.9841 0.0121 0.1774
vn -0.9706 0.1672 0.1730
vn -0.9708 0.1672 0.1721
vn -0.9840 0.0102 -0.1776
vn -0.9841 0.0102 -0.1774
vn -0.9841 0.0100 -0.1774
vn -0.9840 0.0100 -0.1776
vn -0.9708 0.1663 -0.1730
vn -0.9709 0.1664 -0.1721
vn -0.9711 0.1655 -0.1721
vn -0.9709 0.1655 -0.1730
vn -0.7774 -0.3687 0.5096
vn -0.8373 0.0954 0.5383
vn -0.8373 0.0957 0.5383
vn -0.8384 0.1362 0.5278
vn -0.8418 0.1313 0.5236
vn -0.8404 0.1402 0.5235
vn -0.8386 0.1411 0.5261
vn -0.7519 0.4775 0.4546
vn -0.8519 0.5031 0.1451
vn -0.8518 0.5037 0.1439
vn -0.8517 0.5036 0.1448
vn -0.8356 0.5221 -0.1711
vn -0.8355 0.5210 -0.1745
vn -0.8349 0.5226 -0.1727
vn -0.7644 0.4639 -0.4478
vn -0.8365 0.1370 -0.5306
vn -0.8391 0.1373 -0.5264
vn -0.8398 0.1324 -0.5266
vn -0.8371 0.1322 -0.5308
vn -0.8362 -0.0258 -0.5479
vn -0.8376 -0.0238 -0.5457
vn -0.8375 -0.0274 -0.5457
vn -0.8348 -0.0281 -0.5498
vn -0.7353 -0.4469 -0.5096
vn -0.8313 -0.5286 -0.1718
vn -0.8534 -0.4875 0.1846
vn -0.8534 -0.4875 0.1844
vn -0.8533 -0.4871 0.1863
vn -0.1264 0.2659 -0.9557
vn -0.9556 -0.1314 -0.2636
vn -0.6270 0.0191 -0.7788
vn -0.4868 0.3520 -0.7995
vn -0.4559 0.4990 -0.7370
vn -0.3004 0.5034 -0.8102
vn -0.1190 0.0425 0.9920
vn -0.1527 0.1393 0.9784
vn -0.1679 0.5277 0.8327
vn -0.4559 0.4559 0.7644
vn -0.5703 0.1682 0.8041
vn -0.6844 0.0579 0.7268
vn -0.6056 -0.0890 0.7908
vn -0.1321 -0.3781 0.9163
vn -0.9922 0.0662 -0.1056
vn -0.2546 -0.5629 0.7863
vn -0.4853 -0.6932 0.5328
vn -0.9026 -0.3219 0.2859
vn -0.9906 -0.1043 -0.0883
vn -0.1689 0.9708 -0.1705
vn -0.1707 0.9634 0.2067
vn -0.1678 0.8367 -0.5213
vn -0.4786 0.7503 -0.4560
vn -0.5509 0.8074 -0.2113
vn -0.5518 0.8059 -0.2147
vn -0.5500 0.8089 -0.2076
vn -0.5193 0.8302 0.2027
vn -0.5192 0.8301 0.2032
vn -0.4559 0.7644 0.4559
vn -0.1678 0.8367 0.5213
vn -0.1677 0.8367 0.5213
vn -0.2845 0.8887 0.3595
vn -0.1440 0.8401 0.5230
vn -0.4560 0.7503 0.4786
vn -0.4755 0.7401 0.4755
vn -0.4786 0.7503 0.4560
vn -0.5193 0.8303 0.2022
vn -0.5214 0.8367 0.1678
vn -0.5214 0.8367 0.1677
vn -0.5214 0.8367 -0.1678
vn -0.5151 0.8188 -0.2533
vn -0.5518 0.8058 -0.2149
vn -0.4755 0.7401 -0.4755
vn -0.4560 0.7503 -0.4786
vn -0.4559 0.7644 -0.4559
vn -0.1441 0.8401 -0.5230
vn -0.2846 0.8887 -0.3595
vn -0.1677 0.8367 -0.5213
vn -0.1464 0.9680 0.2039
vn -0.1447 0.9749 0.1692
vn -0.1689 0.9708 0.1705
vn -0.1447 0.9749 -0.1692
vn -0.1464 0.9556 -0.2559
vn -0.1707 0.9503 -0.2604
vn -0.8884 -0.4373 -0.1400
vn -0.8847 -0.4445 -0.1405
vn -0.8845 -0.4449 -0.1406
vn -0.8886 -0.4368 -0.1400
vn -0.9949 -0.0595 -0.0814
vn -0.7599 -0.6144 0.2123
vn -0.7876 -0.5773 0.2155
vn -0.9303 -0.2171 0.2956
vn -0.3496 -0.8564 0.3800
vn -0.6170 -0.6714 0.4105
vn -0.6709 -0.1349 0.7291
vn -0.1484 -0.7528 0.6413
vn -0.1456 -0.3553 0.9233
vn -0.2791 -0.5623 0.7784
vn -0.8569 -0.3182 -0.4055
vn -0.9248 -0.1533 -0.3483
vn -0.9095 0.4011 0.1088
vn -0.1253 -0.3417 0.9314
vn -0.1127 -0.3499 0.9300
vn -0.1190 -0.3850 0.9152
vn -0.5413 -0.3972 0.7411
vn -0.2594 -0.4121 0.8734
vn -0.3372 -0.1913 0.9218
vn -0.5598 -0.1420 0.8164
vn -0.5436 -0.2277 0.8079
vn -0.6862 -0.0546 0.7253
vn -0.6841 0.1854 0.7054
vn -0.6641 0.3086 0.6809
vn -0.5618 0.2680 0.7827
vn -0.4830 0.4243 0.7660
vn -0.4829 0.4463 0.7534
vn -0.4589 0.4805 0.7473
vn -0.1686 0.4840 0.8587
vn -0.2949 0.4725 0.8305
vn -0.3110 0.5105 0.8017
vn -0.1265 0.1172 0.9850
vn -0.2370 0.2096 0.9486
vn -0.1639 0.1087 0.9805
vn -0.1282 -0.2089 0.9695
vn -0.1164 -0.1990 0.9731
vn -0.2162 -0.0797 0.9731
vn -0.1739 0.4137 -0.8936
vn -0.1397 0.5141 -0.8463
vn -0.1596 0.5349 -0.8297
vn -0.4755 0.4755 -0.7401
vn -0.4786 0.4560 -0.7503
vn -0.4560 0.4810 -0.7488
vn -0.6770 0.2844 -0.6788
vn -0.6350 0.1237 -0.7626
vn -0.5921 0.1962 -0.7816
vn -0.8008 0.0610 -0.5958
vn -0.7195 -0.0266 -0.6940
vn -0.6368 -0.0482 -0.7695
vn -0.8959 0.2122 0.3903
vn -0.9035 -0.3177 -0.2875
vn -0.7760 -0.3769 -0.5056
vn -0.1533 0.5226 -0.8387
vn -0.3833 0.0718 -0.9208
vn -0.0772 0.1729 -0.9819
vn -0.8533 -0.4870 0.1865
vn -0.8377 -0.5252 0.1500
vn -0.8562 -0.5012 0.1254
vn -0.8347 -0.5286 -0.1545
vn -0.8254 -0.5429 -0.1547
vn -0.8215 -0.5439 -0.1713
vn -0.7504 -0.4476 -0.4864
vn -0.7366 -0.4698 -0.4865
vn -0.7254 -0.4661 -0.5065
vn -0.8346 -0.0279 -0.5501
vn -0.8346 -0.0281 -0.5501
vn -0.8348 -0.0241 -0.5500
vn -0.8375 -0.0236 -0.5459
vn -0.8376 -0.0236 -0.5457
vn -0.8344 0.1321 -0.5351
vn -0.8344 0.1320 -0.5351
vn -0.8332 0.1416 -0.5345
vn -0.8383 0.1422 -0.5264
vn -0.8384 0.1422 -0.5262
vn -0.7504 0.4645 -0.4702
vn -0.7322 0.4899 -0.4731
vn -0.7503 0.4786 -0.4560
vn -0.8355 0.5227 -0.1694
vn -0.8344 0.5240 -0.1710
vn -0.8367 0.5214 -0.1678
vn -0.8461 0.4961 -0.1948
vn -0.8520 0.5029 0.1457
vn -0.8516 0.5036 0.1457
vn -0.8524 0.5021 0.1458
vn -0.8280 0.5310 0.1801
vn -0.7425 0.4737 0.4737
vn -0.7541 0.4471 0.4811
vn -0.7644 0.4559 0.4559
vn -0.8345 0.1321 0.5350
vn -0.8368 0.1420 0.5288
vn -0.8344 0.1320 0.5351
vn -0.8381 0.1315 0.5294
vn -0.8418 0.1311 0.5236
vn -0.8380 -0.0258 0.5451
vn -0.8352 -0.0189 0.5496
vn -0.8351 -0.0185 0.5498
vn -0.8381 -0.0262 0.5448
vn -0.8374 0.0952 0.5383
vn -0.8027 -0.4799 0.3541
vn -0.8339 -0.3233 0.4473
vn -0.7985 -0.3101 0.5160
vn -0.9706 0.1663 -0.1739
vn -0.9708 0.1655 -0.1739
vn -0.9705 0.1672 -0.1739
vn -0.9706 0.1672 -0.1730
vn -0.9708 0.1672 -0.1721
vn -0.9840 0.0102 -0.1779
vn -0.9840 0.0100 -0.1779
vn -0.9840 0.0103 -0.1779
vn -0.9840 0.0103 -0.1776
vn -0.9841 0.0104 -0.1774
vn -0.9705 0.1672 0.1739
vn -0.9708 0.1655 0.1739
vn -0.9724 0.1613 0.1687
vn -0.9724 0.1613 0.1686
vn -0.9740 0.1571 0.1634
vn -0.9840 0.0121 0.1778
vn -0.9875 0.0128 0.1574
vn -0.9859 0.0206 0.1660
vn -0.9867 0.0168 0.1619
vn -0.9859 0.0208 0.1663
vn -0.0335 0.8020 -0.5964
vn -0.5994 0.4485 0.6629
vn -0.0887 0.9809 0.1730
vn 0.1647 0.9804 -0.1086
vn -0.8257 0.1739 0.5366
vn -0.0192 0.9921 0.1237
vn -0.0808 0.9946 0.0659
vn -0.7183 0.2722 0.6402
vn -0.3056 0.8059 0.5071
vn 0.1179 0.9757 -0.1848
vn 0.0388 0.9126 0.4070
vn 0.3058 0.9049 0.2961
vn -0.9853 -0.0142 -0.1704
vn -0.9841 -0.0121 -0.1773
vn -0.9841 -0.0121 -0.1774
vn -0.9840 -0.0121 -0.1776
vn -0.9725 -0.1597 -0.1698
vn -0.9728 -0.1603 -0.1671
vn -0.9732 -0.1529 -0.1720
vn -0.9840 -0.0102 0.1776
vn -0.9841 -0.0102 0.1774
vn -0.9841 -0.0100 0.1774
vn -0.9840 -0.0100 0.1776
vn -0.9704 -0.1680 0.1733
vn -0.9701 -0.1713 0.1722
vn -0.9704 -0.1683 0.1730
vn -0.7774 0.3687 -0.5097
vn -0.8397 -0.0855 -0.5362
vn -0.8359 -0.0854 -0.5422
vn -0.8398 -0.0855 -0.5361
vn -0.8422 -0.1141 -0.5269
vn -0.8425 -0.1179 -0.5256
vn -0.8429 -0.1220 -0.5241
vn -0.7503 -0.4786 -0.4560
vn -0.8367 -0.5214 -0.1678
vn -0.8367 -0.5214 -0.1677
vn -0.8269 -0.5182 0.2184
vn -0.7644 -0.4559 0.4559
vn -0.8426 -0.1401 0.5200
vn -0.8362 0.0258 0.5479
vn -0.8376 0.0238 0.5457
vn -0.8375 0.0274 0.5457
vn -0.8348 0.0281 0.5498
vn -0.7353 0.4469 0.5096
vn -0.8313 0.5286 0.1718
vn -0.8534 0.4875 -0.1846
vn -0.8534 0.4875 -0.1844
vn -0.8533 0.4870 -0.1864
vn -0.0839 -0.2075 0.9746
vn -0.0826 -0.2080 0.9746
vn -0.0950 -0.2026 0.9746
vn -0.9316 0.1637 0.3246
vn -0.6175 -0.0196 0.7863
vn -0.5814 -0.1933 0.7903
vn -0.5546 -0.5433 0.6303
vn -0.1513 -0.7157 0.6818
vn -0.1190 -0.0146 -0.9928
vn -0.1115 -0.0200 -0.9936
vn -0.1194 -0.0143 -0.9927
vn -0.1226 -0.0832 -0.9890
vn -0.1677 -0.5241 -0.8350
vn -0.1677 -0.5213 -0.8367
vn -0.1677 -0.5214 -0.8367
vn -0.4559 -0.4559 -0.7644
vn -0.5784 -0.1260 -0.8059
vn -0.6853 -0.0383 -0.7272
vn -0.4730 0.2461 -0.8460
vn -0.1315 0.3419 -0.9305
vn -0.1272 0.3456 -0.9297
vn -0.1317 0.3418 -0.9305
vn -0.9894 0.0002 0.1453
vn -0.1466 0.3757 -0.9151
vn -0.3420 0.6692 -0.6597
vn -0.8448 0.4248 -0.3253
vn -0.9838 0.1517 0.0954
vn -0.1689 -0.9708 0.1705
vn -0.1697 -0.9706 -0.1705
vn -0.1705 -0.9705 -0.1705
vn -0.1678 -0.8367 0.5213
vn -0.4786 -0.7503 0.4560
vn -0.5223 -0.8358 0.1691
vn -0.5233 -0.8349 0.1704
vn -0.5344 -0.8249 -0.1843
vn -0.4559 -0.7644 -0.4559
vn -0.1677 -0.8356 -0.5231
vn -0.1677 -0.8356 -0.5232
vn -0.1677 -0.8367 -0.5213
vn -0.1490 -0.8385 -0.5241
vn -0.1491 -0.8394 -0.5227
vn -0.1489 -0.8377 -0.5255
vn -0.1677 -0.8345 -0.5249
vn -0.4560 -0.7503 -0.4786
vn -0.4746 -0.7371 -0.4810
vn -0.4815 -0.7457 -0.4604
vn -0.5213 -0.8367 -0.1678
vn -0.5214 -0.8367 -0.1678
vn -0.5214 -0.8367 -0.1677
vn -0.5214 -0.8367 0.1678
vn -0.5161 -0.8213 0.2431
vn -0.5176 -0.8205 0.2426
vn -0.5177 -0.8205 0.2425
vn -0.5192 -0.8197 0.2420
vn -0.4755 -0.7401 0.4755
vn -0.4560 -0.7503 0.4786
vn -0.4559 -0.7644 0.4559
vn -0.1494 -0.8393 0.5227
vn -0.1497 -0.8393 0.5227
vn -0.1491 -0.8394 0.5227
vn -0.1677 -0.8367 0.5213
vn -0.1507 -0.9740 -0.1692
vn -0.1512 -0.9739 -0.1692
vn -0.1502 -0.9741 -0.1692
vn -0.1689 -0.9708 -0.1705
vn -0.1502 -0.9741 0.1692
vn -0.1521 -0.9574 0.2454
vn -0.1707 -0.9532 0.2496
vn -0.8884 0.4373 0.1400
vn -0.8847 0.4445 0.1405
vn -0.8845 0.4449 0.1406
vn -0.8886 0.4368 0.1400
vn -0.9897 0.1119 0.0894
vn -0.7599 0.6144 -0.2123
vn -0.7876 0.5773 -0.2155
vn -0.9182 0.2685 -0.2913
vn -0.4850 0.6979 -0.5270
vn -0.6882 0.6376 -0.3462
vn -0.5568 0.5690 -0.6051
vn -0.2654 0.5844 -0.7668
vn -0.3309 0.6269 -0.7054
vn -0.1653 0.7010 -0.6938
vn -0.8569 0.3182 0.4055
vn -0.9248 0.1533 0.3483
vn -0.9459 -0.3198 -0.0543
vn -0.1266 0.3740 -0.9187
vn -0.1180 0.3807 -0.9171
vn -0.1268 0.3738 -0.9188
vn -0.1178 0.3808 -0.9171
vn -0.1226 0.3496 -0.9288
vn -0.4067 0.2356 -0.8827
vn -0.3935 0.3268 -0.8593
vn -0.4583 0.2956 -0.8382
vn -0.5489 0.1340 -0.8251
vn -0.5436 0.2277 -0.8079
vn -0.6857 0.0744 -0.7241
vn -0.6844 -0.1831 -0.7057
vn -0.6813 -0.2896 -0.6723
vn -0.5797 -0.2619 -0.7716
vn -0.4805 -0.4589 -0.7474
vn -0.4748 -0.4796 -0.7379
vn -0.4560 -0.4786 -0.7503
vn -0.1677 -0.5270 -0.8332
vn -0.2995 -0.5116 -0.8053
vn -0.2398 -0.5954 -0.7668
vn -0.1025 -0.0920 -0.9905
vn -0.1261 -0.0901 -0.9879
vn -0.1416 -0.0235 -0.9896
vn -0.1279 0.2086 -0.9696
vn -0.1200 0.1994 -0.9725
vn -0.1282 0.2089 -0.9695
vn -0.1198 0.1991 -0.9726
vn -0.1111 -0.0203 -0.9936
vn -0.1247 -0.5180 0.8463
vn -0.1424 -0.5331 0.8340
vn -0.1704 -0.7174 0.6756
vn -0.5441 -0.5628 0.6222
vn -0.5426 -0.5774 0.6101
vn -0.4559 -0.4559 0.7644
vn -0.6763 -0.2337 0.6986
vn -0.6160 -0.1492 0.7735
vn -0.5694 -0.1205 0.8132
vn -0.7867 -0.0551 0.6148
vn -0.7195 0.0266 0.6940
vn -0.6368 0.0482 0.7695
vn -0.9570 -0.1408 -0.2536
vn -0.9035 0.3177 0.2875
vn -0.7760 0.3769 0.5056
vn -0.0953 -0.2025 0.9746
vn -0.3898 -0.0093 0.9208
vn -0.0861 -0.1606 0.9833
vn -0.8533 0.4870 -0.1865
vn -0.8393 0.5215 -0.1539
vn -0.8560 0.5002 -0.1307
vn -0.8347 0.5286 0.1545
vn -0.8254 0.5429 0.1547
vn -0.8215 0.5439 0.1713
vn -0.7504 0.4476 0.4864
vn -0.7366 0.4698 0.4865
vn -0.7254 0.4661 0.5065
vn -0.8346 0.0279 0.5501
vn -0.8346 0.0281 0.5501
vn -0.8348 0.0241 0.5500
vn -0.8375 0.0236 0.5459
vn -0.8376 0.0236 0.5457
vn -0.8344 -0.1322 0.5350
vn -0.8339 -0.1367 0.5348
vn -0.8344 -0.1320 0.5351
vn -0.8332 -0.1416 0.5345
vn -0.8361 -0.1566 0.5257
vn -0.7504 -0.4635 0.4712
vn -0.7401 -0.4755 0.4755
vn -0.7503 -0.4786 0.4560
vn -0.8446 -0.4986 0.1951
vn -0.8446 -0.4986 0.1952
vn -0.8452 -0.4988 0.1919
vn -0.8440 -0.4984 0.1983
vn -0.8358 -0.5209 0.1737
vn -0.8332 -0.5202 -0.1875
vn -0.8331 -0.5202 -0.1878
vn -0.8331 -0.5202 -0.1881
vn -0.7401 -0.4755 -0.4755
vn -0.7503 -0.4560 -0.4786
vn -0.7644 -0.4559 -0.4559
vn -0.8360 -0.1329 -0.5324
vn -0.8370 -0.1375 -0.5297
vn -0.8349 -0.1282 -0.5353
vn -0.8422 -0.1140 -0.5270
vn -0.8378 0.0255 -0.5454
vn -0.8379 0.0222 -0.5454
vn -0.8379 0.0220 -0.5453
vn -0.8378 0.0258 -0.5454
vn -0.8358 -0.0854 -0.5424
vn -0.8036 0.4712 -0.3636
vn -0.8339 0.3233 -0.4473
vn -0.8001 0.3214 -0.5065
vn -0.9706 -0.1663 0.1739
vn -0.9708 -0.1655 0.1739
vn -0.9705 -0.1672 0.1739
vn -0.9695 -0.1585 0.1868
vn -0.9840 -0.0102 0.1779
vn -0.9840 -0.0100 0.1779
vn -0.9840 -0.0103 0.1779
vn -0.9840 -0.0103 0.1776
vn -0.9841 -0.0104 0.1774
vn -0.9719 -0.1627 -0.1702
vn -0.9705 -0.1672 -0.1739
vn -0.9733 -0.1580 -0.1664
vn -0.9730 -0.1593 -0.1667
vn -0.9728 -0.1605 -0.1670
vn -0.9840 -0.0121 -0.1778
vn -0.9872 -0.0127 -0.1592
vn -0.9857 -0.0198 -0.1672
vn -0.9857 -0.0199 -0.1674
vn -0.1085 -0.2125 0.9711
vn 0.9840 0.0121 0.1776
vn 0.9841 0.0121 0.1774
vn 0.9724 0.1621 0.1677
vn 0.9708 0.1672 0.1721
vn 0.9840 0.0102 -0.1776
vn 0.9840 0.0100 -0.1776
vn 0.9841 0.0100 -0.1774
vn 0.9841 0.0102 -0.1774
vn 0.9708 0.1663 -0.1730
vn 0.9709 0.1655 -0.1730
vn 0.9711 0.1655 -0.1721
vn 0.9709 0.1664 -0.1721
vn 0.7774 -0.3687 0.5096
vn 0.8373 0.0954 0.5383
vn 0.8373 0.0957 0.5383
vn 0.8384 0.1362 0.5278
vn 0.8386 0.1411 0.5261
vn 0.8404 0.1402 0.5235
vn 0.8418 0.1313 0.5236
vn 0.7519 0.4775 0.4546
vn 0.8519 0.5031 0.1451
vn 0.8517 0.5036 0.1448
vn 0.8518 0.5037 0.1439
vn 0.8356 0.5221 -0.1711
vn 0.8349 0.5226 -0.1727
vn 0.8355 0.5210 -0.1745
vn 0.7644 0.4639 -0.4478
vn 0.8365 0.1370 -0.5306
vn 0.8371 0.1322 -0.5308
vn 0.8398 0.1324 -0.5266
vn 0.8391 0.1373 -0.5264
vn 0.8362 -0.0258 -0.5479
vn 0.8348 -0.0281 -0.5499
vn 0.8375 -0.0274 -0.5457
vn 0.8376 -0.0238 -0.5457
vn 0.7353 -0.4469 -0.5096
vn 0.8313 -0.5286 -0.1718
vn 0.8534 -0.4875 0.1846
vn 0.8533 -0.4870 0.1864
vn 0.8534 -0.4875 0.1844
vn 0.1264 0.2659 -0.9557
vn 0.9556 -0.1314 -0.2636
vn 0.6270 0.0191 -0.7788
vn 0.4174 0.4260 -0.8027
vn 0.4559 0.4990 -0.7370
vn 0.3004 0.5034 -0.8102
vn 0.1190 0.0425 0.9920
vn 0.1527 0.1393 0.9784
vn 0.1679 0.5277 0.8327
vn 0.4559 0.4559 0.7644
vn 0.5703 0.1682 0.8041
vn 0.6844 0.0579 0.7268
vn 0.6056 -0.0890 0.7908
vn 0.1321 -0.3781 0.9163
vn 0.9922 0.0662 -0.1056
vn 0.2546 -0.5629 0.7863
vn 0.4853 -0.6932 0.5328
vn 0.9026 -0.3219 0.2859
vn 0.9906 -0.1043 -0.0883
vn 0.1689 0.9708 -0.1705
vn 0.1707 0.9634 0.2067
vn 0.1678 0.8367 -0.5213
vn 0.4786 0.7503 -0.4560
vn 0.5509 0.8074 -0.2113
vn 0.5500 0.8089 -0.2076
vn 0.5518 0.8059 -0.2148
vn 0.5193 0.8302 0.2027
vn 0.5192 0.8301 0.2032
vn 0.4559 0.7644 0.4559
vn 0.1678 0.8367 0.5213
vn 0.1677 0.8367 0.5213
vn 0.2845 0.8887 0.3595
vn 0.1440 0.8401 0.5230
vn 0.4560 0.7503 0.4786
vn 0.4755 0.7401 0.4755
vn 0.4786 0.7503 0.4560
vn 0.5193 0.8303 0.2022
vn 0.5214 0.8367 0.1678
vn 0.5214 0.8367 0.1677
vn 0.5214 0.8367 -0.1678
vn 0.5151 0.8188 -0.2533
vn 0.5518 0.8058 -0.2149
vn 0.4755 0.7401 -0.4755
vn 0.4560 0.7503 -0.4786
vn 0.4559 0.7644 -0.4559
vn 0.1441 0.8401 -0.5230
vn 0.2846 0.8887 -0.3595
vn 0.1677 0.8367 -0.5213
vn 0.1464 0.9680 0.2039
vn 0.1447 0.9749 0.1692
vn 0.1689 0.9708 0.1705
vn 0.1447 0.9749 -0.1692
vn 0.1464 0.9556 -0.2559
vn 0.1707 0.9503 -0.2604
vn 0.8884 -0.4373 -0.1400
vn 0.8845 -0.4449 -0.1406
vn 0.8847 -0.4445 -0.1405
vn 0.8886 -0.4368 -0.1400
vn 0.9949 -0.0595 -0.0814
vn 0.7599 -0.6144 0.2123
vn 0.7876 -0.5773 0.2155
vn 0.9303 -0.2171 0.2956
vn 0.3496 -0.8564 0.3800
vn 0.6170 -0.6714 0.4105
vn 0.6709 -0.1349 0.7291
vn 0.1484 -0.7528 0.6413
vn 0.1456 -0.3553 0.9233
vn 0.2791 -0.5623 0.7784
vn 0.8569 -0.3182 -0.4055
vn 0.9248 -0.1533 -0.3483
vn 0.9095 0.4011 0.1088
vn 0.1253 -0.3417 0.9314
vn 0.1127 -0.3499 0.9300
vn 0.1190 -0.3850 0.9152
vn 0.5413 -0.3972 0.7411
vn 0.2594 -0.4121 0.8734
vn 0.3372 -0.1913 0.9218
vn 0.5598 -0.1420 0.8164
vn 0.5436 -0.2277 0.8079
vn 0.6862 -0.0546 0.7253
vn 0.6841 0.1854 0.7054
vn 0.6641 0.3086 0.6809
vn 0.5618 0.2680 0.7827
vn 0.4830 0.4243 0.7660
vn 0.4829 0.4463 0.7534
vn 0.4589 0.4805 0.7473
vn 0.1686 0.4840 0.8587
vn 0.2949 0.4725 0.8305
vn 0.3110 0.5105 0.8017
vn 0.1265 0.1172 0.9850
vn 0.2370 0.2096 0.9486
vn 0.1639 0.1087 0.9805
vn 0.1282 -0.2089 0.9695
vn 0.1164 -0.1990 0.9731
vn 0.2162 -0.0797 0.9731
vn 0.1739 0.4137 -0.8936
vn 0.1397 0.5141 -0.8463
vn 0.1596 0.5349 -0.8297
vn 0.4755 0.4755 -0.7401
vn 0.4786 0.4560 -0.7503
vn 0.4560 0.4810 -0.7488
vn 0.5827 0.1605 -0.7967
vn 0.6566 0.0930 -0.7484
vn 0.6417 0.2713 -0.7174
vn 0.8008 0.0610 -0.5958
vn 0.7195 -0.0266 -0.6940
vn 0.6368 -0.0482 -0.7695
vn 0.8959 0.2122 0.3903
vn 0.9035 -0.3177 -0.2875
vn 0.7760 -0.3769 -0.5056
vn 0.1533 0.5226 -0.8387
vn 0.3814 0.0807 -0.9209
vn 0.0775 0.1725 -0.9820
vn 0.8533 -0.4870 0.1865
vn 0.8377 -0.5252 0.1500
vn 0.8562 -0.5012 0.1254
vn 0.8347 -0.5286 -0.1545
vn 0.8254 -0.5429 -0.1547
vn 0.8215 -0.5439 -0.1713
vn 0.7504 -0.4476 -0.4864
vn 0.7366 -0.4698 -0.4865
vn 0.7254 -0.4661 -0.5065
vn 0.8346 -0.0280 -0.5501
vn 0.8346 -0.0281 -0.5501
vn 0.8348 -0.0241 -0.5500
vn 0.8375 -0.0236 -0.5459
vn 0.8376 -0.0236 -0.5457
vn 0.8344 0.1321 -0.5350
vn 0.8344 0.1320 -0.5351
vn 0.8332 0.1416 -0.5345
vn 0.8383 0.1422 -0.5264
vn 0.8384 0.1422 -0.5262
vn 0.7504 0.4645 -0.4702
vn 0.7322 0.4899 -0.4731
vn 0.7503 0.4786 -0.4560
vn 0.8355 0.5227 -0.1694
vn 0.8344 0.5240 -0.1710
vn 0.8367 0.5214 -0.1678
vn 0.8461 0.4961 -0.1948
vn 0.8520 0.5029 0.1457
vn 0.8516 0.5036 0.1457
vn 0.8524 0.5021 0.1458
vn 0.8280 0.5310 0.1801
vn 0.7425 0.4737 0.4737
vn 0.7541 0.4471 0.4811
vn 0.7644 0.4559 0.4559
vn 0.8345 0.1321 0.5350
vn 0.8368 0.1420 0.5288
vn 0.8344 0.1320 0.5351
vn 0.8381 0.1315 0.5294
vn 0.8418 0.1311 0.5236
vn 0.8380 -0.0258 0.5451
vn 0.8351 -0.0185 0.5498
vn 0.8352 -0.0189 0.5496
vn 0.8381 -0.0262 0.5448
vn 0.8374 0.0952 0.5383
vn 0.8027 -0.4799 0.3541
vn 0.8339 -0.3233 0.4473
vn 0.7985 -0.3101 0.5160
vn 0.9706 0.1663 -0.1739
vn 0.9708 0.1655 -0.1739
vn 0.9705 0.1672 -0.1739
vn 0.9706 0.1672 -0.1730
vn 0.9708 0.1672 -0.1721
vn 0.9840 0.0102 -0.1779
vn 0.9840 0.0100 -0.1779
vn 0.9840 0.0103 -0.1779
vn 0.9840 0.0103 -0.1776
vn 0.9841 0.0104 -0.1774
vn 0.9706 0.1663 0.1739
vn 0.9705 0.1672 0.1739
vn 0.9708 0.1655 0.1739
vn 0.9740 0.1571 0.1634
vn 0.9840 0.0121 0.1778
vn 0.9875 0.0128 0.1574
vn 0.9867 0.0168 0.1619
vn 0.9859 0.0206 0.1660
vn 0.9859 0.0208 0.1663
vn 0.0358 0.8059 -0.5910
vn 0.5994 0.4485 0.6629
vn 0.0887 0.9809 0.1730
vn -0.1647 0.9804 -0.1086
vn 0.8257 0.1739 0.5366
vn 0.0192 0.9921 0.1237
vn 0.0808 0.9946 0.0659
vn 0.7183 0.2722 0.6402
vn 0.3056 0.8059 0.5071
vn -0.1179 0.9757 -0.1848
vn -0.0388 0.9126 0.4070
vn -0.3058 0.9049 0.2961
vt 0.742688 0.296130
vt 0.714965 0.286379
vt 0.728876 0.249751
vt 0.757254 0.260409
vt 0.768584 0.232721
vt 0.740878 0.221607
vt 0.754130 0.191871
vt 0.780464 0.203240
vt 0.687773 0.274273
vt 0.660504 0.261183
vt 0.673377 0.223397
vt 0.701050 0.237105
vt 0.713654 0.209127
vt 0.686392 0.195714
vt 0.702033 0.169748
vt 0.728244 0.182114
vt 0.787752 0.376127
vt 0.764063 0.371816
vt 0.763966 0.344113
vt 0.789784 0.350781
vt 0.806300 0.317300
vt 0.778715 0.309363
vt 0.785769 0.270290
vt 0.814564 0.278888
vt 0.824173 0.249960
vt 0.796333 0.241192
vt 0.808297 0.216375
vt 0.834148 0.223938
vt 0.841555 0.201079
vt 0.819745 0.191693
vt 0.830748 0.166725
vt 0.848536 0.177895
vt 0.792750 0.177561
vt 0.767140 0.165761
vt 0.780528 0.139737
vt 0.805105 0.151699
vt 0.741888 0.154430
vt 0.715460 0.144751
vt 0.730231 0.120343
vt 0.756098 0.128956
vt 0.694352 0.133746
vt 0.673069 0.122279
vt 0.690573 0.107083
vt 0.710466 0.113482
vt 0.661605 0.180087
vt 0.637091 0.162562
vt 0.655449 0.138180
vt 0.678926 0.154567
vt 0.634223 0.247689
vt 0.608085 0.233035
vt 0.621395 0.190740
vt 0.647119 0.207942
vt 0.617963 0.314500
vt 0.595919 0.301100
vt 0.600297 0.276581
vt 0.625680 0.289001
vt 0.669267 0.342913
vt 0.639895 0.327187
vt 0.651066 0.300143
vt 0.676549 0.312924
vt 0.727225 0.363508
vt 0.699929 0.355645
vt 0.702428 0.324113
vt 0.728966 0.332966
vt 0.611376 0.062291
vt 0.603305 0.023087
vt 0.632790 0.013384
vt 0.635541 0.049180
vt 0.582765 0.301091
vt 0.575925 0.302894
vt 0.571137 0.269418
vt 0.582093 0.271838
vt 0.589258 0.218741
vt 0.577645 0.208022
vt 0.606695 0.128706
vt 0.605802 0.164719
vt 0.619835 0.136389
vt 0.618473 0.099796
vt 0.636853 0.081491
vt 0.648403 0.107422
vt 0.665052 0.099206
vt 0.665682 0.070187
vt 0.686923 0.064241
vt 0.688626 0.085857
vt 0.664322 0.040068
vt 0.661499 0.006020
vt 0.681871 0.002896
vt 0.685155 0.035549
vt 0.917893 0.349455
vt 0.879355 0.337004
vt 0.882160 0.294974
vt 0.925992 0.302671
vt 0.938139 0.265694
vt 0.900863 0.265763
vt 0.916169 0.234288
vt 0.946542 0.230967
vt 0.939910 0.194646
vt 0.911577 0.202479
vt 0.903906 0.172120
vt 0.929265 0.160242
vt 0.887282 0.206734
vt 0.863460 0.210863
vt 0.865835 0.189836
vt 0.884782 0.181032
vt 0.875604 0.260332
vt 0.851742 0.257401
vt 0.860093 0.231710
vt 0.888167 0.233262
vt 0.856364 0.330514
vt 0.833735 0.323797
vt 0.843033 0.286127
vt 0.862696 0.290636
vt 0.833907 0.390462
vt 0.811809 0.378668
vt 0.816505 0.356970
vt 0.842529 0.367321
vt 0.887833 0.418552
vt 0.856081 0.401216
vt 0.869071 0.377262
vt 0.902488 0.392443
vt 0.602621 0.349607
vt 0.622020 0.369859
vt 0.620833 0.385555
vt 0.600898 0.360757
vt 0.856410 0.460476
vt 0.872382 0.443099
vt 0.904682 0.464315
vt 0.893770 0.481285
vt 0.802368 0.422646
vt 0.823897 0.412895
vt 0.841983 0.424172
vt 0.813561 0.441932
vt 0.728254 0.418893
vt 0.770439 0.428493
vt 0.783177 0.449329
vt 0.733483 0.441457
vt 0.653626 0.388070
vt 0.687517 0.404456
vt 0.680868 0.419723
vt 0.649726 0.403234
vt 0.787951 0.045146
vt 0.822634 0.058068
vt 0.808008 0.086902
vt 0.778047 0.074714
vt 0.854709 0.077169
vt 0.884525 0.100034
vt 0.863115 0.121409
vt 0.836484 0.102434
vt 0.719037 0.034512
vt 0.753434 0.036487
vt 0.747844 0.066476
vt 0.717329 0.064165
vt 0.713830 0.089053
vt 0.738696 0.093547
vt 0.766497 0.101822
vt 0.794212 0.113209
vt 0.820708 0.127324
vt 0.846192 0.143346
vt 0.866999 0.162394
vt 0.909763 0.129814
vt 0.885826 0.146574
vt 0.937678 0.110007
vt 0.958491 0.146096
vt 0.908755 0.075411
vt 0.719884 0.000148
vt 0.759261 0.002526
vt 0.875751 0.047480
vt 0.838710 0.025721
vt 0.798999 0.010445
vt 0.663511 0.373550
vt 0.699019 0.388481
vt 0.629711 0.355287
vt 0.727809 0.394116
vt 0.755931 0.397682
vt 0.786726 0.401694
vt 0.807224 0.401018
vt 0.836702 0.479444
vt 0.880464 0.499852
vt 0.610955 0.340643
vt 0.593469 0.325443
vt 0.585131 0.329121
vt 0.580329 0.335759
vt 0.921684 0.438265
vt 0.938444 0.409799
vt 0.980456 0.215310
vt 0.970469 0.174467
vt 0.974913 0.312350
vt 0.981157 0.255321
vt 0.959580 0.364016
vt 0.587620 0.089447
vt 0.571137 0.032799
vt 0.391695 0.444970
vt 0.393955 0.412176
vt 0.421243 0.406212
vt 0.419345 0.440359
vt 0.394750 0.387291
vt 0.393921 0.363118
vt 0.416763 0.353949
vt 0.420906 0.379891
vt 0.446957 0.432306
vt 0.448081 0.396380
vt 0.473992 0.383978
vt 0.474242 0.422263
vt 0.445463 0.368754
vt 0.439872 0.342383
vt 0.462181 0.328462
vt 0.469361 0.355171
vt 0.307310 0.493490
vt 0.321525 0.475479
vt 0.348589 0.478847
vt 0.332640 0.499469
vt 0.326800 0.445741
vt 0.339691 0.416078
vt 0.366924 0.415924
vt 0.353333 0.448163
vt 0.343633 0.394037
vt 0.348518 0.369772
vt 0.370529 0.367585
vt 0.368994 0.392661
vt 0.347853 0.352780
vt 0.348403 0.334586
vt 0.363426 0.328046
vt 0.368543 0.346954
vt 0.390199 0.338617
vt 0.384194 0.316932
vt 0.403004 0.306246
vt 0.411539 0.330364
vt 0.432146 0.318229
vt 0.422284 0.295815
vt 0.440507 0.283112
vt 0.452267 0.304783
vt 0.468449 0.289632
vt 0.454527 0.272260
vt 0.468204 0.260399
vt 0.484751 0.271723
vt 0.491527 0.337818
vt 0.480480 0.309562
vt 0.499186 0.286806
vt 0.511294 0.316664
vt 0.499930 0.410892
vt 0.498113 0.368635
vt 0.520799 0.350322
vt 0.524861 0.397832
vt 0.493797 0.476949
vt 0.495542 0.452215
vt 0.521385 0.442808
vt 0.517644 0.467198
vt 0.437817 0.496286
vt 0.442624 0.468713
vt 0.469611 0.459952
vt 0.470349 0.486155
vt 0.374442 0.503261
vt 0.387201 0.477948
vt 0.414955 0.474808
vt 0.404047 0.502257
vt 0.495708 0.164499
vt 0.475841 0.168747
vt 0.443254 0.129548
vt 0.453434 0.119419
vt 0.529098 0.469252
vt 0.538789 0.440263
vt 0.548251 0.439305
vt 0.533867 0.472341
vt 0.543014 0.384645
vt 0.534799 0.319883
vt 0.528649 0.252456
vt 0.553267 0.375055
vt 0.517688 0.263581
vt 0.508874 0.251186
vt 0.500832 0.209220
vt 0.521204 0.220878
vt 0.484977 0.242680
vt 0.463132 0.237609
vt 0.454339 0.215072
vt 0.477397 0.211414
vt 0.457264 0.177992
vt 0.438042 0.187652
vt 0.410412 0.162200
vt 0.423725 0.148967
vt 0.222925 0.409138
vt 0.246621 0.385724
vt 0.280021 0.403500
vt 0.257045 0.427022
vt 0.256331 0.363823
vt 0.267976 0.341061
vt 0.286150 0.354155
vt 0.281980 0.379481
vt 0.281527 0.325625
vt 0.297002 0.308137
vt 0.311125 0.321140
vt 0.297621 0.338728
vt 0.313372 0.347300
vt 0.322112 0.330943
vt 0.333263 0.340583
vt 0.329009 0.355806
vt 0.300425 0.386498
vt 0.305578 0.363057
vt 0.325679 0.370367
vt 0.319296 0.392050
vt 0.278114 0.434966
vt 0.296593 0.408764
vt 0.313813 0.412802
vt 0.299880 0.440840
vt 0.261005 0.479779
vt 0.265371 0.462693
vt 0.295021 0.468709
vt 0.283934 0.484544
vt 0.190169 0.450623
vt 0.201655 0.432999
vt 0.237074 0.451556
vt 0.229089 0.470218
vt 0.496419 0.511529
vt 0.494090 0.522382
vt 0.466780 0.540665
vt 0.471979 0.526750
vt 0.176145 0.492978
vt 0.123605 0.447271
vt 0.134949 0.435995
vt 0.178323 0.468900
vt 0.269333 0.522398
vt 0.232315 0.520049
vt 0.220975 0.489428
vt 0.246613 0.497818
vt 0.345353 0.545640
vt 0.328463 0.560777
vt 0.249364 0.548573
vt 0.292543 0.537330
vt 0.435377 0.538015
vt 0.433053 0.551778
vt 0.394610 0.560462
vt 0.394829 0.546019
vt 0.384756 0.230229
vt 0.399402 0.251438
vt 0.381032 0.265108
vt 0.367075 0.245308
vt 0.349082 0.260708
vt 0.363204 0.278709
vt 0.343391 0.293264
vt 0.329752 0.277210
vt 0.419944 0.201773
vt 0.436007 0.226949
vt 0.417242 0.238195
vt 0.402368 0.215390
vt 0.446626 0.249036
vt 0.430465 0.259774
vt 0.412193 0.272232
vt 0.393514 0.284975
vt 0.374323 0.297318
vt 0.353731 0.310450
vt 0.337995 0.320817
vt 0.313580 0.292443
vt 0.327460 0.307344
vt 0.297179 0.274743
vt 0.284054 0.287790
vt 0.312996 0.259022
vt 0.396726 0.175801
vt 0.380538 0.191890
vt 0.331230 0.240897
vt 0.347790 0.224437
vt 0.364789 0.207542
vt 0.431283 0.523896
vt 0.390262 0.530039
vt 0.469797 0.512776
vt 0.357986 0.526522
vt 0.327349 0.520921
vt 0.291058 0.511509
vt 0.272161 0.500895
vt 0.172015 0.511508
vt 0.109615 0.461177
vt 0.491679 0.502146
vt 0.511510 0.490075
vt 0.517472 0.494515
vt 0.519217 0.501680
vt 0.151024 0.420017
vt 0.166455 0.404679
vt 0.253792 0.317870
vt 0.268094 0.303654
vt 0.210816 0.360586
vt 0.236002 0.335552
vt 0.188948 0.382322
vt 0.514439 0.184654
vt 0.465517 0.107394
vt 0.570841 0.425620
vt 0.555072 0.462428
vt 0.539139 0.498298
vt 0.441225 0.562432
vt 0.400603 0.571955
vt 0.327653 0.571955
vt 0.262830 0.560770
vt 0.480232 0.548008
vt 0.547785 0.240434
vt 0.569147 0.346542
vt 0.169420 0.522211
vt 0.101406 0.469336
vt 0.512007 0.525313
vt 0.480290 0.092693
vt 0.534173 0.178801
vt 0.809606 0.796130
vt 0.795039 0.760409
vt 0.823418 0.749751
vt 0.837328 0.786379
vt 0.783710 0.732721
vt 0.771830 0.703240
vt 0.798164 0.691871
vt 0.811416 0.721607
vt 0.864520 0.774273
vt 0.851244 0.737105
vt 0.878917 0.723397
vt 0.891790 0.761183
vt 0.838640 0.709127
vt 0.824049 0.682114
vt 0.850261 0.669748
vt 0.865902 0.695714
vt 0.764541 0.876127
vt 0.762510 0.850781
vt 0.788327 0.844113
vt 0.788230 0.871816
vt 0.745994 0.817300
vt 0.737730 0.778888
vt 0.766524 0.770290
vt 0.773579 0.809363
vt 0.728121 0.749960
vt 0.718146 0.723938
vt 0.743997 0.716375
vt 0.755960 0.741192
vt 0.710739 0.701079
vt 0.703758 0.677895
vt 0.721545 0.666725
vt 0.732549 0.691693
vt 0.759544 0.677561
vt 0.747189 0.651699
vt 0.771765 0.639737
vt 0.785154 0.665761
vt 0.810406 0.654430
vt 0.796196 0.628956
vt 0.822063 0.620343
vt 0.836834 0.644751
vt 0.857942 0.633746
vt 0.841828 0.613482
vt 0.861721 0.607083
vt 0.879225 0.622279
vt 0.890689 0.680087
vt 0.873367 0.654567
vt 0.896845 0.638180
vt 0.915203 0.662562
vt 0.918071 0.747689
vt 0.905175 0.707942
vt 0.930899 0.690740
vt 0.944209 0.733035
vt 0.934330 0.814500
vt 0.926613 0.789001
vt 0.951997 0.776581
vt 0.956375 0.801100
vt 0.883027 0.842913
vt 0.875744 0.812924
vt 0.901228 0.800143
vt 0.912399 0.827187
vt 0.825068 0.863508
vt 0.823328 0.832966
vt 0.849866 0.824113
vt 0.852365 0.855645
vt 0.940918 0.562291
vt 0.916753 0.549180
vt 0.919504 0.513384
vt 0.948989 0.523087
vt 0.969529 0.801091
vt 0.970201 0.771838
vt 0.981157 0.769418
vt 0.976369 0.802894
vt 0.963036 0.718741
vt 0.946492 0.664719
vt 0.945599 0.628706
vt 0.974649 0.708022
vt 0.932459 0.636389
vt 0.903891 0.607422
vt 0.915441 0.581491
vt 0.933820 0.599796
vt 0.887242 0.599206
vt 0.863667 0.585857
vt 0.865371 0.564241
vt 0.886612 0.570187
vt 0.887971 0.540068
vt 0.867138 0.535549
vt 0.870423 0.502896
vt 0.890795 0.506020
vt 0.634401 0.849455
vt 0.626302 0.802671
vt 0.670133 0.794974
vt 0.672939 0.837004
vt 0.614155 0.765694
vt 0.605752 0.730967
vt 0.636124 0.734288
vt 0.651430 0.765763
vt 0.612384 0.694645
vt 0.623028 0.660242
vt 0.648388 0.672119
vt 0.640716 0.702479
vt 0.665012 0.706734
vt 0.667512 0.681032
vt 0.686459 0.689836
vt 0.688833 0.710863
vt 0.676689 0.760332
vt 0.664127 0.733262
vt 0.692201 0.731710
vt 0.700551 0.757401
vt 0.695930 0.830514
vt 0.689598 0.790636
vt 0.709261 0.786127
vt 0.718559 0.823797
vt 0.718387 0.890462
vt 0.709765 0.867321
vt 0.735789 0.856970
vt 0.740485 0.878668
vt 0.664461 0.918552
vt 0.649806 0.892443
vt 0.683223 0.877262
vt 0.696213 0.901216
vt 0.949672 0.849607
vt 0.951396 0.860757
vt 0.931460 0.885555
vt 0.930274 0.869858
vt 0.695883 0.960476
vt 0.658524 0.981285
vt 0.647612 0.964314
vt 0.679912 0.943098
vt 0.749925 0.922646
vt 0.738733 0.941932
vt 0.710311 0.924171
vt 0.728397 0.912895
vt 0.824040 0.918893
vt 0.818810 0.941457
vt 0.769117 0.949329
vt 0.781855 0.928493
vt 0.898668 0.888070
vt 0.902567 0.903234
vt 0.871426 0.919723
vt 0.864777 0.904456
vt 0.764343 0.545146
vt 0.774247 0.574714
vt 0.744286 0.586902
vt 0.729659 0.558068
vt 0.697585 0.577169
vt 0.715809 0.602434
vt 0.689179 0.621409
vt 0.667769 0.600034
vt 0.833257 0.534512
vt 0.834965 0.564165
vt 0.804450 0.566476
vt 0.798860 0.536487
vt 0.838464 0.589053
vt 0.813598 0.593547
vt 0.785796 0.601821
vt 0.758082 0.613209
vt 0.731586 0.627324
vt 0.706102 0.643346
vt 0.685295 0.662394
vt 0.642530 0.629814
vt 0.666468 0.646574
vt 0.614616 0.610007
vt 0.593803 0.646096
vt 0.643538 0.575411
vt 0.832409 0.500148
vt 0.793033 0.502526
vt 0.676543 0.547480
vt 0.713584 0.525721
vt 0.753294 0.510445
vt 0.888783 0.873550
vt 0.853274 0.888481
vt 0.922582 0.855287
vt 0.824485 0.894115
vt 0.796363 0.897681
vt 0.765568 0.901694
vt 0.745069 0.901018
vt 0.715592 0.979444
vt 0.671829 0.999852
vt 0.941339 0.840643
vt 0.958825 0.825442
vt 0.967163 0.829121
vt 0.971964 0.835759
vt 0.630610 0.938265
vt 0.613849 0.909799
vt 0.571837 0.715310
vt 0.581825 0.674467
vt 0.577381 0.812350
vt 0.571137 0.755321
vt 0.592714 0.864016
vt 0.964674 0.589447
vt 0.981157 0.532799
vt 0.127515 0.179205
vt 0.132291 0.151584
vt 0.166447 0.149896
vt 0.160323 0.177146
vt 0.185213 0.176502
vt 0.192767 0.150394
vt 0.218687 0.154693
vt 0.209383 0.177477
vt 0.140507 0.124021
vt 0.150710 0.096797
vt 0.188983 0.097289
vt 0.176436 0.123122
vt 0.204044 0.125911
vt 0.217757 0.102104
vt 0.244438 0.109442
vt 0.230390 0.131659
vt 0.078490 0.263292
vt 0.072663 0.237926
vt 0.093381 0.222103
vt 0.096586 0.249187
vt 0.126356 0.244093
vt 0.124093 0.217546
vt 0.156414 0.204153
vt 0.156097 0.231383
vt 0.178162 0.227574
vt 0.179690 0.202223
vt 0.204776 0.200840
vt 0.202457 0.222836
vt 0.219446 0.223602
vt 0.225397 0.202948
vt 0.244275 0.208178
vt 0.237644 0.223162
vt 0.233863 0.181344
vt 0.242245 0.160055
vt 0.266315 0.168731
vt 0.255515 0.187477
vt 0.254506 0.139523
vt 0.268078 0.119483
vt 0.289685 0.131363
vt 0.276865 0.149513
vt 0.283342 0.103390
vt 0.301396 0.087175
vt 0.312596 0.103779
vt 0.300633 0.117401
vt 0.235205 0.080057
vt 0.256357 0.060455
vt 0.286353 0.072752
vt 0.263447 0.091275
vt 0.162233 0.071174
vt 0.175444 0.046314
vt 0.222881 0.050686
vt 0.204453 0.073263
vt 0.096152 0.076902
vt 0.106048 0.053112
vt 0.130458 0.049517
vt 0.120893 0.075308
vt 0.076477 0.132768
vt 0.086804 0.100295
vt 0.112999 0.101195
vt 0.104077 0.128130
vt 0.069122 0.196102
vt 0.070303 0.166502
vt 0.097816 0.155762
vt 0.094511 0.183497
vt 0.408582 0.076913
vt 0.404241 0.096755
vt 0.104064 0.041644
vt 0.101004 0.036856
vt 0.134128 0.022665
vt 0.133111 0.032123
vt 0.188751 0.028232
vt 0.198411 0.018031
vt 0.320744 0.043537
vt 0.253422 0.036884
vt 0.312083 0.053596
vt 0.352291 0.051046
vt 0.363946 0.071562
vt 0.322242 0.062949
vt 0.330453 0.087049
vt 0.361596 0.094952
vt 0.357802 0.117962
vt 0.335332 0.108991
vt 0.394895 0.115271
vt 0.385121 0.134426
vt 0.162336 0.348185
vt 0.144657 0.313958
vt 0.168318 0.291126
vt 0.185893 0.324631
vt 0.207853 0.315054
vt 0.192349 0.289312
vt 0.217701 0.285294
vt 0.230686 0.303546
vt 0.246203 0.290089
vt 0.233197 0.273917
vt 0.250866 0.260518
vt 0.263784 0.274720
vt 0.224719 0.258115
vt 0.216307 0.242428
vt 0.231556 0.238265
vt 0.241129 0.249474
vt 0.185442 0.270825
vt 0.180003 0.251922
vt 0.201725 0.245669
vt 0.208915 0.265814
vt 0.136840 0.292842
vt 0.131096 0.271041
vt 0.159218 0.257279
vt 0.163153 0.274523
vt 0.091923 0.309679
vt 0.087296 0.286722
vt 0.103197 0.275732
vt 0.109035 0.305417
vt 0.120653 0.380689
vt 0.101292 0.341652
vt 0.120002 0.333780
vt 0.138347 0.369310
vt 0.061590 0.074069
vt 0.046222 0.098417
vt 0.032275 0.103532
vt 0.050723 0.076332
vt 0.078214 0.394457
vt 0.102305 0.392424
vt 0.049354 0.301093
vt 0.073798 0.323962
vt 0.082033 0.349650
vt 0.051480 0.338125
vt 0.026569 0.224932
vt 0.034561 0.277793
vt 0.023059 0.320904
vt 0.011330 0.241731
vt 0.034735 0.134953
vt 0.026487 0.175453
vt 0.012043 0.175584
vt 0.020958 0.137193
vt 0.342221 0.187438
vt 0.327035 0.205026
vt 0.307320 0.190950
vt 0.321101 0.172663
vt 0.311526 0.222926
vt 0.294908 0.242156
vt 0.278936 0.228421
vt 0.293611 0.208695
vt 0.370892 0.152430
vt 0.357167 0.169919
vt 0.334452 0.154903
vt 0.345812 0.136208
vt 0.323801 0.125442
vt 0.312959 0.141544
vt 0.300387 0.159744
vt 0.287529 0.178348
vt 0.275069 0.197465
vt 0.261813 0.217979
vt 0.251350 0.233651
vt 0.279578 0.258236
vt 0.264760 0.244268
vt 0.048829 0.139133
vt 0.042439 0.180118
vt 0.060182 0.100685
vt 0.045762 0.212415
vt 0.051180 0.243087
vt 0.060374 0.279434
vt 0.070874 0.298396
vt 0.059659 0.398475
vt 0.070944 0.078866
vt 0.083135 0.059107
vt 0.078732 0.053118
vt 0.071578 0.051330
vt 0.388516 0.058082
vt 0.147954 0.000148
vt 0.111045 0.015709
vt 0.075080 0.031428
vt 0.010355 0.128956
vt 0.000587 0.169521
vt 0.000148 0.242473
vt 0.010942 0.307363
vt 0.025015 0.090036
vt 0.332885 0.024472
vt 0.227017 0.002347
vt 0.048940 0.401006
vt 0.047901 0.058397
vt 0.394463 0.038378
s 1
f 191/1/1 82/2/1 28/3/2 80/4/2
f 190/5/3 83/6/3 29/7/3 81/8/3
f 189/9/4 87/10/5 31/11/6 85/12/7
f 188/13/8 88/14/9 32/15/10 86/16/10
f 187/17/11 100/18/11 24/19/11 89/20/11
f 186/21/12 77/22/13 25/23/13 90/24/14
f 185/25/15 78/26/16 26/27/16 91/28/17
f 184/29/18 92/30/18 11/31/18 62/32/18
f 183/33/19 93/34/19 12/35/20 63/36/20
f 182/37/21 94/38/21 13/39/21 64/40/21
f 181/41/22 66/42/22 4/43/22 65/44/22
f 180/45/23 67/46/23 14/47/23 95/48/23
f 179/49/24 68/50/25 15/51/26 96/52/27
f 178/53/28 69/54/28 16/55/28 97/56/28
f 177/57/29 98/58/29 30/59/29 84/60/29
f 176/61/30 99/62/31 27/63/32 79/64/32
f 175/65/33 105/66/34 37/67/35 104/68/35
f 174/69/36 111/70/36 33/71/36 106/72/36
f 173/73/37 101/74/37 34/75/37 107/76/37
f 172/77/38 102/78/38 35/79/38 108/80/38
f 171/81/39 109/82/39 18/83/39 71/84/39
f 170/85/40 110/86/40 19/87/40 72/88/40
f 169/89/41 117/90/42 42/91/42 115/92/43
f 168/93/44 118/94/44 43/95/44 116/96/44
f 167/97/45 120/98/46 23/99/47 75/100/47
f 166/101/48 61/102/48 2/103/48 76/104/48
f 165/105/49 60/106/49 10/107/49 121/108/49
f 164/109/50 59/110/50 9/111/50 122/112/50
f 163/113/51 58/114/51 8/115/51 123/116/51
f 162/117/52 124/118/53 41/119/53 114/120/54
f 161/121/55 134/122/55 44/123/55 129/124/55
f 160/125/56 74/126/56 21/127/56 130/128/56
f 159/129/57 73/130/57 20/131/57 131/132/57
f 158/133/58 132/134/58 46/135/58 127/136/58
f 157/137/59 133/138/59 45/139/59 126/140/59
f 156/141/60 138/142/60 51/143/60 137/144/60
f 155/145/61 141/146/62 53/147/62 140/148/61
f 154/149/63 135/150/63 49/151/63 143/152/63
f 153/153/64 144/154/64 13/39/64 65/44/64
f 152/155/65 145/156/65 12/35/66 64/40/66
f 151/157/67 146/158/67 11/31/67 63/36/67
f 150/159/68 76/104/68 2/103/68 62/32/68
f 149/160/69 75/100/70 23/99/70 147/161/71
f 148/162/72 22/163/73 75/100/73 149/160/72
f 52/164/74 148/162/72 149/160/72 141/146/74
f 141/146/75 149/160/69 147/161/71 53/147/75
f 147/161/76 23/99/76 76/104/76 150/159/76
f 53/147/77 147/161/77 150/159/77 146/158/77
f 146/158/78 150/159/78 62/32/78 11/31/78
f 140/148/79 53/147/79 146/158/79 151/157/79
f 51/143/80 140/148/79 151/157/79 145/156/80
f 145/156/80 151/157/79 63/36/81 12/35/81
f 137/144/82 51/143/82 145/156/65 152/155/65
f 49/151/83 137/144/83 152/155/84 144/154/85
f 144/154/85 152/155/84 64/40/86 13/39/86
f 143/152/87 49/151/87 144/154/87 153/153/87
f 18/83/88 143/152/88 153/153/88 71/84/88
f 71/84/89 153/153/89 65/44/89 4/43/89
f 142/165/90 48/166/91 135/150/91 154/149/90
f 19/87/92 142/165/90 154/149/90 72/88/92
f 72/88/93 154/149/63 143/152/63 18/83/93
f 139/167/94 52/164/95 141/146/95 155/145/94
f 50/168/96 139/167/94 155/145/94 138/142/96
f 138/142/97 155/145/61 140/148/61 51/143/97
f 136/169/98 50/168/98 138/142/98 156/141/98
f 48/166/99 136/169/99 156/141/99 135/150/99
f 135/150/100 156/141/100 137/144/100 49/151/100
f 55/170/101 6/171/102 133/138/102 157/137/103
f 5/172/104 55/170/101 157/137/103 134/122/104
f 134/122/105 157/137/105 126/140/105 44/123/105
f 56/173/106 7/174/106 132/134/106 158/133/106
f 6/171/107 56/173/107 158/133/107 133/138/107
f 133/138/108 158/133/108 127/136/108 45/139/108
f 57/175/109 1/176/109 73/130/109 159/129/109
f 7/174/110 57/175/110 159/129/110 132/134/110
f 132/134/111 159/129/111 131/132/111 46/135/111
f 131/132/112 20/131/112 74/126/112 160/125/112
f 46/135/113 131/132/113 160/125/113 128/177/113
f 128/177/114 160/125/114 130/128/114 47/178/114
f 54/179/115 5/172/115 134/122/115 161/121/115
f 3/180/116 54/179/116 161/121/116 70/181/116
f 70/181/117 161/121/117 129/124/117 17/182/117
f 74/126/118 20/131/119 124/118/119 162/117/120
f 21/127/121 74/126/118 162/117/120 125/183/121
f 125/183/122 162/117/52 114/120/54 38/184/122
f 73/130/123 1/176/123 58/114/123 163/113/123
f 20/131/124 73/130/124 163/113/124 124/118/124
f 124/118/125 163/113/125 123/116/125 41/119/125
f 123/116/126 8/115/126 59/110/126 164/109/126
f 41/119/127 123/116/127 164/109/127 117/90/127
f 117/90/128 164/109/128 122/112/128 42/91/128
f 122/112/129 9/111/129 60/106/129 165/105/129
f 42/91/130 122/112/130 165/105/130 118/94/130
f 118/94/131 165/105/131 121/108/131 43/95/131
f 121/108/132 10/107/132 61/102/132 166/101/132
f 43/95/133 121/108/133 166/101/133 120/98/133
f 120/98/134 166/101/134 76/104/134 23/99/134
f 116/96/135 43/95/135 120/98/46 167/97/45
f 40/185/136 116/96/136 167/97/136 119/186/136
f 119/186/137 167/97/137 75/100/137 22/163/137
f 115/92/138 42/91/138 118/94/138 168/93/138
f 39/187/139 115/92/139 168/93/139 113/188/139
f 113/188/140 168/93/140 116/96/140 40/185/140
f 114/120/141 41/119/142 117/90/142 169/89/143
f 38/184/144 114/120/141 169/89/143 112/189/144
f 112/189/145 169/89/41 115/92/43 39/187/145
f 104/68/146 37/67/146 110/86/146 170/85/146
f 35/79/147 104/68/147 170/85/147 109/82/147
f 109/82/148 170/85/148 72/88/148 18/83/148
f 108/80/149 35/79/149 109/82/149 171/81/149
f 14/47/150 108/80/150 171/81/150 66/42/150
f 66/42/151 171/81/151 71/84/151 4/43/151
f 107/76/152 34/75/152 102/78/152 172/77/152
f 15/51/153 107/76/153 172/77/153 67/46/153
f 67/46/154 172/77/154 108/80/154 14/47/154
f 106/72/155 33/71/155 101/74/155 173/73/155
f 16/55/156 106/72/156 173/73/156 68/50/156
f 68/50/157 173/73/157 107/76/157 15/51/157
f 70/181/158 17/182/158 111/70/158 174/69/158
f 3/180/159 70/181/159 174/69/159 69/54/159
f 69/54/160 174/69/160 106/72/160 16/55/160
f 103/190/161 36/191/161 105/66/34 175/65/33
f 102/78/162 34/75/162 103/190/162
f 102/78/163 175/65/163 104/68/163 35/79/163
f 56/173/164 6/171/164 99/62/31 176/61/30
f 7/174/165 56/173/165 176/61/165 100/18/165
f 100/18/166 176/61/166 79/64/166 24/19/166
f 55/170/167 5/172/167 98/58/167 177/57/167
f 6/171/168 55/170/168 177/57/168 99/62/168
f 99/62/169 177/57/169 84/60/169 27/63/169
f 54/179/170 3/180/170 69/54/170 178/53/170
f 5/172/171 54/179/171 178/53/171 98/58/171
f 98/58/172 178/53/172 97/56/172 30/59/172
f 97/56/173 16/55/174 68/50/25 179/49/24
f 30/59/175 97/56/173 179/49/24 87/10/176
f 87/10/176 179/49/24 96/52/27 31/11/177
f 96/52/178 15/51/179 67/46/179 180/45/180
f 31/11/181 96/52/178 180/45/180 88/14/181
f 88/14/182 180/45/182 95/48/182 32/15/182
f 95/48/183 14/47/183 66/42/183 181/41/183
f 32/15/184 95/48/184 181/41/184 94/38/184
f 94/38/185 181/41/185 65/44/185 13/39/185
f 86/16/186 32/15/187 94/38/187 182/37/188
f 29/7/189 86/16/186 182/37/188 93/34/189
f 93/34/190 182/37/190 64/40/190 12/35/190
f 81/8/19 29/7/19 93/34/19 183/33/19
f 26/27/191 81/8/191 183/33/192 92/30/192
f 92/30/192 183/33/192 63/36/193 11/31/193
f 91/28/194 26/27/194 92/30/194 184/29/194
f 10/107/195 91/28/195 184/29/195 61/102/195
f 61/102/196 184/29/196 62/32/196 2/103/196
f 90/24/197 25/23/198 78/26/198 185/25/197
f 9/111/199 90/24/197 185/25/197 60/106/199
f 60/106/200 185/25/15 91/28/17 10/107/200
f 89/20/201 24/19/202 77/22/202 186/21/203
f 8/115/204 89/20/201 186/21/203 59/110/204
f 59/110/205 186/21/12 90/24/14 9/111/205
f 57/175/206 7/174/206 100/18/206 187/17/206
f 1/176/207 57/175/207 187/17/207 58/114/207
f 58/114/208 187/17/208 89/20/208 8/115/208
f 85/12/209 31/11/210 88/14/9 188/13/8
f 28/3/211 85/12/209 188/13/8 83/6/211
f 83/6/212 188/13/212 86/16/212 29/7/212
f 84/60/213 30/59/214 87/10/5 189/9/4
f 27/63/215 84/60/213 189/9/4 82/2/216
f 82/2/216 189/9/4 85/12/7 28/3/217
f 80/4/218 28/3/219 83/6/219 190/5/220
f 25/23/221 80/4/218 190/5/220 78/26/222
f 78/26/222 190/5/220 81/8/223 26/27/223
f 79/64/224 27/63/224 82/2/1 191/1/1
f 24/19/225 79/64/225 191/1/226 77/22/227
f 77/22/227 191/1/226 80/4/228 25/23/228
f 102/78/229 103/190/229 175/65/229
f 382/192/230 271/193/231 219/194/231 273/195/230
f 381/196/232 272/197/233 220/198/233 274/199/232
f 380/200/234 276/201/235 222/202/236 278/203/237
f 379/204/238 277/205/239 223/206/240 279/207/241
f 378/208/242 280/209/242 215/210/242 291/211/242
f 377/212/243 281/213/243 216/214/244 268/215/244
f 376/216/245 282/217/246 217/218/247 269/219/248
f 375/220/249 253/221/249 202/222/249 283/223/249
f 374/224/250 254/225/251 203/226/251 284/227/252
f 373/228/253 255/229/254 204/230/254 285/231/255
f 372/232/256 256/233/256 195/234/256 257/235/256
f 371/236/257 286/237/258 205/238/259 258/239/260
f 370/240/261 287/241/262 206/242/263 259/243/264
f 369/244/265 288/245/265 207/246/265 260/247/265
f 368/248/266 275/249/266 221/250/266 289/251/266
f 367/252/267 270/253/268 218/254/268 290/255/269
f 366/256/270 295/257/270 228/258/270 296/259/270
f 365/260/271 297/261/271 224/262/271 302/263/271
f 364/264/272 298/265/272 225/266/272 292/267/272
f 363/268/273 299/269/273 226/270/273 293/271/273
f 362/272/274 262/273/274 209/274/274 300/275/274
f 361/276/275 263/277/275 210/278/275 301/279/275
f 360/280/276 306/281/276 233/282/276 308/283/276
f 359/284/277 307/285/277 234/286/277 309/287/277
f 358/288/278 266/289/278 214/290/278 311/291/278
f 357/292/279 267/293/279 193/294/279 252/295/279
f 356/296/280 312/297/280 201/298/280 251/299/280
f 355/300/281 313/301/281 200/302/281 250/303/281
f 354/304/282 314/305/282 199/306/282 249/307/282
f 353/308/283 305/309/283 232/310/283 315/311/283
f 352/312/284 320/313/284 235/314/284 325/315/284
f 351/316/285 321/317/285 212/318/285 265/319/285
f 350/320/286 322/321/286 211/322/286 264/323/286
f 349/324/287 318/325/287 237/326/287 323/327/287
f 348/328/288 317/329/288 236/330/288 324/331/288
f 347/332/289 328/333/289 242/334/289 329/335/289
f 346/336/290 331/337/290 244/338/290 332/339/290
f 345/340/291 334/341/291 240/342/291 326/343/291
f 344/344/292 256/233/292 204/230/292 335/345/292
f 343/346/293 255/229/294 203/226/295 336/347/295
f 342/348/296 254/225/297 202/222/297 337/349/296
f 341/350/298 253/221/298 193/294/298 267/293/298
f 340/351/299 338/352/299 214/290/300 266/289/300
f 339/353/301 340/351/301 266/289/301 213/354/301
f 243/355/302 332/339/302 340/351/302 339/353/302
f 332/339/299 244/338/299 338/352/299 340/351/299
f 338/352/303 341/350/303 267/293/303 214/290/303
f 244/338/304 337/349/304 341/350/304 338/352/304
f 337/349/305 202/222/305 253/221/305 341/350/305
f 331/337/306 342/348/296 337/349/296 244/338/306
f 242/334/307 336/347/307 342/348/307 331/337/307
f 336/347/307 203/226/308 254/225/308 342/348/307
f 328/333/309 343/346/309 336/347/309 242/334/309
f 240/342/310 335/345/310 343/346/310 328/333/310
f 335/345/311 204/230/311 255/229/294 343/346/293
f 334/341/312 344/344/312 335/345/312 240/342/312
f 209/274/313 262/273/313 344/344/313 334/341/313
f 262/273/314 195/234/314 256/233/314 344/344/314
f 333/356/315 345/340/315 326/343/315 239/357/315
f 210/278/316 263/277/316 345/340/316 333/356/316
f 263/277/317 209/274/317 334/341/291 345/340/291
f 330/358/318 346/336/318 332/339/318 243/355/318
f 241/359/319 329/335/319 346/336/319 330/358/319
f 329/335/320 242/334/320 331/337/320 346/336/320
f 327/360/321 347/332/321 329/335/321 241/359/321
f 239/357/322 326/343/322 347/332/322 327/360/322
f 326/343/323 240/342/323 328/333/323 347/332/323
f 246/361/324 348/328/325 324/331/326 197/362/326
f 196/363/327 325/315/327 348/328/325 246/361/324
f 325/315/328 235/314/328 317/329/328 348/328/328
f 247/364/329 349/324/329 323/327/329 198/365/329
f 197/362/330 324/331/330 349/324/330 247/364/330
f 324/331/331 236/330/331 318/325/331 349/324/331
f 248/366/332 350/320/332 264/323/332 192/367/332
f 198/365/333 323/327/333 350/320/333 248/366/333
f 323/327/334 237/326/334 322/321/334 350/320/334
f 322/321/335 351/316/335 265/319/335 211/322/335
f 237/326/336 319/368/336 351/316/336 322/321/336
f 319/368/337 238/369/337 321/317/337 351/316/337
f 245/370/338 352/312/338 325/315/338 196/363/338
f 194/371/339 261/372/339 352/312/339 245/370/339
f 261/372/340 208/373/340 320/313/340 352/312/340
f 265/319/341 353/308/341 315/311/341 211/322/341
f 212/318/342 316/374/342 353/308/342 265/319/342
f 316/374/343 229/375/343 305/309/343 353/308/343
f 264/323/344 354/304/344 249/307/344 192/367/344
f 211/322/345 315/311/345 354/304/345 264/323/345
f 315/311/346 232/310/346 314/305/346 354/304/346
f 314/305/347 355/300/347 250/303/347 199/306/347
f 232/310/348 308/283/348 355/300/348 314/305/348
f 308/283/349 233/282/349 313/301/349 355/300/349
f 313/301/350 356/296/350 251/299/350 200/302/350
f 233/282/351 309/287/351 356/296/351 313/301/351
f 309/287/352 234/286/352 312/297/352 356/296/352
f 312/297/353 357/292/353 252/295/353 201/298/353
f 234/286/354 311/291/354 357/292/354 312/297/354
f 311/291/355 214/290/355 267/293/355 357/292/355
f 307/285/356 358/288/356 311/291/356 234/286/356
f 231/376/357 310/377/357 358/288/357 307/285/357
f 310/377/358 213/354/358 266/289/358 358/288/358
f 306/281/359 359/284/359 309/287/359 233/282/359
f 230/378/360 304/379/360 359/284/360 306/281/360
f 304/379/361 231/376/361 307/285/361 359/284/361
f 305/309/362 360/280/362 308/283/362 232/310/362
f 229/375/363 303/380/363 360/280/363 305/309/363
f 303/380/364 230/378/364 306/281/364 360/280/364
f 295/257/365 361/276/365 301/279/365 228/258/365
f 226/270/366 300/275/366 361/276/366 295/257/366
f 300/275/367 209/274/367 263/277/367 361/276/367
f 299/269/368 362/272/368 300/275/368 226/270/368
f 205/238/369 257/235/369 362/272/369 299/269/369
f 257/235/370 195/234/370 262/273/370 362/272/370
f 298/265/371 363/268/371 293/271/371 225/266/371
f 206/242/372 258/239/372 363/268/372 298/265/372
f 258/239/373 205/238/373 299/269/373 363/268/373
f 297/261/374 364/264/374 292/267/374 224/262/374
f 207/246/375 259/243/375 364/264/375 297/261/375
f 259/243/376 206/242/376 298/265/376 364/264/376
f 261/372/377 365/260/377 302/263/377 208/373/377
f 194/371/378 260/247/378 365/260/378 261/372/378
f 260/247/379 207/246/379 297/261/379 365/260/379
f 294/381/380 366/256/380 296/259/380 227/382/380
f 293/271/381 294/381/381 225/266/381
f 293/271/382 226/270/382 295/257/382 366/256/382
f 247/364/383 367/252/267 290/255/269 197/362/383
f 198/365/384 291/211/384 367/252/384 247/364/384
f 291/211/385 215/210/385 270/253/385 367/252/385
f 246/361/386 368/248/386 289/251/386 196/363/386
f 197/362/387 290/255/387 368/248/387 246/361/387
f 290/255/388 218/254/388 275/249/388 368/248/388
f 245/370/389 369/244/389 260/247/389 194/371/389
f 196/363/390 289/251/390 369/244/390 245/370/390
f 289/251/391 221/250/391 288/245/391 369/244/391
f 288/245/392 370/240/261 259/243/264 207/246/393
f 221/250/394 278/203/395 370/240/261 288/245/392
f 278/203/395 222/202/396 287/241/262 370/240/261
f 287/241/397 371/236/257 258/239/260 206/242/398
f 222/202/399 279/207/400 371/236/257 287/241/397
f 279/207/400 223/206/401 286/237/258 371/236/257
f 286/237/402 372/232/402 257/235/402 205/238/402
f 223/206/403 285/231/403 372/232/403 286/237/403
f 285/231/404 204/230/404 256/233/404 372/232/404
f 277/205/405 373/228/253 285/231/255 223/206/406
f 220/198/407 284/227/407 373/228/253 277/205/405
f 284/227/408 203/226/408 255/229/408 373/228/408
f 272/197/409 374/224/250 284/227/252 220/198/410
f 217/218/411 283/223/411 374/224/250 272/197/409
f 283/223/412 202/222/412 254/225/412 374/224/412
f 282/217/413 375/220/413 283/223/413 217/218/413
f 201/298/414 252/295/414 375/220/414 282/217/414
f 252/295/415 193/294/415 253/221/415 375/220/415
f 281/213/416 376/216/245 269/219/248 216/214/417
f 200/302/418 251/299/419 376/216/245 281/213/416
f 251/299/419 201/298/420 282/217/246 376/216/245
f 280/209/421 377/212/422 268/215/423 215/210/423
f 199/306/424 250/303/424 377/212/422 280/209/421
f 250/303/425 200/302/425 281/213/243 377/212/243
f 248/366/426 378/208/426 291/211/426 198/365/426
f 192/367/427 249/307/427 378/208/427 248/366/427
f 249/307/428 199/306/428 280/209/428 378/208/428
f 276/201/429 379/204/238 279/207/241 222/202/430
f 219/194/431 274/199/432 379/204/238 276/201/429
f 274/199/432 220/198/433 277/205/239 379/204/238
f 275/249/434 380/200/234 278/203/237 221/250/435
f 218/254/436 273/195/437 380/200/234 275/249/434
f 273/195/437 219/194/438 276/201/235 380/200/234
f 271/193/439 381/196/232 274/199/232 219/194/439
f 216/214/440 269/219/441 381/196/442 271/193/440
f 269/219/441 217/218/443 272/197/443 381/196/442
f 270/253/444 382/192/230 273/195/230 218/254/444
f 215/210/445 268/215/446 382/192/447 270/253/445
f 268/215/446 216/214/448 271/193/448 382/192/447
f 293/271/449 366/256/449 294/381/449
f 33/383/450 111/384/450 302/263/450 224/262/450
f 111/384/450 17/385/450 208/373/450 302/263/450
f 126/386/451 45/387/451 236/330/451 317/329/451
f 127/388/452 46/389/452 237/326/452 318/325/452
f 44/390/451 126/386/451 317/329/451 235/314/451
f 34/391/453 101/392/453 292/267/453 225/266/453
f 128/393/454 47/394/454 238/369/454 319/368/454
f 45/387/455 127/388/455 318/325/455 236/330/455
f 101/392/456 33/383/456 224/262/456 292/267/456
f 129/395/457 44/390/457 235/314/457 320/313/457
f 46/389/458 128/393/458 319/368/458 237/326/458
f 36/396/459 103/397/459 294/381/459 227/382/459
f 17/385/457 129/395/457 320/313/457 208/373/457
f 103/397/460 34/391/460 225/266/460 294/381/460
f 550/398/461 450/399/462 407/400/463 452/401/464
f 549/402/465 451/403/466 408/404/467 453/405/467
f 548/406/468 455/407/469 410/408/470 457/409/471
f 547/410/472 456/411/473 411/412/473 458/413/474
f 546/414/475 459/415/475 403/416/475 470/417/475
f 545/418/476 460/419/477 404/420/478 447/421/478
f 544/422/479 461/423/480 405/424/481 448/425/481
f 543/426/482 432/427/482 393/428/482 462/429/482
f 542/430/483 433/431/484 394/432/484 463/433/483
f 541/434/485 434/435/485 395/436/485 464/437/485
f 540/438/486 435/439/486 386/440/486 436/441/486
f 539/442/487 465/443/487 396/444/487 437/445/487
f 538/446/488 466/447/489 397/448/490 438/449/491
f 537/450/492 467/451/492 398/452/492 439/453/492
f 536/454/493 454/455/493 409/456/493 468/457/493
f 535/458/494 449/459/495 406/460/495 469/461/496
f 534/462/497 474/463/498 37/464/498 105/465/499
f 533/466/500 475/467/500 412/468/500 479/469/500
f 532/470/501 476/471/501 413/472/501 471/473/501
f 531/474/502 477/475/502 414/476/502 472/477/502
f 530/478/503 441/479/503 400/480/503 478/481/503
f 529/482/504 442/483/504 19/484/504 110/485/504
f 528/486/505 481/487/506 416/488/507 483/489/507
f 527/490/508 482/491/508 417/492/508 484/493/508
f 526/494/509 445/495/510 402/496/510 485/497/511
f 525/498/512 446/499/512 384/500/512 431/501/512
f 524/502/513 486/503/513 392/504/513 430/505/513
f 523/506/514 487/507/514 391/508/514 429/509/514
f 522/510/515 488/511/515 390/512/515 428/513/515
f 521/514/516 480/515/517 415/516/518 489/517/518
f 520/518/519 493/519/519 418/520/519 497/521/519
f 519/522/520 130/523/520 21/524/520 444/525/520
f 518/526/521 494/527/521 401/528/521 443/529/521
f 517/530/522 491/531/522 420/532/522 495/533/522
f 516/534/523 490/535/523 419/536/523 496/537/523
f 515/538/524 499/539/524 422/540/524 500/541/524
f 514/542/525 501/543/525 423/544/526 502/545/526
f 513/546/527 503/547/527 421/548/527 498/549/527
f 512/550/528 435/439/528 395/436/528 504/551/528
f 511/552/529 434/435/530 394/432/530 505/553/529
f 510/554/531 433/431/531 393/428/531 506/555/531
f 509/556/532 432/427/532 384/500/532 446/499/532
f 508/557/533 507/558/534 402/496/535 445/495/535
f 148/559/536 508/557/536 445/495/537 22/560/537
f 52/561/538 502/545/538 508/557/536 148/559/536
f 502/545/539 423/544/539 507/558/534 508/557/533
f 507/558/540 509/556/540 446/499/540 402/496/540
f 423/544/541 506/555/541 509/556/541 507/558/541
f 506/555/542 393/428/542 432/427/542 509/556/542
f 501/543/543 510/554/543 506/555/543 423/544/543
f 422/540/544 505/553/544 510/554/543 501/543/543
f 505/553/544 394/432/545 433/431/545 510/554/543
f 499/539/546 511/552/529 505/553/529 422/540/546
f 421/548/547 504/551/548 511/552/549 499/539/547
f 504/551/548 395/436/550 434/435/550 511/552/549
f 503/547/551 512/550/551 504/551/551 421/548/551
f 400/480/552 441/479/552 512/550/552 503/547/552
f 441/479/553 386/440/553 435/439/553 512/550/553
f 142/562/554 513/546/554 498/549/555 48/563/555
f 19/484/556 442/483/556 513/546/554 142/562/554
f 442/483/557 400/480/557 503/547/527 513/546/527
f 139/564/558 514/542/558 502/545/559 52/561/559
f 50/565/560 500/541/560 514/542/558 139/564/558
f 500/541/561 422/540/561 501/543/525 514/542/525
f 136/566/562 515/538/562 500/541/562 50/565/562
f 48/563/563 498/549/563 515/538/563 136/566/563
f 498/549/564 421/548/564 499/539/564 515/538/564
f 425/567/565 516/534/566 496/537/567 388/568/567
f 387/569/568 497/521/568 516/534/566 425/567/565
f 497/521/569 418/520/569 490/535/569 516/534/569
f 426/570/570 517/530/570 495/533/570 389/571/570
f 388/568/571 496/537/571 517/530/571 426/570/571
f 496/537/572 419/536/572 491/531/572 517/530/572
f 427/572/573 518/526/573 443/529/573 383/573/573
f 389/571/574 495/533/574 518/526/574 427/572/574
f 495/533/575 420/532/575 494/527/575 518/526/575
f 494/527/576 519/522/576 444/525/576 401/528/576
f 420/532/577 492/574/577 519/522/577 494/527/577
f 492/574/578 47/575/578 130/523/578 519/522/578
f 424/576/579 520/518/579 497/521/579 387/569/579
f 385/577/580 440/578/580 520/518/580 424/576/580
f 440/578/581 399/579/581 493/519/581 520/518/581
f 444/525/582 521/514/583 489/517/584 401/528/584
f 21/524/585 125/580/585 521/514/583 444/525/582
f 125/580/586 38/581/586 480/515/517 521/514/516
f 443/529/587 522/510/587 428/513/587 383/573/587
f 401/528/588 489/517/588 522/510/588 443/529/588
f 489/517/589 415/516/589 488/511/589 522/510/589
f 488/511/590 523/506/590 429/509/590 390/512/590
f 415/516/591 483/489/591 523/506/591 488/511/591
f 483/489/592 416/488/592 487/507/592 523/506/592
f 487/507/593 524/502/593 430/505/593 391/508/593
f 416/488/594 484/493/594 524/502/594 487/507/594
f 484/493/595 417/492/595 486/503/595 524/502/595
f 486/503/596 525/498/596 431/501/596 392/504/596
f 417/492/597 485/497/597 525/498/597 486/503/597
f 485/497/598 402/496/598 446/499/598 525/498/598
f 482/491/599 526/494/509 485/497/511 417/492/599
f 40/582/600 119/583/600 526/494/600 482/491/600
f 119/583/601 22/560/601 445/495/601 526/494/601
f 481/487/602 527/490/602 484/493/602 416/488/602
f 39/584/603 113/585/603 527/490/603 481/487/603
f 113/585/604 40/582/604 482/491/604 527/490/604
f 480/515/605 528/486/606 483/489/607 415/516/607
f 38/581/608 112/586/608 528/486/606 480/515/605
f 112/586/609 39/584/609 481/487/506 528/486/505
f 474/463/610 529/482/610 110/485/610 37/464/610
f 414/476/611 478/481/611 529/482/611 474/463/611
f 478/481/612 400/480/612 442/483/612 529/482/612
f 477/475/613 530/478/613 478/481/613 414/476/613
f 396/444/614 436/441/614 530/478/614 477/475/614
f 436/441/615 386/440/615 441/479/615 530/478/615
f 476/471/616 531/474/616 472/477/616 413/472/616
f 397/448/617 437/445/617 531/474/617 476/471/617
f 437/445/618 396/444/618 477/475/618 531/474/618
f 475/467/619 532/470/619 471/473/619 412/468/619
f 398/452/620 438/449/620 532/470/620 475/467/620
f 438/449/621 397/448/621 476/471/621 532/470/621
f 440/578/622 533/466/622 479/469/622 399/579/622
f 385/577/623 439/453/623 533/466/623 440/578/623
f 439/453/624 398/452/624 475/467/624 533/466/624
f 473/587/625 534/462/497 105/465/499 36/588/625
f 472/477/626 473/587/626 413/472/626
f 472/477/627 414/476/627 474/463/627 534/462/627
f 426/570/628 535/458/494 469/461/496 388/568/628
f 389/571/629 470/417/629 535/458/629 426/570/629
f 470/417/630 403/416/630 449/459/630 535/458/630
f 425/567/631 536/454/631 468/457/631 387/569/631
f 388/568/632 469/461/632 536/454/632 425/567/632
f 469/461/633 406/460/633 454/455/633 536/454/633
f 424/576/634 537/450/634 439/453/634 385/577/634
f 387/569/635 468/457/635 537/450/635 424/576/635
f 468/457/636 409/456/636 467/451/636 537/450/636
f 467/451/637 538/446/488 438/449/491 398/452/638
f 409/456/639 457/409/640 538/446/488 467/451/637
f 457/409/640 410/408/641 466/447/489 538/446/488
f 466/447/642 539/442/643 437/445/644 397/448/644
f 410/408/645 458/413/645 539/442/643 466/447/642
f 458/413/646 411/412/646 465/443/646 539/442/646
f 465/443/647 540/438/647 436/441/647 396/444/647
f 411/412/648 464/437/648 540/438/648 465/443/648
f 464/437/649 395/436/649 435/439/649 540/438/649
f 456/411/650 541/434/651 464/437/652 411/412/652
f 408/404/653 463/433/653 541/434/651 456/411/650
f 463/433/654 394/432/654 434/435/654 541/434/654
f 451/403/483 542/430/483 463/433/483 408/404/483
f 405/424/655 462/429/656 542/430/656 451/403/655
f 462/429/656 393/428/657 433/431/657 542/430/656
f 461/423/658 543/426/658 462/429/658 405/424/658
f 392/504/659 431/501/659 543/426/659 461/423/659
f 431/501/660 384/500/660 432/427/660 543/426/660
f 460/419/661 544/422/661 448/425/662 404/420/662
f 391/508/663 430/505/663 544/422/661 460/419/661
f 430/505/664 392/504/664 461/423/480 544/422/479
f 459/415/665 545/418/666 447/421/667 403/416/667
f 390/512/668 429/509/668 545/418/666 459/415/665
f 429/509/669 391/508/669 460/419/477 545/418/476
f 427/572/670 546/414/670 470/417/670 389/571/670
f 383/573/671 428/513/671 546/414/671 427/572/671
f 428/513/672 390/512/672 459/415/672 546/414/672
f 455/407/673 547/410/472 458/413/474 410/408/674
f 407/400/675 453/405/675 547/410/472 455/407/673
f 453/405/676 408/404/676 456/411/676 547/410/676
f 454/455/677 548/406/468 457/409/471 409/456/678
f 406/460/679 452/401/680 548/406/468 454/455/677
f 452/401/680 407/400/681 455/407/469 548/406/468
f 450/399/682 549/402/465 453/405/683 407/400/683
f 404/420/684 448/425/685 549/402/465 450/399/682
f 448/425/685 405/424/686 451/403/466 549/402/465
f 449/459/687 550/398/461 452/401/464 406/460/687
f 403/416/688 447/421/689 550/398/461 449/459/688
f 447/421/689 404/420/690 450/399/462 550/398/461
f 472/477/691 534/462/691 473/587/691
f 718/589/692 620/590/692 575/591/693 618/592/693
f 717/593/694 621/594/695 576/595/695 619/596/694
f 716/597/696 625/598/697 578/599/698 623/600/699
f 715/601/700 626/602/701 579/603/702 624/604/703
f 714/605/704 638/606/704 571/607/704 627/608/704
f 713/609/705 615/610/706 572/611/706 628/612/705
f 712/613/707 616/614/708 573/615/709 629/616/710
f 711/617/711 630/618/711 561/619/711 600/620/711
f 710/621/712 631/622/713 562/623/714 601/624/714
f 709/625/715 632/626/716 563/627/717 602/628/717
f 708/629/718 604/630/718 554/631/718 603/632/718
f 707/633/719 605/634/720 564/635/721 633/636/722
f 706/637/723 606/638/724 565/639/725 634/640/726
f 705/641/727 607/642/727 566/643/727 635/644/727
f 704/645/728 636/646/728 577/647/728 622/648/728
f 703/649/729 637/650/730 574/651/731 617/652/731
f 702/653/732 296/259/732 228/258/732 642/654/732
f 701/655/733 647/656/733 580/657/733 643/658/733
f 700/659/734 639/660/734 581/661/734 644/662/734
f 699/663/735 640/664/735 582/665/735 645/666/735
f 698/667/736 646/668/736 568/669/736 609/670/736
f 697/671/737 301/279/737 210/278/737 610/672/737
f 696/673/738 651/674/738 584/675/738 649/676/738
f 695/677/739 652/678/739 585/679/739 650/680/739
f 694/681/740 653/682/740 570/683/740 613/684/740
f 693/685/741 599/686/741 552/687/741 614/688/741
f 692/689/742 598/690/742 560/691/742 654/692/742
f 691/693/743 597/694/743 559/695/743 655/696/743
f 690/697/744 596/698/744 558/699/744 656/700/744
f 689/701/745 657/702/745 583/703/745 648/704/745
f 688/705/746 665/706/746 586/707/746 661/708/746
f 687/709/747 612/710/747 212/318/747 321/317/747
f 686/711/748 611/712/748 569/713/748 662/714/748
f 685/715/749 663/716/749 588/717/749 659/718/749
f 684/719/750 664/720/750 587/721/750 658/722/750
f 683/723/751 668/724/751 590/725/751 667/726/751
f 682/727/752 670/728/752 591/729/752 669/730/752
f 681/731/753 666/732/753 589/733/753 671/734/753
f 680/735/754 672/736/754 563/627/754 603/632/754
f 679/737/755 673/738/756 562/623/756 602/628/757
f 678/739/758 674/740/758 561/619/759 601/624/759
f 677/741/760 614/688/760 552/687/760 600/620/760
f 676/742/761 613/684/762 570/683/762 675/743/761
f 339/353/763 213/354/763 613/684/763 676/742/763
f 243/355/764 339/353/764 676/742/764 670/728/764
f 670/728/761 676/742/761 675/743/761 591/729/761
f 675/743/765 570/683/765 614/688/765 677/741/765
f 591/729/766 675/743/766 677/741/766 674/740/766
f 674/740/767 677/741/767 600/620/767 561/619/767
f 669/730/768 591/729/768 674/740/758 678/739/758
f 590/725/769 669/730/769 678/739/769 673/738/769
f 673/738/769 678/739/769 601/624/770 562/623/770
f 667/726/771 590/725/771 673/738/771 679/737/771
f 589/733/772 667/726/772 679/737/772 672/736/772
f 672/736/773 679/737/755 602/628/757 563/627/773
f 671/734/774 589/733/774 672/736/774 680/735/774
f 568/669/775 671/734/775 680/735/775 609/670/775
f 609/670/776 680/735/776 603/632/776 554/631/776
f 333/356/777 239/357/777 666/732/777 681/731/777
f 210/278/778 333/356/778 681/731/778 610/672/778
f 610/672/779 681/731/753 671/734/753 568/669/779
f 330/358/780 243/355/780 670/728/780 682/727/780
f 241/359/781 330/358/781 682/727/781 668/724/781
f 668/724/782 682/727/782 669/730/782 590/725/782
f 327/360/783 241/359/783 668/724/783 683/723/783
f 239/357/784 327/360/784 683/723/784 666/732/784
f 666/732/785 683/723/785 667/726/785 589/733/785
f 593/744/786 556/745/787 664/720/787 684/719/788
f 555/746/789 593/744/786 684/719/788 665/706/789
f 665/706/790 684/719/790 658/722/790 586/707/790
f 594/747/791 557/748/791 663/716/791 685/715/791
f 556/745/792 594/747/792 685/715/792 664/720/792
f 664/720/793 685/715/793 659/718/793 587/721/793
f 595/749/794 551/750/794 611/712/794 686/711/794
f 557/748/795 595/749/795 686/711/795 663/716/795
f 663/716/796 686/711/796 662/714/796 588/717/796
f 662/714/797 569/713/797 612/710/797 687/709/797
f 588/717/798 662/714/798 687/709/798 660/751/798
f 660/751/799 687/709/799 321/317/799 238/369/799
f 592/752/800 555/746/800 665/706/800 688/705/800
f 553/753/801 592/752/801 688/705/801 608/754/801
f 608/754/802 688/705/802 661/708/802 567/755/802
f 612/710/803 569/713/803 657/702/803 689/701/803
f 212/318/804 612/710/804 689/701/804 316/374/804
f 316/374/805 689/701/805 648/704/805 229/375/805
f 611/712/806 551/750/806 596/698/806 690/697/806
f 569/713/807 611/712/807 690/697/807 657/702/807
f 657/702/808 690/697/808 656/700/808 583/703/808
f 656/700/809 558/699/809 597/694/809 691/693/809
f 583/703/810 656/700/810 691/693/810 651/674/810
f 651/674/811 691/693/811 655/696/811 584/675/811
f 655/696/812 559/695/812 598/690/812 692/689/812
f 584/675/813 655/696/813 692/689/813 652/678/813
f 652/678/814 692/689/814 654/692/814 585/679/814
f 654/692/815 560/691/815 599/686/815 693/685/815
f 585/679/816 654/692/816 693/685/816 653/682/816
f 653/682/817 693/685/817 614/688/817 570/683/817
f 650/680/818 585/679/818 653/682/818 694/681/818
f 231/376/819 650/680/819 694/681/819 310/377/819
f 310/377/820 694/681/820 613/684/820 213/354/820
f 649/676/821 584/675/821 652/678/821 695/677/821
f 230/378/822 649/676/822 695/677/822 304/379/822
f 304/379/823 695/677/823 650/680/823 231/376/823
f 648/704/824 583/703/824 651/674/824 696/673/824
f 229/375/825 648/704/825 696/673/825 303/380/825
f 303/380/826 696/673/826 649/676/826 230/378/826
f 642/654/827 228/258/827 301/279/827 697/671/827
f 582/665/828 642/654/828 697/671/828 646/668/828
f 646/668/829 697/671/829 610/672/829 568/669/829
f 645/666/830 582/665/830 646/668/830 698/667/830
f 564/635/831 645/666/831 698/667/831 604/630/831
f 604/630/832 698/667/832 609/670/832 554/631/832
f 644/662/833 581/661/833 640/664/833 699/663/833
f 565/639/834 644/662/834 699/663/834 605/634/834
f 605/634/835 699/663/835 645/666/835 564/635/835
f 643/658/836 580/657/836 639/660/836 700/659/836
f 566/643/837 643/658/837 700/659/837 606/638/837
f 606/638/838 700/659/838 644/662/838 565/639/838
f 608/754/839 567/755/839 647/656/839 701/655/839
f 553/753/840 608/754/840 701/655/840 607/642/840
f 607/642/841 701/655/841 643/658/841 566/643/841
f 641/756/842 227/382/842 296/259/842 702/653/842
f 640/664/843 581/661/843 641/756/843
f 640/664/844 702/653/844 642/654/844 582/665/844
f 594/747/845 556/745/845 637/650/730 703/649/729
f 557/748/846 594/747/846 703/649/846 638/606/846
f 638/606/847 703/649/847 617/652/847 571/607/847
f 593/744/848 555/746/848 636/646/848 704/645/848
f 556/745/849 593/744/849 704/645/849 637/650/849
f 637/650/850 704/645/850 622/648/850 574/651/850
f 592/752/851 553/753/851 607/642/851 705/641/851
f 555/746/852 592/752/852 705/641/852 636/646/852
f 636/646/853 705/641/853 635/644/853 577/647/853
f 635/644/854 566/643/855 606/638/724 706/637/723
f 577/647/856 635/644/854 706/637/723 625/598/857
f 625/598/857 706/637/723 634/640/726 578/599/858
f 634/640/859 565/639/860 605/634/720 707/633/719
f 578/599/861 634/640/859 707/633/719 626/602/862
f 626/602/862 707/633/719 633/636/722 579/603/863
f 633/636/864 564/635/864 604/630/864 708/629/864
f 579/603/865 633/636/865 708/629/865 632/626/865
f 632/626/866 708/629/866 603/632/866 563/627/866
f 624/604/867 579/603/868 632/626/716 709/625/715
f 576/595/869 624/604/867 709/625/715 631/622/869
f 631/622/870 709/625/870 602/628/870 562/623/870
f 619/596/871 576/595/872 631/622/713 710/621/712
f 573/615/873 619/596/871 710/621/712 630/618/873
f 630/618/874 710/621/874 601/624/874 561/619/874
f 629/616/875 573/615/875 630/618/875 711/617/875
f 560/691/876 629/616/876 711/617/876 599/686/876
f 599/686/877 711/617/877 600/620/877 552/687/877
f 628/612/878 572/611/879 616/614/708 712/613/707
f 559/695/880 628/612/878 712/613/707 598/690/881
f 598/690/881 712/613/707 629/616/710 560/691/882
f 627/608/883 571/607/884 615/610/884 713/609/885
f 558/699/886 627/608/883 713/609/885 597/694/886
f 597/694/887 713/609/705 628/612/705 559/695/887
f 595/749/888 557/748/888 638/606/888 714/605/888
f 551/750/889 595/749/889 714/605/889 596/698/889
f 596/698/890 714/605/890 627/608/890 558/699/890
f 623/600/891 578/599/892 626/602/701 715/601/700
f 575/591/893 623/600/891 715/601/700 621/594/894
f 621/594/894 715/601/700 624/604/703 576/595/895
f 622/648/896 577/647/897 625/598/697 716/597/696
f 574/651/898 622/648/896 716/597/696 620/590/899
f 620/590/899 716/597/696 623/600/699 575/591/900
f 618/592/901 575/591/902 621/594/902 717/593/901
f 572/611/903 618/592/901 717/593/901 616/614/903
f 616/614/904 717/593/694 619/596/694 573/615/904
f 617/652/905 574/651/905 620/590/692 718/589/692
f 571/607/906 617/652/906 718/589/907 615/610/908
f 615/610/908 718/589/907 618/592/909 572/611/909
f 640/664/910 641/756/910 702/653/910
f 412/757/911 580/657/911 647/656/911 479/758/911
f 479/758/911 647/656/911 567/755/911 399/759/911
f 490/760/912 658/722/912 587/721/912 419/761/912
f 491/762/913 659/718/913 588/717/913 420/763/913
f 418/764/912 586/707/912 658/722/912 490/760/912
f 413/765/914 581/661/914 639/660/914 471/766/914
f 492/767/915 660/751/915 238/369/915 47/394/915
f 419/761/916 587/721/916 659/718/916 491/762/916
f 471/766/917 639/660/917 580/657/917 412/757/917
f 493/768/918 661/708/918 586/707/918 418/764/918
f 420/763/919 588/717/919 660/751/919 492/767/919
f 36/396/920 227/382/920 641/756/920 473/769/920
f 399/759/918 567/755/918 661/708/918 493/768/918
f 473/769/921 641/756/921 581/661/921 413/765/921
