# Blender 4.4.1
# www.blender.org
mtllib Hair2FixedFixed_.mtl
o hair2
v -0.500000 3.850060 0.500000
v -0.500000 4.850060 0.500000
v -0.500000 4.850060 -0.500000
v -0.158079 4.025411 0.755409
v 0.000000 4.516630 0.810668
v 0.000000 4.183490 0.810668
v -0.306404 4.794605 -0.650961
v -0.786626 3.880952 0.177159
v -0.572933 3.777127 0.296650
v -0.572933 4.053410 0.572933
v -0.609568 4.350060 0.609568
v -0.572933 4.646710 0.572933
v -0.572933 4.922993 0.296650
v -0.609568 4.959628 -0.000000
v -0.572933 4.922993 -0.296650
v -0.572933 4.646710 -0.572933
v -0.609568 4.350060 -0.609568
v -0.444545 4.656464 -0.650961
v -0.591250 4.941310 0.148325
v -0.536466 3.813594 0.398325
v -0.296650 4.922993 -0.572933
v 0.000000 4.959628 -0.609568
v -0.650961 3.905515 0.306404
v -0.824902 4.074553 0.163605
v -0.650961 3.905515 -0.306403
v -0.650961 4.043656 -0.444545
v -0.695698 4.350060 -0.471354
v -0.650961 4.656464 -0.444545
v -0.650961 4.794605 -0.306404
v -0.695698 4.821414 -0.000000
v -0.650961 4.794605 0.306403
v -0.650961 4.656464 0.444545
v -0.695698 4.350060 0.471354
v -0.650961 4.043656 0.444545
v -0.755409 4.508139 -0.324649
v -0.296650 3.777127 0.572933
v 0.000000 3.740492 0.609568
v -0.755409 4.191981 -0.324649
v -0.755409 4.674709 -0.158079
v 0.000000 4.959628 0.609568
v -0.296650 4.922993 0.572933
v -0.728990 4.033903 0.316157
v -0.781829 4.350060 0.333141
v -0.728990 4.666217 0.316157
v -0.903385 4.336420 0.030328
v -0.839506 4.350060 -0.000000
v -0.781829 4.683200 -0.000000
v -0.728990 4.033903 -0.316157
v -0.781829 4.350060 -0.333140
v -0.728990 4.666217 -0.316157
v -0.591250 3.758810 0.148325
v -0.622797 3.765580 0.156702
v -0.092302 3.492192 0.362655
v -0.536466 4.886527 0.398325
v -0.536466 4.748385 0.536466
v -0.591250 4.498385 0.591250
v -0.831538 4.311215 -0.145894
v -0.755409 4.025411 -0.158079
v -0.810668 4.516630 -0.000000
v -0.835269 4.213450 0.159345
v -0.755409 4.674709 0.158079
v -0.807526 4.285775 0.127472
v -0.755409 4.025411 0.158079
v -0.755409 4.508139 0.324649
v -0.755409 4.191981 0.324649
v -0.398325 4.886527 0.536466
v -0.148325 4.941310 0.591250
v -0.148325 3.758810 0.591250
v -0.398325 3.813594 0.536467
v -0.148325 4.941310 -0.591250
v -0.398325 4.886527 -0.536466
v 0.000000 4.016920 0.781829
v 0.000000 4.350060 0.839506
v 0.000000 4.683201 0.781829
v -0.316157 4.033903 0.728990
v -0.333140 4.350060 0.781829
v -0.316157 4.666217 0.728990
v -0.591250 4.201735 0.591250
v -0.333140 3.568231 -0.000000
v -0.536466 3.951735 0.536466
v -0.310357 3.613077 0.319056
v 0.000000 3.568231 0.333141
v -0.591250 4.498385 -0.591250
v -0.536466 4.748385 -0.536466
v 0.000000 5.131889 -0.333141
v -0.316157 5.079050 -0.316157
v -0.536466 4.886527 -0.398325
v 0.000000 5.189566 -0.000000
v -0.333140 5.131889 -0.000000
v -0.591250 4.941310 -0.148325
v 0.000000 5.131889 0.333140
v -0.316157 5.079050 0.316157
v -0.166570 4.350060 0.810668
v -0.158079 4.674709 0.755409
v -0.324649 4.191982 0.755409
v -0.324649 4.508139 0.755409
v 0.000000 4.821414 0.695698
v -0.306404 4.794605 0.650961
v -0.444545 4.656464 0.650961
v -0.471354 4.350060 0.695698
v -0.444545 4.043656 0.650961
v -0.306404 3.905515 0.650961
v 0.000000 3.878706 0.695698
v -0.324649 3.594651 0.158079
v -0.158079 3.594651 0.324649
v 0.000000 3.654362 0.471354
v -0.306404 3.699099 0.444545
v -0.444545 3.699099 0.306404
v -0.471354 3.654362 -0.000000
v -0.158079 5.105469 -0.324649
v 0.000000 5.160728 -0.166570
v -0.324649 5.105469 -0.158079
v -0.166570 5.160728 -0.000000
v 0.000000 5.160728 0.166570
v -0.324649 5.105469 0.158078
v -0.158079 5.105470 0.324649
v 0.000000 5.045758 -0.471354
v -0.306404 5.001021 -0.444545
v -0.444545 5.001021 -0.306404
v -0.471354 5.045758 -0.000000
v -0.444545 5.001021 0.306403
v -0.306404 5.001021 0.444545
v 0.000000 5.045758 0.471354
v -0.153202 5.023390 0.457949
v -0.421435 4.943774 0.421435
v -0.457950 5.023390 0.153202
v -0.457950 5.023390 -0.153202
v -0.421435 4.943774 -0.421435
v -0.153202 5.023390 -0.457950
v -0.162324 5.133099 0.162324
v -0.162324 5.133099 -0.162325
v -0.457950 3.676730 0.153202
v -0.421435 3.756346 0.421435
v -0.153202 3.676730 0.457950
v -0.153202 3.892111 0.673330
v -0.421435 3.928625 0.593714
v -0.457950 4.196858 0.673330
v -0.457950 4.503262 0.673330
v -0.421435 4.771495 0.593714
v -0.153202 4.808010 0.673330
v -0.162324 4.512384 0.783038
v -0.162324 4.187736 0.783038
v -0.421435 4.771495 -0.593714
v -0.673330 3.892110 0.153202
v -0.673330 3.892110 -0.153202
v -0.672723 3.760067 -0.261991
v -0.658126 4.171396 -0.473627
v -0.673330 4.503262 -0.457950
v -0.593714 4.771495 -0.421435
v -0.673330 4.808010 -0.153202
v -0.673330 4.808010 0.153202
v -0.593714 4.771495 0.421435
v -0.673330 4.503262 0.457950
v -0.673330 4.196858 0.457950
v -0.593714 3.928625 0.421435
v -0.783038 4.512384 -0.162324
v -0.783038 4.187736 -0.162324
v -0.783038 4.512384 0.162324
v -0.783038 4.187736 0.162324
v -0.159564 3.548068 0.338127
v -0.357603 3.533360 0.199334
v -0.325459 3.514922 0.055407
v -0.894026 4.338986 -0.078274
v -0.858791 4.223214 -0.133558
v -0.796305 4.073092 -0.155239
v -0.742390 3.908340 -0.161576
v -0.574367 4.106581 -0.606793
v -0.548863 3.906284 -0.490924
v -0.531651 4.432926 -0.650012
v -0.574010 4.285857 -0.635728
v -0.405169 4.602861 -0.676727
v -0.262726 4.734507 -0.643076
v -0.137606 4.867653 -0.624574
v 0.500000 3.850060 0.500000
v 0.500000 4.850060 0.500000
v 0.500000 4.850060 -0.500000
v 0.158079 4.025411 0.755409
v 0.306404 4.794605 -0.650961
v 0.786626 3.880952 0.177159
v 0.572933 3.777127 0.296650
v 0.572933 4.053410 0.572933
v 0.609568 4.350060 0.609568
v 0.572933 4.646710 0.572933
v 0.572933 4.922993 0.296650
v 0.609568 4.959628 -0.000000
v 0.572933 4.922993 -0.296650
v 0.572933 4.646710 -0.572933
v 0.609568 4.350060 -0.609568
v 0.444545 4.656464 -0.650961
v 0.591250 4.941310 0.148325
v 0.536466 3.813594 0.398325
v 0.296650 4.922993 -0.572933
v 0.650961 3.905515 0.306404
v 0.824902 4.074553 0.163605
v 0.650961 3.905515 -0.306403
v 0.650961 4.043656 -0.444545
v 0.695698 4.350060 -0.471354
v 0.650961 4.656464 -0.444545
v 0.650961 4.794605 -0.306404
v 0.695698 4.821414 -0.000000
v 0.650961 4.794605 0.306403
v 0.650961 4.656464 0.444545
v 0.695698 4.350060 0.471354
v 0.650961 4.043656 0.444545
v 0.755409 4.508139 -0.324649
v 0.296650 3.777127 0.572933
v 0.755409 4.191981 -0.324649
v 0.755409 4.674709 -0.158079
v 0.296650 4.922993 0.572933
v 0.728990 4.033903 0.316157
v 0.781829 4.350060 0.333141
v 0.728990 4.666217 0.316157
v 0.903385 4.336420 0.030328
v 0.839506 4.350060 -0.000000
v 0.781829 4.683200 -0.000000
v 0.728990 4.033903 -0.316157
v 0.781829 4.350060 -0.333140
v 0.728990 4.666217 -0.316157
v 0.591250 3.758810 0.148325
v 0.622797 3.765580 0.156702
v 0.092302 3.492192 0.362655
v 0.536466 4.886527 0.398325
v 0.536466 4.748385 0.536466
v 0.591250 4.498385 0.591250
v 0.831538 4.311215 -0.145894
v 0.755409 4.025411 -0.158079
v 0.810668 4.516630 -0.000000
v 0.835269 4.213450 0.159345
v 0.755409 4.674709 0.158079
v 0.807526 4.285775 0.127472
v 0.755409 4.025411 0.158079
v 0.755409 4.508139 0.324649
v 0.755409 4.191981 0.324649
v 0.398325 4.886527 0.536466
v 0.148325 4.941310 0.591250
v 0.148325 3.758810 0.591250
v 0.398325 3.813594 0.536467
v 0.148325 4.941310 -0.591250
v 0.398325 4.886527 -0.536466
v 0.316157 4.033903 0.728990
v 0.333140 4.350060 0.781829
v 0.316157 4.666217 0.728990
v 0.591250 4.201735 0.591250
v 0.333140 3.568231 -0.000000
v 0.536466 3.951735 0.536466
v 0.310357 3.613077 0.319056
v 0.591250 4.498385 -0.591250
v 0.536466 4.748385 -0.536466
v 0.316157 5.079050 -0.316157
v 0.536466 4.886527 -0.398325
v 0.333140 5.131889 -0.000000
v 0.591250 4.941310 -0.148325
v 0.316157 5.079050 0.316157
v 0.166570 4.350060 0.810668
v 0.158079 4.674709 0.755409
v 0.324649 4.191982 0.755409
v 0.324649 4.508139 0.755409
v 0.306404 4.794605 0.650961
v 0.444545 4.656464 0.650961
v 0.471354 4.350060 0.695698
v 0.444545 4.043656 0.650961
v 0.306404 3.905515 0.650961
v 0.324649 3.594651 0.158079
v 0.158079 3.594651 0.324649
v 0.306404 3.699099 0.444545
v 0.444545 3.699099 0.306404
v 0.471354 3.654362 -0.000000
v 0.158079 5.105469 -0.324649
v 0.324649 5.105469 -0.158079
v 0.166570 5.160728 -0.000000
v 0.324649 5.105469 0.158078
v 0.158079 5.105470 0.324649
v 0.306404 5.001021 -0.444545
v 0.444545 5.001021 -0.306404
v 0.471354 5.045758 -0.000000
v 0.444545 5.001021 0.306403
v 0.306404 5.001021 0.444545
v 0.153202 5.023390 0.457949
v 0.421435 4.943774 0.421435
v 0.457950 5.023390 0.153202
v 0.457950 5.023390 -0.153202
v 0.421435 4.943774 -0.421435
v 0.153202 5.023390 -0.457950
v 0.162324 5.133099 0.162324
v 0.162324 5.133099 -0.162325
v 0.457950 3.676730 0.153202
v 0.421435 3.756346 0.421435
v 0.153202 3.676730 0.457950
v 0.153202 3.892111 0.673330
v 0.421435 3.928625 0.593714
v 0.457950 4.196858 0.673330
v 0.457950 4.503262 0.673330
v 0.421435 4.771495 0.593714
v 0.153202 4.808010 0.673330
v 0.162324 4.512384 0.783038
v 0.162324 4.187736 0.783038
v 0.421435 4.771495 -0.593714
v 0.673330 3.892110 0.153202
v 0.673330 3.892110 -0.153202
v 0.672723 3.760067 -0.261991
v 0.658126 4.171396 -0.473627
v 0.673330 4.503262 -0.457950
v 0.593714 4.771495 -0.421435
v 0.673330 4.808010 -0.153202
v 0.673330 4.808010 0.153202
v 0.593714 4.771495 0.421435
v 0.673330 4.503262 0.457950
v 0.673330 4.196858 0.457950
v 0.593714 3.928625 0.421435
v 0.783038 4.512384 -0.162324
v 0.783038 4.187736 -0.162324
v 0.783038 4.512384 0.162324
v 0.783038 4.187736 0.162324
v 0.159564 3.548068 0.338127
v 0.357603 3.533360 0.199334
v 0.325459 3.514922 0.055407
v 0.894026 4.338986 -0.078274
v 0.858791 4.223214 -0.133558
v 0.796305 4.073092 -0.155239
v 0.742390 3.908340 -0.161576
v 0.574367 4.106581 -0.606793
v 0.548863 3.906284 -0.490924
v 0.531651 4.432926 -0.650012
v 0.574010 4.285857 -0.635728
v 0.405169 4.602861 -0.676727
v 0.262726 4.734507 -0.643076
v 0.137606 4.867653 -0.624574
v -0.447347 3.910547 0.460602
v -0.447347 4.805242 0.460602
v -0.447347 4.805242 -0.434093
v -0.141432 4.067433 0.689115
v 0.000000 4.506924 0.738554
v 0.000000 4.208865 0.738554
v -0.274138 4.755626 -0.569157
v -0.703790 3.938186 0.171758
v -0.512600 3.845294 0.278666
v -0.512600 4.092483 0.525854
v -0.545377 4.357894 0.558632
v -0.512600 4.623305 0.525854
v -0.512600 4.870494 0.278666
v -0.545377 4.903272 0.013254
v -0.512600 4.870494 -0.252157
v -0.512600 4.623305 -0.499345
v -0.545377 4.357894 -0.532123
v -0.397732 4.632032 -0.569157
v -0.528988 4.886883 0.145960
v -0.479974 3.877921 0.369634
v -0.265411 4.870494 -0.499345
v 0.000000 4.903271 -0.532123
v -0.582412 3.960162 0.287392
v -0.738036 4.111400 0.159631
v -0.582412 3.960162 -0.260883
v -0.582412 4.083756 -0.384477
v -0.622438 4.357894 -0.408464
v -0.582412 4.632032 -0.384478
v -0.582412 4.755626 -0.260883
v -0.622438 4.779613 0.013254
v -0.582412 4.755626 0.287392
v -0.582412 4.632032 0.410986
v -0.622438 4.357894 0.434973
v -0.582412 4.083757 0.410987
v -0.675861 4.499326 -0.277207
v -0.265411 3.845294 0.525854
v 0.000000 3.812517 0.558632
v -0.675861 4.216462 -0.277207
v -0.675861 4.648356 -0.128178
v 0.000000 4.903272 0.558632
v -0.265411 4.870494 0.525854
v -0.652223 4.075030 0.296119
v -0.699498 4.357894 0.311314
v -0.652223 4.640759 0.296119
v -0.808254 4.345691 0.040389
v -0.751102 4.357894 0.013254
v -0.699498 4.655953 0.013254
v -0.652223 4.075030 -0.269610
v -0.699498 4.357894 -0.284805
v -0.652223 4.640759 -0.269610
v -0.528988 3.828906 0.145960
v -0.557213 3.834963 0.153455
v -0.082582 3.590365 0.337720
v -0.479974 4.837868 0.369634
v -0.479974 4.714273 0.493228
v -0.528989 4.490600 0.542243
v -0.743973 4.323140 -0.117276
v -0.675861 4.067433 -0.128178
v -0.725300 4.506924 0.013254
v -0.747310 4.235670 0.155820
v -0.675861 4.648356 0.154686
v -0.722490 4.300379 0.127303
v -0.675861 4.067433 0.154687
v -0.675861 4.499326 0.303716
v -0.675861 4.216462 0.303716
v -0.356379 4.837868 0.493228
v -0.132706 4.886883 0.542243
v -0.132706 3.828906 0.542243
v -0.356379 3.877921 0.493228
v -0.132706 4.886883 -0.515734
v -0.356379 4.837868 -0.466719
v 0.000000 4.059835 0.712753
v 0.000000 4.357894 0.764356
v 0.000000 4.655953 0.712752
v -0.282864 4.075030 0.665478
v -0.298059 4.357894 0.712753
v -0.282864 4.640759 0.665478
v -0.528988 4.225189 0.542243
v -0.298059 3.658396 0.013255
v -0.479974 4.001515 0.493228
v -0.277675 3.698520 0.298712
v 0.000000 3.658396 0.311314
v -0.528989 4.490600 -0.515734
v -0.479974 4.714273 -0.466719
v 0.000000 5.057392 -0.284805
v -0.282864 5.010118 -0.269610
v -0.479974 4.837868 -0.343125
v 0.000000 5.108996 0.013254
v -0.298059 5.057392 0.013254
v -0.528989 4.886883 -0.119451
v 0.000000 5.057393 0.311313
v -0.282864 5.010118 0.296118
v -0.149030 4.357894 0.738554
v -0.141432 4.648356 0.689115
v -0.290462 4.216462 0.689115
v -0.290462 4.499326 0.689115
v 0.000000 4.779613 0.635692
v -0.274138 4.755626 0.595666
v -0.397732 4.632032 0.595666
v -0.421718 4.357894 0.635692
v -0.397732 4.083757 0.595666
v -0.274138 3.960162 0.595666
v 0.000000 3.936176 0.635692
v -0.290462 3.682034 0.154687
v -0.141432 3.682034 0.303716
v 0.000000 3.735457 0.434973
v -0.274138 3.775483 0.410987
v -0.397732 3.775483 0.287392
v -0.421718 3.735457 0.013255
v -0.141432 5.033755 -0.277207
v 0.000000 5.083194 -0.135775
v -0.290462 5.033755 -0.128178
v -0.149030 5.083194 0.013254
v 0.000000 5.083194 0.162284
v -0.290462 5.033755 0.154686
v -0.141432 5.033755 0.303716
v 0.000000 4.980332 -0.408464
v -0.274138 4.940306 -0.384478
v -0.397732 4.940306 -0.260883
v -0.421718 4.980332 0.013254
v -0.397732 4.940306 0.287392
v -0.274138 4.940306 0.410986
v 0.000000 4.980332 0.434972
v -0.137069 4.960319 0.422979
v -0.377056 4.889087 0.390310
v -0.409725 4.960319 0.150323
v -0.409725 4.960319 -0.123814
v -0.377056 4.889087 -0.363801
v -0.137069 4.960319 -0.396471
v -0.145231 5.058475 0.158485
v -0.145231 5.058475 -0.131976
v -0.409725 3.755470 0.150323
v -0.377056 3.826702 0.390310
v -0.137069 3.755470 0.422980
v -0.137069 3.948169 0.615679
v -0.377056 3.980839 0.544447
v -0.409725 4.220826 0.615679
v -0.409725 4.494963 0.615679
v -0.377056 4.734950 0.544447
v -0.137069 4.767620 0.615679
v -0.145231 4.503125 0.713835
v -0.145231 4.212664 0.713835
v -0.377056 4.734950 -0.517938
v -0.602425 3.948169 0.150323
v -0.602425 3.948169 -0.123814
v -0.601882 3.830030 -0.221147
v -0.588822 4.198045 -0.410497
v -0.602425 4.494963 -0.396471
v -0.531193 4.734950 -0.363801
v -0.602425 4.767619 -0.123814
v -0.602425 4.767619 0.150323
v -0.531193 4.734950 0.390310
v -0.602425 4.494963 0.422980
v -0.602425 4.220826 0.422980
v -0.531193 3.980839 0.390310
v -0.700580 4.503125 -0.131976
v -0.700580 4.212664 -0.131976
v -0.700580 4.503125 0.158485
v -0.700580 4.212664 0.158485
v -0.142761 3.640356 0.315775
v -0.319945 3.627197 0.191598
v -0.291186 3.610700 0.062827
v -0.799880 4.347986 -0.056777
v -0.768356 4.244405 -0.106239
v -0.712450 4.110092 -0.125637
v -0.664213 3.962689 -0.131307
v -0.513883 4.140055 -0.529640
v -0.491065 3.960850 -0.425972
v -0.475666 4.432034 -0.568308
v -0.513564 4.300452 -0.555528
v -0.362502 4.584074 -0.592210
v -0.235060 4.701857 -0.562102
v -0.123115 4.820982 -0.545548
v 0.447347 3.910547 0.460602
v 0.447347 4.805242 0.460602
v 0.447347 4.805242 -0.434093
v 0.141432 4.067433 0.689115
v 0.274138 4.755626 -0.569157
v 0.703790 3.938186 0.171758
v 0.512600 3.845294 0.278666
v 0.512600 4.092483 0.525854
v 0.545377 4.357894 0.558632
v 0.512600 4.623305 0.525854
v 0.512600 4.870494 0.278666
v 0.545377 4.903272 0.013254
v 0.512600 4.870494 -0.252157
v 0.512600 4.623305 -0.499345
v 0.545377 4.357894 -0.532123
v 0.397732 4.632032 -0.569157
v 0.528988 4.886883 0.145960
v 0.479974 3.877921 0.369634
v 0.265411 4.870494 -0.499345
v 0.582412 3.960162 0.287392
v 0.738036 4.111400 0.159631
v 0.582412 3.960162 -0.260883
v 0.582412 4.083756 -0.384477
v 0.622438 4.357894 -0.408464
v 0.582412 4.632032 -0.384478
v 0.582412 4.755626 -0.260883
v 0.622438 4.779613 0.013254
v 0.582412 4.755626 0.287392
v 0.582412 4.632032 0.410986
v 0.622438 4.357894 0.434973
v 0.582412 4.083757 0.410987
v 0.675861 4.499326 -0.277207
v 0.265411 3.845294 0.525854
v 0.675861 4.216462 -0.277207
v 0.675861 4.648356 -0.128178
v 0.265411 4.870494 0.525854
v 0.652223 4.075030 0.296119
v 0.699498 4.357894 0.311314
v 0.652223 4.640759 0.296119
v 0.808254 4.345691 0.040389
v 0.751102 4.357894 0.013254
v 0.699498 4.655953 0.013254
v 0.652223 4.075030 -0.269610
v 0.699498 4.357894 -0.284805
v 0.652223 4.640759 -0.269610
v 0.528988 3.828906 0.145960
v 0.557213 3.834963 0.153455
v 0.082582 3.590365 0.337720
v 0.479974 4.837868 0.369634
v 0.479974 4.714273 0.493228
v 0.528989 4.490600 0.542243
v 0.743973 4.323140 -0.117276
v 0.675861 4.067433 -0.128178
v 0.725300 4.506924 0.013254
v 0.747310 4.235670 0.155820
v 0.675861 4.648356 0.154686
v 0.722490 4.300379 0.127303
v 0.675861 4.067433 0.154687
v 0.675861 4.499326 0.303716
v 0.675861 4.216462 0.303716
v 0.356379 4.837868 0.493228
v 0.132706 4.886883 0.542243
v 0.132706 3.828906 0.542243
v 0.356379 3.877921 0.493228
v 0.132706 4.886883 -0.515734
v 0.356379 4.837868 -0.466719
v 0.282864 4.075030 0.665478
v 0.298059 4.357894 0.712753
v 0.282864 4.640759 0.665478
v 0.528988 4.225189 0.542243
v 0.298059 3.658396 0.013255
v 0.479974 4.001515 0.493228
v 0.277675 3.698520 0.298712
v 0.528989 4.490600 -0.515734
v 0.479974 4.714273 -0.466719
v 0.282864 5.010118 -0.269610
v 0.479974 4.837868 -0.343125
v 0.298059 5.057392 0.013254
v 0.528989 4.886883 -0.119451
v 0.282864 5.010118 0.296118
v 0.149030 4.357894 0.738554
v 0.141432 4.648356 0.689115
v 0.290462 4.216462 0.689115
v 0.290462 4.499326 0.689115
v 0.274138 4.755626 0.595666
v 0.397732 4.632032 0.595666
v 0.421718 4.357894 0.635692
v 0.397732 4.083757 0.595666
v 0.274138 3.960162 0.595666
v 0.290462 3.682034 0.154687
v 0.141432 3.682034 0.303716
v 0.274138 3.775483 0.410987
v 0.397732 3.775483 0.287392
v 0.421718 3.735457 0.013255
v 0.141432 5.033755 -0.277207
v 0.290462 5.033755 -0.128178
v 0.149029 5.083194 0.013254
v 0.290462 5.033755 0.154686
v 0.141432 5.033755 0.303716
v 0.274138 4.940306 -0.384478
v 0.397732 4.940306 -0.260883
v 0.421718 4.980332 0.013254
v 0.397732 4.940306 0.287392
v 0.274138 4.940306 0.410986
v 0.137069 4.960319 0.422979
v 0.377056 4.889087 0.390310
v 0.409725 4.960319 0.150323
v 0.409725 4.960319 -0.123814
v 0.377056 4.889087 -0.363801
v 0.137069 4.960319 -0.396471
v 0.145231 5.058475 0.158485
v 0.145231 5.058475 -0.131976
v 0.409725 3.755470 0.150323
v 0.377056 3.826702 0.390310
v 0.137069 3.755470 0.422980
v 0.137069 3.948169 0.615679
v 0.377056 3.980839 0.544447
v 0.409725 4.220826 0.615679
v 0.409725 4.494963 0.615679
v 0.377056 4.734950 0.544447
v 0.137069 4.767620 0.615679
v 0.145231 4.503125 0.713835
v 0.145231 4.212664 0.713835
v 0.377056 4.734950 -0.517938
v 0.602425 3.948169 0.150323
v 0.602425 3.948169 -0.123814
v 0.601882 3.830030 -0.221147
v 0.588822 4.198045 -0.410497
v 0.602425 4.494963 -0.396471
v 0.531193 4.734950 -0.363801
v 0.602425 4.767619 -0.123814
v 0.602425 4.767619 0.150323
v 0.531193 4.734950 0.390310
v 0.602425 4.494963 0.422980
v 0.602425 4.220826 0.422980
v 0.531193 3.980839 0.390310
v 0.700580 4.503125 -0.131976
v 0.700580 4.212664 -0.131976
v 0.700580 4.503125 0.158485
v 0.700580 4.212664 0.158485
v 0.142761 3.640356 0.315775
v 0.319945 3.627197 0.191598
v 0.291186 3.610700 0.062827
v 0.799880 4.347986 -0.056777
v 0.768356 4.244405 -0.106239
v 0.712450 4.110092 -0.125637
v 0.664213 3.962689 -0.131307
v 0.513883 4.140055 -0.529640
v 0.491065 3.960850 -0.425972
v 0.475666 4.432034 -0.568308
v 0.513564 4.300452 -0.555528
v 0.362502 4.584074 -0.592210
v 0.235060 4.701857 -0.562102
v 0.123115 4.820982 -0.545548
vn 0.1244 0.3598 0.9247
vn -0.9706 0.1697 0.1705
vn -0.9708 0.1689 0.1705
vn -0.9402 -0.2435 -0.2380
vn -0.9706 0.1697 -0.1705
vn -0.9705 0.1705 -0.1705
vn -0.7401 -0.4755 0.4755
vn -0.8367 -0.1678 0.5213
vn -0.8367 -0.1678 0.5214
vn -0.8367 0.1678 0.5213
vn -0.7503 0.4786 0.4560
vn -0.8367 0.5213 0.1678
vn -0.8367 0.5213 0.1677
vn -0.8367 0.5214 0.1677
vn -0.8367 0.5214 0.1678
vn -0.8367 0.5213 -0.1678
vn -0.8367 0.5213 -0.1677
vn -0.7644 0.4559 -0.4559
vn -0.8367 0.1678 -0.5213
vn -0.8367 0.1677 -0.5213
vn -0.7322 -0.4816 -0.4816
vn -0.8367 -0.5213 -0.1678
vn -0.3624 -0.0184 -0.9318
vn -0.5213 0.8367 -0.1678
vn -0.5214 0.8367 -0.1678
vn -0.5214 0.8367 0.1678
vn -0.5214 0.8367 0.1677
vn -0.5213 0.8367 0.1677
vn -0.5213 0.8367 0.1678
vn -0.1705 0.9706 -0.1697
vn -0.1705 0.9705 -0.1705
vn -0.1697 0.9706 -0.1705
vn -0.1697 0.9708 -0.1697
vn -0.1705 0.9708 -0.1689
vn -0.1697 0.9709 -0.1689
vn -0.4560 0.7503 0.4786
vn -0.1678 0.8367 0.5213
vn -0.1678 0.8367 0.5214
vn -0.4560 0.4786 -0.7503
vn -0.5213 0.1678 0.8367
vn -0.1678 0.5214 0.8367
vn -0.1678 0.5213 0.8367
vn -0.5214 0.1678 0.8367
vn -0.5213 0.1677 0.8367
vn -0.5214 0.1677 0.8367
vn -0.5213 -0.1678 0.8367
vn -0.1689 0.1689 0.9711
vn -0.1697 0.1689 0.9709
vn -0.1697 0.1697 0.9708
vn -0.1689 0.1697 0.9709
vn -0.4755 0.4755 0.7401
vn -0.1689 0.9709 -0.1697
vn -0.1689 0.9711 -0.1689
vn -0.1689 0.9709 0.1697
vn -0.1689 0.9708 0.1705
vn -0.1697 0.9706 0.1705
vn -0.1697 0.9708 0.1697
vn -0.1689 0.9711 0.1689
vn -0.1697 0.9709 0.1689
vn -0.1705 0.9706 0.1697
vn -0.1705 0.9708 0.1689
vn -0.1697 0.1705 0.9706
vn -0.1689 0.1705 0.9708
vn -0.5214 -0.1678 0.8367
vn -0.1677 -0.5214 0.8367
vn -0.1678 -0.5214 0.8367
vn -0.1678 -0.5213 0.8367
vn -0.1677 -0.5213 0.8367
vn -0.1678 -0.8367 0.5214
vn -0.1678 -0.8367 0.5213
vn -0.1705 -0.1689 0.9708
vn -0.1697 -0.1689 0.9709
vn -0.1697 -0.1697 0.9708
vn -0.1705 -0.1697 0.9706
vn -0.1677 -0.8367 0.5213
vn -0.4786 -0.7503 0.4560
vn -0.4786 0.4560 -0.7503
vn -0.4755 -0.4755 0.7401
vn -0.4559 -0.4559 0.7644
vn -0.1677 0.8367 -0.5213
vn -0.1678 0.8367 -0.5213
vn -0.1677 0.8367 -0.5214
vn -0.1678 0.8367 -0.5214
vn -0.1689 -0.1697 0.9709
vn -0.1689 -0.1705 0.9708
vn -0.1697 -0.1705 0.9706
vn -0.1705 0.1697 0.9706
vn -0.1705 0.1705 0.9705
vn 0.0087 0.3527 0.9357
vn -0.4868 -0.7253 0.4868
vn -0.1443 -0.8276 0.5425
vn -0.1705 -0.1705 0.9705
vn -0.5213 -0.8367 0.1678
vn -0.5213 -0.8367 0.1677
vn -0.1677 0.5213 0.8367
vn -0.4559 0.4559 0.7644
vn -0.5214 -0.1677 0.8367
vn -0.5213 -0.1677 0.8367
vn -0.4786 -0.4560 0.7503
vn -0.5214 -0.8367 0.1678
vn -0.4786 0.7503 0.4560
vn -0.4559 0.7644 -0.4559
vn -0.4755 0.7401 0.4755
vn -0.5213 0.8367 -0.1677
vn -0.4560 0.4786 0.7503
vn -0.1705 0.1689 0.9708
vn -0.4560 -0.4786 0.7503
vn -0.4559 0.4559 -0.7644
vn -0.4559 -0.7644 0.4559
vn -0.1677 -0.8367 0.5214
vn -0.4560 -0.7503 0.4786
vn -0.5329 -0.8318 0.1550
vn -0.1677 0.8367 0.5213
vn -0.1677 0.8367 0.5214
vn -0.4560 0.7503 -0.4786
vn -0.1689 0.9708 -0.1705
vn -0.4755 0.7401 -0.4755
vn -0.1705 0.9705 0.1705
vn -0.1677 0.5214 0.8367
vn -0.4786 0.4560 0.7503
vn -0.4786 0.7503 -0.4560
vn -0.5214 0.8367 -0.1677
vn -0.4559 0.7644 0.4559
vn -0.1689 -0.1689 0.9711
vn 0.2819 0.1388 0.9493
vn -0.8367 -0.5213 0.1677
vn -0.8367 -0.5213 0.1678
vn 0.1980 0.0862 0.9764
vn 0.1588 0.9562 -0.2459
vn -0.9852 0.1063 -0.1345
vn -0.8364 -0.1669 -0.5221
vn -0.8363 -0.1678 -0.5220
vn -0.8364 -0.1690 -0.5214
vn -0.8362 -0.1685 -0.5219
vn -0.8363 -0.1689 -0.5216
vn -0.8367 0.1678 -0.5214
vn -0.8367 0.1677 -0.5214
vn -0.7503 0.4560 -0.4786
vn -0.7401 0.4755 -0.4755
vn -0.7503 0.4786 -0.4560
vn -0.8367 0.5214 -0.1678
vn -0.8367 0.5214 -0.1677
vn -0.7401 0.4755 0.4755
vn -0.7503 0.4560 0.4786
vn -0.7644 0.4559 0.4559
vn -0.8367 0.1678 0.5214
vn -0.8367 0.1677 0.5214
vn -0.8367 0.1677 0.5213
vn -0.8367 -0.1677 0.5213
vn -0.8367 -0.1677 0.5214
vn -0.7503 -0.4786 0.4560
vn -0.7644 -0.4559 0.4559
vn -0.7503 -0.4560 0.4786
vn -0.9613 0.1962 -0.1933
vn -0.9702 0.1978 -0.1397
vn -0.9708 0.1689 -0.1705
vn -0.9705 -0.1705 -0.1705
vn 0.0207 0.8948 0.4460
vn 0.0692 -0.0143 0.9975
vn -0.9679 0.1113 0.2254
vn -0.9849 0.1219 0.1228
vn -0.9705 0.1705 0.1705
vn -0.1236 -0.0470 -0.9912
vn -0.9705 -0.1705 0.1705
vn -0.9699 -0.1727 0.1718
vn -0.9702 -0.1703 0.1724
vn -0.9693 -0.1749 0.1730
vn -0.0016 0.2780 0.9606
vn -0.8743 0.4849 0.0221
vn -0.9950 -0.0748 0.0660
vn 0.1305 0.0441 -0.9905
vn -0.8365 -0.1693 -0.5212
vn -0.5213 0.1677 -0.8367
vn -0.4674 0.4674 -0.7504
vn -0.1677 0.5213 -0.8368
vn -0.8667 -0.1308 -0.4815
vn -0.6216 -0.2069 -0.7556
vn -0.5568 0.2136 -0.8027
vn -0.3817 0.1596 -0.9104
vn -0.2580 0.2580 -0.9311
vn 0.2849 0.0817 -0.9551
vn -0.1600 0.3875 -0.9079
vn -0.1244 0.3598 0.9247
vn 0.9706 0.1697 0.1705
vn 0.9708 0.1689 0.1705
vn 0.9402 -0.2435 -0.2380
vn 0.9706 0.1697 -0.1705
vn 0.9705 0.1705 -0.1705
vn 0.7401 -0.4755 0.4755
vn 0.8367 -0.1678 0.5213
vn 0.8367 -0.1678 0.5214
vn 0.8367 0.1678 0.5213
vn 0.7503 0.4786 0.4560
vn 0.8367 0.5213 0.1678
vn 0.8367 0.5214 0.1678
vn 0.8367 0.5214 0.1677
vn 0.8367 0.5213 0.1677
vn 0.8367 0.5213 -0.1678
vn 0.8367 0.5213 -0.1677
vn 0.7644 0.4559 -0.4559
vn 0.8367 0.1678 -0.5213
vn 0.8367 0.1677 -0.5213
vn 0.7322 -0.4816 -0.4816
vn 0.8367 -0.5213 -0.1678
vn 0.3624 -0.0184 -0.9318
vn 0.5213 0.8367 -0.1678
vn 0.5214 0.8367 -0.1678
vn 0.5214 0.8367 0.1678
vn 0.5213 0.8367 0.1678
vn 0.5213 0.8367 0.1677
vn 0.5214 0.8367 0.1677
vn 0.1705 0.9706 -0.1697
vn 0.1697 0.9708 -0.1697
vn 0.1697 0.9706 -0.1705
vn 0.1705 0.9705 -0.1705
vn 0.1705 0.9708 -0.1689
vn 0.1697 0.9709 -0.1689
vn 0.4560 0.7503 0.4786
vn 0.1678 0.8367 0.5213
vn 0.1678 0.8367 0.5214
vn 0.4560 0.4786 -0.7503
vn 0.5213 0.1678 0.8367
vn 0.1678 0.5214 0.8367
vn 0.1678 0.5213 0.8367
vn 0.5214 0.1678 0.8367
vn 0.5214 0.1677 0.8367
vn 0.5213 0.1677 0.8367
vn 0.5213 -0.1678 0.8367
vn 0.1689 0.1689 0.9711
vn 0.1689 0.1697 0.9709
vn 0.1697 0.1697 0.9708
vn 0.1697 0.1689 0.9709
vn 0.4755 0.4755 0.7401
vn 0.1689 0.9711 -0.1689
vn 0.1689 0.9709 -0.1697
vn 0.1689 0.9709 0.1697
vn 0.1697 0.9708 0.1697
vn 0.1697 0.9706 0.1705
vn 0.1689 0.9708 0.1705
vn 0.1689 0.9711 0.1689
vn 0.1697 0.9709 0.1689
vn 0.1705 0.9708 0.1689
vn 0.1705 0.9706 0.1697
vn 0.1689 0.1705 0.9708
vn 0.1697 0.1705 0.9706
vn 0.5214 -0.1678 0.8367
vn 0.1677 -0.5214 0.8367
vn 0.1677 -0.5213 0.8367
vn 0.1678 -0.5213 0.8367
vn 0.1678 -0.5214 0.8367
vn 0.1678 -0.8367 0.5214
vn 0.1678 -0.8367 0.5213
vn 0.1705 -0.1689 0.9708
vn 0.1705 -0.1697 0.9706
vn 0.1697 -0.1697 0.9708
vn 0.1697 -0.1689 0.9709
vn 0.1677 -0.8367 0.5213
vn 0.4786 -0.7503 0.4560
vn 0.4786 0.4560 -0.7503
vn 0.4755 -0.4755 0.7401
vn 0.4559 -0.4559 0.7644
vn 0.1677 0.8367 -0.5213
vn 0.1678 0.8367 -0.5213
vn 0.1677 0.8367 -0.5214
vn 0.1678 0.8367 -0.5214
vn 0.1697 -0.1705 0.9706
vn 0.1689 -0.1705 0.9708
vn 0.1689 -0.1697 0.9709
vn 0.1705 0.1705 0.9705
vn 0.1705 0.1697 0.9706
vn -0.0087 0.3527 0.9357
vn 0.4868 -0.7253 0.4868
vn 0.1443 -0.8276 0.5425
vn 0.1705 -0.1705 0.9705
vn 0.5213 -0.8367 0.1678
vn 0.5213 -0.8367 0.1677
vn 0.1677 0.5213 0.8367
vn 0.4559 0.4559 0.7644
vn 0.5213 -0.1677 0.8367
vn 0.5214 -0.1677 0.8367
vn 0.4786 -0.4560 0.7503
vn 0.5214 -0.8367 0.1678
vn 0.4786 0.7503 0.4560
vn 0.4559 0.7644 -0.4559
vn 0.4755 0.7401 0.4755
vn 0.5213 0.8367 -0.1677
vn 0.4560 0.4786 0.7503
vn 0.1705 0.1689 0.9708
vn 0.4560 -0.4786 0.7503
vn 0.4559 0.4559 -0.7644
vn 0.4559 -0.7644 0.4559
vn 0.1677 -0.8367 0.5214
vn 0.4560 -0.7503 0.4786
vn 0.5329 -0.8318 0.1550
vn 0.1677 0.8367 0.5214
vn 0.1677 0.8367 0.5213
vn 0.4560 0.7503 -0.4786
vn 0.1689 0.9708 -0.1705
vn 0.4755 0.7401 -0.4755
vn 0.1705 0.9705 0.1705
vn 0.1677 0.5214 0.8367
vn 0.4786 0.4560 0.7503
vn 0.4786 0.7503 -0.4560
vn 0.5214 0.8367 -0.1677
vn 0.4559 0.7644 0.4559
vn 0.1689 -0.1689 0.9711
vn -0.2819 0.1388 0.9493
vn 0.8367 -0.5213 0.1677
vn 0.8367 -0.5213 0.1678
vn -0.1980 0.0862 0.9764
vn -0.1588 0.9562 -0.2459
vn 0.9852 0.1063 -0.1345
vn 0.8364 -0.1669 -0.5221
vn 0.8364 -0.1689 -0.5214
vn 0.8363 -0.1678 -0.5220
vn 0.8363 -0.1689 -0.5216
vn 0.8362 -0.1685 -0.5219
vn 0.8367 0.1678 -0.5214
vn 0.8367 0.1677 -0.5214
vn 0.7503 0.4560 -0.4786
vn 0.7401 0.4755 -0.4755
vn 0.7503 0.4786 -0.4560
vn 0.8367 0.5214 -0.1678
vn 0.8367 0.5214 -0.1677
vn 0.7401 0.4755 0.4755
vn 0.7503 0.4560 0.4786
vn 0.7644 0.4559 0.4559
vn 0.8367 0.1678 0.5214
vn 0.8367 0.1677 0.5214
vn 0.8367 0.1677 0.5213
vn 0.8367 -0.1677 0.5213
vn 0.8367 -0.1677 0.5214
vn 0.7503 -0.4786 0.4560
vn 0.7644 -0.4559 0.4559
vn 0.7503 -0.4560 0.4786
vn 0.9613 0.1962 -0.1933
vn 0.9702 0.1978 -0.1397
vn 0.9708 0.1689 -0.1705
vn 0.9705 -0.1705 -0.1705
vn -0.0207 0.8948 0.4460
vn -0.0692 -0.0143 0.9975
vn 0.9679 0.1113 0.2254
vn 0.9849 0.1219 0.1228
vn 0.9705 0.1705 0.1705
vn 0.1236 -0.0470 -0.9912
vn 0.9705 -0.1705 0.1705
vn 0.9702 -0.1704 0.1724
vn 0.9699 -0.1727 0.1718
vn 0.9693 -0.1749 0.1730
vn 0.0016 0.2780 0.9606
vn 0.8743 0.4849 0.0221
vn 0.9950 -0.0748 0.0660
vn -0.1305 0.0441 -0.9905
vn 0.8365 -0.1693 -0.5212
vn 0.5213 0.1677 -0.8367
vn 0.4674 0.4674 -0.7504
vn 0.1677 0.5213 -0.8368
vn 0.8667 -0.1308 -0.4815
vn 0.6216 -0.2069 -0.7556
vn 0.5568 0.2136 -0.8027
vn 0.3817 0.1596 -0.9104
vn 0.2580 0.2580 -0.9311
vn -0.2849 0.0817 -0.9551
vn 0.1600 0.3875 -0.9079
vn -0.1244 -0.3598 -0.9247
vn 0.9706 -0.1697 -0.1705
vn 0.9708 -0.1689 -0.1705
vn 0.9402 0.2435 0.2380
vn 0.9706 -0.1697 0.1705
vn 0.8367 -0.1678 -0.5213
vn 0.7503 -0.4786 -0.4560
vn 0.8367 -0.5214 -0.1678
vn 0.8367 -0.5213 -0.1677
vn 0.7322 0.4816 0.4816
vn 0.3624 0.0184 0.9318
vn 0.5214 -0.8367 -0.1678
vn 0.5213 -0.8367 -0.1678
vn 0.5213 -0.8367 -0.1677
vn 0.5214 -0.8367 -0.1677
vn 0.1705 -0.9706 0.1697
vn 0.1697 -0.9708 0.1697
vn 0.1697 -0.9706 0.1705
vn 0.1705 -0.9705 0.1705
vn 0.1705 -0.9708 0.1689
vn 0.1697 -0.9709 0.1689
vn 0.4560 -0.7503 -0.4786
vn 0.1678 -0.8367 -0.5213
vn 0.1678 -0.8367 -0.5214
vn 0.5213 -0.1678 -0.8367
vn 0.1678 -0.5214 -0.8367
vn 0.1678 -0.5213 -0.8367
vn 0.5214 -0.1678 -0.8367
vn 0.5214 -0.1677 -0.8367
vn 0.5213 -0.1677 -0.8367
vn 0.5213 0.1678 -0.8367
vn 0.1689 -0.1689 -0.9711
vn 0.1689 -0.1697 -0.9709
vn 0.1697 -0.1697 -0.9708
vn 0.1697 -0.1689 -0.9709
vn 0.4755 -0.4755 -0.7401
vn 0.1689 -0.9711 0.1689
vn 0.1689 -0.9709 0.1697
vn 0.1689 -0.9709 -0.1697
vn 0.1697 -0.9708 -0.1697
vn 0.1697 -0.9706 -0.1705
vn 0.1689 -0.9708 -0.1705
vn 0.1689 -0.9711 -0.1689
vn 0.1697 -0.9709 -0.1689
vn 0.1705 -0.9708 -0.1689
vn 0.1705 -0.9706 -0.1697
vn 0.1689 -0.1705 -0.9708
vn 0.1697 -0.1705 -0.9706
vn 0.5214 0.1678 -0.8367
vn 0.1677 0.5214 -0.8367
vn 0.1677 0.5213 -0.8367
vn 0.1678 0.5213 -0.8367
vn 0.1678 0.5214 -0.8367
vn 0.1705 0.1689 -0.9708
vn 0.1705 0.1697 -0.9706
vn 0.1697 0.1697 -0.9708
vn 0.1697 0.1689 -0.9709
vn 0.4755 0.4755 -0.7401
vn 0.1697 0.1705 -0.9706
vn 0.1689 0.1705 -0.9708
vn 0.1689 0.1697 -0.9709
vn 0.1705 -0.1705 -0.9705
vn 0.1705 -0.1697 -0.9706
vn -0.0087 -0.3527 -0.9357
vn 0.4868 0.7253 -0.4868
vn 0.1443 0.8276 -0.5425
vn 0.1705 0.1705 -0.9705
vn 0.1677 -0.5213 -0.8367
vn 0.4559 -0.4559 -0.7644
vn 0.5214 0.1677 -0.8367
vn 0.4786 -0.7503 -0.4560
vn 0.4755 -0.7401 -0.4755
vn 0.4560 -0.4786 -0.7503
vn 0.1705 -0.1689 -0.9708
vn 0.5329 0.8318 -0.1550
vn 0.1677 -0.8367 -0.5214
vn 0.1677 -0.8367 -0.5213
vn 0.1689 -0.9708 0.1705
vn 0.4755 -0.7401 0.4755
vn 0.1705 -0.9705 -0.1705
vn 0.1677 -0.5214 -0.8367
vn 0.4786 -0.4560 -0.7503
vn 0.5214 -0.8367 0.1677
vn 0.4559 -0.7644 -0.4559
vn 0.1689 0.1689 -0.9711
vn -0.2819 -0.1388 -0.9493
vn -0.1980 -0.0862 -0.9764
vn -0.1588 -0.9562 0.2459
vn 0.9852 -0.1063 0.1345
vn 0.8364 0.1669 0.5221
vn 0.8364 0.1688 0.5215
vn 0.8363 0.1678 0.5220
vn 0.8363 0.1689 0.5216
vn 0.8362 0.1685 0.5219
vn 0.8367 -0.5214 0.1678
vn 0.8367 -0.5214 0.1677
vn 0.7401 -0.4755 -0.4755
vn 0.7503 -0.4560 -0.4786
vn 0.7644 -0.4559 -0.4559
vn 0.8367 -0.1678 -0.5214
vn 0.8367 -0.1677 -0.5214
vn 0.8367 -0.1677 -0.5213
vn 0.9613 -0.1962 0.1933
vn 0.9702 -0.1978 0.1397
vn 0.9708 -0.1689 0.1705
vn -0.0207 -0.8948 -0.4460
vn -0.0692 0.0143 -0.9975
vn 0.9679 -0.1113 -0.2254
vn 0.9849 -0.1219 -0.1228
vn 0.1236 0.0470 0.9912
vn 0.9702 0.1703 -0.1724
vn 0.9699 0.1727 -0.1718
vn 0.9693 0.1749 -0.1730
vn 0.0016 -0.2780 -0.9606
vn 0.8743 -0.4849 -0.0221
vn 0.9950 0.0748 -0.0660
vn -0.1305 -0.0441 0.9905
vn 0.8364 0.1693 0.5213
vn 0.4674 -0.4674 0.7504
vn 0.8667 0.1308 0.4815
vn 0.6216 0.2069 0.7556
vn 0.5568 -0.2136 0.8027
vn 0.3817 -0.1596 0.9104
vn 0.2580 -0.2580 0.9311
vn -0.2849 -0.0817 0.9551
vn 0.1600 -0.3875 0.9079
vn 0.1244 -0.3598 -0.9247
vn -0.9706 -0.1697 -0.1705
vn -0.9708 -0.1689 -0.1705
vn -0.9402 0.2435 0.2380
vn -0.9706 -0.1697 0.1705
vn -0.8367 -0.1678 -0.5213
vn -0.7503 -0.4786 -0.4560
vn -0.8367 -0.5213 -0.1677
vn -0.8367 -0.5214 -0.1678
vn -0.7322 0.4816 0.4816
vn -0.3624 0.0184 0.9318
vn -0.5214 -0.8367 -0.1678
vn -0.5214 -0.8367 -0.1677
vn -0.5213 -0.8367 -0.1677
vn -0.5213 -0.8367 -0.1678
vn -0.1705 -0.9706 0.1697
vn -0.1705 -0.9705 0.1705
vn -0.1697 -0.9706 0.1705
vn -0.1697 -0.9708 0.1697
vn -0.1705 -0.9708 0.1689
vn -0.1697 -0.9709 0.1689
vn -0.4560 -0.7503 -0.4786
vn -0.1678 -0.8367 -0.5213
vn -0.1678 -0.8367 -0.5214
vn -0.5213 -0.1678 -0.8367
vn -0.1678 -0.5214 -0.8367
vn -0.1678 -0.5213 -0.8367
vn -0.5214 -0.1678 -0.8367
vn -0.5213 -0.1677 -0.8367
vn -0.5214 -0.1677 -0.8367
vn -0.5213 0.1678 -0.8367
vn -0.1689 -0.1689 -0.9711
vn -0.1697 -0.1689 -0.9709
vn -0.1697 -0.1697 -0.9708
vn -0.1689 -0.1697 -0.9709
vn -0.4755 -0.4755 -0.7401
vn -0.1689 -0.9709 0.1697
vn -0.1689 -0.9711 0.1689
vn -0.1689 -0.9709 -0.1697
vn -0.1689 -0.9708 -0.1705
vn -0.1697 -0.9706 -0.1705
vn -0.1697 -0.9708 -0.1697
vn -0.1689 -0.9711 -0.1689
vn -0.1697 -0.9709 -0.1689
vn -0.1705 -0.9706 -0.1697
vn -0.1705 -0.9708 -0.1689
vn -0.1697 -0.1705 -0.9706
vn -0.1689 -0.1705 -0.9708
vn -0.5214 0.1678 -0.8367
vn -0.1677 0.5214 -0.8367
vn -0.1678 0.5214 -0.8367
vn -0.1678 0.5213 -0.8367
vn -0.1677 0.5213 -0.8367
vn -0.1705 0.1689 -0.9708
vn -0.1697 0.1689 -0.9709
vn -0.1697 0.1697 -0.9708
vn -0.1705 0.1697 -0.9706
vn -0.4755 0.4755 -0.7401
vn -0.1689 0.1697 -0.9709
vn -0.1689 0.1705 -0.9708
vn -0.1697 0.1705 -0.9706
vn -0.1705 -0.1697 -0.9706
vn -0.1705 -0.1705 -0.9705
vn 0.0087 -0.3527 -0.9357
vn -0.4868 0.7253 -0.4868
vn -0.1443 0.8276 -0.5425
vn -0.1705 0.1705 -0.9705
vn -0.1677 -0.5213 -0.8367
vn -0.4559 -0.4559 -0.7644
vn -0.5214 0.1677 -0.8367
vn -0.4786 -0.7503 -0.4560
vn -0.4755 -0.7401 -0.4755
vn -0.4560 -0.4786 -0.7503
vn -0.1705 -0.1689 -0.9708
vn -0.5329 0.8318 -0.1550
vn -0.1677 -0.8367 -0.5213
vn -0.1677 -0.8367 -0.5214
vn -0.1689 -0.9708 0.1705
vn -0.4755 -0.7401 0.4755
vn -0.1705 -0.9705 -0.1705
vn -0.1677 -0.5214 -0.8367
vn -0.4786 -0.4560 -0.7503
vn -0.5214 -0.8367 0.1677
vn -0.4559 -0.7644 -0.4559
vn -0.1689 0.1689 -0.9711
vn 0.2819 -0.1388 -0.9493
vn 0.1980 -0.0862 -0.9764
vn 0.1588 -0.9562 0.2459
vn -0.9852 -0.1063 0.1345
vn -0.8364 0.1669 0.5221
vn -0.8363 0.1678 0.5220
vn -0.8364 0.1689 0.5215
vn -0.8362 0.1685 0.5219
vn -0.8363 0.1689 0.5216
vn -0.8367 -0.5214 0.1678
vn -0.8367 -0.5214 0.1677
vn -0.7401 -0.4755 -0.4755
vn -0.7503 -0.4560 -0.4786
vn -0.7644 -0.4559 -0.4559
vn -0.8367 -0.1678 -0.5214
vn -0.8367 -0.1677 -0.5214
vn -0.8367 -0.1677 -0.5213
vn -0.9613 -0.1962 0.1933
vn -0.9702 -0.1978 0.1397
vn -0.9708 -0.1689 0.1705
vn 0.0207 -0.8948 -0.4460
vn 0.0692 0.0143 -0.9975
vn -0.9679 -0.1113 -0.2254
vn -0.9849 -0.1219 -0.1228
vn -0.1236 0.0470 0.9912
vn -0.9699 0.1727 -0.1718
vn -0.9702 0.1703 -0.1724
vn -0.9693 0.1749 -0.1730
vn -0.0016 -0.2780 -0.9606
vn -0.8743 -0.4849 -0.0221
vn -0.9950 0.0748 -0.0660
vn 0.1305 -0.0441 0.9905
vn -0.8364 0.1693 0.5213
vn -0.4674 -0.4674 0.7504
vn -0.8667 0.1308 0.4815
vn -0.6216 0.2069 0.7556
vn -0.5568 -0.2136 0.8027
vn -0.3817 -0.1596 0.9104
vn -0.2580 -0.2580 0.9311
vn 0.2849 -0.0817 0.9551
vn -0.1600 -0.3875 0.9079
vn 0.9131 -0.3491 0.2108
vn -0.1506 -0.2574 -0.9545
vn 0.3214 -0.0640 0.9448
vn -0.1389 -0.8153 -0.5621
vn -0.0303 -0.1373 -0.9901
vn 0.9191 -0.3780 -0.1110
vn 0.1389 -0.8153 -0.5621
vn 0.1783 -0.2705 0.9461
vn 0.9028 -0.3431 0.2593
vn 0.8749 -0.2826 -0.3932
vn 0.0748 -0.9933 0.0885
vn -0.0535 -0.6954 0.7166
vn -0.3701 0.0999 0.9236
vn -0.0485 0.0066 -0.9988
vn -0.0014 -0.9246 0.3810
vn -0.2234 -0.2478 0.9427
vn 0.0014 -0.9246 0.3810
vn -0.7607 0.1027 -0.6409
vn 0.5221 0.4391 -0.7312
vn -0.0712 -0.4250 -0.9024
vn -0.3214 -0.0640 0.9448
vn 0.0339 -0.9069 0.4201
vn -0.1783 -0.2705 0.9461
vn -0.5815 0.2893 -0.7604
vn 0.0583 0.0298 -0.9979
vn 0.3630 -0.5288 0.7672
vn -0.3305 0.2306 0.9152
vn -0.7834 -0.3075 -0.5401
vn 0.5178 -0.7823 0.3463
vn 0.0485 0.0066 -0.9988
vn -0.0748 -0.9933 0.0885
vn -0.7670 0.1905 -0.6127
vn 0.1155 -0.9740 -0.1947
vn 0.7607 0.1027 -0.6409
vn 0.0712 -0.4250 -0.9024
vn 0.6067 -0.5642 0.5600
vn 0.0071 -0.1293 -0.9916
vn -0.0339 -0.9069 0.4201
vn 0.2231 0.2336 -0.9464
vn -0.8032 -0.3488 -0.4830
vn -0.0730 0.1172 -0.9904
vn 0.5815 0.2893 -0.7604
vn 0.0303 -0.1373 -0.9901
vn 0.7303 -0.6448 0.2254
vn -0.0583 0.0298 -0.9979
vn -0.3630 -0.5288 0.7672
vn -0.1793 -0.6251 0.7597
vn -0.8324 -0.3535 -0.4269
vn -0.0142 -0.0333 -0.9993
vn 0.7834 -0.3075 -0.5401
vn -0.6835 -0.3048 -0.6633
vn 0.0730 0.1172 -0.9904
vn 0.8108 -0.5838 0.0416
vn 0.2879 0.2746 0.9174
vn -0.1162 -0.2337 -0.9653
vn -0.5178 -0.7823 0.3463
vn -0.7186 -0.4918 -0.4918
vn -0.5174 -0.6919 -0.5035
vn 0.3305 0.2306 0.9152
vn -0.0199 -0.2388 -0.9709
vn 0.1506 -0.2574 -0.9545
vn 0.7670 0.1905 -0.6127
vn 0.9813 -0.1769 0.0754
vn -0.9131 -0.3491 0.2108
vn -0.6067 -0.5642 0.5600
vn -0.0071 -0.1293 -0.9916
vn -0.2231 0.2336 -0.9464
vn -0.9191 -0.3780 -0.1110
vn 0.8032 -0.3488 -0.4830
vn -0.1155 -0.9740 -0.1947
vn -0.9028 -0.3431 0.2593
vn -0.7303 -0.6448 0.2254
vn 0.1793 -0.6251 0.7597
vn -0.8749 -0.2826 -0.3932
vn 0.2203 0.1633 -0.9617
vn 0.8324 -0.3535 -0.4269
vn -0.5221 0.4391 -0.7312
vn -0.2203 0.1633 -0.9617
vn 0.6835 -0.3048 -0.6633
vn 0.0535 -0.6954 0.7166
vn -0.8108 -0.5838 0.0416
vn -0.2879 0.2746 0.9174
vn 0.0142 -0.0333 -0.9993
vn 0.7186 -0.4918 -0.4918
vn 0.3701 0.0999 0.9236
vn 0.5174 -0.6919 -0.5035
vn 0.0199 -0.2388 -0.9709
vn 0.1162 -0.2337 -0.9653
vn 0.2234 -0.2478 0.9427
vn -0.9813 -0.1769 0.0754
vt 0.743238 0.596005
vt 0.758762 0.592369
vt 0.720973 0.579072
vt 0.699824 0.533978
vt 0.689054 0.501958
vt 0.658352 0.504343
vt 0.662330 0.538287
vt 0.587645 0.596278
vt 0.616675 0.576524
vt 0.579941 0.550501
vt 0.563244 0.575211
vt 0.624236 0.535013
vt 0.627005 0.502503
vt 0.596702 0.494667
vt 0.590024 0.522914
vt 0.854105 0.565293
vt 0.828788 0.557159
vt 0.814562 0.581895
vt 0.847895 0.588980
vt 0.801881 0.541628
vt 0.777700 0.524030
vt 0.752881 0.545873
vt 0.781435 0.565988
vt 0.758386 0.502097
vt 0.742011 0.479038
vt 0.718005 0.493341
vt 0.732715 0.520165
vt 0.731604 0.457494
vt 0.722361 0.435769
vt 0.703611 0.438990
vt 0.710043 0.466194
vt 0.683044 0.471381
vt 0.678669 0.441748
vt 0.653313 0.442628
vt 0.655218 0.473571
vt 0.627109 0.471644
vt 0.627588 0.441876
vt 0.601560 0.439326
vt 0.598810 0.466817
vt 0.575104 0.459186
vt 0.581441 0.436469
vt 0.561100 0.433197
vt 0.551228 0.450872
vt 0.560390 0.508265
vt 0.569306 0.482208
vt 0.542376 0.469249
vt 0.531402 0.494142
vt 0.541350 0.596364
vt 0.519782 0.577502
vt 0.517892 0.610894
vt 0.531294 0.636082
vt 0.558753 0.620589
vt 0.607046 0.597017
vt 0.625181 0.383361
vt 0.625764 0.412385
vt 0.652387 0.412667
vt 0.652438 0.382828
vt 0.678604 0.412191
vt 0.595011 0.354558
vt 0.597465 0.383715
vt 0.624412 0.352860
vt 0.594708 0.324360
vt 0.624265 0.322181
vt 0.730613 0.387348
vt 0.726315 0.411487
vt 0.748003 0.411952
vt 0.755064 0.391946
vt 0.710848 0.353777
vt 0.706032 0.383230
vt 0.737632 0.359051
vt 0.715390 0.324155
vt 0.744671 0.330419
vt 0.534587 0.429454
vt 0.551665 0.412298
vt 0.543865 0.390355
vt 0.519427 0.405809
vt 0.679376 0.382989
vt 0.818102 0.435357
vt 0.797796 0.417884
vt 0.781390 0.440530
vt 0.800192 0.458996
vt 0.827335 0.365637
vt 0.801072 0.351342
vt 0.788773 0.378159
vt 0.812513 0.391726
vt 0.819587 0.476938
vt 0.781200 0.482326
vt 0.799751 0.500416
vt 0.879269 0.488195
vt 0.858626 0.470665
vt 0.840003 0.494015
vt 0.861467 0.510427
vt 0.876661 0.402026
vt 0.852675 0.383258
vt 0.835373 0.409305
vt 0.857598 0.427350
vt 0.776589 0.404719
vt 0.764745 0.426209
vt 0.598534 0.411397
vt 0.653389 0.351662
vt 0.654284 0.320103
vt 0.682091 0.352211
vt 0.684719 0.321209
vt 0.838444 0.452785
vt 0.956820 0.487389
vt 0.938430 0.465971
vt 0.917935 0.486783
vt 0.936497 0.507439
vt 0.973493 0.553241
vt 0.994054 0.528101
vt 0.973443 0.509825
vt 0.953443 0.530806
vt 0.919982 0.443931
vt 0.898733 0.422772
vt 0.878675 0.446692
vt 0.899652 0.466262
vt 0.928885 0.549491
vt 0.915411 0.525943
vt 0.881074 0.592357
vt 0.911663 0.583637
vt 0.904865 0.561125
vt 0.879997 0.571623
vt 0.518454 0.448830
vt 0.896920 0.507194
vt 0.879324 0.524816
vt 0.897980 0.538877
vt 0.860667 0.542073
vt 0.879553 0.551153
vt 0.536099 0.358775
vt 0.570841 0.386947
vt 0.566253 0.357617
vt 0.539594 0.327938
vt 0.566905 0.329024
vt 0.999861 0.549416
vt 0.943521 0.572482
vt 0.885001 0.620116
vt 0.917668 0.611837
vt 0.764262 0.365651
vt 0.740928 0.431846
vt 0.752427 0.447519
vt 0.764416 0.462891
vt 0.820219 0.517047
vt 0.842502 0.532082
vt 0.927891 0.639790
vt 0.957968 0.629772
vt 0.947125 0.602078
vt 0.704643 0.411054
vt 0.575424 0.411751
vt 0.773511 0.339084
vt 0.879086 0.624381
vt 0.844193 0.617528
vt 0.805681 0.610320
vt 0.829363 0.634849
vt 0.642467 0.586182
vt 0.667632 0.573425
vt 0.498793 0.631920
vt 0.532094 0.558768
vt 0.550958 0.533707
vt 0.522205 0.518769
vt 0.673031 0.587225
vt 0.784970 0.614601
vt 0.571714 0.617700
vt 0.979756 0.560048
vt 0.960286 0.593669
vt 0.965617 0.617218
vt 0.544188 0.639790
vt 0.499587 0.555875
vt 0.489704 0.581592
vt 0.511314 0.496494
vt 0.510279 0.525328
vt 0.505109 0.449897
vt 0.506037 0.401578
vt 0.521501 0.353209
vt 0.743238 0.043923
vt 0.720973 0.060856
vt 0.758762 0.047559
vt 0.699824 0.105950
vt 0.662330 0.101642
vt 0.658352 0.135586
vt 0.689054 0.137971
vt 0.587646 0.043650
vt 0.563244 0.064717
vt 0.579941 0.089428
vt 0.616675 0.063405
vt 0.624236 0.104915
vt 0.590024 0.117015
vt 0.596702 0.145261
vt 0.627005 0.137426
vt 0.854105 0.074635
vt 0.847895 0.050949
vt 0.814562 0.058034
vt 0.828788 0.082770
vt 0.801881 0.098300
vt 0.781435 0.073940
vt 0.752881 0.094055
vt 0.777700 0.115898
vt 0.758386 0.137832
vt 0.732715 0.119764
vt 0.718005 0.146587
vt 0.742011 0.160890
vt 0.731604 0.182434
vt 0.710043 0.173734
vt 0.703611 0.200939
vt 0.722361 0.204160
vt 0.683044 0.168548
vt 0.655218 0.166357
vt 0.653313 0.197300
vt 0.678670 0.198180
vt 0.627109 0.168284
vt 0.598810 0.173111
vt 0.601560 0.200603
vt 0.627588 0.198053
vt 0.575104 0.180742
vt 0.551228 0.189057
vt 0.561100 0.206732
vt 0.581441 0.203459
vt 0.560390 0.131663
vt 0.531402 0.145787
vt 0.542376 0.170680
vt 0.569306 0.157721
vt 0.541350 0.043564
vt 0.517892 0.029034
vt 0.519782 0.062426
vt 0.531294 0.003847
vt 0.558753 0.019339
vt 0.607046 0.042912
vt 0.625181 0.256567
vt 0.652438 0.257100
vt 0.652387 0.227261
vt 0.625764 0.227544
vt 0.678604 0.227738
vt 0.595011 0.285370
vt 0.624413 0.287069
vt 0.597465 0.256213
vt 0.594709 0.315569
vt 0.624265 0.317747
vt 0.730613 0.252581
vt 0.755064 0.247982
vt 0.748003 0.227976
vt 0.726315 0.228441
vt 0.710848 0.286152
vt 0.737632 0.280877
vt 0.706032 0.256699
vt 0.715390 0.315773
vt 0.744671 0.309509
vt 0.534587 0.210475
vt 0.519427 0.234119
vt 0.543865 0.249574
vt 0.551665 0.227631
vt 0.679376 0.256940
vt 0.818102 0.204571
vt 0.800192 0.180933
vt 0.781390 0.199398
vt 0.797796 0.222044
vt 0.827335 0.274292
vt 0.812514 0.248203
vt 0.788773 0.261769
vt 0.801072 0.288587
vt 0.819587 0.162991
vt 0.799751 0.139513
vt 0.781200 0.157602
vt 0.879269 0.151734
vt 0.861467 0.129502
vt 0.840003 0.145913
vt 0.858627 0.169263
vt 0.876662 0.237902
vt 0.857599 0.212579
vt 0.835373 0.230624
vt 0.852676 0.256670
vt 0.764745 0.213720
vt 0.776589 0.235209
vt 0.598534 0.228532
vt 0.654285 0.319825
vt 0.653389 0.288266
vt 0.682091 0.287718
vt 0.684719 0.318719
vt 0.838444 0.187144
vt 0.956820 0.152539
vt 0.936497 0.132489
vt 0.917935 0.153146
vt 0.938430 0.173957
vt 0.973493 0.086687
vt 0.953443 0.109122
vt 0.973443 0.130103
vt 0.994054 0.111828
vt 0.919982 0.195998
vt 0.899652 0.173667
vt 0.878675 0.193237
vt 0.898733 0.217157
vt 0.928885 0.090437
vt 0.915411 0.113985
vt 0.881074 0.047571
vt 0.879997 0.068306
vt 0.904865 0.078803
vt 0.911664 0.056292
vt 0.518454 0.191098
vt 0.896920 0.132735
vt 0.879324 0.115112
vt 0.897981 0.101051
vt 0.879554 0.088776
vt 0.860667 0.097855
vt 0.536099 0.281153
vt 0.566253 0.282312
vt 0.570841 0.252981
vt 0.539594 0.311990
vt 0.566905 0.310905
vt 0.999861 0.090513
vt 0.943521 0.067446
vt 0.885001 0.019813
vt 0.917669 0.028092
vt 0.764262 0.274278
vt 0.752427 0.192409
vt 0.740928 0.208083
vt 0.764416 0.177038
vt 0.820219 0.122881
vt 0.842503 0.107847
vt 0.927891 0.000139
vt 0.947125 0.037851
vt 0.957968 0.010156
vt 0.704644 0.228874
vt 0.575424 0.228177
vt 0.773511 0.300845
vt 0.879086 0.015547
vt 0.844193 0.022400
vt 0.805681 0.029608
vt 0.829363 0.005079
vt 0.642467 0.053746
vt 0.667633 0.066504
vt 0.498793 0.008008
vt 0.532094 0.081161
vt 0.550958 0.106221
vt 0.522205 0.121159
vt 0.673031 0.052704
vt 0.784970 0.025327
vt 0.571714 0.022228
vt 0.979757 0.079880
vt 0.960287 0.046259
vt 0.965617 0.022711
vt 0.544188 0.000139
vt 0.499587 0.084054
vt 0.489704 0.058336
vt 0.511314 0.143434
vt 0.510280 0.114600
vt 0.505109 0.190031
vt 0.506037 0.238351
vt 0.521501 0.286719
vt 0.283298 0.150265
vt 0.260646 0.155066
vt 0.293675 0.159073
vt 0.223535 0.181127
vt 0.194850 0.166035
vt 0.176525 0.190968
vt 0.201168 0.201738
vt 0.171246 0.095194
vt 0.138778 0.095546
vt 0.135981 0.124067
vt 0.182217 0.122029
vt 0.161874 0.155435
vt 0.127906 0.151909
vt 0.120639 0.179327
vt 0.149240 0.182612
vt 0.362886 0.222175
vt 0.365732 0.200932
vt 0.335661 0.190892
vt 0.339125 0.215927
vt 0.311009 0.214689
vt 0.302974 0.188155
vt 0.272082 0.191248
vt 0.284438 0.216570
vt 0.259730 0.224638
vt 0.245263 0.202474
vt 0.222354 0.216930
vt 0.237208 0.234974
vt 0.220648 0.247322
vt 0.205516 0.234546
vt 0.190635 0.253413
vt 0.205359 0.260592
vt 0.184424 0.223461
vt 0.161371 0.214311
vt 0.149204 0.239468
vt 0.170399 0.245611
vt 0.136999 0.208648
vt 0.111295 0.204863
vt 0.104065 0.230826
vt 0.126977 0.234417
vt 0.088859 0.205530
vt 0.065943 0.207523
vt 0.068495 0.227545
vt 0.086360 0.228941
vt 0.095712 0.153347
vt 0.061834 0.158817
vt 0.064150 0.186935
vt 0.092263 0.181505
vt 0.143186 0.067089
vt 0.144442 0.042963
vt 0.115242 0.058501
vt 0.168015 0.039817
vt 0.172382 0.064475
vt 0.184672 0.103489
vt 0.108048 0.286471
vt 0.131394 0.289815
vt 0.138837 0.264176
vt 0.116256 0.260237
vt 0.161202 0.269232
vt 0.076105 0.312907
vt 0.101588 0.314890
vt 0.084549 0.283619
vt 0.073981 0.343650
vt 0.099120 0.343650
vt 0.197452 0.298593
vt 0.218285 0.301197
vt 0.218852 0.284912
vt 0.200989 0.279699
vt 0.173616 0.320245
vt 0.195827 0.321199
vt 0.176346 0.296873
vt 0.172641 0.343650
vt 0.195187 0.343650
vt 0.045474 0.225991
vt 0.025860 0.246246
vt 0.041651 0.268070
vt 0.054385 0.246888
vt 0.154033 0.292903
vt 0.282384 0.294165
vt 0.277585 0.270816
vt 0.255574 0.275838
vt 0.260177 0.297496
vt 0.262150 0.343650
vt 0.261596 0.320570
vt 0.239708 0.321344
vt 0.239931 0.343650
vt 0.300313 0.267179
vt 0.293292 0.242526
vt 0.271158 0.247151
vt 0.351455 0.290550
vt 0.347571 0.265539
vt 0.323477 0.265657
vt 0.328037 0.290650
vt 0.308847 0.343650
vt 0.308053 0.317840
vt 0.284676 0.318997
vt 0.285538 0.343650
vt 0.237103 0.280021
vt 0.239175 0.298849
vt 0.092852 0.256637
vt 0.124399 0.343650
vt 0.125857 0.316555
vt 0.150060 0.318291
vt 0.148533 0.343650
vt 0.304900 0.292211
vt 0.404173 0.343650
vt 0.402452 0.314787
vt 0.378667 0.315728
vt 0.380473 0.343650
vt 0.450662 0.305712
vt 0.426106 0.310010
vt 0.429252 0.343650
vt 0.454484 0.343650
vt 0.356619 0.343650
vt 0.355664 0.316909
vt 0.331485 0.317216
vt 0.332756 0.343650
vt 0.418833 0.276583
vt 0.396913 0.286299
vt 0.394069 0.213981
vt 0.386628 0.230471
vt 0.403472 0.252608
vt 0.417432 0.237878
vt 0.037455 0.204090
vt 0.373837 0.288102
vt 0.367841 0.265448
vt 0.388885 0.265954
vt 0.378827 0.246190
vt 0.359828 0.242780
vt 0.026355 0.300619
vt 0.052061 0.308442
vt 0.062935 0.276828
vt 0.022997 0.343650
vt 0.048002 0.343650
vt 0.468145 0.323878
vt 0.442774 0.266245
vt 0.404408 0.190843
vt 0.428624 0.214818
vt 0.217800 0.322443
vt 0.234531 0.260906
vt 0.219570 0.268560
vt 0.249996 0.254136
vt 0.316721 0.240300
vt 0.341017 0.240643
vt 0.442624 0.195512
vt 0.452273 0.233730
vt 0.463749 0.209783
vt 0.182777 0.275104
vt 0.073771 0.252199
vt 0.217637 0.343650
vt 0.399544 0.184313
vt 0.371461 0.176826
vt 0.336789 0.164734
vt 0.365044 0.156725
vt 0.207974 0.126255
vt 0.217687 0.142198
vt 0.154789 0.019981
vt 0.105478 0.085473
vt 0.102542 0.123724
vt 0.070528 0.128175
vt 0.231637 0.134340
vt 0.320783 0.152493
vt 0.177323 0.073621
vt 0.458211 0.304457
vt 0.462771 0.243391
vt 0.470521 0.218552
vt 0.177009 0.041827
vt 0.074898 0.091724
vt 0.094601 0.044786
vt 0.042165 0.165627
vt 0.060294 0.128389
vt 0.025726 0.210212
vt 0.016693 0.255400
vt 0.015952 0.312964
vt 0.283298 0.537035
vt 0.293675 0.528227
vt 0.260646 0.532234
vt 0.223535 0.506173
vt 0.201168 0.485562
vt 0.176525 0.496332
vt 0.194850 0.521265
vt 0.171246 0.592106
vt 0.182217 0.565271
vt 0.135981 0.563233
vt 0.138778 0.591754
vt 0.161874 0.531866
vt 0.149240 0.504688
vt 0.120639 0.507973
vt 0.127906 0.535391
vt 0.362886 0.465126
vt 0.339125 0.471373
vt 0.335661 0.496408
vt 0.365732 0.486368
vt 0.311009 0.472611
vt 0.284438 0.470731
vt 0.272082 0.496053
vt 0.302974 0.499145
vt 0.259730 0.462662
vt 0.237208 0.452326
vt 0.222354 0.470370
vt 0.245263 0.484826
vt 0.220648 0.439978
vt 0.205359 0.426708
vt 0.190635 0.433888
vt 0.205516 0.452754
vt 0.184424 0.463839
vt 0.170399 0.441689
vt 0.149204 0.447832
vt 0.161371 0.472990
vt 0.136999 0.478652
vt 0.126977 0.452884
vt 0.104065 0.456474
vt 0.111295 0.482437
vt 0.088859 0.481770
vt 0.086360 0.458359
vt 0.068495 0.459755
vt 0.065943 0.479777
vt 0.095712 0.533953
vt 0.092263 0.505795
vt 0.064150 0.500365
vt 0.061834 0.528483
vt 0.143186 0.620211
vt 0.115242 0.628799
vt 0.144442 0.644337
vt 0.168015 0.647483
vt 0.172382 0.622825
vt 0.184672 0.583811
vt 0.108048 0.400829
vt 0.116256 0.427063
vt 0.138837 0.423125
vt 0.131394 0.397485
vt 0.161202 0.418068
vt 0.076105 0.374393
vt 0.084549 0.403681
vt 0.101588 0.372410
vt 0.197452 0.388707
vt 0.200989 0.407601
vt 0.218852 0.402388
vt 0.218285 0.386103
vt 0.173616 0.367055
vt 0.176346 0.390427
vt 0.195827 0.366101
vt 0.045474 0.461309
vt 0.054385 0.440413
vt 0.041651 0.419230
vt 0.025860 0.441054
vt 0.154033 0.394397
vt 0.282384 0.393135
vt 0.260177 0.389804
vt 0.255574 0.411462
vt 0.277585 0.416484
vt 0.239708 0.365956
vt 0.261596 0.366730
vt 0.300313 0.420121
vt 0.271158 0.440149
vt 0.293292 0.444774
vt 0.351455 0.396750
vt 0.328037 0.396651
vt 0.323477 0.421643
vt 0.347571 0.421761
vt 0.284676 0.368304
vt 0.308053 0.369460
vt 0.239175 0.388451
vt 0.237103 0.407279
vt 0.092852 0.430663
vt 0.125857 0.370745
vt 0.150060 0.369009
vt 0.304900 0.395089
vt 0.378667 0.371572
vt 0.402452 0.372513
vt 0.450662 0.381588
vt 0.426106 0.377290
vt 0.331485 0.370084
vt 0.355664 0.370391
vt 0.418833 0.410717
vt 0.396913 0.401001
vt 0.394069 0.473319
vt 0.417432 0.449423
vt 0.403472 0.434692
vt 0.386628 0.456829
vt 0.037455 0.483210
vt 0.373837 0.399198
vt 0.367841 0.421852
vt 0.388885 0.421346
vt 0.359828 0.444521
vt 0.378827 0.441110
vt 0.026355 0.386681
vt 0.062935 0.410473
vt 0.052061 0.378858
vt 0.468145 0.363422
vt 0.442774 0.421055
vt 0.404408 0.496457
vt 0.428624 0.472482
vt 0.217800 0.364857
vt 0.219570 0.418740
vt 0.234531 0.426394
vt 0.249996 0.433164
vt 0.316721 0.447000
vt 0.341017 0.446657
vt 0.442624 0.491788
vt 0.463749 0.477517
vt 0.452273 0.453570
vt 0.182777 0.412196
vt 0.073771 0.435101
vt 0.399544 0.502987
vt 0.371461 0.510474
vt 0.336789 0.522566
vt 0.365044 0.530575
vt 0.207974 0.561045
vt 0.217687 0.545102
vt 0.154789 0.667319
vt 0.105478 0.601827
vt 0.102542 0.563576
vt 0.070528 0.559125
vt 0.231637 0.552960
vt 0.320783 0.534807
vt 0.177323 0.613679
vt 0.458211 0.382843
vt 0.462771 0.443909
vt 0.470521 0.468748
vt 0.177009 0.645474
vt 0.074898 0.595576
vt 0.094601 0.642514
vt 0.042165 0.521673
vt 0.060294 0.558912
vt 0.025726 0.477088
vt 0.016693 0.431900
vt 0.015952 0.374336
vt 0.470906 0.238039
vt 0.481677 0.247742
vt 0.487304 0.363565
vt 0.467445 0.381488
vt 0.191312 0.630699
vt 0.190662 0.657952
vt 0.261961 0.548920
vt 0.232208 0.571256
vt 0.372832 0.547871
vt 0.342366 0.538290
vt 0.461928 0.267950
vt 0.232207 0.116044
vt 0.261961 0.138380
vt 0.175951 0.663160
vt 0.489426 0.215963
vt 0.478828 0.201918
vt 0.217100 0.110374
vt 0.223829 0.126601
vt 0.188437 0.089189
vt 0.201375 0.095645
vt 0.195477 0.068079
vt 0.297139 0.143475
vt 0.328233 0.135948
vt 0.217100 0.576926
vt 0.199607 0.576256
vt 0.191312 0.056601
vt 0.199607 0.111045
vt 0.059173 0.606757
vt 0.052483 0.572884
vt 0.451703 0.507686
vt 0.409141 0.514719
vt 0.286265 0.553817
vt 0.190662 0.029348
vt 0.084863 0.611936
vt 0.175951 0.024140
vt 0.078525 0.653456
vt 0.328233 0.551352
vt 0.112352 0.658724
vt 0.025752 0.528381
vt 0.018654 0.491628
vt 0.039714 0.537911
vt 0.297139 0.543825
vt 0.223829 0.560699
vt 0.044224 0.567538
vt 0.052483 0.114416
vt 0.059173 0.080544
vt 0.286265 0.133483
vt 0.084863 0.075364
vt 0.377379 0.525489
vt 0.010051 0.483802
vt 0.004814 0.445610
vt 0.478828 0.485382
vt 0.078525 0.033844
vt 0.342366 0.149010
vt 0.372832 0.139429
vt 0.112352 0.028576
vt 0.148149 0.687161
vt 0.001745 0.434559
vt 0.005851 0.388291
vt 0.377379 0.161811
vt 0.405805 0.167294
vt 0.018654 0.195672
vt 0.025752 0.158919
vt 0.136657 0.660183
vt 0.451703 0.179614
vt 0.476062 0.384352
vt 0.487304 0.323735
vt 0.471516 0.343650
vt 0.039714 0.149389
vt 0.000139 0.375321
vt 0.003285 0.343650
vt 0.201375 0.591655
vt 0.461928 0.419350
vt 0.467445 0.305812
vt 0.044224 0.119762
vt 0.481677 0.439558
vt 0.470906 0.449261
vt 0.004814 0.241690
vt 0.010051 0.203498
vt 0.489426 0.471337
vt 0.148149 0.000139
vt 0.405805 0.520006
vt 0.005851 0.299009
vt 0.001745 0.252741
vt 0.409141 0.172581
vt 0.136657 0.027117
vt 0.188437 0.598111
vt 0.476062 0.302948
vt 0.195477 0.619222
vt 0.000139 0.311979
s 1
f 60/1/1 159/2/1 62/3/1
f 158/4/2 61/5/2 47/6/3 59/7/3
f 157/8/4 57/9/4 49/10/4 38/11/4
f 156/12/5 39/13/5 50/14/6 35/15/6
f 155/16/7 34/17/7 42/18/7 23/19/7
f 154/20/8 33/21/9 43/22/9 65/23/8
f 153/24/10 32/25/10 44/26/10 64/27/10
f 152/28/11 54/29/11 13/30/11 31/31/11
f 151/32/12 19/33/13 14/34/14 30/35/15
f 150/36/16 90/37/17 15/38/17 29/39/16
f 149/40/18 87/41/18 3/42/18 84/43/18
f 148/44/19 28/45/19 16/46/20 83/47/20
f 48/48/21 26/49/21 25/50/21
f 145/51/22 58/52/22 48/48/22 25/50/22
f 164/53/23 57/9/23 157/8/23
f 112/54/24 127/55/24 120/56/25 89/57/25
f 120/56/26 14/34/27 19/33/28 126/58/29
f 110/59/30 86/60/31 112/54/32 131/61/33
f 85/62/34 110/59/30 131/61/33 111/63/35
f 122/64/36 125/65/36 66/66/36 41/67/36
f 116/68/37 92/69/37 122/64/37 124/70/37
f 91/71/38 116/68/37 124/70/37 123/72/38
f 143/73/39 71/74/39 21/75/39 7/76/39
f 89/57/26 120/56/26 126/58/29 115/77/29
f 96/78/40 77/79/40 99/80/40 138/81/40
f 74/82/41 97/83/41 140/84/42 94/85/42
f 100/86/43 138/81/40 56/87/44 11/88/45
f 75/89/46 95/90/46 137/91/46 101/92/46
f 73/93/47 5/94/48 141/95/49 93/96/50
f 77/79/51 98/97/51 139/98/51 99/80/51
f 86/60/24 119/99/24 127/55/24 112/54/24
f 111/63/35 131/61/33 113/100/52 88/101/53
f 113/100/54 89/57/55 115/77/56 130/102/57
f 88/101/58 113/100/54 130/102/57 114/103/59
f 114/103/59 130/102/57 116/68/60 91/71/61
f 93/96/50 141/95/49 96/78/62 76/104/63
f 95/90/46 76/104/64 100/86/64 137/91/46
f 76/104/43 96/78/40 138/81/40 100/86/43
f 94/85/42 140/84/42 98/97/42 77/79/42
f 37/105/65 103/106/66 135/107/67 68/108/68
f 105/109/69 82/110/69 106/111/69 134/112/70
f 72/113/71 6/114/72 142/115/73 4/116/74
f 107/117/75 134/112/70 68/108/75 36/118/75
f 9/119/76 108/120/76 133/121/76 20/122/76
f 16/46/77 84/43/77 143/73/77 18/123/77
f 102/124/78 75/89/78 101/92/78 136/125/78
f 69/126/79 136/125/79 80/127/79 1/128/79
f 70/129/80 21/75/80 118/130/81 129/131/81
f 22/132/82 70/129/80 129/131/81 117/133/83
f 142/115/73 93/96/84 76/104/85 95/90/86
f 141/95/49 94/85/87 77/79/88 96/78/62
f 53/134/89 82/110/89 105/109/89
f 108/120/90 81/135/90 107/117/90 133/121/90
f 81/135/91 105/109/91 134/112/91 107/117/91
f 4/116/74 142/115/73 95/90/86 75/89/92
f 51/136/93 132/137/93 108/120/94 9/119/94
f 140/84/42 67/138/95 41/67/95 98/97/42
f 139/98/96 66/66/96 2/139/96 55/140/96
f 138/81/40 99/80/40 12/141/44 56/87/44
f 137/91/46 100/86/64 11/88/97 78/142/98
f 136/125/99 101/92/99 10/143/99 80/127/99
f 135/107/67 4/116/67 75/89/67 102/124/67
f 109/144/93 79/145/100 104/146/100 132/137/93
f 115/77/29 126/58/29 121/147/29 92/69/29
f 117/133/83 129/131/81 110/59/81 85/62/83
f 121/147/101 13/30/101 54/29/101 125/65/101
f 71/74/102 3/42/102 87/41/102 128/148/102
f 92/69/103 121/147/103 125/65/103 122/64/103
f 119/99/24 15/38/104 90/37/104 127/55/24
f 98/97/105 41/67/105 66/66/105 139/98/105
f 5/94/48 74/82/106 94/85/87 141/95/49
f 36/118/107 102/124/107 136/125/107 69/126/107
f 101/92/46 137/91/46 78/142/98 10/143/98
f 84/43/108 3/42/108 71/74/108 143/73/108
f 20/122/109 133/121/109 69/126/109 1/128/109
f 134/112/70 106/111/69 37/105/110 68/108/75
f 133/121/111 107/117/111 36/118/111 69/126/111
f 132/137/112 104/146/112 81/135/112 108/120/112
f 123/72/38 124/70/37 67/138/113 40/149/114
f 21/75/115 71/74/115 128/148/115 118/130/115
f 131/61/33 112/54/32 89/57/116 113/100/52
f 118/130/117 128/148/117 119/99/117 86/60/117
f 130/102/57 115/77/56 92/69/118 116/68/60
f 97/83/41 40/149/119 67/138/95 140/84/42
f 99/80/120 139/98/120 55/140/120 12/141/120
f 129/131/81 118/130/81 86/60/81 110/59/81
f 128/148/121 87/41/121 15/38/121 119/99/121
f 127/55/24 90/37/104 14/34/122 120/56/25
f 126/58/29 19/33/28 13/30/28 121/147/29
f 125/65/123 54/29/123 2/139/123 66/66/123
f 124/70/37 122/64/37 41/67/113 67/138/113
f 51/136/93 109/144/93 132/137/93
f 6/114/72 73/93/124 93/96/84 142/115/73
f 68/108/68 135/107/67 102/124/67 36/118/68
f 103/106/66 72/113/66 4/116/67 135/107/67
f 52/150/125 51/136/125 144/151/125
f 9/119/126 23/19/127 144/151/127 51/136/126
f 23/19/127 42/18/127 63/152/127 144/151/127
f 8/153/128 144/151/128 63/152/128
f 163/154/129 46/155/129 57/9/129
f 25/50/130 146/156/130 145/51/130
f 48/48/131 38/11/132 147/157/133 26/49/131
f 38/11/132 49/10/134 27/158/135 147/157/133
f 27/158/136 148/44/19 83/47/20 17/159/137
f 49/10/136 35/15/19 148/44/19 27/158/136
f 35/15/19 50/14/19 28/45/19 148/44/19
f 28/45/138 149/40/138 84/43/138 16/46/138
f 50/14/139 29/39/139 149/40/139 28/45/139
f 29/39/140 15/38/140 87/41/140 149/40/140
f 39/13/16 150/36/16 29/39/16 50/14/16
f 47/6/141 30/35/141 150/36/16 39/13/16
f 30/35/141 14/34/142 90/37/17 150/36/16
f 61/5/12 151/32/12 30/35/15 47/6/15
f 44/26/12 31/31/12 151/32/12 61/5/12
f 31/31/12 13/30/13 19/33/13 151/32/12
f 32/25/143 152/28/143 31/31/143 44/26/143
f 12/141/144 55/140/144 152/28/144 32/25/144
f 55/140/145 2/139/145 54/29/145 152/28/145
f 33/21/146 153/24/10 64/27/10 43/22/146
f 11/88/147 56/87/148 153/24/10 33/21/146
f 56/87/148 12/141/148 32/25/10 153/24/10
f 34/17/8 154/20/8 65/23/8 42/18/8
f 10/143/149 78/142/149 154/20/8 34/17/8
f 78/142/149 11/88/150 33/21/9 154/20/8
f 20/122/151 155/16/151 23/19/151 9/119/151
f 1/128/152 80/127/152 155/16/152 20/122/152
f 80/127/153 10/143/153 34/17/153 155/16/153
f 57/9/154 156/12/154 35/15/154 49/10/154
f 46/155/155 59/7/155 156/12/155 57/9/155
f 59/7/156 47/6/156 39/13/5 156/12/5
f 58/52/157 157/8/157 38/11/157 48/48/157
f 46/155/158 45/160/158 62/3/158
f 24/161/159 63/152/159 159/2/159
f 62/3/160 158/4/160 59/7/160 46/155/160
f 43/22/161 64/27/161 158/4/161 62/3/161
f 64/27/162 44/26/162 61/5/2 158/4/2
f 58/52/163 165/162/163 157/8/163
f 42/18/164 65/23/165 159/2/166 63/152/164
f 65/23/165 43/22/167 62/3/167 159/2/166
f 105/109/168 81/135/168 160/163/168
f 81/135/169 104/146/169 161/164/169
f 104/146/170 79/145/170 162/165/170
f 145/51/171 166/166/171 58/52/171
f 27/158/135 17/159/172 147/157/133
f 83/47/173 16/46/173 18/123/173
f 7/76/174 18/123/174 143/73/174
f 70/129/175 7/76/175 21/75/175
f 147/157/176 17/159/176 167/167/176
f 26/49/177 147/157/177 168/168/177
f 18/123/178 169/169/178 83/47/178
f 17/159/179 83/47/179 170/170/179
f 18/123/180 7/76/180 171/171/180
f 7/76/181 70/129/181 172/172/181
f 22/132/182 173/173/182 70/129/182
f 228/174/183 230/175/183 313/176/183
f 312/177/184 227/178/185 215/179/185 229/180/184
f 311/181/186 207/182/186 217/183/186 225/184/186
f 310/185/187 205/186/188 218/187/188 208/188/187
f 309/189/189 193/190/189 210/191/189 204/192/189
f 308/193/190 233/194/190 211/195/191 203/196/191
f 307/197/192 232/198/192 212/199/192 202/200/192
f 306/201/193 201/202/193 184/203/193 222/204/193
f 305/205/194 200/206/195 185/207/196 190/208/197
f 304/209/198 199/210/198 186/211/199 252/212/199
f 303/213/200 248/214/200 176/215/200 250/216/200
f 302/217/201 247/218/202 187/219/202 198/220/201
f 216/221/203 195/222/203 196/223/203
f 299/224/204 195/222/204 216/221/204 226/225/204
f 318/226/205 311/181/205 225/184/205
f 269/227/206 251/228/207 275/229/207 281/230/206
f 275/229/208 280/231/209 190/208/210 185/207/211
f 268/232/212 285/233/213 269/227/214 249/234/215
f 85/235/216 111/236/217 285/233/213 268/232/212
f 277/237/218 209/238/218 234/239/218 279/240/218
f 272/241/219 278/242/219 277/237/219 253/243/219
f 91/244/220 123/245/220 278/242/219 272/241/219
f 297/246/221 178/247/221 192/248/221 239/249/221
f 251/228/208 271/250/209 280/231/209 275/229/208
f 257/251/222 292/252/222 259/253/222 242/254/222
f 74/255/223 255/256/224 294/257/224 97/258/223
f 260/259/225 182/260/226 224/261/227 292/252/222
f 240/262/228 261/263/228 291/264/228 256/265/228
f 73/266/229 254/267/230 295/268/231 5/269/232
f 242/254/233 259/253/233 293/270/233 258/271/233
f 249/234/206 269/227/206 281/230/206 274/272/206
f 111/236/217 88/273/234 270/274/235 285/233/213
f 270/274/236 284/275/237 271/250/238 251/228/239
f 88/273/240 114/276/241 284/275/237 270/274/236
f 114/276/241 91/244/242 272/241/243 284/275/237
f 254/267/230 241/277/244 257/251/245 295/268/231
f 256/265/228 291/264/228 260/259/246 241/277/246
f 241/277/225 260/259/225 292/252/222 257/251/222
f 255/256/224 242/254/224 258/271/224 294/257/224
f 37/278/247 236/279/248 289/280/249 103/281/250
f 264/282/251 288/283/252 106/284/251 82/285/251
f 72/286/253 177/287/254 296/288/255 6/289/256
f 265/290/257 206/291/257 236/279/257 288/283/252
f 180/292/258 191/293/258 287/294/258 266/295/258
f 187/219/259 189/296/259 297/246/259 248/214/259
f 262/297/260 290/298/260 261/263/260 240/262/260
f 237/299/261 174/300/261 245/301/261 290/298/261
f 238/302/262 283/303/263 273/304/263 192/248/262
f 22/305/264 117/306/265 283/303/263 238/302/262
f 296/288/255 256/265/266 241/277/267 254/267/268
f 295/268/231 257/251/245 242/254/269 255/256/270
f 221/307/271 264/282/271 82/285/271
f 266/295/272 287/294/272 265/290/272 246/308/272
f 246/308/273 265/290/273 288/283/273 264/282/273
f 177/287/254 240/262/274 256/265/266 296/288/255
f 219/309/275 180/292/276 266/295/276 286/310/275
f 294/257/224 258/271/224 209/238/277 235/311/277
f 293/270/278 223/312/278 175/313/278 234/239/278
f 292/252/222 224/261/227 183/314/227 259/253/222
f 291/264/228 243/315/279 182/260/280 260/259/246
f 290/298/281 245/301/281 181/316/281 261/263/281
f 289/280/249 262/297/249 240/262/249 177/287/249
f 267/317/275 286/310/275 263/318/282 244/319/282
f 271/250/209 253/243/209 276/320/209 280/231/209
f 117/306/265 85/235/265 268/232/263 283/303/263
f 276/320/283 279/240/283 222/204/283 184/203/283
f 239/249/284 282/321/284 250/216/284 176/215/284
f 253/243/285 277/237/285 279/240/285 276/320/285
f 274/272/206 281/230/206 252/212/286 186/211/286
f 258/271/287 293/270/287 234/239/287 209/238/287
f 5/269/232 295/268/231 255/256/270 74/255/288
f 206/291/289 237/299/289 290/298/289 262/297/289
f 261/263/228 181/316/279 243/315/279 291/264/228
f 248/214/290 297/246/290 239/249/290 176/215/290
f 191/293/291 174/300/291 237/299/291 287/294/291
f 288/283/252 236/279/257 37/278/292 106/284/251
f 287/294/293 237/299/293 206/291/293 265/290/293
f 286/310/294 266/295/294 246/308/294 263/318/294
f 123/245/220 40/322/295 235/311/296 278/242/219
f 192/248/297 273/304/297 282/321/297 239/249/297
f 285/233/213 270/274/235 251/228/298 269/227/214
f 273/304/299 249/234/299 274/272/299 282/321/299
f 284/275/237 272/241/243 253/243/300 271/250/238
f 97/258/223 294/257/224 235/311/277 40/322/301
f 259/253/302 183/314/302 223/312/302 293/270/302
f 283/303/263 268/232/263 249/234/263 273/304/263
f 282/321/303 274/272/303 186/211/303 250/216/303
f 281/230/206 275/229/207 185/207/304 252/212/286
f 280/231/209 276/320/209 184/203/210 190/208/210
f 279/240/305 234/239/305 175/313/305 222/204/305
f 278/242/219 235/311/296 209/238/296 277/237/219
f 219/309/275 286/310/275 267/317/275
f 6/289/256 296/288/255 254/267/268 73/266/306
f 236/279/248 206/291/248 262/297/249 289/280/249
f 103/281/250 289/280/249 177/287/249 72/286/250
f 220/323/307 298/324/307 219/309/307
f 180/292/308 219/309/308 298/324/309 193/190/309
f 193/190/309 298/324/309 231/325/309 210/191/309
f 179/326/310 231/325/310 298/324/310
f 317/327/311 225/184/311 214/328/311
f 195/222/312 299/224/312 300/329/312
f 216/221/313 196/223/313 301/330/314 207/182/315
f 207/182/315 301/330/314 197/331/316 217/183/317
f 197/331/318 188/332/319 247/218/202 302/217/201
f 217/183/318 197/331/318 302/217/201 205/186/201
f 205/186/201 302/217/201 198/220/201 218/187/201
f 198/220/320 187/219/320 248/214/320 303/213/320
f 218/187/321 198/220/321 303/213/321 199/210/321
f 199/210/322 303/213/322 250/216/322 186/211/322
f 208/188/198 218/187/198 199/210/198 304/209/198
f 215/179/323 208/188/198 304/209/198 200/206/323
f 200/206/323 304/209/198 252/212/199 185/207/324
f 229/180/194 215/179/195 200/206/195 305/205/194
f 212/199/194 229/180/194 305/205/194 201/202/194
f 201/202/194 305/205/194 190/208/197 184/203/197
f 202/200/325 212/199/325 201/202/325 306/201/325
f 183/314/326 202/200/326 306/201/326 223/312/326
f 223/312/327 306/201/327 222/204/327 175/313/327
f 203/196/328 211/195/328 232/198/192 307/197/192
f 182/260/329 203/196/328 307/197/192 224/261/330
f 224/261/330 307/197/192 202/200/192 183/314/330
f 204/192/190 210/191/190 233/194/190 308/193/190
f 181/316/331 204/192/190 308/193/190 243/315/331
f 243/315/331 308/193/190 203/196/191 182/260/332
f 191/293/333 180/292/333 193/190/333 309/189/333
f 174/300/334 191/293/334 309/189/334 245/301/334
f 245/301/335 309/189/335 204/192/335 181/316/335
f 225/184/336 217/183/336 205/186/336 310/185/336
f 214/328/337 225/184/337 310/185/337 227/178/337
f 227/178/338 310/185/187 208/188/187 215/179/338
f 226/225/339 216/221/339 207/182/339 311/181/339
f 214/328/340 230/175/340 213/333/340
f 194/334/341 313/176/341 231/325/341
f 230/175/342 214/328/342 227/178/342 312/177/342
f 211/195/343 230/175/343 312/177/343 232/198/343
f 232/198/344 312/177/184 229/180/184 212/199/344
f 226/225/345 311/181/345 319/335/345
f 210/191/346 231/325/346 313/176/347 233/194/348
f 233/194/348 313/176/347 230/175/349 211/195/349
f 264/282/350 314/336/350 246/308/350
f 246/308/351 315/337/351 263/318/351
f 263/318/352 316/338/352 244/319/352
f 299/224/353 226/225/353 320/339/353
f 197/331/316 301/330/314 188/332/354
f 247/218/355 189/296/355 187/219/355
f 178/247/356 297/246/356 189/296/356
f 238/302/357 192/248/357 178/247/357
f 301/330/358 321/340/358 188/332/358
f 196/223/359 322/341/359 301/330/359
f 189/296/360 247/218/360 323/342/360
f 188/332/361 324/343/361 247/218/361
f 189/296/362 325/344/362 178/247/362
f 178/247/363 326/345/363 238/302/363
f 22/305/364 238/302/364 327/346/364
f 387/347/365 389/348/365 486/349/365
f 485/350/366 386/351/367 374/352/367 388/353/366
f 484/354/368 365/355/368 376/356/368 384/357/368
f 483/358/369 362/359/346 377/360/346 366/361/369
f 482/362/321 350/363/321 369/364/321 361/365/321
f 481/366/201 392/367/201 370/368/318 360/369/318
f 480/370/370 391/371/370 371/372/370 359/373/370
f 479/374/371 358/375/371 340/376/371 381/377/371
f 478/378/204 357/379/372 341/380/372 346/381/373
f 477/382/309 356/383/309 342/384/308 417/385/308
f 476/386/334 411/387/334 330/388/334 414/389/334
f 475/390/190 410/391/331 343/392/331 355/393/190
f 375/394/374 352/395/374 353/396/374
f 472/397/194 352/395/194 375/394/194 385/398/194
f 491/399/375 484/354/375 384/357/375
f 439/400/275 416/401/282 447/402/282 454/403/275
f 447/402/376 453/404/377 346/381/378 341/380/379
f 437/405/380 458/406/381 439/400/382 413/407/383
f 412/408/384 438/409/385 458/406/381 437/405/380
f 449/410/386 368/411/386 393/412/386 452/413/386
f 443/414/387 451/415/387 449/410/387 419/416/387
f 418/417/388 450/418/388 451/415/387 443/414/387
f 470/419/289 334/420/289 348/421/289 398/422/289
f 416/401/376 442/423/377 453/404/377 447/402/376
f 423/424/389 465/425/389 426/426/389 404/427/389
f 401/428/390 421/429/391 467/430/391 424/431/390
f 427/432/392 338/433/393 383/434/394 465/425/389
f 402/435/395 428/436/395 464/437/395 422/438/395
f 400/439/396 420/440/397 468/441/398 332/442/399
f 404/427/400 426/426/400 466/443/400 425/444/400
f 413/407/275 439/400/275 454/403/275 446/445/275
f 438/409/385 415/446/401 440/447/402 458/406/381
f 440/447/403 457/448/404 442/423/405 416/401/406
f 415/446/407 441/449/408 457/448/404 440/447/403
f 441/449/408 418/417/409 443/414/410 457/448/404
f 420/440/397 403/450/411 423/424/412 468/441/398
f 422/438/395 464/437/395 427/432/413 403/450/413
f 403/450/392 427/432/392 465/425/389 423/424/389
f 421/429/391 404/427/391 425/444/391 467/430/391
f 364/451/414 395/452/415 462/453/416 430/454/417
f 432/455/265 461/456/263 433/457/265 409/458/265
f 399/459/418 331/460/419 469/461/420 333/462/421
f 434/463/262 363/464/262 395/452/262 461/456/263
f 336/465/303 347/466/303 460/467/303 435/468/303
f 343/392/281 345/469/281 470/419/281 411/387/281
f 429/470/422 463/471/422 428/436/422 402/435/422
f 396/472/290 328/473/290 407/474/290 463/471/290
f 397/475/257 456/476/252 445/477/252 348/421/257
f 349/478/292 444/479/251 456/476/252 397/475/257
f 469/461/420 422/438/423 403/450/424 420/440/425
f 468/441/398 423/424/412 404/427/426 421/429/427
f 380/480/428 432/455/428 409/458/428
f 435/468/429 460/467/429 434/463/429 408/481/429
f 408/481/430 434/463/430 461/456/430 432/455/430
f 331/460/419 402/435/431 422/438/423 469/461/420
f 378/482/206 336/465/286 435/468/286 459/483/206
f 467/430/391 425/444/391 368/411/432 394/484/432
f 466/443/433 382/485/433 329/486/433 393/412/433
f 465/425/389 383/434/394 339/487/394 426/426/389
f 464/437/395 405/488/355 338/433/434 427/432/413
f 463/471/259 407/474/259 337/489/259 428/436/259
f 462/453/416 429/470/416 402/435/416 331/460/416
f 436/490/206 459/483/206 431/491/207 406/492/207
f 442/423/377 419/416/377 448/493/377 453/404/377
f 444/479/251 412/408/251 437/405/252 456/476/252
f 448/493/435 452/413/435 381/377/435 340/376/435
f 398/422/291 455/494/291 414/389/291 330/388/291
f 419/416/436 449/410/436 452/413/436 448/493/436
f 446/445/275 454/403/275 417/385/276 342/384/276
f 425/444/437 466/443/437 393/412/437 368/411/437
f 332/442/399 468/441/398 421/429/427 401/428/438
f 363/464/221 396/472/221 463/471/221 429/470/221
f 428/436/395 337/489/355 405/488/355 464/437/395
f 411/387/261 470/419/261 398/422/261 330/388/261
f 347/466/284 328/473/284 396/472/284 460/467/284
f 461/456/263 395/452/262 364/451/264 433/457/265
f 460/467/297 396/472/297 363/464/297 434/463/297
f 459/483/439 435/468/439 408/481/439 431/491/439
f 450/418/388 367/495/440 394/484/441 451/415/387
f 348/421/293 445/477/293 455/494/293 398/422/293
f 458/406/381 440/447/402 416/401/442 439/400/382
f 445/477/443 413/407/443 446/445/443 455/494/443
f 457/448/404 443/414/410 419/416/444 442/423/405
f 424/431/390 467/430/391 394/484/432 367/495/445
f 426/426/446 339/487/446 382/485/446 466/443/446
f 456/476/252 437/405/252 413/407/252 445/477/252
f 455/494/258 446/445/258 342/384/258 414/389/258
f 454/403/275 447/402/282 341/380/447 417/385/276
f 453/404/377 448/493/377 340/376/378 346/381/378
f 452/413/448 393/412/448 329/486/448 381/377/448
f 451/415/387 394/484/441 368/411/441 449/410/387
f 378/482/206 459/483/206 436/490/206
f 333/462/421 469/461/420 420/440/425 400/439/449
f 395/452/415 363/464/415 429/470/416 462/453/416
f 430/454/417 462/453/416 331/460/416 399/459/417
f 379/496/450 471/497/450 378/482/450
f 336/465/199 378/482/199 471/497/198 350/363/198
f 350/363/198 471/497/198 390/498/198 369/364/198
f 335/499/451 390/498/451 471/497/451
f 490/500/452 384/357/452 373/501/452
f 352/395/453 472/397/453 473/502/453
f 375/394/454 353/396/454 474/503/455 365/355/456
f 365/355/456 474/503/455 354/504/457 376/356/458
f 354/504/191 344/505/332 410/391/331 475/390/190
f 376/356/191 354/504/191 475/390/190 362/359/190
f 362/359/190 475/390/190 355/393/190 377/360/190
f 355/393/335 343/392/335 411/387/335 476/386/335
f 377/360/189 355/393/189 476/386/189 356/383/189
f 356/383/333 476/386/333 414/389/333 342/384/333
f 366/361/309 377/360/309 356/383/309 477/382/309
f 374/352/459 366/361/309 477/382/309 357/379/459
f 357/379/459 477/382/309 417/385/308 341/380/460
f 388/353/204 374/352/372 357/379/372 478/378/204
f 371/372/204 388/353/204 478/378/204 358/375/204
f 358/375/204 478/378/204 346/381/373 340/376/373
f 359/373/461 371/372/461 358/375/461 479/374/461
f 339/487/462 359/373/462 479/374/462 382/485/462
f 382/485/463 479/374/463 381/377/463 329/486/463
f 360/369/464 370/368/464 391/371/370 480/370/370
f 338/433/465 360/369/464 480/370/370 383/434/466
f 383/434/466 480/370/370 359/373/370 339/487/370
f 361/365/201 369/364/201 392/367/201 481/366/201
f 337/489/202 361/365/201 481/366/201 405/488/202
f 405/488/202 481/366/201 360/369/318 338/433/318
f 347/466/322 336/465/322 350/363/322 482/362/322
f 328/473/200 347/466/200 482/362/200 407/474/200
f 407/474/320 482/362/320 361/365/320 337/489/320
f 384/357/467 376/356/467 362/359/467 483/358/467
f 373/501/468 384/357/468 483/358/468 386/351/468
f 386/351/469 483/358/369 366/361/369 374/352/469
f 385/398/344 375/394/344 365/355/344 484/354/344
f 373/501/470 389/348/470 372/506/470
f 351/507/471 486/349/471 390/498/471
f 389/348/472 373/501/472 386/351/472 485/350/472
f 370/368/473 389/348/473 485/350/473 391/371/473
f 391/371/339 485/350/366 388/353/366 371/372/339
f 385/398/474 484/354/474 492/508/474
f 369/364/188 390/498/188 486/349/475 392/367/476
f 392/367/476 486/349/475 389/348/477 370/368/477
f 432/455/478 487/509/478 408/481/478
f 408/481/479 488/510/479 431/491/479
f 431/491/480 489/511/480 406/492/480
f 472/397/481 385/398/481 493/512/481
f 354/504/457 474/503/455 344/505/482
f 410/391/279 345/469/279 343/392/279
f 334/420/483 470/419/483 345/469/483
f 397/475/248 348/421/248 334/420/248
f 474/503/484 494/513/484 344/505/484
f 353/396/485 495/514/485 474/503/485
f 345/469/486 410/391/486 496/515/486
f 344/505/487 497/516/487 410/391/487
f 345/469/488 498/517/488 334/420/488
f 334/420/489 499/518/489 397/475/489
f 349/478/490 397/475/490 500/519/490
f 555/520/491 640/521/491 557/522/491
f 639/523/492 556/524/492 542/525/493 554/526/493
f 638/527/494 552/528/494 544/529/494 534/530/494
f 637/531/495 535/532/495 545/533/164 532/534/164
f 636/535/139 531/536/139 537/537/139 520/538/139
f 635/539/19 530/540/136 538/541/136 560/542/19
f 634/543/496 529/544/496 539/545/496 559/546/496
f 633/547/497 549/548/497 511/549/497 528/550/497
f 632/551/22 517/552/498 512/553/499 527/554/499
f 631/555/127 579/556/126 513/557/126 526/558/127
f 630/559/152 577/560/152 503/561/152 575/562/152
f 629/563/8 525/564/8 514/565/149 574/566/149
f 543/567/500 523/568/500 522/569/500
f 626/570/12 553/571/12 543/567/12 522/569/12
f 645/572/501 552/528/501 638/527/501
f 596/573/93 608/574/93 602/575/100 578/576/100
f 602/575/502 512/553/503 517/552/504 607/577/505
f 595/578/506 576/579/507 596/573/508 612/580/509
f 412/408/510 595/578/506 612/580/509 438/409/511
f 604/581/512 606/582/512 561/583/512 536/584/512
f 599/585/513 580/586/513 604/581/513 605/587/513
f 418/417/514 599/585/513 605/587/513 450/418/514
f 624/588/107 566/589/107 519/590/107 505/591/107
f 578/576/502 602/575/502 607/577/505 598/592/505
f 584/593/515 569/594/515 586/595/515 619/596/515
f 401/428/516 424/431/516 621/597/517 582/598/517
f 587/599/518 619/596/515 551/600/519 509/601/520
f 567/602/521 583/603/521 618/604/521 588/605/521
f 400/439/522 332/442/523 622/606/524 581/607/525
f 569/594/526 585/608/526 620/609/526 586/595/526
f 576/579/93 601/610/93 608/574/93 596/573/93
f 438/409/511 612/580/509 597/611/527 415/446/528
f 597/611/529 578/576/530 598/592/531 611/612/532
f 415/446/533 597/611/529 611/612/532 441/449/534
f 441/449/534 611/612/532 599/585/535 418/417/536
f 581/607/525 622/606/524 584/593/537 568/613/538
f 583/603/521 568/613/539 587/599/539 618/604/521
f 568/613/518 584/593/515 619/596/515 587/599/518
f 582/598/517 621/597/517 585/608/517 569/594/517
f 364/451/540 430/454/541 616/614/542 563/615/543
f 591/616/83 409/458/83 433/457/83 615/617/81
f 399/459/544 333/462/545 623/618/546 504/619/547
f 592/620/80 615/617/81 563/615/80 533/621/80
f 507/622/121 593/623/121 614/624/121 518/625/121
f 514/565/99 575/562/99 624/588/99 516/626/99
f 589/627/548 567/602/548 588/605/548 617/628/548
f 564/629/108 617/628/108 572/630/108 501/631/108
f 565/632/75 519/590/75 600/633/70 610/634/70
f 349/478/110 565/632/75 610/634/70 444/479/69
f 623/618/546 581/607/549 568/613/550 583/603/551
f 622/606/524 582/598/552 569/594/553 584/593/537
f 548/635/554 409/458/554 591/616/554
f 593/623/555 573/636/555 592/620/555 614/624/555
f 573/636/556 591/616/556 615/617/556 592/620/556
f 504/619/547 623/618/546 583/603/551 567/602/557
f 546/637/24 613/638/24 593/623/104 507/622/104
f 621/597/517 562/639/558 536/584/558 585/608/517
f 620/609/559 561/583/559 502/640/559 550/641/559
f 619/596/515 586/595/515 510/642/519 551/600/519
f 618/604/521 587/599/539 509/601/560 570/643/173
f 617/628/77 588/605/77 508/644/77 572/630/77
f 616/614/542 504/619/542 567/602/542 589/627/542
f 594/645/24 571/646/25 590/647/25 613/638/24
f 598/592/505 607/577/505 603/648/505 580/586/505
f 444/479/69 610/634/70 595/578/70 412/408/69
f 603/648/561 511/549/561 549/548/561 606/582/561
f 566/589/109 503/561/109 577/560/109 609/649/109
f 580/586/562 603/648/562 606/582/562 604/581/562
f 601/610/93 513/557/94 579/556/94 608/574/93
f 585/608/563 536/584/563 561/583/563 620/609/563
f 332/442/523 401/428/564 582/598/552 622/606/524
f 533/621/39 589/627/39 617/628/39 564/629/39
f 588/605/521 618/604/521 570/643/173 508/644/173
f 575/562/79 503/561/79 566/589/79 624/588/79
f 518/625/102 614/624/102 564/629/102 501/631/102
f 615/617/81 433/457/83 364/451/82 563/615/80
f 614/624/115 592/620/115 533/621/115 564/629/115
f 613/638/565 590/647/565 573/636/565 593/623/565
f 450/418/514 605/587/513 562/639/566 367/495/567
f 519/590/111 566/589/111 609/649/111 600/633/111
f 612/580/509 596/573/508 578/576/568 597/611/527
f 600/633/569 609/649/569 601/610/569 576/579/569
f 611/612/532 598/592/531 580/586/570 599/585/535
f 424/431/516 367/495/571 562/639/558 621/597/517
f 586/595/572 620/609/572 550/641/572 510/642/572
f 610/634/70 600/633/70 576/579/70 595/578/70
f 609/649/76 577/560/76 513/557/76 601/610/76
f 608/574/93 579/556/94 512/553/573 602/575/100
f 607/577/505 517/552/504 511/549/504 603/648/505
f 606/582/574 549/548/574 502/640/574 561/583/574
f 605/587/513 604/581/513 536/584/566 562/639/566
f 546/637/24 594/645/24 613/638/24
f 333/462/545 400/439/575 581/607/549 623/618/546
f 563/615/543 616/614/542 589/627/542 533/621/543
f 430/454/541 399/459/541 504/619/542 616/614/542
f 547/650/576 546/637/576 625/651/576
f 507/622/17 520/538/16 625/651/16 546/637/17
f 520/538/16 537/537/16 558/652/16 625/651/16
f 506/653/577 625/651/577 558/652/577
f 644/654/578 541/655/578 552/528/578
f 522/569/579 627/656/579 626/570/579
f 543/567/580 534/530/581 628/657/582 523/568/580
f 534/530/581 544/529/583 524/658/584 628/657/582
f 524/658/9 629/563/8 574/566/149 515/659/150
f 544/529/9 532/534/8 629/563/8 524/658/9
f 532/534/8 545/533/8 525/564/8 629/563/8
f 525/564/153 630/559/153 575/562/153 514/565/153
f 545/533/7 526/558/7 630/559/7 525/564/7
f 526/558/151 513/557/151 577/560/151 630/559/151
f 535/532/127 631/555/127 526/558/127 545/533/127
f 542/525/585 527/554/585 631/555/127 535/532/127
f 527/554/585 512/553/586 579/556/126 631/555/127
f 556/524/22 632/551/22 527/554/499 542/525/499
f 539/545/22 528/550/22 632/551/22 556/524/22
f 528/550/22 511/549/498 517/552/498 632/551/22
f 529/544/587 633/547/587 528/550/587 539/545/587
f 510/642/588 550/641/588 633/547/588 529/544/588
f 550/641/589 502/640/589 549/548/589 633/547/589
f 530/540/590 634/543/496 559/546/496 538/541/590
f 509/601/591 551/600/592 634/543/496 530/540/590
f 551/600/592 510/642/496 529/544/496 634/543/496
f 531/536/19 635/539/19 560/542/19 537/537/19
f 508/644/20 570/643/20 635/539/19 531/536/19
f 570/643/20 509/601/136 530/540/136 635/539/19
f 518/625/140 636/535/140 520/538/140 507/622/140
f 501/631/18 572/630/18 636/535/18 518/625/18
f 572/630/138 508/644/138 531/536/138 636/535/138
f 552/528/593 637/531/593 532/534/593 544/529/593
f 541/655/594 554/526/594 637/531/594 552/528/594
f 554/526/595 542/525/595 535/532/495 637/531/495
f 553/571/162 638/527/162 534/530/162 543/567/162
f 541/655/596 540/660/596 557/522/596
f 521/661/597 558/652/597 640/521/597
f 557/522/598 639/523/598 554/526/598 541/655/598
f 538/541/599 559/546/599 639/523/599 557/522/599
f 559/546/157 539/545/157 556/524/492 639/523/492
f 553/571/600 646/662/600 638/527/600
f 537/537/6 560/542/601 640/521/602 558/652/6
f 560/542/601 538/541/603 557/522/603 640/521/602
f 591/616/604 573/636/604 641/663/604
f 573/636/605 590/647/605 642/664/605
f 590/647/606 571/646/606 643/665/606
f 626/570/607 647/666/607 553/571/607
f 524/658/584 515/659/608 628/657/582
f 574/566/98 514/565/98 516/626/98
f 505/591/609 516/626/609 624/588/609
f 565/632/68 505/591/68 519/590/68
f 628/657/610 515/659/610 648/667/610
f 523/568/611 628/657/611 649/668/611
f 516/626/612 650/669/612 574/566/612
f 515/659/613 574/566/613 651/670/613
f 516/626/614 505/591/614 652/671/614
f 505/591/615 565/632/615 653/672/615
f 349/478/616 654/673/616 565/632/616
f 104/674/617 431/491/617 488/510/617 161/675/617
f 221/676/618 548/635/618 591/616/618 264/677/618
f 226/678/619 553/571/619 647/666/619 320/679/619
f 230/680/620 557/522/620 540/660/620 213/681/620
f 179/682/621 506/653/621 558/652/621 231/683/621
f 161/675/622 488/510/622 408/481/622 81/684/622
f 45/685/623 372/506/623 389/348/623 62/686/623
f 320/679/624 647/666/624 626/570/624 299/687/624
f 162/688/625 489/511/625 431/491/625 104/674/625
f 79/689/626 406/492/626 489/511/626 162/688/626
f 163/690/627 490/500/627 373/501/627 46/691/627
f 157/692/628 484/354/628 491/399/628 164/693/628
f 165/694/629 492/508/629 484/354/629 157/692/629
f 159/695/630 486/349/630 351/507/630 24/696/630
f 317/697/631 644/654/631 552/528/631 225/698/631
f 58/699/632 385/398/632 492/508/632 165/694/632
f 57/700/633 384/357/633 490/500/633 163/690/633
f 321/701/634 648/667/634 515/659/634 188/702/634
f 267/703/635 594/645/635 546/637/635 219/704/635
f 228/705/636 555/520/636 557/522/636 230/680/636
f 166/706/637 493/512/637 385/398/637 58/699/637
f 301/707/638 628/657/638 648/667/638 321/701/638
f 145/708/639 472/397/639 493/512/639 166/706/639
f 322/709/640 649/668/640 628/657/640 301/707/640
f 231/683/641 558/652/641 521/661/641 194/710/641
f 196/711/642 523/568/642 649/668/642 322/709/642
f 164/693/643 491/399/643 384/357/643 57/700/643
f 323/712/644 650/669/644 516/626/644 189/713/644
f 247/714/645 574/566/645 650/669/645 323/712/645
f 194/710/646 521/661/646 640/521/646 313/715/646
f 214/716/647 541/655/647 644/654/647 317/697/647
f 324/717/648 651/670/648 574/566/648 247/714/648
f 46/691/649 373/501/649 372/506/649 45/685/649
f 17/718/650 344/505/650 494/513/650 167/719/650
f 62/686/651 389/348/651 387/347/651 60/720/651
f 188/702/652 515/659/652 651/670/652 324/717/652
f 313/715/653 640/521/653 555/520/653 228/705/653
f 167/719/654 494/513/654 474/503/654 147/721/654
f 298/722/655 625/651/655 506/653/655 179/682/655
f 325/723/656 652/671/656 505/591/656 178/724/656
f 244/725/657 571/646/657 594/645/657 267/703/657
f 147/721/658 474/503/658 495/514/658 168/726/658
f 63/727/659 390/498/659 335/499/659 8/728/659
f 189/713/660 516/626/660 652/671/660 325/723/660
f 24/696/661 351/507/661 390/498/661 63/727/661
f 168/726/662 495/514/662 353/396/662 26/729/662
f 299/687/663 626/570/663 627/656/663 300/730/663
f 326/731/664 653/672/664 565/632/664 238/732/664
f 144/733/665 471/497/665 379/496/665 52/734/665
f 18/735/666 345/469/666 496/515/666 169/736/666
f 300/730/667 627/656/667 522/569/667 195/737/667
f 109/738/668 436/490/668 406/492/668 79/689/668
f 178/724/669 505/591/669 653/672/669 326/731/669
f 264/677/670 591/616/670 641/663/670 314/739/670
f 53/740/671 380/480/671 409/458/671 82/741/671
f 169/736/672 496/515/672 410/391/672 83/742/672
f 195/737/673 522/569/673 523/568/673 196/711/673
f 327/743/674 654/673/674 349/478/674 22/744/674
f 225/698/675 552/528/675 645/572/675 318/745/675
f 314/739/676 641/663/676 573/636/676 246/746/676
f 105/747/677 432/455/677 380/480/677 53/740/677
f 83/742/678 410/391/678 497/516/678 170/748/678
f 238/732/679 565/632/679 654/673/679 327/743/679
f 315/749/680 642/664/680 590/647/680 263/750/680
f 170/748/681 497/516/681 344/505/681 17/718/681
f 60/720/682 387/347/682 486/349/682 159/695/682
f 8/728/683 335/499/683 471/497/683 144/733/683
f 246/746/684 573/636/684 642/664/684 315/749/684
f 7/751/685 334/420/685 498/517/685 171/752/685
f 213/681/686 540/660/686 541/655/686 214/716/686
f 263/750/687 590/647/687 643/665/687 316/753/687
f 171/752/688 498/517/688 345/469/688 18/735/688
f 146/754/689 473/502/689 472/397/689 145/708/689
f 316/753/690 643/665/690 571/646/690 244/725/690
f 219/704/691 546/637/691 547/650/691 220/755/691
f 70/756/692 397/475/692 499/518/692 172/757/692
f 51/758/693 378/482/693 436/490/693 109/738/693
f 52/734/694 379/496/694 378/482/694 51/758/694
f 25/759/695 352/395/695 473/502/695 146/754/695
f 318/745/696 645/572/696 638/527/696 311/760/696
f 172/757/697 499/518/697 334/420/697 7/751/697
f 160/761/698 487/509/698 432/455/698 105/747/698
f 220/755/699 547/650/699 625/651/699 298/722/699
f 26/729/700 353/396/700 352/395/700 25/759/700
f 311/760/701 638/527/701 646/662/701 319/762/701
f 22/744/702 349/478/702 500/519/702 173/763/702
f 81/684/703 408/481/703 487/509/703 160/761/703
f 82/741/704 409/458/704 548/635/704 221/676/704
f 319/762/705 646/662/705 553/571/705 226/678/705
f 173/763/706 500/519/706 397/475/706 70/756/706
