# Blender 4.4.1
# www.blender.org
mtllib Hair2.mtl
o hair2
v -0.500000 3.850060 0.500000
v -0.500000 4.850060 0.500000
v -0.500000 4.850060 -0.500000
v -0.158079 4.025411 0.755409
v 0.000000 4.516630 0.810668
v 0.000000 4.183490 0.810668
v -0.306404 4.794605 -0.650961
v -0.786626 3.880952 0.177159
v -0.572933 3.777127 0.296650
v -0.572933 4.053410 0.572933
v -0.609568 4.350060 0.609568
v -0.572933 4.646710 0.572933
v -0.572933 4.922993 0.296650
v -0.609568 4.959628 -0.000000
v -0.572933 4.922993 -0.296650
v -0.572933 4.646710 -0.572933
v -0.609568 4.350060 -0.609568
v -0.444545 4.656464 -0.650961
v -0.591250 4.941310 0.148325
v -0.536466 3.813594 0.398325
v -0.296650 4.922993 -0.572933
v 0.000000 4.959628 -0.609568
v -0.650961 3.905515 0.306404
v -0.824902 4.074553 0.163605
v -0.650961 3.905515 -0.306403
v -0.650961 4.043656 -0.444545
v -0.695698 4.350060 -0.471354
v -0.650961 4.656464 -0.444545
v -0.650961 4.794605 -0.306404
v -0.695698 4.821414 -0.000000
v -0.650961 4.794605 0.306403
v -0.650961 4.656464 0.444545
v -0.695698 4.350060 0.471354
v -0.650961 4.043656 0.444545
v -0.755409 4.508139 -0.324649
v -0.296650 3.777127 0.572933
v 0.000000 3.740492 0.609568
v -0.755409 4.191981 -0.324649
v -0.755409 4.674709 -0.158079
v 0.000000 4.959628 0.609568
v -0.296650 4.922993 0.572933
v -0.728990 4.033903 0.316157
v -0.781829 4.350060 0.333141
v -0.728990 4.666217 0.316157
v -0.903385 4.336420 0.030328
v -0.839506 4.350060 0.000000
v -0.781829 4.683200 -0.000000
v -0.728990 4.033903 -0.316157
v -0.781829 4.350060 -0.333140
v -0.728990 4.666217 -0.316157
v -0.591250 3.758810 0.148325
v -0.622797 3.765580 0.156702
v -0.092302 3.492192 0.362655
v -0.536466 4.886527 0.398325
v -0.536466 4.748385 0.536466
v -0.591250 4.498385 0.591250
v -0.831538 4.311215 -0.145894
v -0.755409 4.025411 -0.158079
v -0.810668 4.516630 -0.000000
v -0.835269 4.213450 0.159345
v -0.755409 4.674709 0.158079
v -0.807526 4.285775 0.127472
v -0.755409 4.025411 0.158079
v -0.755409 4.508139 0.324649
v -0.755409 4.191981 0.324649
v -0.398325 4.886527 0.536466
v -0.148325 4.941310 0.591250
v -0.148325 3.758810 0.591250
v -0.398325 3.813594 0.536467
v -0.148325 4.941310 -0.591250
v -0.398325 4.886527 -0.536466
v 0.000000 4.016920 0.781829
v 0.000000 4.350060 0.839506
v 0.000000 4.683201 0.781829
v -0.316157 4.033903 0.728990
v -0.333140 4.350060 0.781829
v -0.316157 4.666217 0.728990
v -0.591250 4.201735 0.591250
v -0.333140 3.568231 0.000000
v -0.536466 3.951735 0.536466
v -0.310357 3.613077 0.319056
v 0.000000 3.568231 0.333141
v -0.591250 4.498385 -0.591250
v -0.536466 4.748385 -0.536466
v 0.000000 5.131889 -0.333141
v -0.316157 5.079050 -0.316157
v -0.536466 4.886527 -0.398325
v 0.000000 5.189566 -0.000000
v -0.333140 5.131889 -0.000000
v -0.591250 4.941310 -0.148325
v 0.000000 5.131889 0.333140
v -0.316157 5.079050 0.316157
v -0.166570 4.350060 0.810668
v -0.158079 4.674709 0.755409
v -0.324649 4.191982 0.755409
v -0.324649 4.508139 0.755409
v 0.000000 4.821414 0.695698
v -0.306404 4.794605 0.650961
v -0.444545 4.656464 0.650961
v -0.471354 4.350060 0.695698
v -0.444545 4.043656 0.650961
v -0.306404 3.905515 0.650961
v 0.000000 3.878706 0.695698
v -0.324649 3.594651 0.158079
v -0.158079 3.594651 0.324649
v 0.000000 3.654362 0.471354
v -0.306404 3.699099 0.444545
v -0.444545 3.699099 0.306404
v -0.471354 3.654362 0.000000
v -0.158079 5.105469 -0.324649
v 0.000000 5.160728 -0.166570
v -0.324649 5.105469 -0.158079
v -0.166570 5.160728 -0.000000
v 0.000000 5.160728 0.166570
v -0.324649 5.105469 0.158078
v -0.158079 5.105470 0.324649
v 0.000000 5.045758 -0.471354
v -0.306404 5.001021 -0.444545
v -0.444545 5.001021 -0.306404
v -0.471354 5.045758 -0.000000
v -0.444545 5.001021 0.306403
v -0.306404 5.001021 0.444545
v 0.000000 5.045758 0.471354
v -0.153202 5.023390 0.457949
v -0.421435 4.943774 0.421435
v -0.457950 5.023390 0.153202
v -0.457950 5.023390 -0.153202
v -0.421435 4.943774 -0.421435
v -0.153202 5.023390 -0.457950
v -0.162324 5.133099 0.162324
v -0.162324 5.133099 -0.162325
v -0.457950 3.676730 0.153202
v -0.421435 3.756346 0.421435
v -0.153202 3.676730 0.457950
v -0.153202 3.892111 0.673330
v -0.421435 3.928625 0.593714
v -0.457950 4.196858 0.673330
v -0.457950 4.503262 0.673330
v -0.421435 4.771495 0.593714
v -0.153202 4.808010 0.673330
v -0.162324 4.512384 0.783038
v -0.162324 4.187736 0.783038
v -0.421435 4.771495 -0.593714
v -0.673330 3.892110 0.153202
v -0.673330 3.892110 -0.153202
v -0.672723 3.760067 -0.261991
v -0.658126 4.171396 -0.473627
v -0.673330 4.503262 -0.457950
v -0.593714 4.771495 -0.421435
v -0.673330 4.808010 -0.153202
v -0.673330 4.808010 0.153202
v -0.593714 4.771495 0.421435
v -0.673330 4.503262 0.457950
v -0.673330 4.196858 0.457950
v -0.593714 3.928625 0.421435
v -0.783038 4.512384 -0.162324
v -0.783038 4.187736 -0.162324
v -0.783038 4.512384 0.162324
v -0.783038 4.187736 0.162324
v -0.159564 3.548068 0.338127
v -0.357603 3.533360 0.199334
v -0.325459 3.514922 0.055407
v -0.894026 4.338986 -0.078274
v -0.858791 4.223214 -0.133558
v -0.796305 4.073092 -0.155239
v -0.742390 3.908340 -0.161576
v -0.574367 4.106581 -0.606793
v -0.548863 3.906284 -0.490924
v -0.531651 4.432926 -0.650012
v -0.574010 4.285857 -0.635728
v -0.405169 4.602861 -0.676727
v -0.262726 4.734507 -0.643076
v -0.137606 4.867653 -0.624574
v 0.500000 3.850060 0.500000
v 0.500000 4.850060 0.500000
v 0.500000 4.850060 -0.500000
v 0.158079 4.025411 0.755409
v 0.306404 4.794605 -0.650961
v 0.786626 3.880952 0.177159
v 0.572933 3.777127 0.296650
v 0.572933 4.053410 0.572933
v 0.609568 4.350060 0.609568
v 0.572933 4.646710 0.572933
v 0.572933 4.922993 0.296650
v 0.609568 4.959628 -0.000000
v 0.572933 4.922993 -0.296650
v 0.572933 4.646710 -0.572933
v 0.609568 4.350060 -0.609568
v 0.444545 4.656464 -0.650961
v 0.591250 4.941310 0.148325
v 0.536466 3.813594 0.398325
v 0.296650 4.922993 -0.572933
v 0.650961 3.905515 0.306404
v 0.824902 4.074553 0.163605
v 0.650961 3.905515 -0.306403
v 0.650961 4.043656 -0.444545
v 0.695698 4.350060 -0.471354
v 0.650961 4.656464 -0.444545
v 0.650961 4.794605 -0.306404
v 0.695698 4.821414 -0.000000
v 0.650961 4.794605 0.306403
v 0.650961 4.656464 0.444545
v 0.695698 4.350060 0.471354
v 0.650961 4.043656 0.444545
v 0.755409 4.508139 -0.324649
v 0.296650 3.777127 0.572933
v 0.755409 4.191981 -0.324649
v 0.755409 4.674709 -0.158079
v 0.296650 4.922993 0.572933
v 0.728990 4.033903 0.316157
v 0.781829 4.350060 0.333141
v 0.728990 4.666217 0.316157
v 0.903385 4.336420 0.030328
v 0.839506 4.350060 0.000000
v 0.781829 4.683200 -0.000000
v 0.728990 4.033903 -0.316157
v 0.781829 4.350060 -0.333140
v 0.728990 4.666217 -0.316157
v 0.591250 3.758810 0.148325
v 0.622797 3.765580 0.156702
v 0.092302 3.492192 0.362655
v 0.536466 4.886527 0.398325
v 0.536466 4.748385 0.536466
v 0.591250 4.498385 0.591250
v 0.831538 4.311215 -0.145894
v 0.755409 4.025411 -0.158079
v 0.810668 4.516630 -0.000000
v 0.835269 4.213450 0.159345
v 0.755409 4.674709 0.158079
v 0.807526 4.285775 0.127472
v 0.755409 4.025411 0.158079
v 0.755409 4.508139 0.324649
v 0.755409 4.191981 0.324649
v 0.398325 4.886527 0.536466
v 0.148325 4.941310 0.591250
v 0.148325 3.758810 0.591250
v 0.398325 3.813594 0.536467
v 0.148325 4.941310 -0.591250
v 0.398325 4.886527 -0.536466
v 0.316157 4.033903 0.728990
v 0.333140 4.350060 0.781829
v 0.316157 4.666217 0.728990
v 0.591250 4.201735 0.591250
v 0.333140 3.568231 0.000000
v 0.536466 3.951735 0.536466
v 0.310357 3.613077 0.319056
v 0.591250 4.498385 -0.591250
v 0.536466 4.748385 -0.536466
v 0.316157 5.079050 -0.316157
v 0.536466 4.886527 -0.398325
v 0.333140 5.131889 -0.000000
v 0.591250 4.941310 -0.148325
v 0.316157 5.079050 0.316157
v 0.166570 4.350060 0.810668
v 0.158079 4.674709 0.755409
v 0.324649 4.191982 0.755409
v 0.324649 4.508139 0.755409
v 0.306404 4.794605 0.650961
v 0.444545 4.656464 0.650961
v 0.471354 4.350060 0.695698
v 0.444545 4.043656 0.650961
v 0.306404 3.905515 0.650961
v 0.324649 3.594651 0.158079
v 0.158079 3.594651 0.324649
v 0.306404 3.699099 0.444545
v 0.444545 3.699099 0.306404
v 0.471354 3.654362 0.000000
v 0.158079 5.105469 -0.324649
v 0.324649 5.105469 -0.158079
v 0.166570 5.160728 -0.000000
v 0.324649 5.105469 0.158078
v 0.158079 5.105470 0.324649
v 0.306404 5.001021 -0.444545
v 0.444545 5.001021 -0.306404
v 0.471354 5.045758 -0.000000
v 0.444545 5.001021 0.306403
v 0.306404 5.001021 0.444545
v 0.153202 5.023390 0.457949
v 0.421435 4.943774 0.421435
v 0.457950 5.023390 0.153202
v 0.457950 5.023390 -0.153202
v 0.421435 4.943774 -0.421435
v 0.153202 5.023390 -0.457950
v 0.162324 5.133099 0.162324
v 0.162324 5.133099 -0.162325
v 0.457950 3.676730 0.153202
v 0.421435 3.756346 0.421435
v 0.153202 3.676730 0.457950
v 0.153202 3.892111 0.673330
v 0.421435 3.928625 0.593714
v 0.457950 4.196858 0.673330
v 0.457950 4.503262 0.673330
v 0.421435 4.771495 0.593714
v 0.153202 4.808010 0.673330
v 0.162324 4.512384 0.783038
v 0.162324 4.187736 0.783038
v 0.421435 4.771495 -0.593714
v 0.673330 3.892110 0.153202
v 0.673330 3.892110 -0.153202
v 0.672723 3.760067 -0.261991
v 0.658126 4.171396 -0.473627
v 0.673330 4.503262 -0.457950
v 0.593714 4.771495 -0.421435
v 0.673330 4.808010 -0.153202
v 0.673330 4.808010 0.153202
v 0.593714 4.771495 0.421435
v 0.673330 4.503262 0.457950
v 0.673330 4.196858 0.457950
v 0.593714 3.928625 0.421435
v 0.783038 4.512384 -0.162324
v 0.783038 4.187736 -0.162324
v 0.783038 4.512384 0.162324
v 0.783038 4.187736 0.162324
v 0.159564 3.548068 0.338127
v 0.357603 3.533360 0.199334
v 0.325459 3.514922 0.055407
v 0.894026 4.338986 -0.078274
v 0.858791 4.223214 -0.133558
v 0.796305 4.073092 -0.155239
v 0.742390 3.908340 -0.161576
v 0.574367 4.106581 -0.606793
v 0.548863 3.906284 -0.490924
v 0.531651 4.432926 -0.650012
v 0.574010 4.285857 -0.635728
v 0.405169 4.602861 -0.676727
v 0.262726 4.734507 -0.643076
v 0.137606 4.867653 -0.624574
v -0.447347 3.910547 0.460602
v -0.447347 4.805242 0.460602
v -0.447347 4.805242 -0.434093
v -0.141432 4.067433 0.689115
v -0.000000 4.506924 0.738554
v -0.000000 4.208865 0.738554
v -0.274138 4.755626 -0.569157
v -0.703790 3.938186 0.171758
v -0.512600 3.845294 0.278666
v -0.512600 4.092483 0.525854
v -0.545377 4.357894 0.558632
v -0.512600 4.623305 0.525854
v -0.512600 4.870494 0.278666
v -0.545377 4.903272 0.013254
v -0.512600 4.870494 -0.252157
v -0.512600 4.623305 -0.499345
v -0.545377 4.357894 -0.532123
v -0.397732 4.632032 -0.569157
v -0.528988 4.886883 0.145960
v -0.479974 3.877921 0.369634
v -0.265411 4.870494 -0.499345
v -0.000000 4.903271 -0.532123
v -0.582412 3.960162 0.287392
v -0.738036 4.111400 0.159631
v -0.582412 3.960162 -0.260883
v -0.582412 4.083756 -0.384477
v -0.622438 4.357894 -0.408464
v -0.582412 4.632032 -0.384478
v -0.582412 4.755626 -0.260883
v -0.622438 4.779613 0.013254
v -0.582412 4.755626 0.287392
v -0.582412 4.632032 0.410986
v -0.622438 4.357894 0.434973
v -0.582412 4.083757 0.410987
v -0.675861 4.499326 -0.277207
v -0.265411 3.845294 0.525854
v -0.000000 3.812517 0.558632
v -0.675861 4.216462 -0.277207
v -0.675861 4.648356 -0.128178
v -0.000000 4.903272 0.558632
v -0.265411 4.870494 0.525854
v -0.652223 4.075030 0.296119
v -0.699498 4.357894 0.311314
v -0.652223 4.640759 0.296119
v -0.808254 4.345691 0.040389
v -0.751102 4.357894 0.013254
v -0.699498 4.655953 0.013254
v -0.652223 4.075030 -0.269610
v -0.699498 4.357894 -0.284805
v -0.652223 4.640759 -0.269610
v -0.528988 3.828906 0.145960
v -0.557213 3.834963 0.153455
v -0.082582 3.590365 0.337720
v -0.479974 4.837868 0.369634
v -0.479974 4.714273 0.493228
v -0.528989 4.490600 0.542243
v -0.743973 4.323140 -0.117276
v -0.675861 4.067433 -0.128178
v -0.725300 4.506924 0.013254
v -0.747310 4.235670 0.155820
v -0.675861 4.648356 0.154686
v -0.722490 4.300379 0.127303
v -0.675861 4.067433 0.154687
v -0.675861 4.499326 0.303716
v -0.675861 4.216462 0.303716
v -0.356379 4.837868 0.493228
v -0.132706 4.886883 0.542243
v -0.132706 3.828906 0.542243
v -0.356379 3.877921 0.493228
v -0.132706 4.886883 -0.515734
v -0.356379 4.837868 -0.466719
v -0.000000 4.059835 0.712753
v -0.000000 4.357894 0.764356
v -0.000000 4.655953 0.712752
v -0.282864 4.075030 0.665478
v -0.298059 4.357894 0.712753
v -0.282864 4.640759 0.665478
v -0.528988 4.225189 0.542243
v -0.298059 3.658396 0.013255
v -0.479974 4.001515 0.493228
v -0.277675 3.698520 0.298712
v -0.000000 3.658396 0.311314
v -0.528989 4.490600 -0.515734
v -0.479974 4.714273 -0.466719
v -0.000000 5.057392 -0.284805
v -0.282864 5.010118 -0.269610
v -0.479974 4.837868 -0.343125
v -0.000000 5.108996 0.013254
v -0.298059 5.057392 0.013254
v -0.528989 4.886883 -0.119451
v -0.000000 5.057393 0.311313
v -0.282864 5.010118 0.296118
v -0.149030 4.357894 0.738554
v -0.141432 4.648356 0.689115
v -0.290462 4.216462 0.689115
v -0.290462 4.499326 0.689115
v -0.000000 4.779613 0.635692
v -0.274138 4.755626 0.595666
v -0.397732 4.632032 0.595666
v -0.421718 4.357894 0.635692
v -0.397732 4.083757 0.595666
v -0.274138 3.960162 0.595666
v -0.000000 3.936176 0.635692
v -0.290462 3.682034 0.154687
v -0.141432 3.682034 0.303716
v -0.000000 3.735457 0.434973
v -0.274138 3.775483 0.410987
v -0.397732 3.775483 0.287392
v -0.421718 3.735457 0.013255
v -0.141432 5.033755 -0.277207
v -0.000000 5.083194 -0.135775
v -0.290462 5.033755 -0.128178
v -0.149030 5.083194 0.013254
v -0.000000 5.083194 0.162284
v -0.290462 5.033755 0.154686
v -0.141432 5.033755 0.303716
v -0.000000 4.980332 -0.408464
v -0.274138 4.940306 -0.384478
v -0.397732 4.940306 -0.260883
v -0.421718 4.980332 0.013254
v -0.397732 4.940306 0.287392
v -0.274138 4.940306 0.410986
v -0.000000 4.980332 0.434972
v -0.137069 4.960319 0.422979
v -0.377056 4.889087 0.390310
v -0.409725 4.960319 0.150323
v -0.409725 4.960319 -0.123814
v -0.377056 4.889087 -0.363801
v -0.137069 4.960319 -0.396471
v -0.145231 5.058475 0.158485
v -0.145231 5.058475 -0.131976
v -0.409725 3.755470 0.150323
v -0.377056 3.826702 0.390310
v -0.137069 3.755470 0.422980
v -0.137069 3.948169 0.615679
v -0.377056 3.980839 0.544447
v -0.409725 4.220826 0.615679
v -0.409725 4.494963 0.615679
v -0.377056 4.734950 0.544447
v -0.137069 4.767620 0.615679
v -0.145231 4.503125 0.713835
v -0.145231 4.212664 0.713835
v -0.377056 4.734950 -0.517938
v -0.602425 3.948169 0.150323
v -0.602425 3.948169 -0.123814
v -0.601882 3.830030 -0.221147
v -0.588822 4.198045 -0.410497
v -0.602425 4.494963 -0.396471
v -0.531193 4.734950 -0.363801
v -0.602425 4.767619 -0.123814
v -0.602425 4.767619 0.150323
v -0.531193 4.734950 0.390310
v -0.602425 4.494963 0.422980
v -0.602425 4.220826 0.422980
v -0.531193 3.980839 0.390310
v -0.700580 4.503125 -0.131976
v -0.700580 4.212664 -0.131976
v -0.700580 4.503125 0.158485
v -0.700580 4.212664 0.158485
v -0.142761 3.640356 0.315775
v -0.319945 3.627197 0.191598
v -0.291186 3.610700 0.062827
v -0.799880 4.347986 -0.056777
v -0.768356 4.244405 -0.106239
v -0.712450 4.110092 -0.125637
v -0.664213 3.962689 -0.131307
v -0.513883 4.140055 -0.529640
v -0.491065 3.960850 -0.425972
v -0.475666 4.432034 -0.568308
v -0.513564 4.300452 -0.555528
v -0.362502 4.584074 -0.592210
v -0.235060 4.701857 -0.562102
v -0.123115 4.820982 -0.545548
v 0.447347 3.910547 0.460602
v 0.447347 4.805242 0.460602
v 0.447347 4.805242 -0.434093
v 0.141432 4.067433 0.689115
v 0.274138 4.755626 -0.569157
v 0.703790 3.938186 0.171758
v 0.512600 3.845294 0.278666
v 0.512600 4.092483 0.525854
v 0.545377 4.357894 0.558632
v 0.512600 4.623305 0.525854
v 0.512600 4.870494 0.278666
v 0.545377 4.903272 0.013254
v 0.512600 4.870494 -0.252157
v 0.512600 4.623305 -0.499345
v 0.545377 4.357894 -0.532123
v 0.397732 4.632032 -0.569157
v 0.528988 4.886883 0.145960
v 0.479974 3.877921 0.369634
v 0.265411 4.870494 -0.499345
v 0.582412 3.960162 0.287392
v 0.738036 4.111400 0.159631
v 0.582412 3.960162 -0.260883
v 0.582412 4.083756 -0.384477
v 0.622438 4.357894 -0.408464
v 0.582412 4.632032 -0.384478
v 0.582412 4.755626 -0.260883
v 0.622438 4.779613 0.013254
v 0.582412 4.755626 0.287392
v 0.582412 4.632032 0.410986
v 0.622438 4.357894 0.434973
v 0.582412 4.083757 0.410987
v 0.675861 4.499326 -0.277207
v 0.265411 3.845294 0.525854
v 0.675861 4.216462 -0.277207
v 0.675861 4.648356 -0.128178
v 0.265411 4.870494 0.525854
v 0.652223 4.075030 0.296119
v 0.699498 4.357894 0.311314
v 0.652223 4.640759 0.296119
v 0.808254 4.345691 0.040389
v 0.751102 4.357894 0.013254
v 0.699498 4.655953 0.013254
v 0.652223 4.075030 -0.269610
v 0.699498 4.357894 -0.284805
v 0.652223 4.640759 -0.269610
v 0.528988 3.828906 0.145960
v 0.557213 3.834963 0.153455
v 0.082582 3.590365 0.337720
v 0.479974 4.837868 0.369634
v 0.479974 4.714273 0.493228
v 0.528989 4.490600 0.542243
v 0.743973 4.323140 -0.117276
v 0.675861 4.067433 -0.128178
v 0.725300 4.506924 0.013254
v 0.747310 4.235670 0.155820
v 0.675861 4.648356 0.154686
v 0.722490 4.300379 0.127303
v 0.675861 4.067433 0.154687
v 0.675861 4.499326 0.303716
v 0.675861 4.216462 0.303716
v 0.356379 4.837868 0.493228
v 0.132706 4.886883 0.542243
v 0.132706 3.828906 0.542243
v 0.356379 3.877921 0.493228
v 0.132706 4.886883 -0.515734
v 0.356379 4.837868 -0.466719
v 0.282864 4.075030 0.665478
v 0.298059 4.357894 0.712753
v 0.282864 4.640759 0.665478
v 0.528988 4.225189 0.542243
v 0.298059 3.658396 0.013255
v 0.479974 4.001515 0.493228
v 0.277675 3.698520 0.298712
v 0.528989 4.490600 -0.515734
v 0.479974 4.714273 -0.466719
v 0.282864 5.010118 -0.269610
v 0.479974 4.837868 -0.343125
v 0.298059 5.057392 0.013254
v 0.528989 4.886883 -0.119451
v 0.282864 5.010118 0.296118
v 0.149030 4.357894 0.738554
v 0.141432 4.648356 0.689115
v 0.290462 4.216462 0.689115
v 0.290462 4.499326 0.689115
v 0.274138 4.755626 0.595666
v 0.397732 4.632032 0.595666
v 0.421718 4.357894 0.635692
v 0.397732 4.083757 0.595666
v 0.274138 3.960162 0.595666
v 0.290462 3.682034 0.154687
v 0.141432 3.682034 0.303716
v 0.274138 3.775483 0.410987
v 0.397732 3.775483 0.287392
v 0.421718 3.735457 0.013255
v 0.141432 5.033755 -0.277207
v 0.290462 5.033755 -0.128178
v 0.149029 5.083194 0.013254
v 0.290462 5.033755 0.154686
v 0.141432 5.033755 0.303716
v 0.274138 4.940306 -0.384478
v 0.397732 4.940306 -0.260883
v 0.421718 4.980332 0.013254
v 0.397732 4.940306 0.287392
v 0.274138 4.940306 0.410986
v 0.137069 4.960319 0.422979
v 0.377056 4.889087 0.390310
v 0.409725 4.960319 0.150323
v 0.409725 4.960319 -0.123814
v 0.377056 4.889087 -0.363801
v 0.137069 4.960319 -0.396471
v 0.145231 5.058475 0.158485
v 0.145231 5.058475 -0.131976
v 0.409725 3.755470 0.150323
v 0.377056 3.826702 0.390310
v 0.137069 3.755470 0.422980
v 0.137069 3.948169 0.615679
v 0.377056 3.980839 0.544447
v 0.409725 4.220826 0.615679
v 0.409725 4.494963 0.615679
v 0.377056 4.734950 0.544447
v 0.137069 4.767620 0.615679
v 0.145231 4.503125 0.713835
v 0.145231 4.212664 0.713835
v 0.377056 4.734950 -0.517938
v 0.602425 3.948169 0.150323
v 0.602425 3.948169 -0.123814
v 0.601882 3.830030 -0.221147
v 0.588822 4.198045 -0.410497
v 0.602425 4.494963 -0.396471
v 0.531193 4.734950 -0.363801
v 0.602425 4.767619 -0.123814
v 0.602425 4.767619 0.150323
v 0.531193 4.734950 0.390310
v 0.602425 4.494963 0.422980
v 0.602425 4.220826 0.422980
v 0.531193 3.980839 0.390310
v 0.700580 4.503125 -0.131976
v 0.700580 4.212664 -0.131976
v 0.700580 4.503125 0.158485
v 0.700580 4.212664 0.158485
v 0.142761 3.640356 0.315775
v 0.319945 3.627197 0.191598
v 0.291186 3.610700 0.062827
v 0.799880 4.347986 -0.056777
v 0.768356 4.244405 -0.106239
v 0.712450 4.110092 -0.125637
v 0.664213 3.962689 -0.131307
v 0.513883 4.140055 -0.529640
v 0.491065 3.960850 -0.425972
v 0.475666 4.432034 -0.568308
v 0.513564 4.300452 -0.555528
v 0.362502 4.584074 -0.592210
v 0.235060 4.701857 -0.562102
v 0.123115 4.820982 -0.545548
vn -0.1244 -0.3598 -0.9247
vn 0.9706 -0.1697 -0.1705
vn 0.9708 -0.1689 -0.1705
vn 0.9402 0.2435 0.2380
vn 0.9706 -0.1697 0.1705
vn 0.9705 -0.1705 0.1705
vn 0.7401 0.4755 -0.4755
vn 0.8367 0.1678 -0.5213
vn 0.8367 0.1678 -0.5214
vn 0.8367 -0.1678 -0.5213
vn 0.7503 -0.4786 -0.4560
vn 0.8367 -0.5213 -0.1678
vn 0.8367 -0.5214 -0.1678
vn 0.8367 -0.5214 -0.1677
vn 0.8367 -0.5213 -0.1677
vn 0.8367 -0.5213 0.1678
vn 0.8367 -0.5213 0.1677
vn 0.7644 -0.4559 0.4559
vn 0.8367 -0.1678 0.5213
vn 0.8367 -0.1677 0.5213
vn 0.7322 0.4816 0.4816
vn 0.8367 0.5213 0.1678
vn 0.3624 0.0184 0.9318
vn 0.5213 -0.8367 0.1678
vn 0.5214 -0.8367 0.1678
vn 0.5214 -0.8367 -0.1678
vn 0.5213 -0.8367 -0.1678
vn 0.5213 -0.8367 -0.1677
vn 0.5214 -0.8367 -0.1677
vn 0.1705 -0.9706 0.1697
vn 0.1697 -0.9708 0.1697
vn 0.1697 -0.9706 0.1705
vn 0.1705 -0.9705 0.1705
vn 0.1705 -0.9708 0.1689
vn 0.1697 -0.9709 0.1689
vn 0.4560 -0.7503 -0.4786
vn 0.1678 -0.8367 -0.5213
vn 0.1678 -0.8367 -0.5214
vn 0.4560 -0.4786 0.7503
vn 0.5213 -0.1678 -0.8367
vn 0.1678 -0.5214 -0.8367
vn 0.1678 -0.5213 -0.8367
vn 0.5214 -0.1678 -0.8367
vn 0.5214 -0.1677 -0.8367
vn 0.5213 -0.1677 -0.8367
vn 0.5213 0.1678 -0.8367
vn 0.1689 -0.1689 -0.9711
vn 0.1689 -0.1697 -0.9709
vn 0.1697 -0.1697 -0.9708
vn 0.1697 -0.1689 -0.9709
vn 0.4755 -0.4755 -0.7401
vn 0.1689 -0.9711 0.1689
vn 0.1689 -0.9709 0.1697
vn 0.1689 -0.9709 -0.1697
vn 0.1697 -0.9708 -0.1697
vn 0.1697 -0.9706 -0.1705
vn 0.1689 -0.9708 -0.1705
vn 0.1689 -0.9711 -0.1689
vn 0.1697 -0.9709 -0.1689
vn 0.1705 -0.9708 -0.1689
vn 0.1705 -0.9706 -0.1697
vn 0.1689 -0.1705 -0.9708
vn 0.1697 -0.1705 -0.9706
vn 0.5214 0.1678 -0.8367
vn 0.1677 0.5214 -0.8367
vn 0.1677 0.5213 -0.8367
vn 0.1678 0.5213 -0.8367
vn 0.1678 0.5214 -0.8367
vn 0.1678 0.8367 -0.5214
vn 0.1678 0.8367 -0.5213
vn 0.1705 0.1689 -0.9708
vn 0.1705 0.1697 -0.9706
vn 0.1697 0.1697 -0.9708
vn 0.1697 0.1689 -0.9709
vn 0.1677 0.8367 -0.5213
vn 0.4786 0.7503 -0.4560
vn 0.4786 -0.4560 0.7503
vn 0.4755 0.4755 -0.7401
vn 0.4559 0.4559 -0.7644
vn 0.1677 -0.8367 0.5213
vn 0.1678 -0.8367 0.5213
vn 0.1677 -0.8367 0.5214
vn 0.1678 -0.8367 0.5214
vn 0.1697 0.1705 -0.9706
vn 0.1689 0.1705 -0.9708
vn 0.1689 0.1697 -0.9709
vn 0.1705 -0.1705 -0.9705
vn 0.1705 -0.1697 -0.9706
vn -0.0087 -0.3527 -0.9357
vn 0.4868 0.7253 -0.4868
vn 0.1443 0.8276 -0.5425
vn 0.1705 0.1705 -0.9705
vn 0.5213 0.8367 -0.1678
vn 0.5213 0.8367 -0.1677
vn 0.1677 -0.5213 -0.8367
vn 0.4559 -0.4559 -0.7644
vn 0.5213 0.1677 -0.8367
vn 0.5214 0.1677 -0.8367
vn 0.4786 0.4560 -0.7503
vn 0.5214 0.8367 -0.1678
vn 0.4786 -0.7503 -0.4560
vn 0.4559 -0.7644 0.4559
vn 0.4755 -0.7401 -0.4755
vn 0.5213 -0.8367 0.1677
vn 0.4560 -0.4786 -0.7503
vn 0.1705 -0.1689 -0.9708
vn 0.4560 0.4786 -0.7503
vn 0.4559 -0.4559 0.7644
vn 0.4559 0.7644 -0.4559
vn 0.1677 0.8367 -0.5214
vn 0.4560 0.7503 -0.4786
vn 0.5329 0.8318 -0.1550
vn 0.1677 -0.8367 -0.5214
vn 0.1677 -0.8367 -0.5213
vn 0.4560 -0.7503 0.4786
vn 0.1689 -0.9708 0.1705
vn 0.4755 -0.7401 0.4755
vn 0.1705 -0.9705 -0.1705
vn 0.1677 -0.5214 -0.8367
vn 0.4786 -0.4560 -0.7503
vn 0.4786 -0.7503 0.4560
vn 0.5214 -0.8367 0.1677
vn 0.4559 -0.7644 -0.4559
vn 0.1689 0.1689 -0.9711
vn -0.2819 -0.1388 -0.9493
vn 0.8367 0.5213 -0.1677
vn 0.8367 0.5213 -0.1678
vn -0.1980 -0.0862 -0.9764
vn -0.1588 -0.9562 0.2459
vn 0.9852 -0.1063 0.1345
vn 0.8364 0.1669 0.5221
vn 0.8364 0.1690 0.5214
vn 0.8363 0.1678 0.5220
vn 0.8363 0.1689 0.5216
vn 0.8362 0.1685 0.5219
vn 0.8367 -0.1678 0.5214
vn 0.8367 -0.1677 0.5214
vn 0.7503 -0.4560 0.4786
vn 0.7401 -0.4755 0.4755
vn 0.7503 -0.4786 0.4560
vn 0.8367 -0.5214 0.1678
vn 0.8367 -0.5214 0.1677
vn 0.7401 -0.4755 -0.4755
vn 0.7503 -0.4560 -0.4786
vn 0.7644 -0.4559 -0.4559
vn 0.8367 -0.1678 -0.5214
vn 0.8367 -0.1677 -0.5214
vn 0.8367 -0.1677 -0.5213
vn 0.8367 0.1677 -0.5213
vn 0.8367 0.1677 -0.5214
vn 0.7503 0.4786 -0.4560
vn 0.7644 0.4559 -0.4559
vn 0.7503 0.4560 -0.4786
vn 0.9613 -0.1962 0.1933
vn 0.9702 -0.1978 0.1397
vn 0.9708 -0.1689 0.1705
vn 0.9705 0.1705 0.1705
vn -0.0207 -0.8948 -0.4460
vn -0.0692 0.0143 -0.9975
vn 0.9679 -0.1113 -0.2254
vn 0.9849 -0.1219 -0.1228
vn 0.9705 -0.1705 -0.1705
vn 0.1236 0.0470 0.9912
vn 0.9705 0.1705 -0.1705
vn 0.9705 0.1706 -0.1706
vn 0.9699 0.1727 -0.1718
vn 0.9693 0.1749 -0.1730
vn 0.0016 -0.2780 -0.9606
vn 0.8743 -0.4849 -0.0221
vn 0.9950 0.0748 -0.0660
vn -0.1305 -0.0441 0.9905
vn 0.8364 0.1693 0.5212
vn 0.5213 -0.1677 0.8367
vn 0.4674 -0.4674 0.7504
vn 0.1677 -0.5213 0.8367
vn 0.8667 0.1308 0.4815
vn 0.6216 0.2069 0.7556
vn 0.5568 -0.2136 0.8027
vn 0.3817 -0.1596 0.9104
vn 0.2580 -0.2580 0.9311
vn -0.2849 -0.0817 0.9551
vn 0.1600 -0.3875 0.9079
vn 0.1244 -0.3598 -0.9247
vn -0.9706 -0.1697 -0.1705
vn -0.9708 -0.1689 -0.1705
vn -0.9402 0.2435 0.2380
vn -0.9706 -0.1697 0.1705
vn -0.9705 -0.1705 0.1705
vn -0.7401 0.4755 -0.4755
vn -0.8367 0.1678 -0.5213
vn -0.8367 0.1678 -0.5214
vn -0.8367 -0.1678 -0.5213
vn -0.7503 -0.4786 -0.4560
vn -0.8367 -0.5213 -0.1678
vn -0.8367 -0.5213 -0.1677
vn -0.8367 -0.5214 -0.1677
vn -0.8367 -0.5214 -0.1678
vn -0.8367 -0.5213 0.1678
vn -0.8367 -0.5213 0.1677
vn -0.7644 -0.4559 0.4559
vn -0.8367 -0.1678 0.5213
vn -0.8367 -0.1677 0.5213
vn -0.7322 0.4816 0.4816
vn -0.8367 0.5213 0.1678
vn -0.3624 0.0184 0.9318
vn -0.5213 -0.8367 0.1678
vn -0.5214 -0.8367 0.1678
vn -0.5214 -0.8367 -0.1678
vn -0.5214 -0.8367 -0.1677
vn -0.5213 -0.8367 -0.1677
vn -0.5213 -0.8367 -0.1678
vn -0.1705 -0.9706 0.1697
vn -0.1705 -0.9705 0.1705
vn -0.1697 -0.9706 0.1705
vn -0.1697 -0.9708 0.1697
vn -0.1705 -0.9708 0.1689
vn -0.1697 -0.9709 0.1689
vn -0.4560 -0.7503 -0.4786
vn -0.1678 -0.8367 -0.5213
vn -0.1678 -0.8367 -0.5214
vn -0.4560 -0.4786 0.7503
vn -0.5213 -0.1678 -0.8367
vn -0.1678 -0.5214 -0.8367
vn -0.1678 -0.5213 -0.8367
vn -0.5214 -0.1678 -0.8367
vn -0.5213 -0.1677 -0.8367
vn -0.5214 -0.1677 -0.8367
vn -0.5213 0.1678 -0.8367
vn -0.1689 -0.1689 -0.9711
vn -0.1697 -0.1689 -0.9709
vn -0.1697 -0.1697 -0.9708
vn -0.1689 -0.1697 -0.9709
vn -0.4755 -0.4755 -0.7401
vn -0.1689 -0.9709 0.1697
vn -0.1689 -0.9711 0.1689
vn -0.1689 -0.9709 -0.1697
vn -0.1689 -0.9708 -0.1705
vn -0.1697 -0.9706 -0.1705
vn -0.1697 -0.9708 -0.1697
vn -0.1689 -0.9711 -0.1689
vn -0.1697 -0.9709 -0.1689
vn -0.1705 -0.9706 -0.1697
vn -0.1705 -0.9708 -0.1689
vn -0.1697 -0.1705 -0.9706
vn -0.1689 -0.1705 -0.9708
vn -0.5214 0.1678 -0.8367
vn -0.1677 0.5214 -0.8367
vn -0.1678 0.5214 -0.8367
vn -0.1678 0.5213 -0.8367
vn -0.1677 0.5213 -0.8367
vn -0.1678 0.8367 -0.5214
vn -0.1678 0.8367 -0.5213
vn -0.1705 0.1689 -0.9708
vn -0.1697 0.1689 -0.9709
vn -0.1697 0.1697 -0.9708
vn -0.1705 0.1697 -0.9706
vn -0.1677 0.8367 -0.5213
vn -0.4786 0.7503 -0.4560
vn -0.4786 -0.4560 0.7503
vn -0.4755 0.4755 -0.7401
vn -0.4559 0.4559 -0.7644
vn -0.1677 -0.8367 0.5213
vn -0.1678 -0.8367 0.5213
vn -0.1677 -0.8367 0.5214
vn -0.1678 -0.8367 0.5214
vn -0.1689 0.1697 -0.9709
vn -0.1689 0.1705 -0.9708
vn -0.1697 0.1705 -0.9706
vn -0.1705 -0.1697 -0.9706
vn -0.1705 -0.1705 -0.9705
vn 0.0087 -0.3527 -0.9357
vn -0.4868 0.7253 -0.4868
vn -0.1443 0.8276 -0.5425
vn -0.1705 0.1705 -0.9705
vn -0.5213 0.8367 -0.1678
vn -0.5213 0.8367 -0.1677
vn -0.1677 -0.5213 -0.8367
vn -0.4559 -0.4559 -0.7644
vn -0.5214 0.1677 -0.8367
vn -0.5213 0.1677 -0.8367
vn -0.4786 0.4560 -0.7503
vn -0.5214 0.8367 -0.1678
vn -0.4786 -0.7503 -0.4560
vn -0.4559 -0.7644 0.4559
vn -0.4755 -0.7401 -0.4755
vn -0.5213 -0.8367 0.1677
vn -0.4560 -0.4786 -0.7503
vn -0.1705 -0.1689 -0.9708
vn -0.4560 0.4786 -0.7503
vn -0.4559 -0.4559 0.7644
vn -0.4559 0.7644 -0.4559
vn -0.1677 0.8367 -0.5214
vn -0.4560 0.7503 -0.4786
vn -0.5329 0.8318 -0.1550
vn -0.1677 -0.8367 -0.5213
vn -0.1677 -0.8367 -0.5214
vn -0.4560 -0.7503 0.4786
vn -0.1689 -0.9708 0.1705
vn -0.4755 -0.7401 0.4755
vn -0.1705 -0.9705 -0.1705
vn -0.1677 -0.5214 -0.8367
vn -0.4786 -0.4560 -0.7503
vn -0.4786 -0.7503 0.4560
vn -0.5214 -0.8367 0.1677
vn -0.4559 -0.7644 -0.4559
vn -0.1689 0.1689 -0.9711
vn 0.2819 -0.1388 -0.9493
vn -0.8367 0.5213 -0.1677
vn -0.8367 0.5213 -0.1678
vn 0.1980 -0.0862 -0.9764
vn 0.1588 -0.9562 0.2459
vn -0.9852 -0.1063 0.1345
vn -0.8364 0.1669 0.5221
vn -0.8363 0.1678 0.5220
vn -0.8364 0.1690 0.5215
vn -0.8362 0.1685 0.5219
vn -0.8363 0.1689 0.5216
vn -0.8367 -0.1678 0.5214
vn -0.8367 -0.1677 0.5214
vn -0.7503 -0.4560 0.4786
vn -0.7401 -0.4755 0.4755
vn -0.7503 -0.4786 0.4560
vn -0.8367 -0.5214 0.1678
vn -0.8367 -0.5214 0.1677
vn -0.7401 -0.4755 -0.4755
vn -0.7503 -0.4560 -0.4786
vn -0.7644 -0.4559 -0.4559
vn -0.8367 -0.1678 -0.5214
vn -0.8367 -0.1677 -0.5214
vn -0.8367 -0.1677 -0.5213
vn -0.8367 0.1677 -0.5213
vn -0.8367 0.1677 -0.5214
vn -0.7503 0.4786 -0.4560
vn -0.7644 0.4559 -0.4559
vn -0.7503 0.4560 -0.4786
vn -0.9613 -0.1962 0.1933
vn -0.9702 -0.1978 0.1397
vn -0.9708 -0.1689 0.1705
vn -0.9705 0.1705 0.1705
vn 0.0207 -0.8948 -0.4460
vn 0.0692 0.0143 -0.9975
vn -0.9679 -0.1113 -0.2254
vn -0.9849 -0.1219 -0.1228
vn -0.9705 -0.1705 -0.1705
vn -0.1236 0.0470 0.9912
vn -0.9705 0.1705 -0.1705
vn -0.9699 0.1727 -0.1718
vn -0.9704 0.1707 -0.1706
vn -0.9693 0.1749 -0.1730
vn -0.0016 -0.2780 -0.9606
vn -0.8743 -0.4849 -0.0221
vn -0.9950 0.0748 -0.0660
vn 0.1305 -0.0441 0.9905
vn -0.8364 0.1693 0.5212
vn -0.5213 -0.1677 0.8367
vn -0.4674 -0.4674 0.7504
vn -0.1677 -0.5213 0.8367
vn -0.8667 0.1308 0.4815
vn -0.6216 0.2069 0.7556
vn -0.5568 -0.2136 0.8027
vn -0.3817 -0.1596 0.9104
vn -0.2580 -0.2580 0.9311
vn 0.2849 -0.0817 0.9551
vn -0.1600 -0.3875 0.9079
vn 0.1244 0.3598 0.9247
vn -0.9706 0.1697 0.1705
vn -0.9708 0.1689 0.1705
vn -0.9402 -0.2435 -0.2380
vn -0.9706 0.1697 -0.1705
vn -0.8367 0.1678 0.5213
vn -0.7503 0.4786 0.4560
vn -0.8367 0.5213 0.1677
vn -0.8367 0.5214 0.1677
vn -0.8367 0.5214 0.1678
vn -0.7322 -0.4816 -0.4816
vn -0.3624 -0.0184 -0.9318
vn -0.5214 0.8367 0.1678
vn -0.5214 0.8367 0.1677
vn -0.5213 0.8367 0.1677
vn -0.5213 0.8367 0.1678
vn -0.1705 0.9706 -0.1697
vn -0.1705 0.9705 -0.1705
vn -0.1697 0.9706 -0.1705
vn -0.1697 0.9708 -0.1697
vn -0.1705 0.9708 -0.1689
vn -0.1697 0.9709 -0.1689
vn -0.4560 0.7503 0.4786
vn -0.1678 0.8367 0.5213
vn -0.1678 0.8367 0.5214
vn -0.5213 0.1678 0.8367
vn -0.1678 0.5214 0.8367
vn -0.1678 0.5213 0.8367
vn -0.5214 0.1678 0.8367
vn -0.5213 0.1677 0.8367
vn -0.5214 0.1677 0.8367
vn -0.5213 -0.1678 0.8367
vn -0.1689 0.1689 0.9711
vn -0.1697 0.1689 0.9709
vn -0.1697 0.1697 0.9708
vn -0.1689 0.1697 0.9709
vn -0.4755 0.4755 0.7401
vn -0.1689 0.9709 -0.1697
vn -0.1689 0.9711 -0.1689
vn -0.1689 0.9709 0.1697
vn -0.1689 0.9708 0.1705
vn -0.1697 0.9706 0.1705
vn -0.1697 0.9708 0.1697
vn -0.1689 0.9711 0.1689
vn -0.1697 0.9709 0.1689
vn -0.1705 0.9706 0.1697
vn -0.1705 0.9708 0.1689
vn -0.1697 0.1705 0.9706
vn -0.1689 0.1705 0.9708
vn -0.5214 -0.1678 0.8367
vn -0.1677 -0.5214 0.8367
vn -0.1678 -0.5214 0.8367
vn -0.1678 -0.5213 0.8367
vn -0.1705 -0.1689 0.9708
vn -0.1697 -0.1689 0.9709
vn -0.1697 -0.1697 0.9708
vn -0.1705 -0.1697 0.9706
vn -0.4755 -0.4755 0.7401
vn -0.1689 -0.1697 0.9709
vn -0.1689 -0.1705 0.9708
vn -0.1697 -0.1705 0.9706
vn -0.1705 0.1697 0.9706
vn -0.1705 0.1705 0.9705
vn 0.0087 0.3527 0.9357
vn -0.4868 -0.7253 0.4868
vn -0.1443 -0.8276 0.5425
vn -0.1705 -0.1705 0.9705
vn -0.1677 0.5213 0.8367
vn -0.4559 0.4559 0.7644
vn -0.5214 -0.1677 0.8367
vn -0.4786 0.7503 0.4560
vn -0.4755 0.7401 0.4755
vn -0.4560 0.4786 0.7503
vn -0.1705 0.1689 0.9708
vn -0.5329 -0.8318 0.1550
vn -0.1677 0.8367 0.5213
vn -0.1677 0.8367 0.5214
vn -0.1689 0.9708 -0.1705
vn -0.4755 0.7401 -0.4755
vn -0.1705 0.9705 0.1705
vn -0.1677 0.5214 0.8367
vn -0.4786 0.4560 0.7503
vn -0.5214 0.8367 -0.1677
vn -0.4559 0.7644 0.4559
vn -0.1689 -0.1689 0.9711
vn 0.2819 0.1388 0.9493
vn 0.1980 0.0862 0.9764
vn 0.1588 0.9562 -0.2459
vn -0.9852 0.1063 -0.1345
vn -0.8364 -0.1669 -0.5221
vn -0.8363 -0.1678 -0.5220
vn -0.8364 -0.1689 -0.5215
vn -0.8362 -0.1685 -0.5219
vn -0.8363 -0.1689 -0.5216
vn -0.8367 0.5214 -0.1678
vn -0.8367 0.5214 -0.1677
vn -0.7401 0.4755 0.4755
vn -0.7503 0.4560 0.4786
vn -0.7644 0.4559 0.4559
vn -0.8367 0.1678 0.5214
vn -0.8367 0.1677 0.5214
vn -0.8367 0.1677 0.5213
vn -0.9613 0.1962 -0.1933
vn -0.9702 0.1978 -0.1397
vn -0.9708 0.1689 -0.1705
vn 0.0207 0.8948 0.4460
vn 0.0692 -0.0143 0.9975
vn -0.9679 0.1113 0.2254
vn -0.9849 0.1219 0.1228
vn -0.1236 -0.0470 -0.9912
vn -0.9699 -0.1727 0.1718
vn -0.9705 -0.1707 0.1706
vn -0.9693 -0.1749 0.1730
vn -0.0016 0.2780 0.9606
vn -0.8743 0.4849 0.0221
vn -0.9950 -0.0748 0.0660
vn 0.1305 0.0441 -0.9905
vn -0.8364 -0.1693 -0.5212
vn -0.4674 0.4674 -0.7504
vn -0.8667 -0.1308 -0.4815
vn -0.6216 -0.2069 -0.7556
vn -0.5568 0.2136 -0.8027
vn -0.3817 0.1596 -0.9104
vn -0.2580 0.2580 -0.9311
vn 0.2849 0.0817 -0.9551
vn -0.1600 0.3875 -0.9079
vn -0.1244 0.3598 0.9247
vn 0.9706 0.1697 0.1705
vn 0.9708 0.1689 0.1705
vn 0.9402 -0.2435 -0.2380
vn 0.9706 0.1697 -0.1705
vn 0.8367 0.1678 0.5213
vn 0.7503 0.4786 0.4560
vn 0.8367 0.5214 0.1678
vn 0.8367 0.5214 0.1677
vn 0.8367 0.5213 0.1677
vn 0.7322 -0.4816 -0.4816
vn 0.3624 -0.0184 -0.9318
vn 0.5214 0.8367 0.1678
vn 0.5213 0.8367 0.1678
vn 0.5213 0.8367 0.1677
vn 0.5214 0.8367 0.1677
vn 0.1705 0.9706 -0.1697
vn 0.1697 0.9708 -0.1697
vn 0.1697 0.9706 -0.1705
vn 0.1705 0.9705 -0.1705
vn 0.1705 0.9708 -0.1689
vn 0.1697 0.9709 -0.1689
vn 0.4560 0.7503 0.4786
vn 0.1678 0.8367 0.5213
vn 0.1678 0.8367 0.5214
vn 0.5213 0.1678 0.8367
vn 0.1678 0.5214 0.8367
vn 0.1678 0.5213 0.8367
vn 0.5214 0.1678 0.8367
vn 0.5214 0.1677 0.8367
vn 0.5213 0.1677 0.8367
vn 0.5213 -0.1678 0.8367
vn 0.1689 0.1689 0.9711
vn 0.1689 0.1697 0.9709
vn 0.1697 0.1697 0.9708
vn 0.1697 0.1689 0.9709
vn 0.4755 0.4755 0.7401
vn 0.1689 0.9711 -0.1689
vn 0.1689 0.9709 -0.1697
vn 0.1689 0.9709 0.1697
vn 0.1697 0.9708 0.1697
vn 0.1697 0.9706 0.1705
vn 0.1689 0.9708 0.1705
vn 0.1689 0.9711 0.1689
vn 0.1697 0.9709 0.1689
vn 0.1705 0.9708 0.1689
vn 0.1705 0.9706 0.1697
vn 0.1689 0.1705 0.9708
vn 0.1697 0.1705 0.9706
vn 0.5214 -0.1678 0.8367
vn 0.1677 -0.5214 0.8367
vn 0.1678 -0.5213 0.8367
vn 0.1678 -0.5214 0.8367
vn 0.1705 -0.1689 0.9708
vn 0.1705 -0.1697 0.9706
vn 0.1697 -0.1697 0.9708
vn 0.1697 -0.1689 0.9709
vn 0.4755 -0.4755 0.7401
vn 0.1697 -0.1705 0.9706
vn 0.1689 -0.1705 0.9708
vn 0.1689 -0.1697 0.9709
vn 0.1705 0.1705 0.9705
vn 0.1705 0.1697 0.9706
vn -0.0087 0.3527 0.9357
vn 0.4868 -0.7253 0.4868
vn 0.1443 -0.8276 0.5425
vn 0.1705 -0.1705 0.9705
vn 0.1677 0.5213 0.8367
vn 0.4559 0.4559 0.7644
vn 0.5214 -0.1677 0.8367
vn 0.4786 0.7503 0.4560
vn 0.4755 0.7401 0.4755
vn 0.4560 0.4786 0.7503
vn 0.1705 0.1689 0.9708
vn 0.5329 -0.8318 0.1550
vn 0.1677 0.8367 0.5214
vn 0.1677 0.8367 0.5213
vn 0.1689 0.9708 -0.1705
vn 0.4755 0.7401 -0.4755
vn 0.1705 0.9705 0.1705
vn 0.1677 0.5214 0.8367
vn 0.4786 0.4560 0.7503
vn 0.5214 0.8367 -0.1677
vn 0.4559 0.7644 0.4559
vn 0.1689 -0.1689 0.9711
vn -0.2819 0.1388 0.9493
vn -0.1980 0.0862 0.9764
vn -0.1588 0.9562 -0.2459
vn 0.9852 0.1063 -0.1345
vn 0.8364 -0.1669 -0.5221
vn 0.8364 -0.1690 -0.5214
vn 0.8363 -0.1678 -0.5220
vn 0.8363 -0.1689 -0.5216
vn 0.8362 -0.1685 -0.5219
vn 0.8367 0.5214 -0.1678
vn 0.8367 0.5214 -0.1677
vn 0.7401 0.4755 0.4755
vn 0.7503 0.4560 0.4786
vn 0.7644 0.4559 0.4559
vn 0.8367 0.1678 0.5214
vn 0.8367 0.1677 0.5214
vn 0.8367 0.1677 0.5213
vn 0.9613 0.1962 -0.1933
vn 0.9702 0.1978 -0.1397
vn 0.9708 0.1689 -0.1705
vn -0.0207 0.8948 0.4460
vn -0.0692 -0.0143 0.9975
vn 0.9679 0.1113 0.2254
vn 0.9849 0.1219 0.1228
vn 0.1236 -0.0470 -0.9912
vn 0.9705 -0.1707 0.1706
vn 0.9699 -0.1727 0.1718
vn 0.9693 -0.1749 0.1730
vn 0.0016 0.2780 0.9606
vn 0.8743 0.4849 0.0221
vn 0.9950 -0.0748 0.0660
vn -0.1305 0.0441 -0.9905
vn 0.8364 -0.1693 -0.5212
vn 0.4674 0.4674 -0.7504
vn 0.8667 -0.1308 -0.4815
vn 0.6216 -0.2069 -0.7556
vn 0.5568 0.2136 -0.8027
vn 0.3817 0.1596 -0.9104
vn 0.2580 0.2580 -0.9311
vn -0.2849 0.0817 -0.9551
vn 0.1600 0.3875 -0.9079
vn -0.9131 0.3491 -0.2108
vn 0.1507 0.2574 0.9545
vn -0.3213 0.0640 -0.9448
vn 0.1389 0.8153 0.5621
vn 0.0303 0.1373 0.9901
vn -0.9191 0.3780 0.1110
vn -0.1389 0.8153 0.5621
vn -0.1783 0.2705 -0.9461
vn -0.9028 0.3431 -0.2593
vn -0.8749 0.2826 0.3932
vn -0.0748 0.9933 -0.0885
vn 0.0535 0.6954 -0.7166
vn 0.3701 -0.0999 -0.9236
vn 0.0485 -0.0066 0.9988
vn 0.0014 0.9246 -0.3810
vn 0.2234 0.2478 -0.9427
vn -0.0014 0.9246 -0.3810
vn 0.7607 -0.1027 0.6409
vn -0.5221 -0.4391 0.7312
vn 0.0712 0.4250 0.9024
vn 0.3213 0.0640 -0.9448
vn -0.0339 0.9069 -0.4201
vn 0.1783 0.2705 -0.9461
vn 0.5815 -0.2893 0.7604
vn -0.0583 -0.0298 0.9979
vn -0.3630 0.5288 -0.7672
vn 0.3305 -0.2306 -0.9152
vn 0.7834 0.3076 0.5401
vn -0.5178 0.7823 -0.3463
vn -0.0485 -0.0066 0.9988
vn 0.0748 0.9933 -0.0885
vn 0.7670 -0.1905 0.6127
vn -0.1155 0.9740 0.1948
vn -0.7607 -0.1027 0.6409
vn -0.0712 0.4250 0.9024
vn -0.6067 0.5642 -0.5600
vn -0.0071 0.1293 0.9916
vn 0.0339 0.9069 -0.4201
vn -0.2231 -0.2336 0.9464
vn 0.8032 0.3488 0.4830
vn 0.0730 -0.1172 0.9904
vn -0.5815 -0.2893 0.7604
vn -0.0303 0.1373 0.9901
vn -0.7303 0.6448 -0.2254
vn 0.0583 -0.0298 0.9979
vn 0.3630 0.5288 -0.7672
vn 0.1793 0.6251 -0.7597
vn 0.8324 0.3535 0.4269
vn 0.0142 0.0333 0.9993
vn -0.7834 0.3076 0.5401
vn 0.6835 0.3048 0.6633
vn -0.0730 -0.1172 0.9904
vn -0.8108 0.5838 -0.0416
vn -0.2879 -0.2746 -0.9174
vn 0.1162 0.2337 0.9653
vn 0.5178 0.7823 -0.3463
vn 0.7186 0.4918 0.4918
vn 0.5174 0.6919 0.5035
vn -0.3305 -0.2306 -0.9152
vn 0.0199 0.2388 0.9709
vn -0.1507 0.2574 0.9545
vn -0.7670 -0.1905 0.6127
vn -0.9813 0.1769 -0.0754
vn 0.9131 0.3491 -0.2108
vn 0.6067 0.5642 -0.5600
vn 0.0071 0.1293 0.9916
vn 0.2231 -0.2336 0.9464
vn 0.9191 0.3780 0.1110
vn -0.8032 0.3488 0.4830
vn 0.1155 0.9740 0.1948
vn 0.9028 0.3431 -0.2593
vn 0.7303 0.6448 -0.2254
vn -0.1793 0.6251 -0.7597
vn 0.8749 0.2826 0.3932
vn -0.2203 -0.1633 0.9617
vn -0.8324 0.3535 0.4269
vn 0.5221 -0.4391 0.7312
vn 0.2203 -0.1633 0.9617
vn -0.6835 0.3048 0.6633
vn -0.0535 0.6954 -0.7166
vn 0.8108 0.5838 -0.0416
vn 0.2879 -0.2746 -0.9174
vn -0.0142 0.0333 0.9993
vn -0.7186 0.4918 0.4918
vn -0.3701 -0.0999 -0.9236
vn -0.5174 0.6919 0.5035
vn -0.0199 0.2388 0.9709
vn -0.1162 0.2337 0.9653
vn -0.2234 0.2478 -0.9427
vn 0.9813 0.1769 -0.0754
vt 0.743238 0.596005
vt 0.720973 0.579072
vt 0.758762 0.592369
vt 0.699824 0.533978
vt 0.662330 0.538287
vt 0.658352 0.504343
vt 0.689054 0.501958
vt 0.587645 0.596278
vt 0.563244 0.575211
vt 0.579941 0.550501
vt 0.616675 0.576524
vt 0.624236 0.535013
vt 0.590024 0.522914
vt 0.596702 0.494667
vt 0.627005 0.502503
vt 0.854105 0.565293
vt 0.847895 0.588980
vt 0.814562 0.581895
vt 0.828788 0.557159
vt 0.801881 0.541628
vt 0.781435 0.565988
vt 0.752881 0.545873
vt 0.777700 0.524030
vt 0.758386 0.502097
vt 0.732715 0.520165
vt 0.718005 0.493341
vt 0.742011 0.479038
vt 0.731604 0.457494
vt 0.710043 0.466194
vt 0.703611 0.438990
vt 0.722361 0.435769
vt 0.683044 0.471381
vt 0.655218 0.473571
vt 0.653313 0.442628
vt 0.678669 0.441748
vt 0.627109 0.471644
vt 0.598810 0.466817
vt 0.601560 0.439326
vt 0.627588 0.441876
vt 0.575104 0.459186
vt 0.551228 0.450872
vt 0.561100 0.433197
vt 0.581441 0.436469
vt 0.560390 0.508265
vt 0.531402 0.494142
vt 0.542376 0.469249
vt 0.569306 0.482208
vt 0.541350 0.596364
vt 0.517892 0.610894
vt 0.519782 0.577502
vt 0.531294 0.636082
vt 0.558753 0.620589
vt 0.607046 0.597017
vt 0.625181 0.383361
vt 0.652438 0.382828
vt 0.652387 0.412667
vt 0.625764 0.412385
vt 0.678604 0.412191
vt 0.595011 0.354558
vt 0.624412 0.352860
vt 0.597465 0.383715
vt 0.594708 0.324360
vt 0.624265 0.322181
vt 0.730613 0.387348
vt 0.755064 0.391946
vt 0.748003 0.411952
vt 0.726315 0.411487
vt 0.710848 0.353777
vt 0.737632 0.359051
vt 0.706032 0.383230
vt 0.715390 0.324155
vt 0.744671 0.330419
vt 0.534587 0.429454
vt 0.519427 0.405809
vt 0.543865 0.390355
vt 0.551665 0.412298
vt 0.679376 0.382989
vt 0.818102 0.435357
vt 0.800192 0.458996
vt 0.781390 0.440530
vt 0.797796 0.417884
vt 0.827335 0.365637
vt 0.812513 0.391726
vt 0.788773 0.378159
vt 0.801072 0.351342
vt 0.819587 0.476938
vt 0.799751 0.500416
vt 0.781200 0.482326
vt 0.879269 0.488195
vt 0.861467 0.510427
vt 0.840003 0.494015
vt 0.858626 0.470665
vt 0.876661 0.402026
vt 0.857598 0.427350
vt 0.835373 0.409305
vt 0.852675 0.383258
vt 0.764745 0.426209
vt 0.776589 0.404719
vt 0.598534 0.411397
vt 0.654284 0.320103
vt 0.653389 0.351662
vt 0.682091 0.352211
vt 0.684719 0.321209
vt 0.838444 0.452785
vt 0.956820 0.487389
vt 0.936497 0.507439
vt 0.917935 0.486783
vt 0.938430 0.465971
vt 0.973493 0.553241
vt 0.953443 0.530806
vt 0.973443 0.509825
vt 0.994054 0.528101
vt 0.919982 0.443931
vt 0.899652 0.466262
vt 0.878675 0.446692
vt 0.898733 0.422772
vt 0.928885 0.549491
vt 0.915411 0.525943
vt 0.881074 0.592357
vt 0.879997 0.571623
vt 0.904865 0.561125
vt 0.911663 0.583637
vt 0.518454 0.448830
vt 0.896920 0.507194
vt 0.879324 0.524816
vt 0.897980 0.538877
vt 0.879553 0.551153
vt 0.860667 0.542073
vt 0.536099 0.358775
vt 0.566253 0.357617
vt 0.570841 0.386947
vt 0.539594 0.327938
vt 0.566905 0.329024
vt 0.999861 0.549416
vt 0.943521 0.572482
vt 0.885001 0.620116
vt 0.917668 0.611837
vt 0.764262 0.365651
vt 0.752427 0.447519
vt 0.740928 0.431846
vt 0.764416 0.462891
vt 0.820219 0.517047
vt 0.842502 0.532082
vt 0.927891 0.639790
vt 0.947125 0.602078
vt 0.957968 0.629772
vt 0.704643 0.411054
vt 0.575424 0.411751
vt 0.773511 0.339084
vt 0.879086 0.624381
vt 0.844193 0.617528
vt 0.805681 0.610320
vt 0.829363 0.634849
vt 0.642467 0.586182
vt 0.667632 0.573425
vt 0.498793 0.631920
vt 0.532094 0.558768
vt 0.550958 0.533707
vt 0.522205 0.518769
vt 0.673031 0.587225
vt 0.784970 0.614601
vt 0.571714 0.617700
vt 0.979756 0.560048
vt 0.960286 0.593669
vt 0.965617 0.617218
vt 0.544188 0.639790
vt 0.499587 0.555875
vt 0.489704 0.581592
vt 0.511314 0.496494
vt 0.510279 0.525328
vt 0.505109 0.449897
vt 0.506037 0.401578
vt 0.521501 0.353209
vt 0.743238 0.043923
vt 0.758762 0.047559
vt 0.720973 0.060856
vt 0.699824 0.105950
vt 0.689054 0.137971
vt 0.658352 0.135586
vt 0.662330 0.101642
vt 0.587646 0.043650
vt 0.616675 0.063405
vt 0.579941 0.089428
vt 0.563244 0.064717
vt 0.624236 0.104915
vt 0.627005 0.137426
vt 0.596702 0.145261
vt 0.590024 0.117015
vt 0.854105 0.074635
vt 0.828788 0.082770
vt 0.814562 0.058034
vt 0.847895 0.050949
vt 0.801881 0.098300
vt 0.777700 0.115898
vt 0.752881 0.094055
vt 0.781435 0.073940
vt 0.758386 0.137832
vt 0.742011 0.160890
vt 0.718005 0.146587
vt 0.732715 0.119764
vt 0.731604 0.182434
vt 0.722361 0.204160
vt 0.703611 0.200939
vt 0.710043 0.173734
vt 0.683044 0.168548
vt 0.678670 0.198180
vt 0.653313 0.197300
vt 0.655218 0.166357
vt 0.627109 0.168284
vt 0.627588 0.198053
vt 0.601560 0.200603
vt 0.598810 0.173111
vt 0.575104 0.180742
vt 0.581441 0.203459
vt 0.561100 0.206732
vt 0.551228 0.189057
vt 0.560390 0.131663
vt 0.569306 0.157721
vt 0.542376 0.170680
vt 0.531402 0.145787
vt 0.541350 0.043564
vt 0.519782 0.062426
vt 0.517892 0.029034
vt 0.531294 0.003847
vt 0.558753 0.019339
vt 0.607046 0.042912
vt 0.625181 0.256567
vt 0.625764 0.227544
vt 0.652387 0.227261
vt 0.652438 0.257100
vt 0.678604 0.227738
vt 0.595011 0.285370
vt 0.597465 0.256213
vt 0.624413 0.287069
vt 0.594709 0.315569
vt 0.624265 0.317747
vt 0.730613 0.252581
vt 0.726315 0.228441
vt 0.748003 0.227976
vt 0.755064 0.247982
vt 0.710848 0.286152
vt 0.706032 0.256699
vt 0.737632 0.280877
vt 0.715390 0.315773
vt 0.744671 0.309509
vt 0.534587 0.210475
vt 0.551665 0.227631
vt 0.543865 0.249574
vt 0.519427 0.234119
vt 0.679376 0.256940
vt 0.818102 0.204571
vt 0.797796 0.222044
vt 0.781390 0.199398
vt 0.800192 0.180933
vt 0.827335 0.274292
vt 0.801072 0.288587
vt 0.788773 0.261769
vt 0.812514 0.248203
vt 0.819587 0.162991
vt 0.781200 0.157602
vt 0.799751 0.139513
vt 0.879269 0.151734
vt 0.858627 0.169263
vt 0.840003 0.145913
vt 0.861467 0.129502
vt 0.876662 0.237902
vt 0.852676 0.256670
vt 0.835373 0.230624
vt 0.857599 0.212579
vt 0.776589 0.235209
vt 0.764745 0.213720
vt 0.598534 0.228532
vt 0.653389 0.288266
vt 0.654285 0.319825
vt 0.682091 0.287718
vt 0.684719 0.318719
vt 0.838444 0.187144
vt 0.956820 0.152539
vt 0.938430 0.173957
vt 0.917935 0.153146
vt 0.936497 0.132489
vt 0.973493 0.086687
vt 0.994054 0.111828
vt 0.973443 0.130103
vt 0.953443 0.109122
vt 0.919982 0.195998
vt 0.898733 0.217157
vt 0.878675 0.193237
vt 0.899652 0.173667
vt 0.928885 0.090437
vt 0.915411 0.113985
vt 0.881074 0.047571
vt 0.911664 0.056292
vt 0.904865 0.078803
vt 0.879997 0.068306
vt 0.518454 0.191098
vt 0.896920 0.132735
vt 0.879324 0.115112
vt 0.897981 0.101051
vt 0.860667 0.097855
vt 0.879554 0.088776
vt 0.536099 0.281153
vt 0.570841 0.252981
vt 0.566253 0.282312
vt 0.539594 0.311990
vt 0.566905 0.310905
vt 0.999861 0.090513
vt 0.943521 0.067446
vt 0.885001 0.019813
vt 0.917669 0.028092
vt 0.764262 0.274278
vt 0.740928 0.208083
vt 0.752427 0.192409
vt 0.764416 0.177038
vt 0.820219 0.122881
vt 0.842503 0.107847
vt 0.927891 0.000139
vt 0.957968 0.010156
vt 0.947125 0.037851
vt 0.704644 0.228874
vt 0.575424 0.228177
vt 0.773511 0.300845
vt 0.879086 0.015547
vt 0.844193 0.022400
vt 0.805681 0.029608
vt 0.829363 0.005079
vt 0.642467 0.053746
vt 0.667633 0.066504
vt 0.498793 0.008008
vt 0.532094 0.081161
vt 0.550958 0.106221
vt 0.522205 0.121159
vt 0.673031 0.052704
vt 0.784970 0.025327
vt 0.571714 0.022228
vt 0.979757 0.079880
vt 0.960287 0.046259
vt 0.965617 0.022711
vt 0.544188 0.000139
vt 0.499587 0.084054
vt 0.489704 0.058336
vt 0.511314 0.143434
vt 0.510280 0.114600
vt 0.505109 0.190031
vt 0.506037 0.238351
vt 0.521501 0.286719
vt 0.283298 0.150265
vt 0.293675 0.159073
vt 0.260646 0.155066
vt 0.223535 0.181127
vt 0.201168 0.201738
vt 0.176525 0.190968
vt 0.194850 0.166035
vt 0.171246 0.095194
vt 0.182217 0.122029
vt 0.135981 0.124067
vt 0.138778 0.095546
vt 0.161874 0.155435
vt 0.149240 0.182612
vt 0.120639 0.179327
vt 0.127906 0.151909
vt 0.362886 0.222175
vt 0.339125 0.215927
vt 0.335661 0.190892
vt 0.365732 0.200932
vt 0.311009 0.214689
vt 0.284438 0.216570
vt 0.272082 0.191248
vt 0.302974 0.188155
vt 0.259730 0.224638
vt 0.237208 0.234974
vt 0.222354 0.216930
vt 0.245263 0.202474
vt 0.220648 0.247322
vt 0.205359 0.260592
vt 0.190635 0.253413
vt 0.205516 0.234546
vt 0.184424 0.223461
vt 0.170399 0.245611
vt 0.149204 0.239468
vt 0.161371 0.214311
vt 0.136999 0.208648
vt 0.126977 0.234417
vt 0.104065 0.230826
vt 0.111295 0.204863
vt 0.088859 0.205530
vt 0.086360 0.228941
vt 0.068495 0.227545
vt 0.065943 0.207523
vt 0.095712 0.153347
vt 0.092263 0.181505
vt 0.064150 0.186935
vt 0.061834 0.158817
vt 0.143186 0.067089
vt 0.115242 0.058501
vt 0.144442 0.042963
vt 0.168015 0.039817
vt 0.172382 0.064475
vt 0.184672 0.103489
vt 0.108048 0.286471
vt 0.116256 0.260237
vt 0.138837 0.264176
vt 0.131394 0.289815
vt 0.161202 0.269232
vt 0.076105 0.312907
vt 0.084549 0.283619
vt 0.101588 0.314890
vt 0.073981 0.343650
vt 0.099120 0.343650
vt 0.197452 0.298593
vt 0.200989 0.279699
vt 0.218852 0.284912
vt 0.218285 0.301197
vt 0.173616 0.320245
vt 0.176346 0.296873
vt 0.195827 0.321199
vt 0.172641 0.343650
vt 0.195187 0.343650
vt 0.045474 0.225991
vt 0.054385 0.246888
vt 0.041651 0.268070
vt 0.025860 0.246246
vt 0.154033 0.292903
vt 0.282384 0.294165
vt 0.260177 0.297496
vt 0.255574 0.275838
vt 0.277585 0.270816
vt 0.262150 0.343650
vt 0.239931 0.343650
vt 0.239708 0.321344
vt 0.261596 0.320570
vt 0.300313 0.267179
vt 0.271158 0.247151
vt 0.293292 0.242526
vt 0.351455 0.290550
vt 0.328037 0.290650
vt 0.323477 0.265657
vt 0.347571 0.265539
vt 0.308847 0.343650
vt 0.285538 0.343650
vt 0.284676 0.318997
vt 0.308053 0.317840
vt 0.239175 0.298849
vt 0.237103 0.280021
vt 0.092852 0.256637
vt 0.125857 0.316555
vt 0.124399 0.343650
vt 0.150060 0.318291
vt 0.148533 0.343650
vt 0.304900 0.292211
vt 0.404173 0.343650
vt 0.380473 0.343650
vt 0.378667 0.315728
vt 0.402452 0.314787
vt 0.450662 0.305712
vt 0.454484 0.343650
vt 0.429252 0.343650
vt 0.426106 0.310010
vt 0.356619 0.343650
vt 0.332756 0.343650
vt 0.331485 0.317216
vt 0.355664 0.316909
vt 0.418833 0.276583
vt 0.396913 0.286299
vt 0.394069 0.213981
vt 0.417432 0.237878
vt 0.403472 0.252608
vt 0.386628 0.230471
vt 0.037455 0.204090
vt 0.373837 0.288102
vt 0.367841 0.265448
vt 0.388885 0.265954
vt 0.359828 0.242780
vt 0.378827 0.246190
vt 0.026355 0.300619
vt 0.062935 0.276828
vt 0.052061 0.308442
vt 0.022997 0.343650
vt 0.048002 0.343650
vt 0.468145 0.323878
vt 0.442774 0.266245
vt 0.404408 0.190843
vt 0.428624 0.214818
vt 0.217800 0.322443
vt 0.219570 0.268560
vt 0.234531 0.260906
vt 0.249996 0.254136
vt 0.316721 0.240300
vt 0.341017 0.240643
vt 0.442624 0.195512
vt 0.463749 0.209783
vt 0.452273 0.233730
vt 0.182777 0.275104
vt 0.073771 0.252199
vt 0.217637 0.343650
vt 0.399544 0.184313
vt 0.371461 0.176826
vt 0.336789 0.164734
vt 0.365044 0.156725
vt 0.207974 0.126255
vt 0.217687 0.142198
vt 0.154789 0.019981
vt 0.105478 0.085473
vt 0.102542 0.123724
vt 0.070528 0.128175
vt 0.231637 0.134340
vt 0.320783 0.152493
vt 0.177323 0.073621
vt 0.458211 0.304457
vt 0.462771 0.243391
vt 0.470521 0.218552
vt 0.177009 0.041827
vt 0.074898 0.091724
vt 0.094601 0.044786
vt 0.042165 0.165627
vt 0.060294 0.128389
vt 0.025726 0.210212
vt 0.016693 0.255400
vt 0.015952 0.312964
vt 0.283298 0.537035
vt 0.260646 0.532234
vt 0.293675 0.528227
vt 0.223535 0.506173
vt 0.194850 0.521265
vt 0.176525 0.496332
vt 0.201168 0.485562
vt 0.171246 0.592106
vt 0.138778 0.591754
vt 0.135981 0.563233
vt 0.182217 0.565271
vt 0.161874 0.531866
vt 0.127906 0.535391
vt 0.120639 0.507973
vt 0.149240 0.504688
vt 0.362886 0.465126
vt 0.365732 0.486368
vt 0.335661 0.496408
vt 0.339125 0.471373
vt 0.311009 0.472611
vt 0.302974 0.499145
vt 0.272082 0.496053
vt 0.284438 0.470731
vt 0.259730 0.462662
vt 0.245263 0.484826
vt 0.222354 0.470370
vt 0.237208 0.452326
vt 0.220648 0.439978
vt 0.205516 0.452754
vt 0.190635 0.433888
vt 0.205359 0.426708
vt 0.184424 0.463839
vt 0.161371 0.472990
vt 0.149204 0.447832
vt 0.170399 0.441689
vt 0.136999 0.478652
vt 0.111295 0.482437
vt 0.104065 0.456474
vt 0.126977 0.452884
vt 0.088859 0.481770
vt 0.065943 0.479777
vt 0.068495 0.459755
vt 0.086360 0.458359
vt 0.095712 0.533953
vt 0.061834 0.528483
vt 0.064150 0.500365
vt 0.092263 0.505795
vt 0.143186 0.620211
vt 0.144442 0.644337
vt 0.115242 0.628799
vt 0.168015 0.647483
vt 0.172382 0.622825
vt 0.184672 0.583811
vt 0.108048 0.400829
vt 0.131394 0.397485
vt 0.138837 0.423125
vt 0.116256 0.427063
vt 0.161202 0.418068
vt 0.076105 0.374393
vt 0.101588 0.372410
vt 0.084549 0.403681
vt 0.197452 0.388707
vt 0.218285 0.386103
vt 0.218852 0.402388
vt 0.200989 0.407601
vt 0.173616 0.367055
vt 0.195827 0.366101
vt 0.176346 0.390427
vt 0.045474 0.461309
vt 0.025860 0.441054
vt 0.041651 0.419230
vt 0.054385 0.440413
vt 0.154033 0.394397
vt 0.282384 0.393135
vt 0.277585 0.416484
vt 0.255574 0.411462
vt 0.260177 0.389804
vt 0.261596 0.366730
vt 0.239708 0.365956
vt 0.300313 0.420121
vt 0.293292 0.444774
vt 0.271158 0.440149
vt 0.351455 0.396750
vt 0.347571 0.421761
vt 0.323477 0.421643
vt 0.328037 0.396651
vt 0.308053 0.369460
vt 0.284676 0.368304
vt 0.237103 0.407279
vt 0.239175 0.388451
vt 0.092852 0.430663
vt 0.125857 0.370745
vt 0.150060 0.369009
vt 0.304900 0.395089
vt 0.402452 0.372513
vt 0.378667 0.371572
vt 0.450662 0.381588
vt 0.426106 0.377290
vt 0.355664 0.370391
vt 0.331485 0.370084
vt 0.418833 0.410717
vt 0.396913 0.401001
vt 0.394069 0.473319
vt 0.386628 0.456829
vt 0.403472 0.434692
vt 0.417432 0.449423
vt 0.037455 0.483210
vt 0.373837 0.399198
vt 0.367841 0.421852
vt 0.388885 0.421346
vt 0.378827 0.441110
vt 0.359828 0.444521
vt 0.026355 0.386681
vt 0.052061 0.378858
vt 0.062935 0.410473
vt 0.468145 0.363422
vt 0.442774 0.421055
vt 0.404408 0.496457
vt 0.428624 0.472482
vt 0.217800 0.364857
vt 0.234531 0.426394
vt 0.219570 0.418740
vt 0.249996 0.433164
vt 0.316721 0.447000
vt 0.341017 0.446657
vt 0.442624 0.491788
vt 0.452273 0.453570
vt 0.463749 0.477517
vt 0.182777 0.412196
vt 0.073771 0.435101
vt 0.399544 0.502987
vt 0.371461 0.510474
vt 0.336789 0.522566
vt 0.365044 0.530575
vt 0.207974 0.561045
vt 0.217687 0.545102
vt 0.154789 0.667319
vt 0.105478 0.601827
vt 0.102542 0.563576
vt 0.070528 0.559125
vt 0.231637 0.552960
vt 0.320783 0.534807
vt 0.177323 0.613679
vt 0.458211 0.382843
vt 0.462771 0.443909
vt 0.470521 0.468748
vt 0.177009 0.645474
vt 0.074898 0.595576
vt 0.094601 0.642514
vt 0.042165 0.521673
vt 0.060294 0.558912
vt 0.025726 0.477088
vt 0.016693 0.431900
vt 0.015952 0.374336
vt 0.470906 0.238039
vt 0.481677 0.247742
vt 0.487304 0.363565
vt 0.467445 0.381488
vt 0.191312 0.630699
vt 0.190662 0.657952
vt 0.261961 0.548920
vt 0.232208 0.571256
vt 0.372832 0.547871
vt 0.342366 0.538290
vt 0.461928 0.267950
vt 0.232207 0.116044
vt 0.261961 0.138380
vt 0.175951 0.663160
vt 0.489426 0.215963
vt 0.478828 0.201918
vt 0.217100 0.110374
vt 0.223829 0.126601
vt 0.188437 0.089189
vt 0.201375 0.095645
vt 0.195477 0.068079
vt 0.297139 0.143475
vt 0.328233 0.135948
vt 0.217100 0.576926
vt 0.199607 0.576256
vt 0.191312 0.056601
vt 0.199607 0.111045
vt 0.059173 0.606757
vt 0.052483 0.572884
vt 0.451703 0.507686
vt 0.409141 0.514719
vt 0.286265 0.553817
vt 0.190662 0.029348
vt 0.084863 0.611936
vt 0.175951 0.024140
vt 0.078525 0.653456
vt 0.328233 0.551352
vt 0.112352 0.658724
vt 0.025752 0.528381
vt 0.018654 0.491628
vt 0.039714 0.537911
vt 0.297139 0.543825
vt 0.223829 0.560699
vt 0.044224 0.567538
vt 0.052483 0.114416
vt 0.059173 0.080544
vt 0.286265 0.133483
vt 0.084863 0.075364
vt 0.377379 0.525489
vt 0.010051 0.483802
vt 0.004814 0.445610
vt 0.478828 0.485382
vt 0.078525 0.033844
vt 0.342366 0.149010
vt 0.372832 0.139429
vt 0.112352 0.028576
vt 0.148149 0.687161
vt 0.001745 0.434559
vt 0.005851 0.388291
vt 0.377379 0.161811
vt 0.405805 0.167294
vt 0.018654 0.195672
vt 0.025752 0.158919
vt 0.136657 0.660183
vt 0.451703 0.179614
vt 0.476062 0.384352
vt 0.487304 0.323735
vt 0.471516 0.343650
vt 0.039714 0.149389
vt 0.000139 0.375321
vt 0.003285 0.343650
vt 0.201375 0.591655
vt 0.461928 0.419350
vt 0.467445 0.305812
vt 0.044224 0.119762
vt 0.481677 0.439558
vt 0.470906 0.449261
vt 0.004814 0.241690
vt 0.010051 0.203498
vt 0.489426 0.471337
vt 0.148149 0.000139
vt 0.405805 0.520006
vt 0.005851 0.299009
vt 0.001745 0.252741
vt 0.409141 0.172581
vt 0.136657 0.027117
vt 0.188437 0.598111
vt 0.476062 0.302948
vt 0.195477 0.619222
vt 0.000139 0.311979
s 1
f 60/1/1 62/2/1 159/3/1
f 158/4/2 59/5/3 47/6/3 61/7/2
f 157/8/4 38/9/4 49/10/4 57/11/4
f 156/12/5 35/13/6 50/14/6 39/15/5
f 155/16/7 23/17/7 42/18/7 34/19/7
f 154/20/8 65/21/8 43/22/9 33/23/9
f 153/24/10 64/25/10 44/26/10 32/27/10
f 152/28/11 31/29/11 13/30/11 54/31/11
f 151/32/12 30/33/13 14/34/14 19/35/15
f 150/36/16 29/37/16 15/38/17 90/39/17
f 149/40/18 84/41/18 3/42/18 87/43/18
f 148/44/19 83/45/20 16/46/20 28/47/19
f 48/48/21 25/49/21 26/50/21
f 145/51/22 25/49/22 48/48/22 58/52/22
f 164/53/23 157/8/23 57/11/23
f 112/54/24 89/55/25 120/56/25 127/57/24
f 120/56/26 126/58/27 19/35/28 14/34/29
f 110/59/30 131/60/31 112/54/32 86/61/33
f 85/62/34 111/63/35 131/60/31 110/59/30
f 122/64/36 41/65/36 66/66/36 125/67/36
f 116/68/37 124/69/37 122/64/37 92/70/37
f 91/71/38 123/72/38 124/69/37 116/68/37
f 143/73/39 7/74/39 21/75/39 71/76/39
f 89/55/26 115/77/27 126/58/27 120/56/26
f 96/78/40 138/79/40 99/80/40 77/81/40
f 74/82/41 94/83/42 140/84/42 97/85/41
f 100/86/43 11/87/44 56/88/45 138/79/40
f 75/89/46 101/90/46 137/91/46 95/92/46
f 73/93/47 93/94/48 141/95/49 5/96/50
f 77/81/51 99/80/51 139/97/51 98/98/51
f 86/61/24 112/54/24 127/57/24 119/99/24
f 111/63/35 88/100/52 113/101/53 131/60/31
f 113/101/54 130/102/55 115/77/56 89/55/57
f 88/100/58 114/103/59 130/102/55 113/101/54
f 114/103/59 91/71/60 116/68/61 130/102/55
f 93/94/48 76/104/62 96/78/63 141/95/49
f 95/92/46 137/91/46 100/86/64 76/104/64
f 76/104/43 100/86/43 138/79/40 96/78/40
f 94/83/42 77/81/42 98/98/42 140/84/42
f 37/105/65 68/106/66 135/107/67 103/108/68
f 105/109/69 134/110/70 106/111/69 82/112/69
f 72/113/71 4/114/72 142/115/73 6/116/74
f 107/117/75 36/118/75 68/106/75 134/110/70
f 9/119/76 20/120/76 133/121/76 108/122/76
f 16/46/77 18/123/77 143/73/77 84/41/77
f 102/124/78 136/125/78 101/90/78 75/89/78
f 69/126/79 1/127/79 80/128/79 136/125/79
f 70/129/80 129/130/81 118/131/81 21/75/80
f 22/132/82 117/133/83 129/130/81 70/129/80
f 142/115/73 95/92/84 76/104/85 93/94/86
f 141/95/49 96/78/63 77/81/87 94/83/88
f 53/134/89 105/109/89 82/112/89
f 108/122/90 133/121/90 107/117/90 81/135/90
f 81/135/91 107/117/91 134/110/91 105/109/91
f 4/114/72 75/89/92 95/92/84 142/115/73
f 51/136/93 9/119/94 108/122/94 132/137/93
f 140/84/42 98/98/42 41/65/95 67/138/95
f 139/97/96 55/139/96 2/140/96 66/66/96
f 138/79/40 56/88/45 12/141/45 99/80/40
f 137/91/46 78/142/97 11/87/98 100/86/64
f 136/125/99 80/128/99 10/143/99 101/90/99
f 135/107/67 102/124/67 75/89/67 4/114/67
f 109/144/93 132/137/93 104/145/100 79/146/100
f 115/77/27 92/70/27 121/147/27 126/58/27
f 117/133/83 85/62/83 110/59/81 129/130/81
f 121/147/101 125/67/101 54/31/101 13/30/101
f 71/76/102 128/148/102 87/43/102 3/42/102
f 92/70/103 122/64/103 125/67/103 121/147/103
f 119/99/24 127/57/24 90/39/104 15/38/104
f 98/98/105 139/97/105 66/66/105 41/65/105
f 5/96/50 141/95/49 94/83/88 74/82/106
f 36/118/107 69/126/107 136/125/107 102/124/107
f 101/90/46 10/143/97 78/142/97 137/91/46
f 84/41/108 143/73/108 71/76/108 3/42/108
f 20/120/109 1/127/109 69/126/109 133/121/109
f 134/110/70 68/106/75 37/105/110 106/111/69
f 133/121/111 69/126/111 36/118/111 107/117/111
f 132/137/112 108/122/112 81/135/112 104/145/112
f 123/72/38 40/149/113 67/138/114 124/69/37
f 21/75/115 118/131/115 128/148/115 71/76/115
f 131/60/31 113/101/53 89/55/116 112/54/32
f 118/131/117 86/61/117 119/99/117 128/148/117
f 130/102/55 116/68/61 92/70/118 115/77/56
f 97/85/41 140/84/42 67/138/95 40/149/119
f 99/80/120 12/141/120 55/139/120 139/97/120
f 129/130/81 110/59/81 86/61/81 118/131/81
f 128/148/121 119/99/121 15/38/121 87/43/121
f 127/57/24 120/56/25 14/34/122 90/39/104
f 126/58/27 121/147/27 13/30/28 19/35/28
f 125/67/123 66/66/123 2/140/123 54/31/123
f 124/69/37 67/138/114 41/65/114 122/64/37
f 51/136/93 132/137/93 109/144/93
f 6/116/74 142/115/73 93/94/86 73/93/124
f 68/106/66 36/118/66 102/124/67 135/107/67
f 103/108/68 135/107/67 4/114/67 72/113/68
f 52/150/125 144/151/125 51/136/125
f 9/119/126 51/136/126 144/151/127 23/17/127
f 23/17/127 144/151/127 63/152/127 42/18/127
f 8/153/128 63/152/128 144/151/128
f 163/154/129 57/11/129 46/155/129
f 25/49/130 145/51/130 146/156/130
f 48/48/131 26/50/131 147/157/132 38/9/133
f 38/9/133 147/157/132 27/158/134 49/10/135
f 27/158/136 17/159/137 83/45/20 148/44/19
f 49/10/136 27/158/136 148/44/19 35/13/19
f 35/13/19 148/44/19 28/47/19 50/14/19
f 28/47/138 16/46/138 84/41/138 149/40/138
f 50/14/139 28/47/139 149/40/139 29/37/139
f 29/37/140 149/40/140 87/43/140 15/38/140
f 39/15/16 50/14/16 29/37/16 150/36/16
f 47/6/141 39/15/16 150/36/16 30/33/141
f 30/33/141 150/36/16 90/39/17 14/34/142
f 61/7/12 47/6/13 30/33/13 151/32/12
f 44/26/12 61/7/12 151/32/12 31/29/12
f 31/29/12 151/32/12 19/35/15 13/30/15
f 32/27/143 44/26/143 31/29/143 152/28/143
f 12/141/144 32/27/144 152/28/144 55/139/144
f 55/139/145 152/28/145 54/31/145 2/140/145
f 33/23/146 43/22/146 64/25/10 153/24/10
f 11/87/147 33/23/146 153/24/10 56/88/148
f 56/88/148 153/24/10 32/27/10 12/141/148
f 34/19/8 42/18/8 65/21/8 154/20/8
f 10/143/149 34/19/8 154/20/8 78/142/149
f 78/142/149 154/20/8 33/23/9 11/87/150
f 20/120/151 9/119/151 23/17/151 155/16/151
f 1/127/152 20/120/152 155/16/152 80/128/152
f 80/128/153 155/16/153 34/19/153 10/143/153
f 57/11/154 49/10/154 35/13/154 156/12/154
f 46/155/155 57/11/155 156/12/155 59/5/155
f 59/5/156 156/12/5 39/15/5 47/6/156
f 58/52/157 48/48/157 38/9/157 157/8/157
f 46/155/158 62/2/158 45/160/158
f 24/161/159 159/3/159 63/152/159
f 62/2/160 46/155/160 59/5/160 158/4/160
f 43/22/161 62/2/161 158/4/161 64/25/161
f 64/25/162 158/4/2 61/7/2 44/26/162
f 58/52/163 157/8/163 165/162/163
f 42/18/164 63/152/164 159/3/165 65/21/166
f 65/21/166 159/3/165 62/2/167 43/22/167
f 105/109/168 160/163/168 81/135/168
f 81/135/169 161/164/169 104/145/169
f 104/145/170 162/165/170 79/146/170
f 145/51/171 58/52/171 166/166/171
f 27/158/134 147/157/132 17/159/172
f 83/45/173 18/123/173 16/46/173
f 7/74/174 143/73/174 18/123/174
f 70/129/175 21/75/175 7/74/175
f 147/157/176 167/167/176 17/159/176
f 26/50/177 168/168/177 147/157/177
f 18/123/178 83/45/178 169/169/178
f 17/159/179 170/170/179 83/45/179
f 18/123/180 171/171/180 7/74/180
f 7/74/181 172/172/181 70/129/181
f 22/132/182 70/129/182 173/173/182
f 228/174/183 313/175/183 230/176/183
f 312/177/184 229/178/184 215/179/185 227/180/185
f 311/181/186 225/182/186 217/183/186 207/184/186
f 310/185/187 208/186/187 218/187/188 205/188/188
f 309/189/189 204/190/189 210/191/189 193/192/189
f 308/193/190 203/194/191 211/195/191 233/196/190
f 307/197/192 202/198/192 212/199/192 232/200/192
f 306/201/193 222/202/193 184/203/193 201/204/193
f 305/205/194 190/206/195 185/207/196 200/208/197
f 304/209/198 252/210/199 186/211/199 199/212/198
f 303/213/200 250/214/200 176/215/200 248/216/200
f 302/217/201 198/218/201 187/219/202 247/220/202
f 216/221/203 196/222/203 195/223/203
f 299/224/204 226/225/204 216/221/204 195/223/204
f 318/226/205 225/182/205 311/181/205
f 269/227/206 281/228/206 275/229/207 251/230/207
f 275/229/208 185/207/209 190/206/210 280/231/211
f 268/232/212 249/233/213 269/227/214 285/234/215
f 85/235/216 268/232/212 285/234/215 111/236/217
f 277/237/218 279/238/218 234/239/218 209/240/218
f 272/241/219 253/242/219 277/237/219 278/243/219
f 91/244/220 272/241/219 278/243/219 123/245/220
f 297/246/221 239/247/221 192/248/221 178/249/221
f 251/230/208 275/229/208 280/231/211 271/250/211
f 257/251/222 242/252/222 259/253/222 292/254/222
f 74/255/223 97/256/223 294/257/224 255/258/224
f 260/259/225 292/254/222 224/260/226 182/261/227
f 240/262/228 256/263/228 291/264/228 261/265/228
f 73/266/229 5/267/230 295/268/231 254/269/232
f 242/252/233 258/270/233 293/271/233 259/253/233
f 249/233/206 274/272/206 281/228/206 269/227/206
f 111/236/217 285/234/215 270/273/234 88/274/235
f 270/273/236 251/230/237 271/250/238 284/275/239
f 88/274/240 270/273/236 284/275/239 114/276/241
f 114/276/241 284/275/239 272/241/242 91/244/243
f 254/269/232 295/268/231 257/251/244 241/277/245
f 256/263/228 241/277/246 260/259/246 291/264/228
f 241/277/225 257/251/222 292/254/222 260/259/225
f 255/258/224 294/257/224 258/270/224 242/252/224
f 37/278/247 103/279/248 289/280/249 236/281/250
f 264/282/251 82/283/251 106/284/251 288/285/252
f 72/286/253 6/287/254 296/288/255 177/289/256
f 265/290/257 288/285/252 236/281/257 206/291/257
f 180/292/258 266/293/258 287/294/258 191/295/258
f 187/219/259 248/216/259 297/246/259 189/296/259
f 262/297/260 240/262/260 261/265/260 290/298/260
f 237/299/261 290/298/261 245/300/261 174/301/261
f 238/302/262 192/248/262 273/303/263 283/304/263
f 22/305/264 238/302/262 283/304/263 117/306/265
f 296/288/255 254/269/266 241/277/267 256/263/268
f 295/268/231 255/258/269 242/252/270 257/251/244
f 221/307/271 82/283/271 264/282/271
f 266/293/272 246/308/272 265/290/272 287/294/272
f 246/308/273 264/282/273 288/285/273 265/290/273
f 177/289/256 296/288/255 256/263/268 240/262/274
f 219/309/275 286/310/275 266/293/276 180/292/276
f 294/257/224 235/311/277 209/240/277 258/270/224
f 293/271/278 234/239/278 175/312/278 223/313/278
f 292/254/222 259/253/222 183/314/226 224/260/226
f 291/264/228 260/259/246 182/261/279 243/315/280
f 290/298/281 261/265/281 181/316/281 245/300/281
f 289/280/249 177/289/249 240/262/249 262/297/249
f 267/317/275 244/318/282 263/319/282 286/310/275
f 271/250/211 280/231/211 276/320/211 253/242/211
f 117/306/265 283/304/263 268/232/263 85/235/265
f 276/320/283 184/203/283 222/202/283 279/238/283
f 239/247/284 176/215/284 250/214/284 282/321/284
f 253/242/285 276/320/285 279/238/285 277/237/285
f 274/272/206 186/211/286 252/210/286 281/228/206
f 258/270/287 209/240/287 234/239/287 293/271/287
f 5/267/230 74/255/288 255/258/269 295/268/231
f 206/291/289 262/297/289 290/298/289 237/299/289
f 261/265/228 291/264/228 243/315/280 181/316/280
f 248/216/290 176/215/290 239/247/290 297/246/290
f 191/295/291 287/294/291 237/299/291 174/301/291
f 288/285/252 106/284/251 37/278/292 236/281/257
f 287/294/293 265/290/293 206/291/293 237/299/293
f 286/310/294 263/319/294 246/308/294 266/293/294
f 123/245/220 278/243/219 235/311/295 40/322/296
f 192/248/297 239/247/297 282/321/297 273/303/297
f 285/234/215 269/227/214 251/230/298 270/273/234
f 273/303/299 282/321/299 274/272/299 249/233/299
f 284/275/239 271/250/238 253/242/300 272/241/242
f 97/256/223 40/322/301 235/311/277 294/257/224
f 259/253/302 293/271/302 223/313/302 183/314/302
f 283/304/263 273/303/263 249/233/263 268/232/263
f 282/321/303 250/214/303 186/211/303 274/272/303
f 281/228/206 252/210/286 185/207/304 275/229/207
f 280/231/211 190/206/210 184/203/210 276/320/211
f 279/238/305 222/202/305 175/312/305 234/239/305
f 278/243/219 277/237/219 209/240/295 235/311/295
f 219/309/275 267/317/275 286/310/275
f 6/287/254 73/266/306 254/269/266 296/288/255
f 236/281/250 289/280/249 262/297/249 206/291/250
f 103/279/248 72/286/248 177/289/249 289/280/249
f 220/323/307 219/309/307 298/324/307
f 180/292/308 193/192/309 298/324/309 219/309/308
f 193/192/309 210/191/309 231/325/309 298/324/309
f 179/326/310 298/324/310 231/325/310
f 317/327/311 214/328/311 225/182/311
f 195/223/312 300/329/312 299/224/312
f 216/221/313 207/184/314 301/330/315 196/222/313
f 207/184/314 217/183/316 197/331/317 301/330/315
f 197/331/318 302/217/201 247/220/202 188/332/319
f 217/183/318 205/188/201 302/217/201 197/331/318
f 205/188/201 218/187/201 198/218/201 302/217/201
f 198/218/320 303/213/320 248/216/320 187/219/320
f 218/187/321 199/212/321 303/213/321 198/218/321
f 199/212/322 186/211/322 250/214/322 303/213/322
f 208/186/198 304/209/198 199/212/198 218/187/198
f 215/179/323 200/208/323 304/209/198 208/186/198
f 200/208/323 185/207/324 252/210/199 304/209/198
f 229/178/194 305/205/194 200/208/197 215/179/197
f 212/199/194 201/204/194 305/205/194 229/178/194
f 201/204/194 184/203/195 190/206/195 305/205/194
f 202/198/325 306/201/325 201/204/325 212/199/325
f 183/314/326 223/313/326 306/201/326 202/198/326
f 223/313/327 175/312/327 222/202/327 306/201/327
f 203/194/328 307/197/192 232/200/192 211/195/328
f 182/261/329 224/260/330 307/197/192 203/194/328
f 224/260/330 183/314/330 202/198/192 307/197/192
f 204/190/190 308/193/190 233/196/190 210/191/190
f 181/316/331 243/315/331 308/193/190 204/190/190
f 243/315/331 182/261/332 203/194/191 308/193/190
f 191/295/333 309/189/333 193/192/333 180/292/333
f 174/301/334 245/300/334 309/189/334 191/295/334
f 245/300/335 181/316/335 204/190/335 309/189/335
f 225/182/336 310/185/336 205/188/336 217/183/336
f 214/328/337 227/180/337 310/185/337 225/182/337
f 227/180/338 215/179/338 208/186/187 310/185/187
f 226/225/339 311/181/339 207/184/339 216/221/339
f 214/328/340 213/333/340 230/176/340
f 194/334/341 231/325/341 313/175/341
f 230/176/342 312/177/342 227/180/342 214/328/342
f 211/195/343 232/200/343 312/177/343 230/176/343
f 232/200/344 212/199/344 229/178/184 312/177/184
f 226/225/345 319/335/345 311/181/345
f 210/191/346 233/196/347 313/175/348 231/325/346
f 233/196/347 211/195/349 230/176/349 313/175/348
f 264/282/350 246/308/350 314/336/350
f 246/308/351 263/319/351 315/337/351
f 263/319/352 244/318/352 316/338/352
f 299/224/353 320/339/353 226/225/353
f 197/331/317 188/332/354 301/330/315
f 247/220/355 187/219/355 189/296/355
f 178/249/356 189/296/356 297/246/356
f 238/302/357 178/249/357 192/248/357
f 301/330/358 188/332/358 321/340/358
f 196/222/359 301/330/359 322/341/359
f 189/296/360 323/342/360 247/220/360
f 188/332/361 247/220/361 324/343/361
f 189/296/362 178/249/362 325/344/362
f 178/249/363 238/302/363 326/345/363
f 22/305/364 327/346/364 238/302/364
f 387/347/365 486/348/365 389/349/365
f 485/350/366 388/351/366 374/352/367 386/353/367
f 484/354/368 384/355/368 376/356/368 365/357/368
f 483/358/369 366/359/369 377/360/346 362/361/346
f 482/362/321 361/363/321 369/364/321 350/365/321
f 481/366/201 360/367/318 370/368/318 392/369/201
f 480/370/370 359/371/370 371/372/370 391/373/370
f 479/374/371 381/375/371 340/376/371 358/377/371
f 478/378/204 346/379/372 341/380/373 357/381/374
f 477/382/309 417/383/308 342/384/308 356/385/309
f 476/386/334 414/387/334 330/388/334 411/389/334
f 475/390/190 355/391/190 343/392/331 410/393/331
f 375/394/375 353/395/375 352/396/375
f 472/397/194 385/398/194 375/394/194 352/396/194
f 491/399/376 384/355/376 484/354/376
f 439/400/275 454/401/275 447/402/282 416/403/282
f 447/402/377 341/380/378 346/379/379 453/404/380
f 437/405/381 413/406/382 439/400/383 458/407/384
f 412/408/385 437/405/381 458/407/384 438/409/386
f 449/410/387 452/411/387 393/412/387 368/413/387
f 443/414/388 419/415/388 449/410/388 451/416/388
f 418/417/389 443/414/388 451/416/388 450/418/389
f 470/419/289 398/420/289 348/421/289 334/422/289
f 416/403/377 447/402/377 453/404/380 442/423/380
f 423/424/390 404/425/390 426/426/390 465/427/390
f 401/428/391 424/429/391 467/430/392 421/431/392
f 427/432/393 465/427/390 383/433/394 338/434/395
f 402/435/396 422/436/396 464/437/396 428/438/396
f 400/439/397 332/440/398 468/441/399 420/442/400
f 404/425/401 425/443/401 466/444/401 426/426/401
f 413/406/275 446/445/275 454/401/275 439/400/275
f 438/409/386 458/407/384 440/446/402 415/447/403
f 440/446/404 416/403/405 442/423/406 457/448/407
f 415/447/408 440/446/404 457/448/407 441/449/409
f 441/449/409 457/448/407 443/414/410 418/417/411
f 420/442/400 468/441/399 423/424/412 403/450/413
f 422/436/396 403/450/414 427/432/414 464/437/396
f 403/450/393 423/424/390 465/427/390 427/432/393
f 421/431/392 467/430/392 425/443/392 404/425/392
f 364/451/415 430/452/416 462/453/417 395/454/357
f 432/455/265 409/456/265 433/457/265 461/458/263
f 399/459/418 333/460/419 469/461/420 331/462/421
f 434/463/262 461/458/263 395/454/262 363/464/262
f 336/465/303 435/466/303 460/467/303 347/468/303
f 343/392/281 411/389/281 470/419/281 345/469/281
f 429/470/422 402/435/422 428/438/422 463/471/422
f 396/472/290 463/471/290 407/473/290 328/474/290
f 397/475/257 348/421/257 445/476/252 456/477/252
f 349/478/292 397/475/257 456/477/252 444/479/251
f 469/461/420 420/442/423 403/450/424 422/436/425
f 468/441/399 421/431/426 404/425/427 423/424/412
f 380/480/428 409/456/428 432/455/428
f 435/466/429 408/481/429 434/463/429 460/467/429
f 408/481/430 432/455/430 461/458/430 434/463/430
f 331/462/421 469/461/420 422/436/425 402/435/431
f 378/482/206 459/483/206 435/466/286 336/465/286
f 467/430/392 394/484/432 368/413/432 425/443/392
f 466/444/433 393/412/433 329/485/433 382/486/433
f 465/427/390 426/426/390 339/487/394 383/433/394
f 464/437/396 427/432/414 338/434/434 405/488/355
f 463/471/259 428/438/259 337/489/259 407/473/259
f 462/453/417 331/462/417 402/435/417 429/470/417
f 436/490/206 406/491/207 431/492/207 459/483/206
f 442/423/380 453/404/380 448/493/380 419/415/380
f 444/479/251 456/477/252 437/405/252 412/408/251
f 448/493/435 340/376/435 381/375/435 452/411/435
f 398/420/291 330/388/291 414/387/291 455/494/291
f 419/415/436 448/493/436 452/411/436 449/410/436
f 446/445/275 342/384/276 417/383/276 454/401/275
f 425/443/437 368/413/437 393/412/437 466/444/437
f 332/440/398 401/428/438 421/431/426 468/441/399
f 363/464/221 429/470/221 463/471/221 396/472/221
f 428/438/396 464/437/396 405/488/355 337/489/355
f 411/389/261 330/388/261 398/420/261 470/419/261
f 347/468/284 460/467/284 396/472/284 328/474/284
f 461/458/263 433/457/265 364/451/264 395/454/262
f 460/467/297 434/463/297 363/464/297 396/472/297
f 459/483/439 431/492/439 408/481/439 435/466/439
f 450/418/389 451/416/388 394/484/440 367/495/441
f 348/421/293 398/420/293 455/494/293 445/476/293
f 458/407/384 439/400/383 416/403/442 440/446/402
f 445/476/443 455/494/443 446/445/443 413/406/443
f 457/448/407 442/423/406 419/415/444 443/414/410
f 424/429/391 367/495/445 394/484/432 467/430/392
f 426/426/446 466/444/446 382/486/446 339/487/446
f 456/477/252 445/476/252 413/406/252 437/405/252
f 455/494/258 414/387/258 342/384/258 446/445/258
f 454/401/275 417/383/276 341/380/447 447/402/282
f 453/404/380 346/379/379 340/376/379 448/493/380
f 452/411/448 381/375/448 329/485/448 393/412/448
f 451/416/388 449/410/388 368/413/440 394/484/440
f 378/482/206 436/490/206 459/483/206
f 333/460/419 400/439/449 420/442/423 469/461/420
f 395/454/357 462/453/417 429/470/417 363/464/357
f 430/452/416 399/459/416 331/462/417 462/453/417
f 379/496/450 378/482/450 471/497/450
f 336/465/199 350/365/198 471/497/198 378/482/199
f 350/365/198 369/364/198 390/498/198 471/497/198
f 335/499/451 471/497/451 390/498/451
f 490/500/452 373/501/452 384/355/452
f 352/396/453 473/502/453 472/397/453
f 375/394/454 365/357/455 474/503/456 353/395/454
f 365/357/455 376/356/457 354/504/458 474/503/456
f 354/504/191 475/390/190 410/393/331 344/505/332
f 376/356/191 362/361/190 475/390/190 354/504/191
f 362/361/190 377/360/190 355/391/190 475/390/190
f 355/391/335 476/386/335 411/389/335 343/392/335
f 377/360/189 356/385/189 476/386/189 355/391/189
f 356/385/333 342/384/333 414/387/333 476/386/333
f 366/359/309 477/382/309 356/385/309 377/360/309
f 374/352/459 357/381/459 477/382/309 366/359/309
f 357/381/459 341/380/460 417/383/308 477/382/309
f 388/351/204 478/378/204 357/381/374 374/352/374
f 371/372/204 358/377/204 478/378/204 388/351/204
f 358/377/204 340/376/372 346/379/372 478/378/204
f 359/371/461 479/374/461 358/377/461 371/372/461
f 339/487/462 382/486/462 479/374/462 359/371/462
f 382/486/463 329/485/463 381/375/463 479/374/463
f 360/367/464 480/370/370 391/373/370 370/368/464
f 338/434/465 383/433/466 480/370/370 360/367/464
f 383/433/466 339/487/466 359/371/370 480/370/370
f 361/363/201 481/366/201 392/369/201 369/364/201
f 337/489/202 405/488/202 481/366/201 361/363/201
f 405/488/202 338/434/319 360/367/318 481/366/201
f 347/468/322 482/362/322 350/365/322 336/465/322
f 328/474/200 407/473/200 482/362/200 347/468/200
f 407/473/320 337/489/320 361/363/320 482/362/320
f 384/355/467 483/358/467 362/361/467 376/356/467
f 373/501/468 386/353/468 483/358/468 384/355/468
f 386/353/469 374/352/469 366/359/369 483/358/369
f 385/398/344 484/354/344 365/357/344 375/394/344
f 373/501/470 372/506/470 389/349/470
f 351/507/471 390/498/471 486/348/471
f 389/349/472 485/350/472 386/353/472 373/501/472
f 370/368/473 391/373/473 485/350/473 389/349/473
f 391/373/339 371/372/339 388/351/366 485/350/366
f 385/398/474 492/508/474 484/354/474
f 369/364/188 392/369/475 486/348/476 390/498/188
f 392/369/475 370/368/477 389/349/477 486/348/476
f 432/455/478 408/481/478 487/509/478
f 408/481/479 431/492/479 488/510/479
f 431/492/480 406/491/480 489/511/480
f 472/397/481 493/512/481 385/398/481
f 354/504/458 344/505/482 474/503/456
f 410/393/280 343/392/280 345/469/280
f 334/422/483 345/469/483 470/419/483
f 397/475/250 334/422/250 348/421/250
f 474/503/484 344/505/484 494/513/484
f 353/395/485 474/503/485 495/514/485
f 345/469/486 496/515/486 410/393/486
f 344/505/487 410/393/487 497/516/487
f 345/469/488 334/422/488 498/517/488
f 334/422/489 397/475/489 499/518/489
f 349/478/490 500/519/490 397/475/490
f 555/520/491 557/521/491 640/522/491
f 639/523/492 554/524/493 542/525/493 556/526/492
f 638/527/494 534/528/494 544/529/494 552/530/494
f 637/531/495 532/532/164 545/533/164 535/534/495
f 636/535/139 520/536/139 537/537/139 531/538/139
f 635/539/19 560/540/19 538/541/136 530/542/136
f 634/543/496 559/544/496 539/545/496 529/546/496
f 633/547/497 528/548/497 511/549/497 549/550/497
f 632/551/22 527/552/498 512/553/499 517/554/500
f 631/555/127 526/556/127 513/557/126 579/558/126
f 630/559/152 575/560/152 503/561/152 577/562/152
f 629/563/8 574/564/149 514/565/149 525/566/8
f 543/567/501 522/568/501 523/569/501
f 626/570/12 522/568/12 543/567/12 553/571/12
f 645/572/502 638/527/502 552/530/502
f 596/573/93 578/574/100 602/575/100 608/576/93
f 602/575/503 607/577/504 517/554/505 512/553/506
f 595/578/507 612/579/508 596/573/509 576/580/510
f 412/408/511 438/409/512 612/579/508 595/578/507
f 604/581/513 536/582/513 561/583/513 606/584/513
f 599/585/514 605/586/514 604/581/514 580/587/514
f 418/417/515 450/418/515 605/586/514 599/585/514
f 624/588/107 505/589/107 519/590/107 566/591/107
f 578/574/503 598/592/504 607/577/504 602/575/503
f 584/593/516 619/594/516 586/595/516 569/596/516
f 401/428/517 582/597/518 621/598/518 424/429/517
f 587/599/519 509/600/520 551/601/521 619/594/516
f 567/602/522 588/603/522 618/604/522 583/605/522
f 400/439/523 581/606/524 622/607/525 332/440/526
f 569/596/527 586/595/527 620/608/527 585/609/527
f 576/580/93 596/573/93 608/576/93 601/610/93
f 438/409/512 415/447/528 597/611/529 612/579/508
f 597/611/530 611/612/531 598/592/532 578/574/533
f 415/447/534 441/449/535 611/612/531 597/611/530
f 441/449/535 418/417/536 599/585/537 611/612/531
f 581/606/524 568/613/538 584/593/539 622/607/525
f 583/605/522 618/604/522 587/599/540 568/613/540
f 568/613/519 587/599/519 619/594/516 584/593/516
f 582/597/518 569/596/518 585/609/518 621/598/518
f 364/451/541 563/614/175 616/615/542 430/452/543
f 591/616/83 615/617/81 433/457/83 409/456/83
f 399/459/544 504/618/545 623/619/546 333/460/547
f 592/620/80 533/621/80 563/614/80 615/617/81
f 507/622/121 518/623/121 614/624/121 593/625/121
f 514/565/99 516/626/99 624/588/99 575/560/99
f 589/627/548 617/628/548 588/603/548 567/602/548
f 564/629/108 501/630/108 572/631/108 617/628/108
f 565/632/75 610/633/70 600/634/70 519/590/75
f 349/478/110 444/479/69 610/633/70 565/632/75
f 623/619/546 583/605/549 568/613/550 581/606/551
f 622/607/525 584/593/539 569/596/552 582/597/553
f 548/635/554 591/616/554 409/456/554
f 593/625/555 614/624/555 592/620/555 573/636/555
f 573/636/556 592/620/556 615/617/556 591/616/556
f 504/618/545 567/602/557 583/605/549 623/619/546
f 546/637/24 507/622/104 593/625/104 613/638/24
f 621/598/518 585/609/518 536/582/558 562/639/558
f 620/608/559 550/640/559 502/641/559 561/583/559
f 619/594/516 551/601/521 510/642/521 586/595/516
f 618/604/522 570/643/173 509/600/560 587/599/540
f 617/628/77 572/631/77 508/644/77 588/603/77
f 616/615/542 589/627/542 567/602/542 504/618/542
f 594/645/24 613/638/24 590/646/25 571/647/25
f 598/592/504 580/587/504 603/648/504 607/577/504
f 444/479/69 412/408/69 595/578/70 610/633/70
f 603/648/561 606/584/561 549/550/561 511/549/561
f 566/591/109 609/649/109 577/562/109 503/561/109
f 580/587/562 604/581/562 606/584/562 603/648/562
f 601/610/93 608/576/93 579/558/94 513/557/94
f 585/609/563 620/608/563 561/583/563 536/582/563
f 332/440/526 622/607/525 582/597/553 401/428/564
f 533/621/39 564/629/39 617/628/39 589/627/39
f 588/603/522 508/644/173 570/643/173 618/604/522
f 575/560/79 624/588/79 566/591/79 503/561/79
f 518/623/102 501/630/102 564/629/102 614/624/102
f 615/617/81 563/614/80 364/451/82 433/457/83
f 614/624/115 564/629/115 533/621/115 592/620/115
f 613/638/565 593/625/565 573/636/565 590/646/565
f 450/418/515 367/495/566 562/639/567 605/586/514
f 519/590/111 600/634/111 609/649/111 566/591/111
f 612/579/508 597/611/529 578/574/568 596/573/509
f 600/634/569 576/580/569 601/610/569 609/649/569
f 611/612/531 599/585/537 580/587/570 598/592/532
f 424/429/517 621/598/518 562/639/558 367/495/571
f 586/595/572 510/642/572 550/640/572 620/608/572
f 610/633/70 595/578/70 576/580/70 600/634/70
f 609/649/76 601/610/76 513/557/76 577/562/76
f 608/576/93 602/575/100 512/553/573 579/558/94
f 607/577/504 603/648/504 511/549/505 517/554/505
f 606/584/574 561/583/574 502/641/574 549/550/574
f 605/586/514 562/639/567 536/582/567 604/581/514
f 546/637/24 613/638/24 594/645/24
f 333/460/547 623/619/546 581/606/551 400/439/575
f 563/614/175 533/621/175 589/627/542 616/615/542
f 430/452/543 616/615/542 504/618/542 399/459/543
f 547/650/576 625/651/576 546/637/576
f 507/622/17 546/637/17 625/651/16 520/536/16
f 520/536/16 625/651/16 558/652/16 537/537/16
f 506/653/577 558/652/577 625/651/577
f 644/654/578 552/530/578 541/655/578
f 522/568/579 626/570/579 627/656/579
f 543/567/580 523/569/580 628/657/581 534/528/582
f 534/528/582 628/657/581 524/658/583 544/529/584
f 524/658/9 515/659/150 574/564/149 629/563/8
f 544/529/9 524/658/9 629/563/8 532/532/8
f 532/532/8 629/563/8 525/566/8 545/533/8
f 525/566/153 514/565/153 575/560/153 630/559/153
f 545/533/7 525/566/7 630/559/7 526/556/7
f 526/556/151 630/559/151 577/562/151 513/557/151
f 535/534/127 545/533/127 526/556/127 631/555/127
f 542/525/585 535/534/127 631/555/127 527/552/585
f 527/552/585 631/555/127 579/558/126 512/553/586
f 556/526/22 542/525/498 527/552/498 632/551/22
f 539/545/22 556/526/22 632/551/22 528/548/22
f 528/548/22 632/551/22 517/554/500 511/549/500
f 529/546/587 539/545/587 528/548/587 633/547/587
f 510/642/588 529/546/588 633/547/588 550/640/588
f 550/640/589 633/547/589 549/550/589 502/641/589
f 530/542/590 538/541/590 559/544/496 634/543/496
f 509/600/591 530/542/590 634/543/496 551/601/592
f 551/601/592 634/543/496 529/546/496 510/642/592
f 531/538/19 537/537/19 560/540/19 635/539/19
f 508/644/20 531/538/19 635/539/19 570/643/20
f 570/643/20 635/539/19 530/542/136 509/600/137
f 518/623/140 507/622/140 520/536/140 636/535/140
f 501/630/18 518/623/18 636/535/18 572/631/18
f 572/631/138 636/535/138 531/538/138 508/644/138
f 552/530/593 544/529/593 532/532/593 637/531/593
f 541/655/594 552/530/594 637/531/594 554/524/594
f 554/524/595 637/531/495 535/534/495 542/525/595
f 553/571/162 543/567/162 534/528/162 638/527/162
f 541/655/596 557/521/596 540/660/596
f 521/661/597 640/522/597 558/652/597
f 557/521/598 541/655/598 554/524/598 639/523/598
f 538/541/599 557/521/599 639/523/599 559/544/599
f 559/544/157 639/523/492 556/526/492 539/545/157
f 553/571/600 638/527/600 646/662/600
f 537/537/6 558/652/6 640/522/601 560/540/602
f 560/540/602 640/522/601 557/521/603 538/541/603
f 591/616/604 641/663/604 573/636/604
f 573/636/605 642/664/605 590/646/605
f 590/646/606 643/665/606 571/647/606
f 626/570/607 553/571/607 647/666/607
f 524/658/583 628/657/581 515/659/608
f 574/564/97 516/626/97 514/565/97
f 505/589/609 624/588/609 516/626/609
f 565/632/66 519/590/66 505/589/66
f 628/657/610 648/667/610 515/659/610
f 523/569/611 649/668/611 628/657/611
f 516/626/612 574/564/612 650/669/612
f 515/659/613 651/670/613 574/564/613
f 516/626/614 652/671/614 505/589/614
f 505/589/615 653/672/615 565/632/615
f 349/478/616 565/632/616 654/673/616
f 104/674/617 161/675/617 488/510/617 431/492/617
f 221/676/618 264/677/618 591/616/618 548/635/618
f 226/678/619 320/679/619 647/666/619 553/571/619
f 230/680/620 213/681/620 540/660/620 557/521/620
f 179/682/621 231/683/621 558/652/621 506/653/621
f 161/675/622 81/684/622 408/481/622 488/510/622
f 45/685/623 62/686/623 389/349/623 372/506/623
f 320/679/624 299/687/624 626/570/624 647/666/624
f 162/688/625 104/674/625 431/492/625 489/511/625
f 79/689/626 162/688/626 489/511/626 406/491/626
f 163/690/627 46/691/627 373/501/627 490/500/627
f 157/692/628 164/693/628 491/399/628 484/354/628
f 165/694/629 157/692/629 484/354/629 492/508/629
f 159/695/630 24/696/630 351/507/630 486/348/630
f 317/697/631 225/698/631 552/530/631 644/654/631
f 58/699/632 165/694/632 492/508/632 385/398/632
f 57/700/633 163/690/633 490/500/633 384/355/633
f 321/701/634 188/702/634 515/659/634 648/667/634
f 267/703/635 219/704/635 546/637/635 594/645/635
f 228/705/636 230/680/636 557/521/636 555/520/636
f 166/706/637 58/699/637 385/398/637 493/512/637
f 301/707/638 321/701/638 648/667/638 628/657/638
f 145/708/639 166/706/639 493/512/639 472/397/639
f 322/709/640 301/707/640 628/657/640 649/668/640
f 231/683/641 194/710/641 521/661/641 558/652/641
f 196/711/642 322/709/642 649/668/642 523/569/642
f 164/693/643 57/700/643 384/355/643 491/399/643
f 323/712/644 189/713/644 516/626/644 650/669/644
f 247/714/645 323/712/645 650/669/645 574/564/645
f 194/710/646 313/715/646 640/522/646 521/661/646
f 214/716/647 317/697/647 644/654/647 541/655/647
f 324/717/648 247/714/648 574/564/648 651/670/648
f 46/691/649 45/685/649 372/506/649 373/501/649
f 17/718/650 167/719/650 494/513/650 344/505/650
f 62/686/651 60/720/651 387/347/651 389/349/651
f 188/702/652 324/717/652 651/670/652 515/659/652
f 313/715/653 228/705/653 555/520/653 640/522/653
f 167/719/654 147/721/654 474/503/654 494/513/654
f 298/722/655 179/682/655 506/653/655 625/651/655
f 325/723/656 178/724/656 505/589/656 652/671/656
f 244/725/657 267/703/657 594/645/657 571/647/657
f 147/721/658 168/726/658 495/514/658 474/503/658
f 63/727/659 8/728/659 335/499/659 390/498/659
f 189/713/660 325/723/660 652/671/660 516/626/660
f 24/696/661 63/727/661 390/498/661 351/507/661
f 168/726/662 26/729/662 353/395/662 495/514/662
f 299/687/663 300/730/663 627/656/663 626/570/663
f 326/731/664 238/732/664 565/632/664 653/672/664
f 144/733/665 52/734/665 379/496/665 471/497/665
f 18/735/666 169/736/666 496/515/666 345/469/666
f 300/730/667 195/737/667 522/568/667 627/656/667
f 109/738/668 79/689/668 406/491/668 436/490/668
f 178/724/669 326/731/669 653/672/669 505/589/669
f 264/677/670 314/739/670 641/663/670 591/616/670
f 53/740/671 82/741/671 409/456/671 380/480/671
f 169/736/672 83/742/672 410/393/672 496/515/672
f 195/737/673 196/711/673 523/569/673 522/568/673
f 327/743/674 22/744/674 349/478/674 654/673/674
f 225/698/675 318/745/675 645/572/675 552/530/675
f 314/739/676 246/746/676 573/636/676 641/663/676
f 105/747/677 53/740/677 380/480/677 432/455/677
f 83/742/678 170/748/678 497/516/678 410/393/678
f 238/732/679 327/743/679 654/673/679 565/632/679
f 315/749/680 263/750/680 590/646/680 642/664/680
f 170/748/681 17/718/681 344/505/681 497/516/681
f 60/720/682 159/695/682 486/348/682 387/347/682
f 8/728/683 144/733/683 471/497/683 335/499/683
f 246/746/684 315/749/684 642/664/684 573/636/684
f 7/751/685 171/752/685 498/517/685 334/422/685
f 213/681/686 214/716/686 541/655/686 540/660/686
f 263/750/687 316/753/687 643/665/687 590/646/687
f 171/752/688 18/735/688 345/469/688 498/517/688
f 146/754/689 145/708/689 472/397/689 473/502/689
f 316/753/690 244/725/690 571/647/690 643/665/690
f 219/704/691 220/755/691 547/650/691 546/637/691
f 70/756/692 172/757/692 499/518/692 397/475/692
f 51/758/693 109/738/693 436/490/693 378/482/693
f 52/734/694 51/758/694 378/482/694 379/496/694
f 25/759/695 146/754/695 473/502/695 352/396/695
f 318/745/696 311/760/696 638/527/696 645/572/696
f 172/757/697 7/751/697 334/422/697 499/518/697
f 160/761/698 105/747/698 432/455/698 487/509/698
f 220/755/699 298/722/699 625/651/699 547/650/699
f 26/729/700 25/759/700 352/396/700 353/395/700
f 311/760/701 319/762/701 646/662/701 638/527/701
f 22/744/702 173/763/702 500/519/702 349/478/702
f 81/684/703 160/761/703 487/509/703 408/481/703
f 82/741/704 221/676/704 548/635/704 409/456/704
f 319/762/705 226/678/705 553/571/705 646/662/705
f 173/763/706 70/756/706 397/475/706 500/519/706
