# Blender 4.4.1
# www.blender.org
mtllib Hair3FixedFixed_.mtl
o Cube
v -0.450848 3.814037 0.497468
v -0.500265 4.832014 0.479398
v -0.500000 3.802458 -0.470955
v -0.500265 4.832014 -0.462512
v -0.728500 4.138466 0.309108
v -0.398590 4.868480 0.513746
v -0.695698 3.831104 -0.000000
v -0.650961 3.857913 -0.288604
v -0.572933 3.729526 -0.279417
v -0.609568 3.692890 -0.000000
v -0.560722 3.759067 0.286643
v -0.572933 4.005808 0.539651
v -0.609983 4.340603 0.595484
v -0.573348 4.637253 0.560977
v -0.573198 4.904946 0.287860
v -0.609833 4.941582 0.008443
v -0.573198 4.904946 -0.270975
v -0.573198 4.628664 -0.531208
v -0.609568 4.302458 -0.574158
v -0.572933 4.005808 -0.539651
v -0.650961 3.996055 -0.418721
v -0.521127 3.872213 0.477566
v -0.425093 3.756933 -0.518234
v -0.296915 4.904946 -0.531208
v 0.000000 4.912026 -0.574158
v -0.695698 4.302458 -0.443973
v -0.651227 4.638417 -0.410279
v -0.651227 4.776558 -0.280162
v -0.695964 4.803368 0.008443
v -0.148590 4.919118 0.561442
v -0.651227 4.776559 0.297047
v -0.651227 4.638417 0.427164
v -0.695964 4.332014 0.452416
v -0.148325 3.720126 0.546254
v -0.412751 3.739761 0.455620
v -0.148325 4.893709 -0.556905
v -0.398590 4.868480 -0.496860
v -0.462547 3.779696 -0.495506
v -0.296650 3.729526 0.539651
v 0.000000 3.710726 0.552856
v -0.536466 3.904133 -0.505303
v -0.591250 4.154133 -0.556905
v 0.000000 4.933290 0.574790
v -0.296915 4.904946 0.548094
v -0.675171 3.974474 0.304429
v -0.782094 4.332014 0.322231
v -0.729255 4.648171 0.306234
v -0.781829 3.969318 -0.000000
v -0.839772 4.332014 0.008443
v -0.782094 4.665154 0.008443
v -0.728990 3.986301 -0.297791
v -0.781829 4.302458 -0.313788
v -0.729255 4.648170 -0.289349
v -0.489382 4.007316 -0.626591
v -0.438043 4.276595 -0.687445
v -0.316422 4.648170 -0.678200
v -0.591250 3.711208 0.139709
v -0.050857 4.566859 -0.753742
v -0.624052 3.990141 0.422040
v -0.755675 4.490092 -0.297347
v -0.755409 4.144380 -0.305790
v -0.755675 4.656662 -0.140453
v -0.810933 4.332014 -0.148451
v -0.755409 3.977809 -0.148896
v -0.810933 4.498584 0.008443
v -0.810668 4.135888 -0.000000
v -0.755675 4.656662 0.157338
v -0.591516 4.480339 -0.548462
v -0.536732 4.730339 -0.496860
v -0.536732 4.868480 -0.366744
v -0.591516 4.923264 -0.131266
v -0.591516 4.923264 0.148151
v -0.536732 4.868480 0.383629
v 0.000000 3.959208 0.698707
v 0.000000 4.258670 0.747542
v 0.000000 4.731463 0.711181
v -0.316307 3.994890 0.699526
v -0.333556 4.340603 0.757738
v -0.316572 4.656760 0.707968
v -0.385775 3.609538 -0.288336
v -0.591250 3.711208 -0.139709
v -0.810933 4.332014 0.165337
v -0.288860 3.552064 -0.008129
v -0.536466 3.765992 -0.375186
v -0.728500 3.971896 0.152214
v -0.229777 3.549336 0.231717
v 0.000000 3.555880 0.318808
v -0.536732 4.730339 0.513746
v -0.755675 4.490092 0.314233
v 0.000000 5.113842 -0.305346
v -0.316422 5.061004 -0.289349
v -0.591665 4.488928 0.578230
v 0.000000 5.164838 0.008443
v -0.333406 5.113842 0.008443
v -0.591665 4.192278 0.578230
v 0.000000 5.064414 0.376598
v -0.316422 5.061004 0.306234
v -0.598820 3.833344 0.328490
v -0.473285 4.177048 -0.661711
v -0.411544 4.490092 -0.675289
v -0.210500 4.572998 -0.715704
v -0.529887 4.003439 -0.609438
v -0.557984 4.302458 -0.589973
v -0.444810 4.638417 -0.604704
v -0.306669 4.776558 -0.604704
v 0.000000 4.773812 -0.655285
v -0.455967 3.879001 -0.560456
v 0.000000 4.108939 0.723124
v 0.000000 4.475995 0.718699
v -0.158228 3.981344 0.705558
v -0.166570 4.280564 0.741977
v -0.158494 4.694112 0.709575
v -0.371218 4.199054 0.724442
v -0.325064 4.498682 0.732853
v 0.000000 4.828082 0.636544
v -0.306819 4.785148 0.634473
v -0.444960 4.647007 0.634473
v -0.471769 4.340603 0.676611
v -0.444695 4.004644 0.626030
v -0.306404 3.857913 0.613147
v 0.000000 3.834967 0.625781
v -0.348375 3.578719 -0.144257
v -0.286904 3.543488 0.132493
v -0.139144 3.557339 0.288083
v -0.412322 3.672585 -0.366030
v 0.000000 3.633303 0.435832
v -0.306404 3.651497 0.418721
v -0.490444 3.700891 0.306544
v -0.471354 3.606760 -0.000000
v -0.486241 3.658881 -0.284896
v -0.158344 5.087423 -0.297347
v 0.000000 5.109785 -0.156894
v -0.324914 5.087423 -0.140453
v -0.166835 5.139340 0.008443
v 0.000000 5.085071 0.184078
v -0.324914 5.087423 0.157338
v -0.158344 5.062709 0.341416
v 0.000000 4.998157 -0.443973
v -0.306669 4.982975 -0.410279
v -0.444810 4.982975 -0.280162
v -0.471619 5.027712 0.008443
v -0.444810 4.982975 0.297047
v -0.306669 4.982975 0.427164
v 0.000000 4.998852 0.475694
v -0.153467 4.990913 0.451429
v -0.421700 4.925728 0.405396
v -0.458215 5.005343 0.152745
v -0.458215 5.005343 -0.135860
v -0.421700 4.925727 -0.388511
v -0.153202 4.975788 -0.431347
v -0.162324 5.071469 0.166487
v -0.162590 5.113381 -0.144452
v -0.478798 3.632821 -0.142448
v -0.457950 3.629128 0.144302
v -0.429152 3.692894 0.376537
v -0.153202 3.642400 0.427277
v -0.474394 3.719288 -0.370608
v -0.153202 3.846440 0.619464
v -0.421435 3.881023 0.559225
v -0.458365 4.187401 0.655542
v -0.458365 4.493805 0.655542
v -0.421700 4.753448 0.567668
v -0.153467 4.802320 0.629067
v -0.162324 4.468266 0.715113
v -0.162324 4.126659 0.717326
v -0.153202 4.760408 -0.634216
v -0.421700 4.753448 -0.550782
v -0.501530 4.485215 -0.593117
v -0.543936 4.152948 -0.599706
v -0.496217 3.891567 -0.532879
v -0.659875 3.841552 0.145962
v -0.673330 3.844509 -0.144302
v -0.593714 3.881023 -0.396954
v -0.673330 4.149256 -0.431347
v -0.673595 4.485215 -0.422905
v -0.593979 4.753448 -0.388511
v -0.673595 4.789963 -0.135860
v -0.673595 4.789963 0.152745
v -0.593979 4.753448 0.405396
v -0.673595 4.485216 0.439790
v -0.659875 4.146300 0.433006
v -0.582419 3.880210 0.407573
v -0.783304 4.494338 -0.144452
v -0.783038 4.140134 -0.152895
v -0.783304 4.494338 0.161338
v -0.769584 4.137177 0.154554
v -0.461727 3.802855 0.533702
v -0.589492 3.738934 0.288550
v -0.543449 3.870503 0.510560
v -0.417427 3.716485 0.485041
v -0.633792 3.825305 0.337211
v -0.507770 3.671286 0.311692
v -0.436498 3.661987 0.393081
v -0.614721 3.879802 0.429171
v -0.866722 3.424086 0.892644
v -0.977800 3.375987 0.716761
v -0.929447 3.474990 0.880379
v -0.836532 3.359094 0.853394
v -1.007991 3.440979 0.756011
v -0.915076 3.325082 0.729026
v -0.856561 3.318085 0.785621
v -0.987962 3.481987 0.823784
v -0.899534 3.399834 0.881745
v -0.978410 3.365679 0.756850
v -0.944075 3.435982 0.873036
v -0.878095 3.353683 0.853873
v -0.999849 3.411830 0.784721
v -0.933870 3.329532 0.765559
v -0.892318 3.324563 0.805748
v -0.985627 3.440950 0.832847
v -0.910728 3.382427 0.890210
v -0.989605 3.348272 0.765315
v -0.955269 3.418575 0.881501
v -0.889290 3.336276 0.862338
v -1.011044 3.394423 0.793186
v -0.945064 3.312125 0.774024
v -0.903512 3.307156 0.814213
v -0.996821 3.423543 0.841312
v -0.911303 3.376885 0.943489
v -1.032499 3.324404 0.751583
v -0.979741 3.432426 0.930106
v -0.878362 3.305972 0.900663
v -1.065440 3.395317 0.794409
v -0.964061 3.268863 0.764965
v -0.900215 3.261228 0.826716
v -1.043587 3.440061 0.868356
v -0.982705 3.306172 1.020673
v -1.107718 3.252038 0.822725
v -1.053298 3.363462 1.006870
v -0.948727 3.233026 0.976499
v -1.141696 3.325184 0.866899
v -1.037125 3.194748 0.836528
v -0.971268 3.186872 0.900224
v -1.119155 3.371337 0.943174
v -1.129402 3.216333 0.992710
v -0.736528 3.604063 0.640566
v -0.749173 3.573898 0.590189
v -0.730249 3.558387 0.594710
v -0.713164 3.556255 0.612663
v -0.707926 3.568750 0.633530
v -0.753613 3.606195 0.622614
v -0.758851 3.593700 0.601747
v -0.717604 3.588553 0.645088
v -0.867053 3.595042 0.595915
v -0.672510 3.500967 0.711703
v -0.759766 3.461893 0.567108
v -0.708082 3.575634 0.756053
v -0.779796 3.634116 0.740510
v -0.831481 3.520375 0.551565
v -0.693918 3.453854 0.633440
v -0.845644 3.642155 0.674179
v -0.973608 3.542244 0.652537
v -0.714815 3.417878 0.803034
v -0.832131 3.366222 0.613008
v -0.761257 3.516587 0.862154
v -0.856292 3.593900 0.842563
v -0.927167 3.443534 0.593417
v -0.744173 3.355594 0.699835
v -0.944251 3.604528 0.755737
v -0.995193 3.500944 0.688309
v -0.754597 3.385604 0.826941
v -0.864115 3.337698 0.651121
v -0.797454 3.477149 0.881949
v -0.885675 3.548851 0.864129
v -0.952336 3.409399 0.633301
v -0.782209 3.327842 0.731329
v -0.967581 3.558707 0.783921
v -0.818620 3.619221 0.796790
v -0.883095 3.480282 0.566322
v -0.714459 3.399024 0.665377
v -0.899534 3.629041 0.716218
v -0.926240 3.571491 0.620755
v -0.687753 3.456575 0.760840
v -0.795373 3.408844 0.584805
v -0.730898 3.547784 0.815273
v -0.774482 3.677256 0.610901
v -0.649850 3.523940 0.582189
v -0.759377 3.578102 0.511558
v -0.722846 3.670711 0.666791
v -0.664954 3.623094 0.681532
v -0.701485 3.530486 0.526299
v -0.634718 3.562300 0.646488
v -0.789613 3.638896 0.546602
v -0.772080 3.756905 0.579845
v -0.574899 3.514902 0.536364
v -0.746762 3.600394 0.423237
v -0.691392 3.746573 0.668843
v -0.600217 3.671413 0.692971
v -0.655587 3.525234 0.447366
v -0.551964 3.575452 0.638097
v -0.795015 3.696355 0.478112
v -0.741394 3.819285 0.536094
v -0.511893 3.538048 0.486994
v -0.710824 3.637400 0.354253
v -0.648259 3.807279 0.640125
v -0.542463 3.719933 0.668835
v -0.605027 3.550055 0.382963
v -0.485978 3.608414 0.605406
v -0.767309 3.748919 0.417682
v -0.685976 3.862650 0.482927
v -0.463056 3.589851 0.436542
v -0.655328 3.686223 0.306679
v -0.596187 3.851004 0.584361
v -0.493703 3.766279 0.612790
v -0.552845 3.601497 0.335108
v -0.438559 3.658106 0.551561
v -0.710473 3.794395 0.367907
v -0.384552 4.106528 -0.653449
v -0.382177 3.913864 -0.636851
v -0.387690 3.831824 -0.450374
v 0.000000 4.822560 -0.498340
v 0.000000 3.792192 0.468312
v 0.000000 4.840798 0.487125
v -0.442831 4.046580 -0.543312
v -0.420339 4.276566 -0.597296
v -0.294482 4.596248 -0.587578
v -0.009032 4.573252 -0.640699
v 0.000000 4.005318 0.593410
v 0.000000 4.262169 0.635296
v 0.000000 4.667689 0.604109
v -0.365781 3.687131 -0.254936
v -0.308821 3.629144 -0.005879
v -0.256475 3.648055 0.215879
v 0.000000 3.659379 0.267567
v 0.000000 4.995660 -0.267777
v 0.000000 5.039400 0.001363
v 0.000000 4.953265 0.317133
v -0.429024 4.192162 -0.573436
v -0.376069 4.460662 -0.585081
v -0.147270 4.571459 -0.611689
v 0.000000 4.704012 -0.567924
v -0.414171 3.936523 -0.486588
v 0.000000 4.133743 0.614353
v 0.000000 4.448571 0.610557
v 0.000000 4.750560 0.540092
v 0.000000 3.898755 0.530861
v -0.337301 3.658138 -0.130407
v -0.301538 3.651804 0.121831
v -0.158669 3.666922 0.258553
v -0.376736 3.759478 -0.319827
v 0.000000 3.725785 0.367939
v 0.000000 4.992180 -0.140449
v 0.000000 4.970982 0.152007
v 0.000000 4.896435 -0.386679
v 0.000000 4.897032 0.402129
v -0.352917 4.131676 -0.566349
v -0.350880 3.966426 -0.552113
v 0.450848 3.814037 0.497468
v 0.500265 4.832014 0.479398
v 0.500000 3.802458 -0.470955
v 0.500265 4.832014 -0.462512
v 0.728500 4.138466 0.309108
v 0.398590 4.868480 0.513746
v 0.695698 3.831104 -0.000000
v 0.650961 3.857913 -0.288604
v 0.572933 3.729526 -0.279417
v 0.609568 3.692890 -0.000000
v 0.560722 3.759067 0.286643
v 0.572933 4.005808 0.539651
v 0.609983 4.340603 0.595484
v 0.573348 4.637253 0.560977
v 0.573198 4.904946 0.287860
v 0.609833 4.941582 0.008443
v 0.573198 4.904946 -0.270975
v 0.573198 4.628664 -0.531208
v 0.609568 4.302458 -0.574158
v 0.572933 4.005808 -0.539651
v 0.650961 3.996055 -0.418721
v 0.521127 3.872213 0.477566
v 0.425093 3.756933 -0.518234
v 0.296915 4.904946 -0.531208
v 0.695698 4.302458 -0.443973
v 0.651227 4.638417 -0.410279
v 0.651227 4.776558 -0.280162
v 0.695964 4.803368 0.008443
v 0.148590 4.919118 0.561442
v 0.651227 4.776559 0.297047
v 0.651227 4.638417 0.427164
v 0.695964 4.332014 0.452416
v 0.148325 3.720126 0.546254
v 0.412751 3.739761 0.455620
v 0.148325 4.893709 -0.556905
v 0.398590 4.868480 -0.496860
v 0.462547 3.779696 -0.495506
v 0.296650 3.729526 0.539651
v 0.536466 3.904133 -0.505303
v 0.591250 4.154133 -0.556905
v 0.296915 4.904946 0.548094
v 0.675171 3.974474 0.304429
v 0.782094 4.332014 0.322231
v 0.729255 4.648171 0.306234
v 0.781829 3.969318 -0.000000
v 0.839772 4.332014 0.008443
v 0.782094 4.665154 0.008443
v 0.728990 3.986301 -0.297791
v 0.781829 4.302458 -0.313788
v 0.729255 4.648170 -0.289349
v 0.489382 4.007316 -0.626591
v 0.438043 4.276595 -0.687445
v 0.316422 4.648170 -0.678200
v 0.591250 3.711208 0.139709
v 0.624052 3.990141 0.422040
v 0.755675 4.490092 -0.297347
v 0.755409 4.144380 -0.305790
v 0.755675 4.656662 -0.140453
v 0.810933 4.332014 -0.148451
v 0.755409 3.977809 -0.148896
v 0.810933 4.498584 0.008443
v 0.810668 4.135888 -0.000000
v 0.755675 4.656662 0.157338
v 0.591516 4.480339 -0.548462
v 0.536732 4.730339 -0.496860
v 0.536732 4.868480 -0.366744
v 0.591516 4.923264 -0.131266
v 0.591516 4.923264 0.148151
v 0.536732 4.868480 0.383629
v 0.316307 3.994890 0.699526
v 0.333556 4.340603 0.757738
v 0.316572 4.656760 0.707968
v 0.385775 3.609538 -0.288336
v 0.591250 3.711208 -0.139709
v 0.810933 4.332014 0.165337
v 0.288860 3.552064 -0.008129
v 0.536466 3.765992 -0.375186
v 0.728500 3.971896 0.152214
v 0.229777 3.549336 0.231717
v 0.536732 4.730339 0.513746
v 0.755675 4.490092 0.314233
v 0.316422 5.061004 -0.289349
v 0.591665 4.488928 0.578230
v 0.333406 5.113842 0.008443
v 0.591665 4.192278 0.578230
v 0.316422 5.061004 0.306234
v 0.598820 3.833344 0.328490
v 0.473285 4.177048 -0.661711
v 0.411544 4.490092 -0.675289
v 0.253041 4.571176 -0.702096
v 0.529887 4.003439 -0.609438
v 0.557984 4.302458 -0.589973
v 0.444810 4.638417 -0.604704
v 0.306669 4.776558 -0.604704
v 0.455967 3.879001 -0.560456
v 0.158228 3.981344 0.705558
v 0.166570 4.280564 0.741977
v 0.158494 4.694112 0.709575
v 0.371218 4.199054 0.724442
v 0.400844 4.450589 0.733425
v 0.306819 4.785148 0.634473
v 0.444960 4.647007 0.634473
v 0.471769 4.340603 0.676611
v 0.444695 4.004644 0.626030
v 0.306404 3.857913 0.613147
v 0.348375 3.578719 -0.144257
v 0.286904 3.543488 0.132493
v 0.139144 3.557339 0.288083
v 0.412322 3.672585 -0.366030
v 0.306404 3.651497 0.418721
v 0.490444 3.700891 0.306544
v 0.471354 3.606760 -0.000000
v 0.486241 3.658881 -0.284896
v 0.158344 5.087423 -0.297347
v 0.324914 5.087423 -0.140453
v 0.166835 5.139340 0.008443
v 0.324914 5.087423 0.157338
v 0.158344 5.062709 0.341416
v 0.306669 4.982975 -0.410279
v 0.444810 4.982975 -0.280162
v 0.471619 5.027712 0.008443
v 0.444810 4.982975 0.297047
v 0.306669 4.982975 0.427164
v 0.153467 4.990913 0.451429
v 0.421700 4.925728 0.405396
v 0.458215 5.005343 0.152745
v 0.458215 5.005343 -0.135860
v 0.421700 4.925727 -0.388511
v 0.153202 4.975788 -0.431347
v 0.162324 5.071469 0.166487
v 0.162590 5.113381 -0.144452
v 0.478798 3.632821 -0.142448
v 0.457950 3.629128 0.144302
v 0.429152 3.692894 0.376537
v 0.153202 3.642400 0.427277
v 0.474394 3.719288 -0.370608
v 0.153202 3.846440 0.619464
v 0.421435 3.881023 0.559225
v 0.458365 4.187401 0.655542
v 0.458365 4.493805 0.655542
v 0.421700 4.753448 0.567668
v 0.153467 4.802320 0.629067
v 0.162324 4.468266 0.715113
v 0.162324 4.126659 0.717326
v 0.153202 4.760408 -0.634216
v 0.421700 4.753448 -0.550782
v 0.501530 4.485215 -0.593117
v 0.543936 4.152948 -0.599706
v 0.496217 3.891567 -0.532879
v 0.659875 3.841552 0.145962
v 0.673330 3.844509 -0.144302
v 0.593714 3.881023 -0.396954
v 0.673330 4.149256 -0.431347
v 0.673595 4.485215 -0.422905
v 0.593979 4.753448 -0.388511
v 0.673595 4.789963 -0.135860
v 0.673595 4.789963 0.152745
v 0.593979 4.753448 0.405396
v 0.673595 4.485216 0.439790
v 0.659875 4.146300 0.433006
v 0.582419 3.880210 0.407573
v 0.783304 4.494338 -0.144452
v 0.783038 4.140134 -0.152895
v 0.783304 4.494338 0.161338
v 0.769584 4.137177 0.154554
v 0.461727 3.802855 0.533702
v 0.589492 3.738934 0.288550
v 0.543449 3.870503 0.510560
v 0.417427 3.716485 0.485041
v 0.633792 3.825305 0.337211
v 0.507770 3.671286 0.311692
v 0.436498 3.661987 0.393081
v 0.614721 3.879802 0.429171
v 0.866722 3.424086 0.892644
v 0.977800 3.375987 0.716761
v 0.929447 3.474990 0.880379
v 0.836532 3.359094 0.853394
v 1.007991 3.440979 0.756011
v 0.915076 3.325082 0.729026
v 0.856561 3.318085 0.785621
v 0.987962 3.481987 0.823784
v 0.899534 3.399834 0.881745
v 0.978410 3.365679 0.756850
v 0.944075 3.435982 0.873036
v 0.878095 3.353683 0.853873
v 0.999849 3.411830 0.784721
v 0.933870 3.329532 0.765559
v 0.892318 3.324563 0.805748
v 0.985627 3.440950 0.832847
v 0.910728 3.382427 0.890210
v 0.989605 3.348272 0.765315
v 0.955269 3.418575 0.881501
v 0.889290 3.336276 0.862338
v 1.011044 3.394423 0.793186
v 0.945064 3.312125 0.774024
v 0.903512 3.307156 0.814213
v 0.996821 3.423543 0.841312
v 0.911303 3.376885 0.943489
v 1.032499 3.324404 0.751583
v 0.979741 3.432426 0.930106
v 0.878362 3.305972 0.900663
v 1.065440 3.395317 0.794409
v 0.964061 3.268863 0.764965
v 0.900215 3.261228 0.826716
v 1.043587 3.440061 0.868356
v 0.982705 3.306172 1.020673
v 1.107718 3.252038 0.822725
v 1.053298 3.363462 1.006870
v 0.948727 3.233026 0.976499
v 1.141696 3.325184 0.866899
v 1.037125 3.194748 0.836528
v 0.971268 3.186872 0.900224
v 1.119155 3.371337 0.943174
v 1.129402 3.216333 0.992710
v 0.736528 3.604063 0.640566
v 0.749173 3.573898 0.590189
v 0.730249 3.558387 0.594710
v 0.713164 3.556255 0.612663
v 0.707926 3.568750 0.633530
v 0.753613 3.606195 0.622614
v 0.758851 3.593700 0.601747
v 0.717604 3.588553 0.645088
v 0.867053 3.595042 0.595915
v 0.672510 3.500967 0.711703
v 0.759766 3.461893 0.567108
v 0.708082 3.575634 0.756053
v 0.779796 3.634116 0.740510
v 0.831481 3.520375 0.551565
v 0.693918 3.453854 0.633440
v 0.845644 3.642155 0.674179
v 0.973608 3.542244 0.652537
v 0.714815 3.417878 0.803034
v 0.832131 3.366222 0.613008
v 0.761257 3.516587 0.862154
v 0.856292 3.593900 0.842563
v 0.927167 3.443534 0.593417
v 0.744173 3.355594 0.699835
v 0.944251 3.604528 0.755737
v 0.995193 3.500944 0.688309
v 0.754597 3.385604 0.826941
v 0.864115 3.337698 0.651121
v 0.797454 3.477149 0.881949
v 0.885675 3.548851 0.864129
v 0.952336 3.409399 0.633301
v 0.782209 3.327842 0.731329
v 0.967581 3.558707 0.783921
v 0.818620 3.619221 0.796790
v 0.883095 3.480282 0.566322
v 0.714459 3.399024 0.665377
v 0.899534 3.629041 0.716218
v 0.926240 3.571491 0.620755
v 0.687753 3.456575 0.760840
v 0.795373 3.408844 0.584805
v 0.730898 3.547784 0.815273
v 0.774482 3.677256 0.610901
v 0.649850 3.523940 0.582189
v 0.759377 3.578102 0.511558
v 0.722846 3.670711 0.666791
v 0.664954 3.623094 0.681532
v 0.701485 3.530486 0.526299
v 0.634718 3.562300 0.646488
v 0.789613 3.638896 0.546602
v 0.772080 3.756905 0.579845
v 0.574899 3.514902 0.536364
v 0.746762 3.600394 0.423237
v 0.691392 3.746573 0.668843
v 0.600217 3.671413 0.692971
v 0.655587 3.525234 0.447366
v 0.551964 3.575452 0.638097
v 0.795015 3.696355 0.478112
v 0.741394 3.819285 0.536094
v 0.511893 3.538048 0.486994
v 0.710824 3.637400 0.354253
v 0.648259 3.807279 0.640125
v 0.542463 3.719933 0.668835
v 0.605027 3.550055 0.382963
v 0.485978 3.608414 0.605406
v 0.767309 3.748919 0.417682
v 0.685976 3.862650 0.482927
v 0.463056 3.589851 0.436542
v 0.655328 3.686223 0.306679
v 0.596187 3.851004 0.584361
v 0.493703 3.766279 0.612790
v 0.552845 3.601497 0.335108
v 0.438559 3.658106 0.551561
v 0.710473 3.794395 0.367907
v 0.384552 4.106528 -0.653449
v 0.382177 3.913864 -0.636851
v 0.387690 3.831824 -0.450374
v 0.442831 4.046580 -0.543312
v 0.420339 4.276566 -0.597296
v 0.294482 4.596248 -0.587578
v 0.365781 3.687131 -0.254936
v 0.308821 3.629144 -0.005879
v 0.256475 3.648055 0.215879
v 0.429024 4.192162 -0.573436
v 0.376069 4.460662 -0.585081
v 0.147270 4.571459 -0.611689
v 0.414171 3.936523 -0.486588
v 0.337301 3.658138 -0.130407
v 0.301538 3.651804 0.121831
v 0.158669 3.666922 0.258553
v 0.376736 3.759478 -0.319827
v 0.352917 4.131676 -0.566349
v 0.350880 3.966426 -0.552113
v -0.074162 4.902867 -0.565531
v -0.076734 4.994883 0.463562
v -0.074162 3.715426 0.549555
v -0.081609 4.655357 -0.710778
v -0.079172 5.063561 0.359007
v -0.083418 5.152089 0.008443
v -0.079247 4.712788 0.710378
v -0.083285 4.269617 0.744759
v -0.079114 3.970276 0.702133
v -0.074295 4.926204 0.568116
v -0.079172 5.100633 -0.301347
v -0.069572 3.556609 0.303446
v -0.076601 4.986972 -0.437660
v -0.081162 5.078270 0.175282
v -0.081295 5.111583 -0.150673
v -0.076601 3.637851 0.431554
v -0.076601 3.840704 0.622623
v -0.076734 4.815201 0.632806
v -0.081162 4.472130 0.716906
v -0.081162 4.117799 0.720225
v -0.076601 4.767110 -0.644751
v -0.073635 4.581137 -0.623745
v -0.079334 3.663150 0.263060
v 0.074162 4.902867 -0.565531
v 0.076734 4.994883 0.463562
v 0.074162 3.715426 0.549555
v 0.088630 4.613785 -0.722172
v 0.079172 5.063561 0.359007
v 0.083418 5.152089 0.008443
v 0.079247 4.712788 0.710378
v 0.083285 4.269617 0.744759
v 0.079114 3.970276 0.702133
v 0.074295 4.926204 0.568116
v 0.079172 5.100633 -0.301347
v 0.069572 3.556609 0.303446
v 0.076601 4.986972 -0.437660
v 0.081162 5.078270 0.175282
v 0.081295 5.111583 -0.150673
v 0.076601 3.637851 0.431554
v 0.076601 3.840704 0.622623
v 0.076734 4.815201 0.632806
v 0.081162 4.472130 0.716906
v 0.081162 4.117799 0.720225
v 0.076601 4.767110 -0.644751
v 0.073635 4.581137 -0.623745
v 0.079334 3.663150 0.263060
vn -0.9590 -0.1834 0.2161
vn -0.9690 0.1694 0.1798
vn -0.9689 0.1693 0.1807
vn -0.9690 0.1686 0.1807
vn -0.9691 0.1686 0.1798
vn -0.9749 -0.1530 -0.1616
vn -0.9689 0.1669 -0.1825
vn -0.9689 0.1693 -0.1807
vn -0.9687 0.1702 -0.1807
vn -0.9687 0.1699 -0.1809
vn -0.8331 -0.3760 0.4055
vn -0.8260 -0.2391 0.5105
vn -0.8226 0.1650 0.5442
vn -0.8226 0.1650 0.5441
vn -0.7406 0.4724 0.4779
vn -0.8352 0.5204 0.1778
vn -0.8352 0.5204 -0.1778
vn -0.7545 0.4500 -0.4777
vn -0.8228 0.1636 -0.5443
vn -0.8226 0.1650 -0.5441
vn -0.8226 0.1649 -0.5441
vn -0.8228 0.1635 -0.5443
vn -0.8226 -0.1650 -0.5442
vn -0.8226 -0.1649 -0.5442
vn -0.7396 -0.4495 -0.5008
vn -0.8352 -0.5204 -0.1778
vn -0.8316 -0.4855 0.2698
vn -0.4495 0.7396 0.5008
vn -0.1298 0.8278 0.5458
vn -0.1298 0.8280 0.5454
vn -0.1293 0.8281 0.5454
vn -0.1292 0.8279 0.5458
vn -0.0786 -0.8339 0.5462
vn -0.0786 -0.8333 0.5471
vn -0.0786 -0.8333 0.5472
vn -0.4139 -0.8613 0.2946
vn -0.4104 -0.8638 0.2924
vn -0.4100 -0.8641 0.2921
vn -0.4502 -0.5457 -0.7068
vn -0.6417 0.0053 -0.7669
vn -0.5738 0.2435 -0.7820
vn -0.4405 0.4623 -0.7695
vn -0.1607 0.4996 -0.8512
vn -0.4547 -0.4936 0.7413
vn -0.4996 0.1608 0.8512
vn -0.4490 -0.4911 0.7465
vn -0.0717 -0.5036 0.8610
vn -0.0717 -0.5035 0.8610
vn -0.0717 -0.5019 0.8620
vn -0.0717 -0.5019 0.8619
vn -0.4957 0.4957 0.7131
vn -0.4933 0.4962 0.7145
vn -0.4910 0.4967 0.7157
vn -0.5376 -0.2102 0.8166
vn -0.4688 0.7297 0.4977
vn -0.3650 -0.9288 0.0646
vn -0.5204 -0.8352 0.1778
vn -0.4462 0.5412 0.7127
vn -0.0559 -0.5310 0.8455
vn -0.4959 -0.5002 0.7099
vn -0.4996 0.1607 0.8512
vn -0.1282 -0.8751 0.4666
vn -0.5660 -0.7701 0.2944
vn -0.1292 0.9079 0.3988
vn -0.1292 0.9080 0.3987
vn -0.1292 0.9079 0.3989
vn -0.1604 0.7566 -0.6339
vn -0.1604 0.7560 -0.6347
vn -0.4495 0.7396 -0.5008
vn -0.0781 0.9895 -0.1219
vn -0.5753 -0.7257 -0.3772
vn -0.5368 -0.6766 -0.5041
vn -0.5204 0.8352 0.1778
vn -0.0078 -0.1916 0.9814
vn 0.0484 0.0774 0.9958
vn -0.0727 0.9752 -0.2092
vn -0.4500 0.7545 -0.4777
vn -0.1649 0.8226 -0.5442
vn -0.0584 0.9961 0.0662
vn -0.5204 0.8352 -0.1778
vn -0.0854 0.5473 0.8326
vn -0.0788 0.5473 0.8332
vn -0.0792 0.5473 0.8332
vn -0.4398 0.4399 0.7830
vn -0.4995 0.1608 0.8512
vn -0.4995 0.1607 0.8512
vn -0.4996 -0.1607 0.8512
vn -0.5030 -0.5000 0.7050
vn -0.0765 -0.5371 0.8400
vn -0.1298 0.8274 0.5465
vn -0.1292 0.8274 0.5465
vn -0.4083 -0.9055 -0.1158
vn -0.1287 0.8279 0.5459
vn -0.1286 0.8275 0.5466
vn -0.5965 -0.7890 -0.1471
vn -0.4323 -0.7377 -0.5185
vn -0.4724 0.7406 0.4779
vn -0.5470 -0.1081 0.8301
vn -0.4907 0.4967 0.7159
vn -0.5730 -0.6969 -0.4314
vn -0.0716 -0.5009 0.8625
vn -0.1652 0.9705 -0.1754
vn -0.1650 0.9706 -0.1754
vn -0.1598 0.9714 -0.1753
vn -0.4688 0.7297 -0.4977
vn -0.0786 -0.8323 0.5488
vn -0.0786 -0.8318 0.5494
vn -0.4330 -0.7380 0.5175
vn -0.4141 -0.8612 0.2947
vn -0.3296 -0.9390 -0.0985
vn -0.5436 -0.8257 -0.1508
vn -0.1543 0.9724 -0.1753
vn 0.0294 0.9938 0.1068
vn -0.5232 -0.1987 0.8287
vn -0.1048 0.7949 -0.5976
vn -0.4724 0.7406 -0.4779
vn -0.4500 0.7545 0.4777
vn -0.1288 0.8282 0.5455
vn -0.0359 0.9549 0.2948
vn -0.0334 0.8372 -0.5458
vn -0.1025 -0.8364 0.5384
vn -0.0857 0.5473 0.8326
vn -0.1446 0.6019 0.7853
vn -0.1439 0.5975 0.7888
vn -0.1438 0.5973 0.7890
vn -0.1253 0.5016 0.8560
vn -0.1253 0.5013 0.8561
vn 0.1384 0.1416 0.9802
vn -0.0216 0.1390 0.9901
vn -0.0217 0.1364 0.9904
vn -0.0215 0.1392 0.9900
vn -0.0200 0.0272 0.9994
vn -0.0199 0.0263 0.9995
vn -0.0198 0.0261 0.9995
vn -0.0224 -0.1081 0.9939
vn -0.0094 -0.1016 0.9948
vn -0.0533 -0.1601 0.9857
vn -0.0533 -0.1600 0.9857
vn -0.0533 -0.1597 0.9857
vn -0.0816 0.4683 -0.8798
vn -0.0708 0.4515 -0.8894
vn -0.1115 0.5009 -0.8583
vn -0.4598 0.4598 -0.7598
vn -0.4623 0.4405 -0.7695
vn -0.4398 0.4399 -0.7830
vn -0.6341 0.1500 -0.7585
vn -0.3931 0.1381 -0.9091
vn -0.4785 0.1354 -0.8676
vn -0.5686 -0.0616 -0.8203
vn -0.7775 -0.1002 -0.6208
vn -0.5090 -0.0770 -0.8573
vn -0.6193 -0.4006 -0.6753
vn -0.6296 -0.4252 -0.6503
vn -0.6953 -0.4977 -0.5185
vn -0.8451 -0.4918 0.2097
vn -0.8198 -0.4952 0.2875
vn -0.8533 -0.4371 0.2842
vn -0.7545 -0.4500 -0.4777
vn -0.7406 -0.4724 -0.4779
vn -0.7297 -0.4688 -0.4977
vn -0.8226 -0.1650 -0.5441
vn -0.8226 -0.1649 -0.5441
vn -0.8230 0.1623 -0.5444
vn -0.8230 0.1622 -0.5444
vn -0.8230 0.1624 -0.5444
vn -0.8228 0.1637 -0.5443
vn -0.7396 0.4495 -0.5008
vn -0.7297 0.4688 -0.4977
vn -0.7406 0.4724 -0.4779
vn -0.7297 0.4688 0.4977
vn -0.7408 0.4874 0.4622
vn -0.7545 0.4500 0.4777
vn -0.8503 0.1643 0.5000
vn -0.8508 0.1643 0.4991
vn -0.8514 0.1642 0.4982
vn -0.8548 -0.2600 0.4491
vn -0.8728 -0.2032 0.4439
vn -0.8497 -0.1923 0.4909
vn -0.7617 -0.4414 0.4744
vn -0.9693 0.1684 -0.1792
vn -0.9687 0.1600 -0.1897
vn -0.9693 0.1686 -0.1790
vn -0.9691 0.1686 -0.1798
vn -0.9690 0.1686 -0.1807
vn -0.9689 -0.1693 -0.1807
vn -0.9689 -0.1694 -0.1807
vn -0.9687 -0.1702 -0.1807
vn -0.9690 -0.1686 -0.1807
vn -0.9742 -0.1371 -0.1795
vn -0.9692 0.1694 0.1790
vn -0.9693 0.1686 0.1790
vn -0.9690 0.1702 0.1790
vn -0.9689 0.1702 0.1798
vn -0.9687 0.1702 0.1807
vn -0.9359 -0.1992 0.2905
vn -0.9194 -0.2697 0.2864
vn -0.9459 -0.2444 0.2134
vn 0.8986 0.2632 0.3510
vn 0.0911 -0.2221 -0.9708
vn 0.6336 -0.4768 -0.6093
vn -0.3011 0.3461 -0.8885
vn -0.3038 0.8459 -0.4383
vn 0.9656 -0.2556 -0.0488
vn 0.0401 0.9961 0.0787
vn 0.5189 0.7604 0.3905
vn -0.9483 0.3034 0.0931
vn 0.3940 -0.8329 0.3886
vn -0.5073 -0.7350 -0.4499
vn -0.9098 -0.2084 -0.3590
vn -0.5776 0.4895 0.6532
vn 0.0231 -0.9891 -0.1455
vn 0.3877 -0.3360 0.8584
vn -0.0152 0.2206 0.9752
vn -0.6827 0.1203 0.7207
vn -0.1564 -0.9869 0.0397
vn 0.0738 -0.4902 0.8685
vn -0.2571 -0.0848 0.9627
vn -0.9601 0.0071 0.2795
vn 0.1182 -0.8647 0.4883
vn -0.5912 -0.7789 -0.2093
vn -0.9249 -0.3645 -0.1078
vn 0.8529 -0.5185 0.0617
vn -0.1205 -0.3704 -0.9210
vn -0.6977 0.1040 -0.7088
vn -0.5070 0.6182 0.6006
vn 0.5070 -0.6182 -0.6007
vn 0.6977 -0.1040 0.7088
vn 0.1205 0.3704 0.9210
vn -0.8529 0.5185 -0.0617
vn 0.0024 0.8553 -0.5182
vn 0.9601 -0.0071 -0.2794
vn 0.2592 0.0876 -0.9618
vn -0.0109 0.5132 -0.8582
vn 0.2542 0.9563 -0.1446
vn 0.6785 -0.1472 -0.7197
vn 0.9172 0.3952 0.0510
vn 0.6173 0.7818 0.0880
vn 0.3581 -0.8068 -0.4700
vn 0.7538 -0.0457 0.6555
vn 0.2957 0.5522 0.7795
vn -0.7487 0.6415 -0.1669
vn 0.7807 -0.6095 0.1381
vn -0.2649 -0.5218 -0.8109
vn -0.7236 0.0780 -0.6858
vn -0.3255 0.8369 0.4400
vn -0.9292 -0.3195 -0.1856
vn -0.6527 0.2694 0.7081
vn -0.1590 -0.9864 0.0424
vn 0.1219 -0.4710 0.8737
vn -0.1892 0.0034 0.9819
vn -0.9695 0.1304 0.2076
vn 0.1236 -0.8648 0.4868
vn -0.5837 -0.7765 -0.2375
vn -0.4279 -0.2563 0.8667
vn -0.1912 -0.5606 0.8057
vn -0.3543 -0.9081 0.2230
vn -0.7340 -0.1089 0.6703
vn -0.8713 -0.4827 0.0886
vn -0.6407 -0.7666 0.0427
vn -0.1667 -0.8285 0.5346
vn -0.9155 -0.2089 0.3437
vn 0.6270 0.7781 0.0371
vn 0.8961 0.4433 -0.0238
vn 0.7120 -0.0127 -0.7021
vn 0.2805 0.9461 -0.1618
vn 0.0534 0.5274 -0.8479
vn 0.3357 0.1596 -0.9283
vn 0.9399 0.1148 -0.3217
vn 0.0393 0.8516 -0.5227
vn 0.3804 0.6386 0.6689
vn 0.8218 0.0483 0.5677
vn 0.4384 -0.7252 -0.5309
vn -0.2151 0.9194 0.3293
vn -0.6168 0.1687 -0.7688
vn -0.1730 -0.4383 -0.8820
vn 0.8511 -0.5199 0.0734
vn -0.6301 0.7306 -0.2629
vn 0.1098 0.3670 0.9237
vn 0.6106 -0.1765 0.7720
vn 0.2936 -0.8660 -0.4048
vn -0.5099 0.6214 0.5948
vn -0.8260 -0.0510 -0.5613
vn -0.3374 -0.5976 -0.7273
vn 0.6891 -0.6906 0.2196
vn -0.8933 0.4493 -0.0153
vn -0.4718 0.8069 -0.3554
vn 0.9300 -0.3658 -0.0372
vn -0.0382 -0.2967 -0.9542
vn -0.4622 0.2815 -0.8409
vn -0.0821 0.9762 0.2007
vn 0.5468 -0.5677 -0.6153
vn 0.8893 0.1689 0.4250
vn 0.4720 0.7145 0.5164
vn -0.9811 0.0990 0.1660
vn 0.1846 -0.8624 0.4714
vn -0.5667 -0.7759 -0.2773
vn -0.9171 -0.3368 -0.2134
vn -0.6937 0.2752 0.6656
vn -0.1218 -0.9925 -0.0043
vn 0.1606 -0.4294 0.8887
vn -0.2088 0.0556 0.9764
vn 0.0685 0.3826 0.9214
vn 0.5190 -0.2104 0.8285
vn 0.1540 -0.9561 -0.2493
vn -0.5305 0.6432 0.5521
vn -0.8483 -0.1365 -0.5116
vn -0.4139 -0.6934 -0.5898
vn 0.5468 -0.7673 0.3350
vn -0.9072 0.4180 -0.0473
vn -0.7246 0.6498 -0.2294
vn 0.7969 -0.5792 0.1718
vn -0.2208 -0.5375 -0.8139
vn -0.6840 0.0647 -0.7266
vn -0.3166 0.8683 0.3818
vn 0.3930 -0.8060 -0.4427
vn 0.7500 0.0058 0.6614
vn 0.2909 0.5997 0.7455
vn 0.4546 0.7248 0.5177
vn 0.8737 0.1948 0.4457
vn 0.5842 -0.5680 -0.5797
vn -0.0911 0.9771 0.1922
vn -0.4448 0.2572 -0.8579
vn -0.0003 -0.3209 -0.9471
vn 0.9403 -0.3403 0.0039
vn -0.4727 0.7980 -0.3738
vn 0.4731 -0.0860 -0.8768
vn -0.3837 -0.9196 -0.0847
vn 0.1166 0.2590 0.9588
vn 0.2433 0.1744 0.9541
vn 0.9202 -0.1328 -0.3681
vn 0.9732 -0.0600 -0.2221
vn 1.0000 -0.0000 -0.0000
vn 0.9416 -0.1491 -0.3020
vn -0.7259 -0.6859 -0.0518
vn 0.9109 0.2890 -0.2945
vn -0.5896 -0.6933 0.4143
vn 0.9378 -0.2643 -0.2252
vn 0.9494 0.0850 -0.3024
vn 0.8565 0.0386 -0.5147
vn 0.8479 0.2493 -0.4678
vn -0.5019 -0.6397 0.5822
vn 0.8766 -0.0195 -0.4808
vn -0.8922 0.1711 0.4180
vn 0.9591 -0.1115 -0.2601
vn 0.8776 0.1156 -0.4653
vn 0.9825 0.1814 -0.0433
vn -0.9099 0.2957 0.2910
vn 0.1179 -0.2912 -0.9494
vn 0.7609 -0.4662 -0.4513
vn -0.0852 -0.2210 -0.9715
vn -0.2433 -0.1744 -0.9542
vn 0.9590 -0.1834 0.2161
vn 0.9690 0.1694 0.1798
vn 0.9691 0.1686 0.1798
vn 0.9690 0.1686 0.1807
vn 0.9689 0.1693 0.1807
vn 0.9749 -0.1530 -0.1616
vn 0.9689 0.1669 -0.1825
vn 0.9687 0.1699 -0.1809
vn 0.9687 0.1702 -0.1807
vn 0.9689 0.1693 -0.1807
vn 0.8331 -0.3760 0.4055
vn 0.8260 -0.2391 0.5105
vn 0.8226 0.1650 0.5442
vn 0.8226 0.1650 0.5441
vn 0.7406 0.4724 0.4779
vn 0.8352 0.5204 0.1778
vn 0.8352 0.5204 -0.1778
vn 0.7545 0.4500 -0.4777
vn 0.8228 0.1636 -0.5443
vn 0.8228 0.1635 -0.5443
vn 0.8226 0.1649 -0.5441
vn 0.8226 0.1650 -0.5441
vn 0.8226 -0.1650 -0.5442
vn 0.8226 -0.1649 -0.5442
vn 0.7396 -0.4495 -0.5008
vn 0.8352 -0.5204 -0.1778
vn 0.8316 -0.4855 0.2698
vn 0.4495 0.7396 0.5008
vn 0.1298 0.8278 0.5458
vn 0.1292 0.8279 0.5458
vn 0.1293 0.8281 0.5454
vn 0.1298 0.8281 0.5454
vn 0.0786 -0.8339 0.5462
vn 0.0786 -0.8333 0.5472
vn 0.0786 -0.8333 0.5471
vn 0.4139 -0.8614 0.2945
vn 0.4100 -0.8641 0.2921
vn 0.4104 -0.8637 0.2924
vn 0.4502 -0.5457 -0.7068
vn 0.6417 0.0053 -0.7669
vn 0.5738 0.2435 -0.7820
vn 0.4405 0.4623 -0.7695
vn 0.1607 0.4996 -0.8512
vn 0.4547 -0.4936 0.7413
vn 0.6299 0.0050 0.7767
vn 0.4490 -0.4911 0.7465
vn 0.0717 -0.5036 0.8610
vn 0.0717 -0.5019 0.8619
vn 0.0717 -0.5019 0.8620
vn 0.0717 -0.5035 0.8610
vn 0.4957 0.4957 0.7131
vn 0.4909 0.4967 0.7158
vn 0.4933 0.4962 0.7145
vn 0.5376 -0.2102 0.8166
vn 0.4688 0.7297 0.4977
vn 0.3650 -0.9288 0.0646
vn 0.5204 -0.8352 0.1778
vn 0.4462 0.5412 0.7127
vn 0.0559 -0.5310 0.8455
vn 0.4959 -0.5002 0.7099
vn 0.4996 0.1607 0.8512
vn 0.1282 -0.8751 0.4666
vn 0.5660 -0.7701 0.2944
vn 0.1292 0.9079 0.3988
vn 0.1292 0.9078 0.3989
vn 0.1292 0.9080 0.3987
vn 0.1604 0.7566 -0.6339
vn 0.1604 0.7560 -0.6347
vn 0.4495 0.7396 -0.5008
vn 0.0781 0.9895 -0.1219
vn 0.5753 -0.7257 -0.3772
vn 0.5368 -0.6766 -0.5041
vn 0.5204 0.8352 0.1778
vn 0.0078 -0.1916 0.9814
vn -0.0330 0.0648 0.9974
vn 0.0727 0.9752 -0.2092
vn 0.4500 0.7545 -0.4777
vn 0.1649 0.8226 -0.5442
vn 0.0584 0.9961 0.0662
vn 0.5204 0.8352 -0.1778
vn 0.0854 0.5473 0.8326
vn 0.0792 0.5473 0.8332
vn 0.0788 0.5473 0.8332
vn 0.4398 0.4399 0.7830
vn 0.4995 0.1607 0.8512
vn 0.4996 -0.1607 0.8512
vn 0.5030 -0.5000 0.7050
vn 0.0765 -0.5371 0.8400
vn 0.1298 0.8274 0.5465
vn 0.1292 0.8274 0.5465
vn 0.4083 -0.9055 -0.1158
vn 0.1286 0.8275 0.5466
vn 0.1287 0.8279 0.5459
vn 0.5965 -0.7890 -0.1471
vn 0.4323 -0.7378 -0.5185
vn 0.4724 0.7406 0.4779
vn 0.5470 -0.1081 0.8301
vn 0.4907 0.4967 0.7159
vn 0.5730 -0.6969 -0.4314
vn 0.0716 -0.5009 0.8625
vn 0.1652 0.9705 -0.1754
vn 0.1598 0.9714 -0.1753
vn 0.1650 0.9706 -0.1754
vn 0.4688 0.7297 -0.4977
vn 0.0786 -0.8323 0.5488
vn 0.0786 -0.8318 0.5494
vn 0.4330 -0.7380 0.5175
vn 0.4141 -0.8612 0.2947
vn 0.3296 -0.9390 -0.0985
vn 0.5436 -0.8257 -0.1508
vn 0.1543 0.9724 -0.1753
vn -0.0294 0.9938 0.1068
vn 0.5817 0.2580 0.7714
vn 0.5232 -0.1987 0.8287
vn 0.1048 0.7949 -0.5976
vn 0.4724 0.7406 -0.4779
vn 0.4500 0.7545 0.4777
vn 0.1288 0.8282 0.5454
vn 0.0359 0.9549 0.2948
vn 0.0334 0.8372 -0.5458
vn 0.1025 -0.8364 0.5384
vn 0.0857 0.5473 0.8326
vn 0.1446 0.6019 0.7853
vn 0.1438 0.5973 0.7890
vn 0.1439 0.5975 0.7888
vn 0.1253 0.5016 0.8560
vn 0.1253 0.5013 0.8561
vn -0.1019 0.1895 0.9766
vn 0.0216 0.1390 0.9901
vn 0.0215 0.1392 0.9900
vn 0.0217 0.1364 0.9904
vn 0.0200 0.0272 0.9994
vn 0.0198 0.0261 0.9995
vn 0.0199 0.0263 0.9995
vn 0.0224 -0.1081 0.9939
vn 0.0094 -0.1016 0.9948
vn 0.0533 -0.1601 0.9857
vn 0.0533 -0.1597 0.9857
vn 0.0533 -0.1600 0.9857
vn 0.0953 0.4284 -0.8986
vn 0.0435 0.4188 -0.9071
vn 0.1115 0.5009 -0.8583
vn 0.4598 0.4598 -0.7598
vn 0.4623 0.4405 -0.7695
vn 0.4398 0.4399 -0.7830
vn 0.6341 0.1500 -0.7585
vn 0.3931 0.1381 -0.9091
vn 0.4785 0.1354 -0.8676
vn 0.5686 -0.0616 -0.8203
vn 0.7775 -0.1002 -0.6208
vn 0.5090 -0.0770 -0.8573
vn 0.6193 -0.4006 -0.6753
vn 0.6296 -0.4252 -0.6503
vn 0.6953 -0.4977 -0.5185
vn 0.8451 -0.4918 0.2097
vn 0.8198 -0.4952 0.2875
vn 0.8533 -0.4371 0.2842
vn 0.7545 -0.4500 -0.4777
vn 0.7406 -0.4724 -0.4779
vn 0.7297 -0.4688 -0.4977
vn 0.8226 -0.1650 -0.5441
vn 0.8226 -0.1649 -0.5441
vn 0.8230 0.1623 -0.5444
vn 0.8230 0.1622 -0.5444
vn 0.8230 0.1624 -0.5444
vn 0.8228 0.1637 -0.5443
vn 0.7396 0.4495 -0.5008
vn 0.7297 0.4688 -0.4977
vn 0.7406 0.4724 -0.4779
vn 0.7297 0.4688 0.4977
vn 0.7408 0.4874 0.4622
vn 0.7545 0.4500 0.4777
vn 0.8503 0.1643 0.5000
vn 0.8508 0.1643 0.4991
vn 0.8514 0.1642 0.4982
vn 0.8548 -0.2600 0.4491
vn 0.8728 -0.2032 0.4439
vn 0.8497 -0.1923 0.4909
vn 0.7617 -0.4414 0.4744
vn 0.9693 0.1684 -0.1792
vn 0.9687 0.1600 -0.1897
vn 0.9693 0.1686 -0.1790
vn 0.9691 0.1686 -0.1798
vn 0.9690 0.1686 -0.1807
vn 0.9689 -0.1693 -0.1807
vn 0.9687 -0.1702 -0.1807
vn 0.9689 -0.1694 -0.1807
vn 0.9690 -0.1686 -0.1807
vn 0.9742 -0.1371 -0.1795
vn 0.9692 0.1694 0.1790
vn 0.9693 0.1686 0.1790
vn 0.9690 0.1702 0.1790
vn 0.9689 0.1702 0.1798
vn 0.9687 0.1702 0.1807
vn 0.9359 -0.1992 0.2905
vn 0.9194 -0.2697 0.2864
vn 0.9459 -0.2444 0.2134
vn -0.8986 0.2632 0.3510
vn -0.0911 -0.2221 -0.9708
vn -0.6336 -0.4768 -0.6093
vn 0.3011 0.3461 -0.8885
vn 0.3038 0.8459 -0.4383
vn -0.9656 -0.2556 -0.0488
vn -0.0401 0.9961 0.0787
vn -0.5189 0.7604 0.3905
vn 0.9483 0.3034 0.0931
vn -0.3940 -0.8329 0.3886
vn 0.5073 -0.7350 -0.4499
vn 0.9098 -0.2084 -0.3590
vn 0.5776 0.4895 0.6532
vn -0.0231 -0.9891 -0.1455
vn -0.3877 -0.3360 0.8584
vn 0.0152 0.2206 0.9752
vn 0.6827 0.1203 0.7207
vn 0.1564 -0.9869 0.0397
vn -0.0738 -0.4902 0.8685
vn 0.2571 -0.0848 0.9627
vn 0.9601 0.0071 0.2795
vn -0.1182 -0.8647 0.4883
vn 0.5912 -0.7789 -0.2093
vn 0.9249 -0.3645 -0.1078
vn -0.8529 -0.5185 0.0617
vn 0.1205 -0.3704 -0.9210
vn 0.6977 0.1040 -0.7088
vn 0.5070 0.6182 0.6006
vn -0.5070 -0.6182 -0.6007
vn -0.6977 -0.1040 0.7088
vn -0.1205 0.3704 0.9210
vn 0.8529 0.5185 -0.0617
vn -0.0024 0.8553 -0.5182
vn -0.9601 -0.0071 -0.2794
vn -0.2592 0.0876 -0.9618
vn 0.0109 0.5132 -0.8582
vn -0.2542 0.9563 -0.1446
vn -0.6785 -0.1472 -0.7197
vn -0.9172 0.3952 0.0510
vn -0.6173 0.7818 0.0880
vn -0.3581 -0.8068 -0.4700
vn -0.7538 -0.0457 0.6555
vn -0.2957 0.5522 0.7795
vn 0.7487 0.6415 -0.1669
vn -0.7807 -0.6095 0.1381
vn 0.2649 -0.5218 -0.8109
vn 0.7236 0.0780 -0.6858
vn 0.3255 0.8369 0.4400
vn 0.9292 -0.3195 -0.1856
vn 0.6527 0.2694 0.7081
vn 0.1590 -0.9864 0.0424
vn -0.1219 -0.4710 0.8737
vn 0.1892 0.0034 0.9819
vn 0.9695 0.1304 0.2076
vn -0.1236 -0.8648 0.4868
vn 0.5837 -0.7765 -0.2375
vn 0.4279 -0.2563 0.8667
vn 0.1912 -0.5606 0.8057
vn 0.3543 -0.9081 0.2230
vn 0.7340 -0.1089 0.6703
vn 0.8713 -0.4827 0.0886
vn 0.6407 -0.7666 0.0427
vn 0.1667 -0.8285 0.5346
vn 0.9155 -0.2089 0.3437
vn -0.6270 0.7781 0.0371
vn -0.8961 0.4433 -0.0238
vn -0.7120 -0.0127 -0.7021
vn -0.2805 0.9461 -0.1618
vn -0.0534 0.5274 -0.8479
vn -0.3357 0.1596 -0.9283
vn -0.9399 0.1148 -0.3217
vn -0.0393 0.8516 -0.5227
vn -0.3804 0.6386 0.6689
vn -0.8218 0.0483 0.5677
vn -0.4384 -0.7252 -0.5309
vn 0.2151 0.9194 0.3293
vn 0.6168 0.1687 -0.7688
vn 0.1730 -0.4383 -0.8820
vn -0.8511 -0.5199 0.0734
vn 0.6301 0.7306 -0.2629
vn -0.1098 0.3670 0.9237
vn -0.6106 -0.1765 0.7720
vn -0.2936 -0.8660 -0.4048
vn 0.5099 0.6214 0.5948
vn 0.8260 -0.0510 -0.5613
vn 0.3374 -0.5976 -0.7273
vn -0.6891 -0.6906 0.2196
vn 0.8933 0.4493 -0.0153
vn 0.4718 0.8069 -0.3554
vn -0.9300 -0.3658 -0.0372
vn 0.0382 -0.2967 -0.9542
vn 0.4622 0.2815 -0.8409
vn 0.0821 0.9762 0.2007
vn -0.5468 -0.5677 -0.6153
vn -0.8893 0.1689 0.4250
vn -0.4720 0.7145 0.5164
vn 0.9811 0.0990 0.1660
vn -0.1846 -0.8624 0.4714
vn 0.5667 -0.7759 -0.2773
vn 0.9171 -0.3368 -0.2134
vn 0.6937 0.2752 0.6656
vn 0.1218 -0.9925 -0.0043
vn -0.1606 -0.4294 0.8887
vn 0.2088 0.0556 0.9764
vn -0.0685 0.3826 0.9214
vn -0.5190 -0.2104 0.8285
vn -0.1540 -0.9561 -0.2493
vn 0.5305 0.6432 0.5521
vn 0.8483 -0.1365 -0.5116
vn 0.4139 -0.6934 -0.5898
vn -0.5468 -0.7673 0.3350
vn 0.9072 0.4180 -0.0473
vn 0.7246 0.6498 -0.2294
vn -0.7969 -0.5792 0.1718
vn 0.2208 -0.5375 -0.8139
vn 0.6840 0.0647 -0.7266
vn 0.3166 0.8683 0.3818
vn -0.3930 -0.8060 -0.4427
vn -0.7500 0.0058 0.6614
vn -0.2909 0.5997 0.7455
vn -0.4546 0.7248 0.5177
vn -0.8737 0.1948 0.4457
vn -0.5842 -0.5680 -0.5797
vn 0.0911 0.9771 0.1922
vn 0.4448 0.2572 -0.8579
vn 0.0003 -0.3209 -0.9471
vn -0.9403 -0.3403 0.0039
vn 0.4727 0.7980 -0.3738
vn -0.4731 -0.0860 -0.8768
vn 0.4267 -0.9033 0.0434
vn -0.1166 0.2590 0.9588
vn -0.2433 0.1744 0.9541
vn -0.9202 -0.1328 -0.3681
vn -0.9416 -0.1491 -0.3020
vn 0.2679 -0.9514 -0.1521
vn -0.9109 0.2890 -0.2945
vn 0.5896 -0.6933 0.4143
vn -0.9378 -0.2643 -0.2252
vn -0.9494 0.0850 -0.3024
vn -0.8565 0.0386 -0.5147
vn -0.8479 0.2493 -0.4678
vn 0.5019 -0.6397 0.5822
vn -0.8766 -0.0195 -0.4808
vn 0.8922 0.1711 0.4180
vn -0.9591 -0.1115 -0.2601
vn -0.8776 0.1156 -0.4653
vn -0.9825 0.1814 -0.0433
vn 0.9099 0.2957 0.2910
vn -0.1179 -0.2912 -0.9494
vn -0.7609 -0.4662 -0.4513
vn 0.0852 -0.2210 -0.9715
vn 0.2433 -0.1744 -0.9542
vn 0.1099 -0.3931 -0.9129
vn 0.3549 -0.8162 -0.4559
vn -0.2263 0.4683 -0.8541
vn -0.0534 -0.1604 0.9856
vn -0.0144 -0.1416 0.9898
vn -0.0202 0.0284 0.9994
vn -0.0218 0.1339 0.9908
vn -0.1254 0.5019 0.8558
vn -0.1447 0.6022 0.7851
vn -0.1005 -0.8483 0.5199
vn -0.1292 0.8272 0.5468
vn -0.1286 0.8273 0.5469
vn -0.1298 0.8271 0.5468
vn -0.0629 0.9936 0.0937
vn -0.0742 0.9565 -0.2822
vn -0.0724 0.9971 -0.0235
vn -0.1605 0.7572 -0.6331
vn -0.1292 0.9045 0.4065
vn -0.0541 -0.5145 0.8558
vn -0.0718 -0.5042 0.8606
vn -0.1099 -0.3931 -0.9129
vn -0.1713 -0.9470 -0.2719
vn 0.2008 0.4374 -0.8766
vn 0.0534 -0.1604 0.9856
vn 0.0144 -0.1416 0.9898
vn 0.0202 0.0284 0.9994
vn 0.0218 0.1339 0.9908
vn 0.1254 0.5019 0.8558
vn 0.1447 0.6022 0.7851
vn 0.1005 -0.8483 0.5199
vn 0.1292 0.8272 0.5468
vn 0.1286 0.8273 0.5469
vn 0.1298 0.8271 0.5468
vn 0.0629 0.9936 0.0937
vn 0.0742 0.9565 -0.2822
vn 0.0724 0.9971 -0.0235
vn 0.1605 0.7572 -0.6331
vn 0.1292 0.9045 0.4065
vn 0.0541 -0.5145 0.8558
vn 0.0718 -0.5042 0.8606
vt 0.318261 0.335948
vt 0.310880 0.293942
vt 0.344493 0.287718
vt 0.353469 0.328954
vt 0.303922 0.259746
vt 0.296162 0.225688
vt 0.327456 0.218315
vt 0.336886 0.252737
vt 0.387574 0.322371
vt 0.378500 0.280172
vt 0.415568 0.277747
vt 0.422000 0.314242
vt 0.369707 0.244877
vt 0.358946 0.210255
vt 0.390596 0.202310
vt 0.403043 0.236144
vt 0.260159 0.404061
vt 0.256850 0.378700
vt 0.286132 0.378056
vt 0.280218 0.412731
vt 0.251917 0.344308
vt 0.244557 0.304210
vt 0.277350 0.299188
vt 0.283213 0.341316
vt 0.239242 0.271074
vt 0.234588 0.237906
vt 0.265113 0.233555
vt 0.271026 0.266379
vt 0.229576 0.210260
vt 0.225228 0.182236
vt 0.247262 0.172570
vt 0.255870 0.203215
vt 0.286515 0.193929
vt 0.276475 0.161866
vt 0.306241 0.152896
vt 0.317413 0.185417
vt 0.348513 0.177720
vt 0.336580 0.145279
vt 0.367419 0.139169
vt 0.380263 0.170302
vt 0.406714 0.162304
vt 0.391477 0.135326
vt 0.415810 0.132026
vt 0.433727 0.153513
vt 0.434865 0.224784
vt 0.420106 0.190269
vt 0.449749 0.177038
vt 0.466796 0.211864
vt 0.455326 0.306843
vt 0.449032 0.268433
vt 0.482170 0.257411
vt 0.489488 0.297537
vt 0.457894 0.380190
vt 0.457717 0.346775
vt 0.490816 0.339691
vt 0.487727 0.371908
vt 0.393987 0.395082
vt 0.391266 0.359581
vt 0.424730 0.351712
vt 0.428664 0.387182
vt 0.324397 0.404951
vt 0.322195 0.372690
vt 0.357434 0.364906
vt 0.359772 0.400532
vt 0.186704 0.139484
vt 0.206167 0.161137
vt 0.182893 0.179621
vt 0.161881 0.166075
vt 0.185000 0.094554
vt 0.214251 0.116598
vt 0.157826 0.119447
vt 0.236035 0.480278
vt 0.210240 0.504983
vt 0.180831 0.480908
vt 0.206145 0.459520
vt 0.280384 0.450945
vt 0.273772 0.523275
vt 0.258497 0.457698
vt 0.498375 0.376962
vt 0.509827 0.337604
vt 0.520444 0.337436
vt 0.508882 0.382397
vt 0.504385 0.294634
vt 0.493973 0.253203
vt 0.529940 0.247337
vt 0.525566 0.281523
vt 0.486509 0.197528
vt 0.473863 0.150676
vt 0.494254 0.115594
vt 0.510876 0.180858
vt 0.448442 0.127442
vt 0.421171 0.107608
vt 0.424948 0.082404
vt 0.459231 0.098542
vt 0.476286 0.045854
vt 0.439045 0.033254
vt 0.442612 0.015955
vt 0.479797 0.027968
vt 0.184242 0.430502
vt 0.163070 0.396488
vt 0.194487 0.386771
vt 0.209910 0.416524
vt 0.139957 0.314495
vt 0.136918 0.275740
vt 0.170886 0.275040
vt 0.174673 0.310853
vt 0.237775 0.448203
vt 0.239562 0.410423
vt 0.230393 0.428437
vt 0.168047 0.492212
vt 0.141901 0.461495
vt 0.155943 0.450739
vt 0.138206 0.235826
vt 0.147195 0.200244
vt 0.176213 0.209432
vt 0.170228 0.238743
vt 0.156310 0.346866
vt 0.181770 0.345705
vt 0.230647 0.144807
vt 0.358085 0.473736
vt 0.354397 0.517632
vt 0.310451 0.517057
vt 0.318703 0.472855
vt 0.360141 0.436538
vt 0.325862 0.437781
vt 0.203152 0.217916
vt 0.201877 0.242114
vt 0.117967 0.425322
vt 0.132530 0.414285
vt 0.204571 0.274520
vt 0.209146 0.306616
vt 0.242113 0.533071
vt 0.288794 0.431755
vt 0.263858 0.031871
vt 0.269995 0.050403
vt 0.226408 0.068692
vt 0.215381 0.053445
vt 0.399957 0.024983
vt 0.398362 0.042901
vt 0.352620 0.037470
vt 0.352020 0.019002
vt 0.391231 0.106312
vt 0.390264 0.076623
vt 0.311202 0.041230
vt 0.309900 0.022477
vt 0.490600 0.410804
vt 0.499247 0.418757
vt 0.461919 0.453042
vt 0.458884 0.433465
vt 0.455543 0.414152
vt 0.434111 0.449771
vt 0.429368 0.423453
vt 0.294535 0.119629
vt 0.262136 0.130880
vt 0.282413 0.086578
vt 0.247447 0.099180
vt 0.116832 0.377238
vt 0.105709 0.335672
vt 0.099156 0.282343
vt 0.105616 0.218926
vt 0.436413 0.050611
vt 0.169825 0.083397
vt 0.318395 0.077893
vt 0.327761 0.111945
vt 0.117217 0.182696
vt 0.133992 0.148199
vt 0.203642 0.192992
vt 0.214776 0.338712
vt 0.227798 0.378338
vt 0.361701 0.106567
vt 0.142975 0.109429
vt 0.438932 0.476608
vt 0.397303 0.498660
vt 0.396662 0.464331
vt 0.119620 0.138930
vt 0.394674 0.431815
vt 0.481755 0.403037
vt 0.354826 0.073588
vt 0.196912 0.517082
vt 0.184042 0.529774
vt 0.155497 0.504116
vt 0.225593 0.542933
vt 0.211123 0.552831
vt 0.088941 0.209931
vt 0.101921 0.173408
vt 0.087433 0.341967
vt 0.080445 0.281150
vt 0.099965 0.385593
vt 0.506445 0.053390
vt 0.529940 0.050434
vt 0.473147 0.064270
vt 0.517839 0.090492
vt 0.172030 0.553417
vt 0.225865 0.600747
vt 0.218760 0.605119
vt 0.170971 0.561558
vt 0.063884 0.671187
vt 0.061342 0.608828
vt 0.068333 0.611096
vt 0.071457 0.669358
vt 0.103912 0.559035
vt 0.108709 0.565289
vt 0.107705 0.717662
vt 0.112469 0.711057
vt 0.174895 0.720475
vt 0.173245 0.712284
vt 0.225865 0.672862
vt 0.217896 0.669352
vt 0.744430 0.825900
vt 0.786683 0.824441
vt 0.789755 0.841208
vt 0.735573 0.839376
vt 0.784803 0.724603
vt 0.743596 0.724436
vt 0.733813 0.710917
vt 0.788158 0.707613
vt 0.815161 0.793754
vt 0.813057 0.753213
vt 0.830943 0.745567
vt 0.829972 0.803315
vt 0.713582 0.796009
vt 0.700228 0.801736
vt 0.714010 0.753533
vt 0.698266 0.750640
vt 0.733604 0.847236
vt 0.692258 0.805158
vt 0.792074 0.700705
vt 0.837595 0.742784
vt 0.691156 0.746668
vt 0.731643 0.703139
vt 0.793878 0.848064
vt 0.837595 0.805224
vt 0.250040 0.748794
vt 0.259320 0.758530
vt 0.255853 0.762705
vt 0.244751 0.749822
vt 0.260173 0.725991
vt 0.250360 0.735244
vt 0.245486 0.733500
vt 0.257024 0.721594
vt 0.273562 0.726408
vt 0.274389 0.721062
vt 0.282253 0.749477
vt 0.282731 0.736127
vt 0.287357 0.733413
vt 0.287357 0.751959
vt 0.272706 0.758802
vt 0.273384 0.764158
vt 0.502668 0.635186
vt 0.467018 0.667029
vt 0.465437 0.656414
vt 0.491777 0.630473
vt 0.391560 0.589814
vt 0.420647 0.556442
vt 0.426915 0.564323
vt 0.399905 0.592633
vt 0.421549 0.664373
vt 0.392295 0.632101
vt 0.402033 0.630470
vt 0.427964 0.656239
vt 0.502668 0.585919
vt 0.493681 0.591875
vt 0.467017 0.553417
vt 0.465605 0.563904
vt 0.422383 0.598241
vt 0.421287 0.620736
vt 0.458849 0.585441
vt 0.438481 0.584087
vt 0.470880 0.600279
vt 0.459337 0.634381
vt 0.472603 0.619102
vt 0.438141 0.635819
vt 0.448105 0.610960
vt 0.161326 0.630220
vt 0.162470 0.642966
vt 0.151164 0.638930
vt 0.150785 0.634997
vt 0.152590 0.620713
vt 0.147932 0.632160
vt 0.128886 0.630390
vt 0.139130 0.620393
vt 0.143894 0.632181
vt 0.140939 0.635209
vt 0.154013 0.652980
vt 0.148595 0.641943
vt 0.140316 0.654127
vt 0.129383 0.644929
vt 0.141239 0.639447
vt 0.144474 0.642218
vt 0.760471 0.772278
vt 0.760752 0.776441
vt 0.744133 0.783628
vt 0.744285 0.765783
vt 0.763486 0.769319
vt 0.756743 0.753523
vt 0.770229 0.772185
vt 0.767543 0.769401
vt 0.773795 0.753932
vt 0.784637 0.766041
vt 0.763959 0.779154
vt 0.757570 0.795144
vt 0.768003 0.778887
vt 0.770541 0.775976
vt 0.785580 0.782018
vt 0.774575 0.794232
vt 0.733626 0.762265
vt 0.733955 0.788220
vt 0.723975 0.792844
vt 0.723131 0.759101
vt 0.751642 0.743876
vt 0.746360 0.734601
vt 0.794477 0.762005
vt 0.777322 0.743785
vt 0.780604 0.733749
vt 0.804223 0.758139
vt 0.753030 0.805291
vt 0.748417 0.815087
vt 0.778038 0.804649
vt 0.795221 0.786595
vt 0.804604 0.791376
vt 0.781094 0.815039
vt 0.159834 0.666180
vt 0.134806 0.668202
vt 0.133326 0.606543
vt 0.157981 0.607345
vt 0.114644 0.651079
vt 0.114903 0.624361
vt 0.175538 0.647859
vt 0.173726 0.624689
vt 0.186558 0.619044
vt 0.188547 0.653303
vt 0.162888 0.593830
vt 0.100533 0.619158
vt 0.126755 0.593238
vt 0.164968 0.679721
vt 0.128891 0.681998
vt 0.100726 0.657121
vt 0.169691 0.695191
vt 0.121575 0.696541
vt 0.118659 0.579266
vt 0.167483 0.578478
vt 0.086163 0.663330
vt 0.084917 0.614505
vt 0.202937 0.660374
vt 0.201677 0.612481
vt 0.561413 0.586929
vt 0.563407 0.612909
vt 0.539859 0.619904
vt 0.535556 0.595359
vt 0.654644 0.639699
vt 0.658405 0.610467
vt 0.685525 0.601532
vt 0.680493 0.640048
vt 0.223147 0.729344
vt 0.208156 0.762521
vt 0.224556 0.757519
vt 0.087446 0.794152
vt 0.102121 0.758457
vt 0.081259 0.745347
vt 0.570012 0.739832
vt 0.567054 0.762249
vt 0.542898 0.764140
vt 0.549063 0.739958
vt 0.046160 0.708230
vt 0.020105 0.658692
vt 0.045844 0.652054
vt 0.060756 0.683756
vt 0.008951 0.126219
vt 0.012510 0.094286
vt 0.038880 0.096648
vt 0.036667 0.127549
vt 0.669447 0.728641
vt 0.663655 0.679332
vt 0.687348 0.679594
vt 0.690570 0.725090
vt 0.015379 0.242364
vt 0.010758 0.192897
vt 0.037696 0.193234
vt 0.041091 0.239149
vt 0.661744 0.576433
vt 0.665771 0.552759
vt 0.690570 0.567117
vt 0.687691 0.583112
vt 0.012101 0.518356
vt 0.000742 0.481667
vt 0.030916 0.482264
vt 0.039253 0.519505
vt 0.244164 0.725868
vt 0.244164 0.769796
vt 0.013849 0.159301
vt 0.039434 0.160572
vt 0.219144 0.784780
vt 0.573496 0.801654
vt 0.547884 0.800331
vt 0.565996 0.672586
vt 0.564069 0.706421
vt 0.545340 0.707454
vt 0.547077 0.674950
vt 0.561704 0.830031
vt 0.537934 0.825714
vt 0.061342 0.798955
vt 0.061342 0.731650
vt 0.000293 0.548515
vt 0.030094 0.551202
vt 0.006489 0.623100
vt 0.009483 0.587447
vt 0.036420 0.589707
vt 0.034249 0.622225
vt 0.004139 0.399272
vt 0.007620 0.373738
vt 0.036176 0.374873
vt 0.034398 0.401393
vt 0.010754 0.061351
vt 0.023455 0.030532
vt 0.048904 0.040343
vt 0.038115 0.066312
vt 0.103254 0.721062
vt 0.014703 0.440956
vt 0.042025 0.442372
vt 0.037961 0.000293
vt 0.060756 0.014913
vt 0.553104 0.863916
vt 0.530527 0.854812
vt 0.126202 0.764609
vt 0.108572 0.802451
vt 0.009116 0.323399
vt 0.002075 0.298115
vt 0.031323 0.292416
vt 0.036770 0.319537
vt 0.564793 0.640112
vt 0.539362 0.644564
vt 0.003522 0.348653
vt 0.034549 0.347800
vt 0.192235 0.746263
vt 0.202193 0.721062
vt 0.559427 0.569593
vt 0.533685 0.577330
vt 0.331136 0.743209
vt 0.346295 0.763923
vt 0.346295 0.721062
vt 0.503255 0.648844
vt 0.520693 0.686071
vt 0.520693 0.620037
vt 0.742405 0.336034
vt 0.707118 0.329115
vt 0.715972 0.287802
vt 0.749624 0.293999
vt 0.756512 0.259783
vt 0.723527 0.252775
vt 0.733006 0.218333
vt 0.764284 0.225729
vt 0.672957 0.322573
vt 0.638493 0.314432
vt 0.644854 0.277765
vt 0.681925 0.280240
vt 0.690708 0.244855
vt 0.657373 0.236003
vt 0.669884 0.202102
vt 0.701524 0.210192
vt 0.801086 0.403896
vt 0.781083 0.412676
vt 0.774863 0.378030
vt 0.804192 0.378535
vt 0.808902 0.344156
vt 0.777531 0.341296
vt 0.783206 0.299170
vt 0.816045 0.304090
vt 0.821184 0.270980
vt 0.789411 0.266374
vt 0.795318 0.233566
vt 0.825817 0.237843
vt 0.830901 0.210250
vt 0.804632 0.203264
vt 0.813372 0.172685
vt 0.835361 0.182306
vt 0.774026 0.193999
vt 0.743160 0.185457
vt 0.754524 0.152987
vt 0.784224 0.161998
vt 0.712093 0.177667
vt 0.680361 0.170087
vt 0.693446 0.139017
vt 0.724241 0.145280
vt 0.653933 0.161886
vt 0.626929 0.152813
vt 0.645071 0.131462
vt 0.669407 0.134996
vt 0.625567 0.224464
vt 0.593667 0.211316
vt 0.610764 0.176307
vt 0.640391 0.189845
vt 0.605166 0.306967
vt 0.571000 0.297534
vt 0.578278 0.257145
vt 0.611393 0.268333
vt 0.602764 0.380833
vt 0.573003 0.372433
vt 0.569781 0.339977
vt 0.602869 0.347169
vt 0.666946 0.395493
vt 0.632092 0.387731
vt 0.635891 0.352085
vt 0.669420 0.359912
vt 0.736765 0.405090
vt 0.701277 0.400815
vt 0.703352 0.365129
vt 0.738701 0.372806
vt 0.874084 0.139676
vt 0.898817 0.166150
vt 0.877745 0.179652
vt 0.854528 0.161264
vt 0.876003 0.094885
vt 0.903013 0.119669
vt 0.846681 0.116872
vt 0.826040 0.479965
vt 0.855687 0.458926
vt 0.881290 0.479989
vt 0.852211 0.504377
vt 0.781303 0.450898
vt 0.803287 0.457525
vt 0.788797 0.523281
vt 0.562388 0.377430
vt 0.551899 0.382731
vt 0.540158 0.337649
vt 0.550773 0.337830
vt 0.556105 0.294584
vt 0.534900 0.281352
vt 0.530526 0.246932
vt 0.566478 0.252886
vt 0.573980 0.196778
vt 0.549630 0.179930
vt 0.566411 0.113271
vt 0.586705 0.149424
vt 0.612387 0.126438
vt 0.602072 0.097218
vt 0.636730 0.081689
vt 0.640032 0.106956
vt 0.586716 0.044126
vt 0.584129 0.026224
vt 0.620730 0.014929
vt 0.623898 0.032315
vt 0.877300 0.429784
vt 0.851484 0.416027
vt 0.866684 0.386234
vt 0.898213 0.395756
vt 0.921119 0.314295
vt 0.886177 0.310337
vt 0.889196 0.274511
vt 0.908592 0.287083
vt 0.823921 0.447895
vt 0.831106 0.428086
vt 0.821761 0.410136
vt 0.894244 0.491099
vt 0.905832 0.449706
vt 0.919999 0.460292
vt 0.922714 0.235625
vt 0.890102 0.238410
vt 0.884314 0.209298
vt 0.913503 0.200193
vt 0.879198 0.345214
vt 0.904696 0.346342
vt 0.830132 0.144997
vt 0.703757 0.474099
vt 0.743183 0.473003
vt 0.751936 0.517186
vt 0.707960 0.518016
vt 0.701277 0.436866
vt 0.735620 0.437942
vt 0.858478 0.241907
vt 0.857294 0.217803
vt 0.928931 0.413271
vt 0.943593 0.424161
vt 0.851525 0.306339
vt 0.855776 0.274279
vt 0.820758 0.532886
vt 0.772685 0.431747
vt 0.797861 0.032270
vt 0.845966 0.053883
vt 0.834866 0.069086
vt 0.791587 0.050759
vt 0.662729 0.024564
vt 0.710360 0.019005
vt 0.709520 0.037469
vt 0.663995 0.042499
vt 0.671436 0.076309
vt 0.670004 0.105976
vt 0.752160 0.022725
vt 0.750664 0.041458
vt 0.569802 0.411886
vt 0.602315 0.434310
vt 0.599732 0.454062
vt 0.561791 0.420539
vt 0.605330 0.414909
vt 0.631751 0.424091
vt 0.627396 0.450517
vt 0.766472 0.119807
vt 0.798756 0.131089
vt 0.778878 0.086839
vt 0.813652 0.099485
vt 0.944417 0.376350
vt 0.955446 0.334992
vt 0.961923 0.281665
vt 0.955202 0.218579
vt 0.626060 0.049719
vt 0.891199 0.083751
vt 0.743075 0.078051
vt 0.733361 0.112015
vt 0.943489 0.182572
vt 0.926739 0.148266
vt 0.856913 0.192988
vt 0.846082 0.338391
vt 0.833277 0.378012
vt 0.699513 0.106467
vt 0.917876 0.109656
vt 0.665038 0.464908
vt 0.664808 0.499329
vt 0.622923 0.477492
vt 0.941115 0.138987
vt 0.666632 0.432303
vt 0.578751 0.404004
vt 0.706808 0.073550
vt 0.865761 0.516250
vt 0.906986 0.502803
vt 0.878894 0.528676
vt 0.837555 0.542561
vt 0.852288 0.552173
vt 0.971842 0.209538
vt 0.958778 0.173253
vt 0.973749 0.341143
vt 0.980612 0.280421
vt 0.961344 0.384580
vt 0.546740 0.053230
vt 0.530526 0.021530
vt 0.545818 0.097463
vt 0.589082 0.062607
vt 0.560513 0.418858
vt 0.337139 0.720475
vt 0.336080 0.712334
vt 0.383869 0.668773
vt 0.390974 0.673146
vt 0.228993 0.602705
vt 0.236566 0.604535
vt 0.233442 0.662796
vt 0.226451 0.665064
vt 0.273818 0.708604
vt 0.269021 0.714857
vt 0.272815 0.556230
vt 0.277579 0.562836
vt 0.340004 0.553417
vt 0.338354 0.561608
vt 0.390974 0.601030
vt 0.383005 0.604541
vt 0.744430 0.574922
vt 0.735573 0.561447
vt 0.789755 0.559615
vt 0.786683 0.576381
vt 0.784804 0.676219
vt 0.788158 0.693209
vt 0.733813 0.689905
vt 0.743596 0.676387
vt 0.815161 0.607068
vt 0.829972 0.597508
vt 0.830943 0.655256
vt 0.813057 0.647609
vt 0.713582 0.604814
vt 0.700228 0.599087
vt 0.698266 0.650183
vt 0.714010 0.647290
vt 0.692258 0.595664
vt 0.733604 0.553587
vt 0.837595 0.658039
vt 0.792074 0.700118
vt 0.731643 0.697684
vt 0.691156 0.654155
vt 0.793878 0.552759
vt 0.837595 0.595599
vt 0.325261 0.748794
vt 0.330550 0.749822
vt 0.319448 0.762705
vt 0.315980 0.758530
vt 0.315128 0.725991
vt 0.318277 0.721594
vt 0.329814 0.733500
vt 0.324941 0.735244
vt 0.301739 0.726408
vt 0.300911 0.721062
vt 0.293047 0.749477
vt 0.287944 0.751959
vt 0.287944 0.733413
vt 0.292570 0.736127
vt 0.301917 0.764158
vt 0.302595 0.758802
vt 0.391560 0.749384
vt 0.402451 0.744672
vt 0.428792 0.770612
vt 0.427210 0.781228
vt 0.502668 0.704013
vt 0.494324 0.706831
vt 0.467313 0.678522
vt 0.473582 0.670641
vt 0.472680 0.778571
vt 0.466265 0.770437
vt 0.492196 0.744669
vt 0.501933 0.746300
vt 0.391560 0.700117
vt 0.400548 0.706074
vt 0.428623 0.678102
vt 0.427212 0.667615
vt 0.472942 0.734934
vt 0.471845 0.712439
vt 0.455748 0.698286
vt 0.435379 0.699640
vt 0.423349 0.714478
vt 0.421625 0.733301
vt 0.434892 0.748580
vt 0.456087 0.750018
vt 0.446124 0.725159
vt 0.326435 0.643673
vt 0.315895 0.638896
vt 0.316273 0.634962
vt 0.327579 0.630926
vt 0.317699 0.653180
vt 0.313041 0.641732
vt 0.293995 0.643502
vt 0.306048 0.638683
vt 0.309003 0.641711
vt 0.304239 0.653500
vt 0.313705 0.631949
vt 0.319122 0.620913
vt 0.305425 0.619766
vt 0.309583 0.631674
vt 0.306349 0.634445
vt 0.294492 0.628963
vt 0.760471 0.628544
vt 0.744285 0.635040
vt 0.744133 0.617195
vt 0.760752 0.624382
vt 0.763486 0.631504
vt 0.756743 0.647300
vt 0.770229 0.628638
vt 0.784637 0.634782
vt 0.773795 0.646891
vt 0.767543 0.631421
vt 0.757570 0.605678
vt 0.763959 0.621668
vt 0.768003 0.621936
vt 0.774575 0.606591
vt 0.785580 0.618805
vt 0.770541 0.624847
vt 0.733626 0.638557
vt 0.723131 0.641721
vt 0.723975 0.607979
vt 0.733955 0.612602
vt 0.751642 0.656946
vt 0.746360 0.666222
vt 0.794477 0.638818
vt 0.804223 0.642684
vt 0.780604 0.667074
vt 0.777323 0.657037
vt 0.748417 0.585736
vt 0.753030 0.595531
vt 0.778038 0.596174
vt 0.781094 0.585783
vt 0.804604 0.609447
vt 0.795221 0.614228
vt 0.324944 0.607713
vt 0.299916 0.605690
vt 0.298435 0.667350
vt 0.323090 0.666548
vt 0.279753 0.622813
vt 0.280012 0.649531
vt 0.340647 0.626033
vt 0.338835 0.649203
vt 0.351667 0.654848
vt 0.353656 0.620589
vt 0.327998 0.680063
vt 0.265642 0.654734
vt 0.291864 0.680654
vt 0.330077 0.594171
vt 0.294000 0.591894
vt 0.265836 0.616772
vt 0.334800 0.578702
vt 0.286684 0.577351
vt 0.283768 0.694626
vt 0.332592 0.695415
vt 0.251272 0.610562
vt 0.250026 0.659387
vt 0.368047 0.613518
vt 0.366786 0.661411
vt 0.604969 0.829746
vt 0.579112 0.821317
vt 0.583415 0.796771
vt 0.606962 0.803766
vt 0.654057 0.646778
vt 0.628174 0.647157
vt 0.620444 0.609016
vt 0.648600 0.625567
vt 0.031206 0.764252
vt 0.032614 0.736077
vt 0.016215 0.731076
vt 0.165544 0.794152
vt 0.171731 0.745347
vt 0.150870 0.758457
vt 0.613568 0.676843
vt 0.592619 0.676717
vt 0.586454 0.652536
vt 0.610610 0.654426
vt 0.638738 0.735763
vt 0.617638 0.732056
vt 0.621189 0.686595
vt 0.644893 0.686478
vt 0.643262 0.587690
vt 0.619017 0.590457
vt 0.617638 0.569984
vt 0.640488 0.552759
vt 0.052223 0.767729
vt 0.052223 0.723800
vt 0.027203 0.708816
vt 0.591440 0.616345
vt 0.617052 0.615021
vt 0.609552 0.744090
vt 0.590633 0.741725
vt 0.588895 0.709221
vt 0.607625 0.710255
vt 0.581490 0.590961
vt 0.605260 0.586644
vt 0.191648 0.798955
vt 0.191648 0.731650
vt 0.149736 0.721062
vt 0.574082 0.561863
vt 0.596659 0.552759
vt 0.126788 0.764609
vt 0.144418 0.802451
vt 0.582918 0.772112
vt 0.608348 0.776563
vt 0.000293 0.747333
vt 0.010252 0.772535
vt 0.602982 0.847082
vt 0.577241 0.839346
vt 0.503255 0.707371
vt 0.518413 0.729519
vt 0.518413 0.686657
vt 0.503255 0.590644
vt 0.520693 0.619451
vt 0.520693 0.553417
vt 0.556835 0.552759
vt 0.530527 0.559154
vt 0.083078 0.394532
vt 0.068916 0.348699
vt 0.103476 0.437133
vt 0.061342 0.279772
vt 0.071960 0.200673
vt 0.086597 0.163601
vt 0.105085 0.129459
vt 0.127761 0.099467
vt 0.154261 0.072149
vt 0.204185 0.037902
vt 0.402174 0.006879
vt 0.308986 0.003438
vt 0.257761 0.012945
vt 0.352053 0.000293
vt 0.128051 0.472878
vt 0.600390 0.863916
vt 0.574082 0.857521
vt 0.978283 0.393402
vt 0.992288 0.347774
vt 0.958185 0.435825
vt 0.999707 0.278971
vt 0.988787 0.200228
vt 0.974087 0.163418
vt 0.955647 0.129505
vt 0.933093 0.099695
vt 0.906775 0.072521
vt 0.857225 0.038382
vt 0.660803 0.006433
vt 0.753256 0.003702
vt 0.804082 0.013386
vt 0.710546 0.000293
vt 0.933984 0.471502
s 1
f 186/1/1 82/2/1 49/3/1 66/4/1
f 185/5/2 67/6/3 50/7/4 65/8/5
f 184/9/6 63/10/6 52/11/6 61/12/6
f 183/13/7 62/14/8 53/15/9 60/16/10
f 182/17/11 59/18/11 45/19/11 98/20/11
f 181/21/12 33/22/12 46/23/12 5/24/12
f 180/25/13 32/26/14 47/27/14 89/28/13
f 179/29/15 73/30/15 15/31/15 31/32/15
f 178/33/16 72/34/16 16/35/16 29/36/16
f 177/37/17 71/38/17 17/39/17 28/40/17
f 176/41/18 70/42/18 4/43/18 69/44/18
f 175/45/19 27/46/20 18/47/21 68/48/22
f 174/49/23 26/50/23 19/51/24 42/52/24
f 173/53/25 21/54/25 20/55/25 41/56/25
f 172/57/26 64/58/26 51/59/26 8/60/26
f 171/61/27 85/62/27 48/63/27 7/64/27
f 143/65/28 146/66/28 6/67/28 44/68/28
f 137/69/29 97/70/30 143/65/31 145/71/32
f 127/72/33 156/73/34 34/74/35 39/75/33
f 128/76/36 86/77/37 127/72/38 155/78/38
f 170/79/39 102/80/39 54/81/39 107/82/39
f 169/83/40 103/84/40 55/85/40 99/86/40
f 168/87/41 104/88/41 56/89/41 100/90/41
f 167/91/42 37/92/42 24/93/42 105/94/42
f 673/95/43 653/96/43 25/97/43 106/98/43
f 120/99/44 77/100/44 119/101/44 159/102/44
f 78/103/45 114/104/45 161/105/45 118/106/45
f 35/107/46 159/102/46 22/108/46 1/109/46
f 655/110/47 669/111/48 158/112/49 34/74/50
f 79/113/51 116/114/52 162/115/53 117/116/51
f 77/100/54 113/117/54 160/118/54 119/101/54
f 97/70/55 142/119/55 146/66/55 143/65/55
f 129/120/56 83/121/56 123/122/56 154/123/56
f 10/124/57 129/120/57 154/123/57 57/125/57
f 117/116/58 162/115/58 88/126/58 14/127/58
f 669/111/59 661/128/59 110/129/59 158/112/59
f 39/75/60 120/99/60 159/102/60 35/107/60
f 118/106/45 161/105/45 92/130/61 13/131/61
f 86/77/62 124/132/62 156/73/62 127/72/62
f 57/125/63 154/123/63 128/76/63 11/133/63
f 658/134/64 134/135/65 151/136/65 666/137/66
f 665/138/67 150/139/68 131/140/68 663/141/67
f 24/93/69 37/92/69 149/142/69 139/143/69
f 663/141/70 131/140/70 152/144/70 667/145/70
f 38/146/71 23/147/71 125/148/71 157/149/71
f 84/150/72 157/149/72 130/151/72 9/152/72
f 141/153/73 16/35/73 72/34/73 147/154/73
f 94/155/73 141/153/73 147/154/73 136/156/73
f 165/157/74 111/158/74 78/103/74 113/117/74
f 164/159/75 112/160/75 79/113/75 114/104/75
f 667/145/76 152/144/76 134/135/76 658/134/76
f 37/92/77 4/43/77 70/42/77 149/142/77
f 653/96/78 36/161/78 150/139/78 665/138/78
f 666/137/79 151/136/79 137/69/79 657/162/79
f 133/163/80 148/164/80 141/153/80 94/155/80
f 163/165/81 30/166/82 44/68/82 116/114/83
f 162/115/84 6/67/84 2/167/84 88/126/84
f 161/105/45 117/116/85 14/127/86 92/130/61
f 160/118/87 118/106/87 13/131/87 95/168/87
f 159/102/88 119/101/88 12/169/88 22/108/88
f 158/112/89 110/129/89 77/100/89 120/99/89
f 140/170/80 17/39/80 71/38/80 148/164/80
f 657/162/90 137/69/29 145/71/32 654/171/91
f 130/151/92 80/172/92 122/173/92 153/174/92
f 654/171/91 145/71/32 30/166/93 662/175/94
f 9/152/95 130/151/95 153/174/95 81/176/95
f 157/149/96 125/148/96 80/172/96 130/151/96
f 142/119/97 15/31/97 73/30/97 146/66/97
f 113/117/98 78/103/98 118/106/98 160/118/98
f 116/114/52 44/68/99 6/67/99 162/115/53
f 3/177/100 38/146/100 157/149/100 84/150/100
f 34/74/50 158/112/49 120/99/101 39/75/101
f 131/140/102 91/178/102 133/163/103 152/144/104
f 139/143/105 149/142/105 140/170/105 91/178/105
f 668/179/106 126/180/107 40/181/107 655/110/106
f 155/78/108 127/72/108 39/75/108 35/107/108
f 154/123/109 123/122/109 86/77/37 128/76/36
f 153/174/110 122/173/110 83/121/110 129/120/110
f 81/176/111 153/174/111 129/120/111 10/124/111
f 152/144/104 133/163/103 94/155/112 134/135/112
f 136/156/73 147/154/73 142/119/73 97/70/73
f 151/136/113 136/156/113 97/70/113 137/69/113
f 114/104/45 79/113/85 117/116/85 161/105/45
f 119/101/114 160/118/114 95/168/114 12/169/114
f 150/139/115 139/143/115 91/178/115 131/140/115
f 149/142/116 70/42/116 17/39/116 140/170/116
f 148/164/80 71/38/80 16/35/80 141/153/80
f 147/154/73 72/34/73 15/31/73 142/119/73
f 146/66/117 73/30/117 2/167/117 6/67/117
f 145/71/32 143/65/31 44/68/118 30/166/93
f 91/178/80 140/170/80 148/164/80 133/163/80
f 134/135/119 94/155/119 136/156/119 151/136/119
f 36/161/120 24/93/120 139/143/120 150/139/120
f 664/182/121 87/183/121 126/180/121 668/179/121
f 112/160/122 163/165/81 116/114/83 79/113/122
f 659/184/123 670/185/124 163/165/125 112/160/125
f 670/185/126 662/175/126 30/166/127 163/165/127
f 111/158/128 164/159/128 114/104/128 78/103/128
f 660/186/129 671/187/130 164/159/131 111/158/131
f 671/187/132 659/184/133 112/160/134 164/159/134
f 110/129/135 165/157/135 113/117/135 77/100/135
f 661/128/136 672/188/136 165/157/136 110/129/136
f 672/188/137 660/186/138 111/158/139 165/157/139
f 656/189/140 673/95/140 106/98/140 58/190/140
f 56/89/141 105/94/141 166/191/141 101/192/141
f 105/94/142 24/93/142 36/161/142 166/191/142
f 104/88/143 167/91/143 105/94/143 56/89/143
f 18/47/144 69/44/144 167/91/144 104/88/144
f 69/44/145 4/43/145 37/92/145 167/91/145
f 103/84/146 168/87/146 100/90/146 55/85/146
f 19/51/147 68/48/147 168/87/147 103/84/147
f 68/48/148 18/47/148 104/88/148 168/87/148
f 102/80/149 169/83/149 99/86/149 54/81/149
f 20/55/150 42/52/150 169/83/150 102/80/150
f 42/52/151 19/51/151 103/84/151 169/83/151
f 38/146/152 170/79/152 107/82/152 23/147/152
f 3/177/153 41/56/153 170/79/153 38/146/153
f 41/56/154 20/55/154 102/80/154 170/79/154
f 57/125/155 171/61/155 7/64/155 10/124/155
f 11/133/156 98/20/156 171/61/156 57/125/156
f 98/20/157 45/19/157 85/62/157 171/61/157
f 81/176/26 172/57/26 8/60/26 9/152/26
f 10/124/26 7/64/26 172/57/26 81/176/26
f 7/64/26 48/63/26 64/58/26 172/57/26
f 84/150/158 173/53/158 41/56/158 3/177/158
f 9/152/159 8/60/159 173/53/159 84/150/159
f 8/60/160 51/59/160 21/54/160 173/53/160
f 21/54/161 174/49/23 42/52/24 20/55/162
f 51/59/161 61/12/23 174/49/23 21/54/161
f 61/12/23 52/11/23 26/50/23 174/49/23
f 26/50/163 175/45/19 68/48/22 19/51/164
f 52/11/165 60/16/166 175/45/19 26/50/163
f 60/16/166 53/15/20 27/46/20 175/45/19
f 27/46/167 176/41/167 69/44/167 18/47/167
f 53/15/168 28/40/168 176/41/168 27/46/168
f 28/40/169 17/39/169 70/42/169 176/41/169
f 62/14/17 177/37/17 28/40/17 53/15/17
f 50/7/17 29/36/17 177/37/17 62/14/17
f 29/36/17 16/35/17 71/38/17 177/37/17
f 67/6/16 178/33/16 29/36/16 50/7/16
f 47/27/16 31/32/16 178/33/16 67/6/16
f 31/32/16 15/31/16 72/34/16 178/33/16
f 32/26/170 179/29/170 31/32/170 47/27/170
f 14/127/171 88/126/171 179/29/171 32/26/171
f 88/126/172 2/167/172 73/30/172 179/29/172
f 33/22/13 180/25/13 89/28/13 46/23/13
f 13/131/173 92/130/174 180/25/174 33/22/173
f 92/130/174 14/127/175 32/26/175 180/25/174
f 59/18/176 181/21/176 5/24/176 45/19/176
f 12/169/177 95/168/177 181/21/177 59/18/177
f 95/168/178 13/131/178 33/22/178 181/21/178
f 22/108/179 12/169/179 59/18/179 182/17/179
f 63/10/180 183/13/7 60/16/10 52/11/181
f 49/3/182 65/8/183 183/13/7 63/10/180
f 65/8/183 50/7/184 62/14/8 183/13/7
f 64/58/185 184/9/186 61/12/187 51/59/187
f 48/63/188 66/4/188 184/9/186 64/58/185
f 66/4/189 49/3/189 63/10/189 184/9/189
f 82/2/190 185/5/2 65/8/5 49/3/191
f 46/23/192 89/28/193 185/5/2 82/2/190
f 89/28/193 47/27/194 67/6/3 185/5/2
f 85/62/195 186/1/195 66/4/195 48/63/195
f 45/19/196 5/24/196 186/1/196 85/62/196
f 5/24/197 46/23/197 82/2/197 186/1/197
f 35/193/198 1/194/198 187/195/198 190/196/198
f 11/197/199 128/198/199 192/199/199 188/200/199
f 128/198/200 155/201/200 193/202/200 192/199/200
f 98/203/201 11/197/201 188/200/201 191/204/201
f 182/205/202 98/203/202 191/204/202 194/206/202
f 155/201/203 35/193/203 190/196/203 193/202/203
f 22/207/204 182/205/204 194/206/204 189/208/204
f 1/194/205 22/207/205 189/208/205 187/195/205
f 267/209/206 260/210/206 199/211/206 202/212/206
f 266/213/207 261/214/207 198/215/207 201/216/207
f 265/217/208 262/218/208 200/219/208 196/220/208
f 260/210/209 265/217/209 196/220/209 199/211/209
f 264/221/210 267/209/210 202/212/210 197/222/210
f 262/218/211 266/213/211 201/216/211 200/219/211
f 261/214/212 263/223/212 195/224/212 198/215/212
f 263/223/213 264/221/213 197/222/213 195/224/213
f 197/222/214 202/212/214 210/225/214 205/226/214
f 200/219/215 201/216/215 209/227/215 208/228/215
f 198/215/216 195/224/216 203/229/216 206/230/216
f 195/224/217 197/222/217 205/226/217 203/229/217
f 202/212/218 199/211/218 207/231/218 210/225/218
f 201/216/219 198/215/219 206/230/219 209/227/219
f 196/220/220 200/219/220 208/228/220 204/232/220
f 199/211/221 196/220/221 204/232/221 207/231/221
f 209/233/222 206/234/222 214/235/222 217/236/222
f 204/237/223 208/238/223 216/239/223 212/240/223
f 207/241/224 204/237/224 212/240/224 215/242/224
f 205/243/225 210/244/225 218/245/225 213/246/225
f 208/238/226 209/233/226 217/236/226 216/239/226
f 206/234/227 203/247/227 211/248/227 214/235/227
f 203/247/228 205/243/228 213/246/228 211/248/228
f 210/244/229 207/241/229 215/242/229 218/245/229
f 218/249/230 215/250/230 223/251/230 226/252/230
f 217/253/231 214/254/231 222/255/231 225/256/231
f 212/257/232 216/258/232 224/259/232 220/260/232
f 215/250/233 212/257/233 220/260/233 223/251/233
f 213/261/234 218/249/234 226/252/234 221/262/234
f 216/258/235 217/253/235 225/256/235 224/259/235
f 214/254/236 211/263/236 219/264/236 222/255/236
f 211/263/237 213/261/237 221/262/237 219/264/237
f 224/259/238 225/256/238 233/265/238 232/266/238
f 222/255/239 219/264/239 227/267/239 230/268/239
f 219/264/240 221/262/240 229/269/240 227/267/240
f 226/252/241 223/251/241 231/270/241 234/271/241
f 225/256/242 222/255/242 230/268/242 233/265/242
f 220/260/243 224/259/243 232/266/243 228/272/243
f 223/251/244 220/260/244 228/272/244 231/270/244
f 221/262/245 226/252/245 234/271/245 229/269/245
f 231/270/246 228/272/246 235/273/246
f 229/269/247 234/271/247 235/273/247
f 232/266/248 233/265/248 235/273/248
f 230/268/249 227/267/249 235/273/249
f 227/267/250 229/269/250 235/273/250
f 234/271/251 231/270/251 235/273/251
f 233/265/252 230/268/252 235/273/252
f 228/272/253 232/266/253 235/273/253
f 280/274/254 279/275/254 236/276/254 243/277/254
f 282/278/255 280/274/255 243/277/255 240/279/255
f 281/280/256 277/281/256 239/282/256 238/283/256
f 279/275/257 276/284/257 241/285/257 236/276/257
f 283/286/258 278/287/258 237/288/258 242/289/258
f 278/287/259 281/280/259 238/283/259 237/288/259
f 277/281/260 282/278/260 240/279/260 239/282/260
f 276/284/261 283/286/261 242/289/261 241/285/261
f 243/290/262 236/291/262 248/292/262 247/293/262
f 240/294/263 243/290/263 247/293/263 245/295/263
f 238/296/264 239/297/264 250/298/264 246/299/264
f 236/291/265 241/300/265 251/301/265 248/292/265
f 242/302/266 237/303/266 249/304/266 244/305/266
f 237/303/267 238/296/267 246/299/267 249/304/267
f 239/297/268 240/294/268 245/295/268 250/298/268
f 241/300/269 242/302/269 244/305/269 251/301/269
f 275/306/270 268/307/270 256/308/270 255/309/270
f 273/310/271 275/306/271 255/309/271 253/311/271
f 274/312/272 270/313/272 258/314/272 254/315/272
f 268/307/273 271/316/273 259/317/273 256/308/273
f 272/318/274 269/319/274 257/320/274 252/321/274
f 269/319/275 274/312/275 254/315/275 257/320/275
f 270/313/276 273/310/276 253/311/276 258/314/276
f 271/316/277 272/318/277 252/321/277 259/317/277
f 255/309/278 256/308/278 264/221/278 263/223/278
f 253/311/279 255/309/279 263/223/279 261/214/279
f 254/315/280 258/314/280 266/213/280 262/218/280
f 256/308/281 259/317/281 267/209/281 264/221/281
f 252/321/282 257/320/282 265/217/282 260/210/282
f 257/320/283 254/315/283 262/218/283 265/217/283
f 258/314/284 253/311/284 261/214/284 266/213/284
f 259/317/285 252/321/285 260/210/285 267/209/285
f 251/301/286 244/305/286 272/318/286 271/316/286
f 250/298/287 245/295/287 273/310/287 270/313/287
f 249/304/288 246/299/288 274/312/288 269/319/288
f 244/305/289 249/304/289 269/319/289 272/318/289
f 248/292/290 251/301/290 271/316/290 268/307/290
f 246/299/291 250/298/291 270/313/291 274/312/291
f 245/295/292 247/293/292 275/306/292 273/310/292
f 247/293/293 248/292/293 268/307/293 275/306/293
f 284/322/294 291/323/294 283/286/294 276/284/294
f 285/324/295 290/325/295 282/278/295 277/281/295
f 286/326/296 289/327/296 281/280/296 278/287/296
f 291/323/297 286/326/297 278/287/297 283/286/297
f 287/328/298 284/322/298 276/284/298 279/275/298
f 289/327/299 285/324/299 277/281/299 281/280/299
f 290/325/300 288/329/300 280/274/300 282/278/300
f 288/329/301 287/328/301 279/275/301 280/274/301
f 296/330/302 295/331/302 287/328/302 288/329/302
f 298/332/303 296/330/303 288/329/303 290/325/303
f 297/333/304 293/334/304 285/324/304 289/327/304
f 295/331/305 292/335/305 284/322/305 287/328/305
f 299/336/306 294/337/306 286/326/306 291/323/306
f 294/337/307 297/333/307 289/327/307 286/326/307
f 293/334/308 298/332/308 290/325/308 285/324/308
f 292/335/309 299/336/309 291/323/309 284/322/309
f 300/338/310 307/339/310 299/336/310 292/335/310
f 301/340/311 306/341/311 298/332/311 293/334/311
f 302/342/312 305/343/312 297/333/312 294/337/312
f 307/339/313 302/342/313 294/337/313 299/336/313
f 303/344/314 300/338/314 292/335/314 295/331/314
f 305/343/315 301/340/315 293/334/315 297/333/315
f 306/341/316 304/345/316 296/330/316 298/332/316
f 304/345/317 303/344/317 295/331/317 296/330/317
f 187/195/318 189/208/318 303/344/318 304/345/318
f 190/196/319 187/195/319 304/345/319 306/341/319
f 192/199/320 193/202/320 301/340/320 305/343/320
f 189/208/321 194/206/321 300/338/321 303/344/321
f 191/204/322 188/200/322 302/342/322 307/339/322
f 188/200/323 192/199/323 305/343/323 302/342/323
f 193/202/324 190/196/324 306/341/324 301/340/324
f 194/206/325 191/204/325 307/339/325 300/338/325
f 124/346/326 86/347/326 323/348/326 339/349/326
f 56/350/327 101/351/327 330/352/327 316/353/327
f 315/354/328 328/355/328 346/356/328
f 328/357/329 314/358/329 347/359/329
f 80/360/330 125/361/330 340/362/330 321/363/330
f 58/364/331 106/365/331 331/366/331 317/367/331
f 74/368/332 121/369/332 336/370/332 318/371/332
f 55/372/333 100/373/333 329/374/333 315/375/333
f 109/376/332 75/377/332 319/378/332 334/379/332
f 656/380/334 58/381/334 317/382/334 674/383/334
f 132/384/332 93/385/332 326/386/332 342/387/332
f 55/388/335 315/354/335 346/356/335 308/389/335
f 108/390/332 74/368/332 318/371/332 333/391/332
f 308/389/336 346/356/336 328/355/336 99/392/336
f 125/361/337 23/393/337 310/394/337 340/362/337
f 83/395/338 122/396/338 337/397/338 322/398/338
f 23/393/339 107/399/339 332/400/339 310/394/339
f 99/401/340 328/357/340 347/359/340 309/402/340
f 90/403/332 132/384/332 342/387/332 325/404/332
f 25/405/332 138/406/332 344/407/332 311/408/332
f 96/409/332 144/410/332 345/411/332 327/412/332
f 40/413/332 126/414/332 341/415/332 312/416/332
f 121/369/332 40/413/332 312/416/332 336/370/332
f 309/402/341 347/359/341 314/358/341 54/417/341
f 93/385/332 135/418/332 343/419/332 326/386/332
f 135/418/332 96/409/332 327/412/332 343/419/332
f 126/414/332 87/420/332 324/421/332 341/415/332
f 107/399/342 54/422/342 314/423/342 332/400/342
f 54/424/343 314/358/343 328/357/343 99/425/343
f 115/426/332 76/427/332 320/428/332 335/429/332
f 122/396/344 80/360/344 321/363/344 337/397/344
f 86/347/345 123/430/345 338/431/345 323/348/345
f 144/410/332 43/432/332 313/433/332 345/411/332
f 123/430/346 83/395/346 322/398/346 338/431/346
f 43/432/332 115/426/332 335/429/332 313/433/332
f 75/377/332 108/390/332 333/391/332 319/378/332
f 106/365/332 25/405/332 311/408/332 331/366/332
f 99/434/347 328/355/347 315/354/347 55/435/347
f 76/427/332 109/376/332 334/379/332 320/428/332
f 664/436/348 124/346/348 339/349/348 675/437/348
f 138/406/332 90/403/332 325/404/332 344/407/332
f 100/373/349 56/350/349 316/353/349 329/374/349
f 99/438/350 55/439/350 308/440/350
f 54/441/351 99/442/351 309/443/351
f 512/444/352 409/445/352 393/446/352 422/447/352
f 511/448/353 408/449/354 394/450/355 410/451/356
f 510/452/357 404/453/357 396/454/357 406/455/357
f 509/456/358 403/457/359 397/458/360 405/459/361
f 508/460/362 434/461/362 389/462/362 402/463/362
f 507/464/363 352/465/363 390/466/363 379/467/363
f 506/468/364 428/469/364 391/470/365 378/471/365
f 505/472/366 377/473/366 362/474/366 416/475/366
f 504/476/367 375/477/367 363/478/367 415/479/367
f 503/480/368 374/481/368 364/482/368 414/483/368
f 502/484/369 412/485/369 351/486/369 413/487/369
f 501/488/370 411/489/371 365/490/372 373/491/373
f 500/492/374 387/493/375 366/494/375 372/495/374
f 499/496/376 386/497/376 367/498/376 368/499/376
f 498/500/377 355/501/377 395/502/377 407/503/377
f 497/504/378 354/505/378 392/506/378 425/507/378
f 470/508/379 388/509/379 353/510/379 472/511/379
f 465/512/380 471/513/381 470/508/382 433/514/383
f 457/515/384 385/516/384 380/517/385 482/518/386
f 458/519/387 481/520/388 457/515/388 426/521/389
f 496/522/390 442/523/390 398/524/390 438/525/390
f 495/526/391 435/527/391 399/528/391 439/529/391
f 494/530/392 436/531/392 400/532/392 440/533/392
f 493/534/393 441/535/393 371/536/393 383/537/393
f 696/538/394 106/539/394 25/540/394 676/541/394
f 452/542/395 485/543/395 451/544/395 417/545/395
f 418/546/396 450/547/396 487/548/396 447/549/396
f 381/550/397 348/551/397 369/552/397 485/543/397
f 678/553/398 380/517/399 484/554/400 692/555/401
f 419/556/402 449/557/402 488/558/403 448/559/404
f 417/545/405 451/544/405 486/560/405 446/561/405
f 433/514/406 470/508/406 472/511/406 469/562/406
f 459/563/407 480/564/407 454/565/407 423/566/407
f 357/567/408 401/568/408 480/564/408 459/563/408
f 449/557/409 361/569/409 427/570/409 488/558/409
f 692/555/410 484/554/410 443/571/410 684/572/410
f 385/516/411 381/550/411 485/543/411 452/542/411
f 450/547/412 360/573/412 430/574/412 487/548/412
f 426/521/413 457/515/413 482/518/413 455/575/413
f 401/568/414 358/576/414 458/519/414 480/564/414
f 681/577/415 689/578/416 477/579/417 463/580/417
f 688/581/418 686/582/418 461/583/419 476/584/419
f 371/536/420 466/585/420 475/586/420 383/537/420
f 686/582/421 690/587/421 478/588/421 461/583/421
f 384/589/422 483/590/422 456/591/422 370/592/422
f 424/593/423 356/594/423 460/595/423 483/590/423
f 468/596/424 473/597/424 415/479/424 363/478/424
f 431/598/424 464/599/424 473/597/424 468/596/424
f 491/600/425 446/561/425 418/546/425 444/601/425
f 490/602/426 447/549/426 419/556/426 445/603/426
f 690/587/427 681/577/427 463/580/427 478/588/427
f 383/537/428 475/586/428 413/487/428 351/486/428
f 676/541/429 688/581/429 476/584/429 382/604/429
f 689/578/430 680/605/430 465/512/430 477/579/430
f 462/606/431 431/598/431 468/596/431 474/607/431
f 489/608/432 448/559/433 388/509/434 376/609/434
f 488/558/435 427/570/435 349/610/435 353/510/435
f 487/548/412 430/574/412 361/569/436 449/557/436
f 486/560/437 432/611/437 360/573/437 450/547/437
f 485/543/438 369/552/438 359/612/438 451/544/438
f 484/554/439 452/542/439 417/545/439 443/571/439
f 467/613/431 474/607/431 414/483/431 364/482/431
f 680/605/440 677/614/441 471/513/381 465/512/380
f 460/595/442 479/615/442 453/616/442 420/617/442
f 677/614/441 685/618/443 376/609/444 471/513/381
f 356/594/445 421/619/445 479/615/445 460/595/445
f 483/590/446 460/595/446 420/617/446 456/591/446
f 469/562/447 472/511/447 416/475/447 362/474/447
f 446/561/448 486/560/448 450/547/448 418/546/448
f 448/559/404 488/558/403 353/510/449 388/509/449
f 350/620/450 424/593/450 483/590/450 384/589/450
f 380/517/399 385/516/451 452/542/451 484/554/400
f 461/583/452 478/588/453 462/606/454 429/621/452
f 466/585/455 429/621/455 467/613/455 475/586/455
f 691/622/456 678/553/456 40/623/457 126/624/457
f 481/520/458 381/550/458 385/516/458 457/515/458
f 480/564/459 458/519/387 426/521/389 454/565/459
f 479/615/460 459/563/460 423/566/460 453/616/460
f 421/619/461 357/567/461 459/563/461 479/615/461
f 478/588/453 463/580/462 431/598/462 462/606/454
f 464/599/424 433/514/424 469/562/424 473/597/424
f 477/579/463 465/512/463 433/514/463 464/599/463
f 447/549/464 487/548/464 449/557/464 419/556/464
f 451/544/465 359/612/465 432/611/465 486/560/465
f 476/584/466 461/583/466 429/621/466 466/585/466
f 475/586/467 467/613/467 364/482/467 413/487/467
f 474/607/431 468/596/431 363/478/431 414/483/431
f 473/597/424 469/562/424 362/474/424 415/479/424
f 472/511/468 353/510/468 349/610/468 416/475/468
f 471/513/381 376/609/444 388/509/469 470/508/382
f 429/621/431 462/606/431 474/607/431 467/613/431
f 463/580/470 477/579/470 464/599/470 431/598/470
f 382/604/471 476/584/471 466/585/471 371/536/471
f 687/625/472 691/622/472 126/624/472 87/626/472
f 445/603/473 419/556/473 448/559/433 489/608/432
f 682/627/474 445/603/475 489/608/475 693/628/476
f 693/628/477 489/608/478 376/609/478 685/618/477
f 444/601/479 418/546/479 447/549/479 490/602/479
f 683/629/480 444/601/481 490/602/481 694/630/482
f 694/630/483 490/602/484 445/603/484 682/627/485
f 443/571/486 417/545/486 446/561/486 491/600/486
f 684/572/487 443/571/487 491/600/487 695/631/487
f 695/631/488 491/600/489 444/601/489 683/629/490
f 679/632/491 58/633/491 106/539/491 696/538/491
f 400/532/492 437/634/492 492/635/492 441/535/492
f 441/535/493 492/635/493 382/604/493 371/536/493
f 440/533/494 400/532/494 441/535/494 493/534/494
f 365/490/495 440/533/495 493/534/495 412/485/495
f 412/485/496 493/534/496 383/537/496 351/486/496
f 439/529/497 399/528/497 436/531/497 494/530/497
f 366/494/498 439/529/498 494/530/498 411/489/498
f 411/489/499 494/530/499 440/533/499 365/490/499
f 438/525/500 398/524/500 435/527/500 495/526/500
f 367/498/501 438/525/501 495/526/501 387/493/501
f 387/493/502 495/526/502 439/529/502 366/494/502
f 384/589/503 370/636/503 442/523/503 496/522/503
f 350/620/504 384/589/504 496/522/504 386/497/504
f 386/497/505 496/522/505 438/525/505 367/498/505
f 401/568/506 357/567/506 354/505/506 497/504/506
f 358/576/507 401/568/507 497/504/507 434/461/507
f 434/461/508 497/504/508 425/507/508 389/462/508
f 421/619/377 356/594/377 355/501/377 498/500/377
f 357/567/377 421/619/377 498/500/377 354/505/377
f 354/505/377 498/500/377 407/503/377 392/506/377
f 424/593/509 350/620/509 386/497/509 499/496/509
f 356/594/510 424/593/510 499/496/510 355/501/510
f 355/501/511 499/496/511 368/499/511 395/502/511
f 368/499/512 367/498/513 387/493/375 500/492/374
f 395/502/512 368/499/512 500/492/374 404/453/374
f 404/453/374 500/492/374 372/495/374 396/454/374
f 372/495/514 366/494/515 411/489/371 501/488/370
f 396/454/516 372/495/514 501/488/370 403/457/517
f 403/457/517 501/488/370 373/491/373 397/458/373
f 373/491/518 365/490/518 412/485/518 502/484/518
f 397/458/519 373/491/519 502/484/519 374/481/519
f 374/481/520 502/484/520 413/487/520 364/482/520
f 405/459/368 397/458/368 374/481/368 503/480/368
f 394/450/368 405/459/368 503/480/368 375/477/368
f 375/477/368 503/480/368 414/483/368 363/478/368
f 410/451/367 394/450/367 375/477/367 504/476/367
f 391/470/367 410/451/367 504/476/367 377/473/367
f 377/473/367 504/476/367 415/479/367 362/474/367
f 378/471/521 391/470/521 377/473/521 505/472/521
f 361/569/522 378/471/522 505/472/522 427/570/522
f 427/570/523 505/472/523 416/475/523 349/610/523
f 379/467/364 390/466/364 428/469/364 506/468/364
f 360/573/524 379/467/524 506/468/525 430/574/525
f 430/574/525 506/468/525 378/471/526 361/569/526
f 402/463/527 389/462/527 352/465/527 507/464/527
f 359/612/528 402/463/528 507/464/528 432/611/528
f 432/611/529 507/464/529 379/467/529 360/573/529
f 369/552/530 508/460/530 402/463/530 359/612/530
f 406/455/531 396/454/532 403/457/359 509/456/358
f 393/446/533 406/455/531 509/456/358 408/449/534
f 408/449/534 509/456/358 405/459/361 394/450/535
f 407/503/536 395/502/537 404/453/537 510/452/538
f 392/506/539 407/503/536 510/452/538 409/445/539
f 409/445/540 510/452/540 406/455/540 393/446/540
f 422/447/541 393/446/542 408/449/354 511/448/353
f 390/466/543 422/447/541 511/448/353 428/469/544
f 428/469/544 511/448/353 410/451/356 391/470/545
f 425/507/546 392/506/546 409/445/546 512/444/546
f 389/462/547 425/507/547 512/444/547 352/465/547
f 352/465/548 512/444/548 422/447/548 390/466/548
f 381/637/549 516/638/549 513/639/549 348/640/549
f 358/641/550 514/642/550 518/643/550 458/644/550
f 458/644/551 518/643/551 519/645/551 481/646/551
f 434/647/552 517/648/552 514/642/552 358/641/552
f 508/649/553 520/650/553 517/648/553 434/647/553
f 481/646/554 519/645/554 516/638/554 381/637/554
f 369/651/555 515/652/555 520/650/555 508/649/555
f 348/640/556 513/639/556 515/652/556 369/651/556
f 593/653/557 528/654/557 525/655/557 586/656/557
f 592/657/558 527/658/558 524/659/558 587/660/558
f 591/661/559 522/662/559 526/663/559 588/664/559
f 586/656/560 525/655/560 522/662/560 591/661/560
f 590/665/561 523/666/561 528/654/561 593/653/561
f 588/664/562 526/663/562 527/658/562 592/657/562
f 587/660/563 524/659/563 521/667/563 589/668/563
f 589/668/564 521/667/564 523/666/564 590/665/564
f 523/666/565 531/669/565 536/670/565 528/654/565
f 526/663/566 534/671/566 535/672/566 527/658/566
f 524/659/567 532/673/567 529/674/567 521/667/567
f 521/667/568 529/674/568 531/669/568 523/666/568
f 528/654/569 536/670/569 533/675/569 525/655/569
f 527/658/570 535/672/570 532/673/570 524/659/570
f 522/662/571 530/676/571 534/671/571 526/663/571
f 525/655/572 533/675/572 530/676/572 522/662/572
f 535/677/573 543/678/573 540/679/573 532/680/573
f 530/681/574 538/682/574 542/683/574 534/684/574
f 533/685/575 541/686/575 538/682/575 530/681/575
f 531/687/576 539/688/576 544/689/576 536/690/576
f 534/684/577 542/683/577 543/678/577 535/677/577
f 532/680/578 540/679/578 537/691/578 529/692/578
f 529/692/579 537/691/579 539/688/579 531/687/579
f 536/690/580 544/689/580 541/686/580 533/685/580
f 544/693/581 552/694/581 549/695/581 541/696/581
f 543/697/582 551/698/582 548/699/582 540/700/582
f 538/701/583 546/702/583 550/703/583 542/704/583
f 541/696/584 549/695/584 546/702/584 538/701/584
f 539/705/585 547/706/585 552/694/585 544/693/585
f 542/704/586 550/703/586 551/698/586 543/697/586
f 540/700/587 548/699/587 545/707/587 537/708/587
f 537/708/588 545/707/588 547/706/588 539/705/588
f 550/703/589 558/709/589 559/710/589 551/698/589
f 548/699/590 556/711/590 553/712/590 545/707/590
f 545/707/591 553/712/591 555/713/591 547/706/591
f 552/694/592 560/714/592 557/715/592 549/695/592
f 551/698/593 559/710/593 556/711/593 548/699/593
f 546/702/594 554/716/594 558/709/594 550/703/594
f 549/695/595 557/715/595 554/716/595 546/702/595
f 547/706/596 555/713/596 560/714/596 552/694/596
f 557/715/597 561/717/597 554/716/597
f 555/713/598 561/717/598 560/714/598
f 558/709/599 561/717/599 559/710/599
f 556/711/600 561/717/600 553/712/600
f 553/712/601 561/717/601 555/713/601
f 560/714/602 561/717/602 557/715/602
f 559/710/603 561/717/603 556/711/603
f 554/716/604 561/717/604 558/709/604
f 606/718/605 569/719/605 562/720/605 605/721/605
f 608/722/606 566/723/606 569/719/606 606/718/606
f 607/724/607 564/725/607 565/726/607 603/727/607
f 605/721/608 562/720/608 567/728/608 602/729/608
f 609/730/609 568/731/609 563/732/609 604/733/609
f 604/733/610 563/732/610 564/725/610 607/724/610
f 603/727/611 565/726/611 566/723/611 608/722/611
f 602/729/612 567/728/612 568/731/612 609/730/612
f 569/734/613 573/735/613 574/736/613 562/737/613
f 566/738/614 571/739/614 573/735/614 569/734/614
f 564/740/615 572/741/615 576/742/615 565/743/615
f 562/737/616 574/736/616 577/744/616 567/745/616
f 568/746/617 570/747/617 575/748/617 563/749/617
f 563/749/618 575/748/618 572/741/618 564/740/618
f 565/743/619 576/742/619 571/739/619 566/738/619
f 567/745/620 577/744/620 570/747/620 568/746/620
f 601/750/621 581/751/621 582/752/621 594/753/621
f 599/754/622 579/755/622 581/751/622 601/750/622
f 600/756/623 580/757/623 584/758/623 596/759/623
f 594/753/624 582/752/624 585/760/624 597/761/624
f 598/762/625 578/763/625 583/764/625 595/765/625
f 595/765/626 583/764/626 580/757/626 600/756/626
f 596/759/627 584/758/627 579/755/627 599/754/627
f 597/761/628 585/760/628 578/763/628 598/762/628
f 581/751/629 589/668/629 590/665/629 582/752/629
f 579/755/630 587/660/630 589/668/630 581/751/630
f 580/757/631 588/664/631 592/657/631 584/758/631
f 582/752/632 590/665/632 593/653/632 585/760/632
f 578/763/633 586/656/633 591/661/633 583/764/633
f 583/764/634 591/661/634 588/664/634 580/757/634
f 584/758/635 592/657/635 587/660/635 579/755/635
f 585/760/636 593/653/636 586/656/636 578/763/636
f 577/744/637 597/761/637 598/762/637 570/747/637
f 576/742/638 596/759/638 599/754/638 571/739/638
f 575/748/639 595/765/639 600/756/639 572/741/639
f 570/747/640 598/762/640 595/765/640 575/748/640
f 574/736/641 594/753/641 597/761/641 577/744/641
f 572/741/642 600/756/642 596/759/642 576/742/642
f 571/739/643 599/754/643 601/750/643 573/735/643
f 573/735/644 601/750/644 594/753/644 574/736/644
f 610/766/645 602/729/645 609/730/645 617/767/645
f 611/768/646 603/727/646 608/722/646 616/769/646
f 612/770/647 604/733/647 607/724/647 615/771/647
f 617/767/648 609/730/648 604/733/648 612/770/648
f 613/772/649 605/721/649 602/729/649 610/766/649
f 615/771/650 607/724/650 603/727/650 611/768/650
f 616/769/651 608/722/651 606/718/651 614/773/651
f 614/773/652 606/718/652 605/721/652 613/772/652
f 622/774/653 614/773/653 613/772/653 621/775/653
f 624/776/654 616/769/654 614/773/654 622/774/654
f 623/777/655 615/771/655 611/768/655 619/778/655
f 621/775/656 613/772/656 610/766/656 618/779/656
f 625/780/657 617/767/657 612/770/657 620/781/657
f 620/781/658 612/770/658 615/771/658 623/777/658
f 619/778/659 611/768/659 616/769/659 624/776/659
f 618/779/660 610/766/660 617/767/660 625/780/660
f 626/782/661 618/779/661 625/780/661 633/783/661
f 627/784/662 619/778/662 624/776/662 632/785/662
f 628/786/663 620/781/663 623/777/663 631/787/663
f 633/783/664 625/780/664 620/781/664 628/786/664
f 629/788/665 621/775/665 618/779/665 626/782/665
f 631/787/666 623/777/666 619/778/666 627/784/666
f 632/785/667 624/776/667 622/774/667 630/789/667
f 630/789/668 622/774/668 621/775/668 629/788/668
f 513/639/669 630/789/669 629/788/669 515/652/669
f 516/638/670 632/785/670 630/789/670 513/639/670
f 518/643/671 631/787/671 627/784/671 519/645/671
f 515/652/672 629/788/672 626/782/672 520/650/672
f 517/648/673 633/783/673 628/786/673 514/642/673
f 514/642/674 628/786/674 631/787/674 518/643/674
f 519/645/675 627/784/675 632/785/675 516/638/675
f 520/650/676 626/782/676 633/783/676 517/648/676
f 455/790/677 649/791/677 642/792/677 426/793/677
f 400/794/678 639/795/678 645/796/678 437/797/678
f 638/798/679 651/799/679 643/800/679
f 643/801/680 652/802/680 637/803/680
f 420/804/681 640/805/681 650/806/681 456/807/681
f 399/808/682 638/809/682 644/810/682 436/811/682
f 679/812/683 697/813/683 317/814/683 58/815/683
f 399/816/684 634/817/684 651/799/684 638/798/684
f 634/817/685 435/818/685 643/800/685 651/799/685
f 456/807/686 650/806/686 636/819/686 370/820/686
f 423/821/687 641/822/687 647/823/687 453/824/687
f 370/820/688 636/819/688 646/825/688 442/826/688
f 435/827/689 635/828/689 652/802/689 643/801/689
f 635/828/690 398/829/690 637/803/690 652/802/690
f 442/826/691 646/825/691 637/830/691 398/831/691
f 398/832/692 435/833/692 643/801/692 637/803/692
f 453/824/693 647/823/693 640/805/693 420/804/693
f 426/793/694 642/792/694 648/834/694 454/835/694
f 454/835/695 648/834/695 641/822/695 423/821/695
f 435/836/696 399/837/696 638/798/696 643/800/696
f 687/838/697 698/839/697 649/791/697 455/790/697
f 436/811/698 644/810/698 639/795/698 400/794/698
f 435/840/699 634/841/699 399/842/699
f 398/843/700 635/844/700 435/845/700
f 87/846/701 664/436/701 675/437/701 324/847/701
f 101/351/702 656/380/702 674/383/702 330/352/702
f 101/192/703 166/191/703 673/95/703 656/189/703
f 108/848/704 75/849/704 660/186/138 672/188/137
f 74/850/705 108/848/705 672/188/705 661/128/705
f 109/851/706 76/852/706 659/184/133 671/187/132
f 75/849/707 109/851/707 671/187/130 660/186/129
f 115/853/708 43/854/708 662/175/126 670/185/126
f 76/852/709 115/853/709 670/185/124 659/184/123
f 124/132/710 664/182/710 668/179/710 156/73/710
f 156/73/34 668/179/106 655/110/106 34/74/35
f 144/855/711 654/171/91 662/175/94 43/854/712
f 96/856/713 657/162/90 654/171/91 144/855/711
f 135/857/714 666/137/714 657/162/714 96/856/714
f 25/97/78 653/96/78 665/138/78 138/858/78
f 132/859/715 667/145/715 658/134/715 93/860/715
f 90/861/716 663/141/716 667/145/716 132/859/716
f 138/858/717 665/138/67 663/141/67 90/861/717
f 93/860/718 658/134/64 666/137/66 135/857/718
f 121/862/719 74/850/719 661/128/719 669/111/719
f 40/181/720 121/862/720 669/111/48 655/110/47
f 166/191/43 36/161/43 653/96/43 673/95/43
f 87/863/721 324/864/721 698/839/721 687/838/721
f 437/797/722 645/796/722 697/813/722 679/812/722
f 437/634/723 679/632/723 696/538/723 492/635/723
f 108/865/724 695/631/488 683/629/490 75/866/724
f 74/867/725 684/572/725 695/631/725 108/865/725
f 109/868/726 694/630/483 682/627/485 76/869/726
f 75/866/727 683/629/480 694/630/482 109/868/727
f 115/870/728 693/628/477 685/618/477 43/871/728
f 76/869/729 682/627/474 693/628/476 115/870/729
f 455/575/730 482/518/730 691/622/730 687/625/730
f 482/518/386 380/517/385 678/553/456 691/622/456
f 144/872/731 43/871/732 685/618/443 677/614/441
f 96/873/733 144/872/731 677/614/441 680/605/440
f 135/874/734 96/873/734 680/605/734 689/578/734
f 25/540/429 138/875/429 688/581/429 676/541/429
f 132/876/735 93/877/735 681/577/735 690/587/735
f 90/878/736 132/876/736 690/587/736 686/582/736
f 138/875/737 90/878/737 686/582/418 688/581/418
f 93/877/738 135/874/738 689/578/416 681/577/415
f 121/879/739 692/555/739 684/572/739 74/867/739
f 40/623/740 678/553/398 692/555/401 121/879/740
f 492/635/394 696/538/394 676/541/394 382/604/394
