# Blender 4.4.1
# www.blender.org
mtllib Hair4FixedFixed_.mtl
o Cube
v -0.554611 3.707755 0.542315
v -0.498125 4.804635 0.488895
v -0.558417 3.750838 -0.437314
v -0.498074 4.800975 -0.473823
v -0.628362 3.680893 -0.257858
v -0.663496 3.645759 0.069065
v -0.629075 3.680893 0.316755
v -0.623235 3.931592 0.559254
v -0.602833 4.317835 0.567662
v -0.568070 4.609615 0.558840
v -0.568070 4.874580 0.293875
v -0.604724 4.917081 -0.001635
v -0.568020 4.870920 -0.278803
v -0.568306 4.605955 -0.547495
v -0.603441 4.321457 -0.560123
v -0.628362 3.945858 -0.501677
v -0.568733 3.688267 -0.477872
v -0.303054 4.870920 -0.543768
v 0.000000 4.906054 -0.578902
v -0.359591 3.670250 0.606678
v 0.000000 3.635116 0.639008
v 0.000000 4.909715 0.593974
v -0.303105 4.874580 0.558840
v -0.773507 3.916507 0.329047
v -0.768645 4.321457 0.309161
v -0.717735 4.628323 0.312583
v -0.828701 3.910862 0.003936
v -0.823960 4.321457 0.001968
v -0.769929 4.651978 -0.001635
v -0.778026 3.927150 -0.275073
v -0.768645 4.321457 -0.305225
v -0.717684 4.624663 -0.297511
v -0.543095 3.927150 -0.616315
v -0.431514 4.467242 -0.679404
v -0.322049 4.675426 -0.697159
v 0.000000 4.439704 -0.772152
v 0.000000 4.735948 -0.707261
v 0.000000 3.896597 0.743605
v 0.000000 4.317835 0.779691
v 0.000000 4.691752 0.762782
v -0.376978 3.912884 0.696975
v -0.468009 4.317835 0.726506
v -0.321205 4.624701 0.712107
v -0.587441 3.538602 -0.251268
v -0.603729 3.487928 0.027740
v -0.460097 3.503585 0.406463
v 0.000000 3.467511 0.532897
v 0.000000 5.071259 -0.313799
v -0.321762 5.020584 -0.297511
v 0.000000 5.137600 -0.001635
v -0.339621 5.082285 -0.001635
v 0.000000 5.082286 0.317858
v -0.323333 5.031611 0.301571
v -0.593389 3.715866 -0.347586
v -0.645929 3.663326 -0.094396
v -0.646285 3.663326 0.192910
v -0.589583 3.689003 0.452587
v -0.589227 3.821485 0.548983
v -0.610775 4.119392 0.586510
v -0.586549 4.471111 0.557745
v -0.533098 4.707125 0.523867
v -0.533098 4.839608 0.391385
v -0.587157 4.899514 0.140614
v -0.586870 4.899514 -0.140157
v -0.533047 4.835948 -0.376313
v -0.533047 4.703465 -0.508795
v -0.585873 4.463706 -0.553809
v -0.615901 4.133657 -0.530900
v -0.593389 3.848348 -0.469495
v -0.548220 3.719552 -0.469134
v -0.400564 4.835948 -0.508795
v -0.160805 4.888487 -0.561335
v -0.457101 3.689003 0.574496
v -0.186958 3.652683 0.622843
v -0.160856 4.892148 0.576407
v -0.400615 4.839608 0.523867
v -0.768817 4.113660 0.342156
v -0.744591 4.484087 0.303564
v -0.803363 3.919006 0.143440
v -0.796302 4.321457 0.155565
v -0.744591 4.643834 0.149968
v -0.826330 4.116160 0.002952
v -0.796302 4.481204 0.001968
v -0.803364 3.919006 -0.135569
v -0.796302 4.321457 -0.151629
v -0.743021 4.632807 -0.145908
v -0.773336 4.124303 -0.290149
v -0.743308 4.473060 -0.303232
v -0.698675 3.925861 0.442349
v -0.685435 4.317835 0.440213
v -0.642902 4.618969 0.435711
v -0.642902 4.751452 0.303229
v -0.687326 4.784530 -0.001635
v -0.642852 4.747791 -0.288157
v -0.642852 4.615309 -0.420640
v -0.686043 4.321457 -0.432674
v -0.703194 3.936504 -0.388375
v -0.703194 3.804022 -0.266465
v -0.746099 3.778311 0.036500
v -0.699032 3.793378 0.345953
v -0.487304 4.167914 -0.656100
v -0.361426 4.567434 -0.708063
v -0.275906 4.439704 -0.745559
v -0.170446 4.705687 -0.702210
v 0.000000 4.597694 -0.739706
v -0.570373 3.936504 -0.570537
v -0.502122 4.365067 -0.639545
v -0.445178 4.666072 -0.622327
v -0.312408 4.798555 -0.618600
v 0.000000 4.846383 -0.641218
v -0.555914 3.807708 -0.547094
v 0.000000 4.101894 0.784699
v 0.000000 4.539372 0.763929
v -0.195347 3.904741 0.720290
v -0.243122 4.317835 0.753098
v -0.169602 4.632845 0.737444
v -0.420234 4.110038 0.734792
v -0.394489 4.473098 0.723011
v 0.000000 4.827926 0.676576
v -0.312459 4.751452 0.633672
v -0.444334 4.615347 0.637275
v -0.535421 4.317835 0.647084
v -0.500107 3.922238 0.628114
v -0.367981 3.789756 0.653628
v 0.000000 3.764045 0.693108
v -0.595585 3.513265 -0.111764
v -0.528947 3.480058 0.238354
v -0.221150 3.469850 0.479392
v -0.578087 3.613434 -0.364570
v 0.000000 3.545991 0.609005
v -0.393783 3.576541 0.493230
v -0.526265 3.576541 0.371321
v -0.618258 3.566844 0.036862
v -0.592547 3.609748 -0.266104
v -0.170159 5.045921 -0.305655
v 0.000000 5.109943 -0.161382
v -0.331477 5.056949 -0.153238
v -0.179874 5.109943 -0.001635
v 0.000000 5.109943 0.158112
v -0.331477 5.056949 0.149968
v -0.171730 5.056949 0.309715
v 0.000000 4.988657 -0.446350
v -0.312408 4.945752 -0.420640
v -0.444891 4.945752 -0.288157
v -0.472172 4.999683 -0.001635
v -0.446461 4.956779 0.292217
v -0.312459 4.949412 0.435711
v 0.000000 4.992317 0.461422
v -0.165533 4.970865 0.448567
v -0.422778 4.894510 0.413548
v -0.459317 4.978231 0.145291
v -0.459317 4.978231 -0.148561
v -0.422728 4.890850 -0.398476
v -0.165482 4.967204 -0.433495
v -0.175802 5.083446 0.154040
v -0.175802 5.083446 -0.157310
v -0.605402 3.588295 -0.114621
v -0.572261 3.571692 0.204091
v -0.489424 3.627450 0.495960
v -0.201794 3.555944 0.574169
v -0.570383 3.664650 -0.367619
v -0.190849 3.776901 0.673368
v -0.478300 3.803809 0.603107
v -0.515504 4.114715 0.660651
v -0.491279 4.475788 0.634872
v -0.422778 4.729289 0.578770
v -0.165533 4.764307 0.655124
v -0.207764 4.484537 0.737964
v -0.216975 4.105966 0.759746
v -0.165482 4.822469 -0.629909
v -0.422728 4.725628 -0.563698
v -0.473650 4.490188 -0.630936
v -0.536248 4.150785 -0.605041
v -0.559297 3.828028 -0.519835
v -0.190135 4.582564 -0.723885
v -0.724824 3.791166 0.168175
v -0.724646 3.791166 -0.114982
v -0.648292 3.826185 -0.367980
v -0.694618 4.128981 -0.410524
v -0.664591 4.468383 -0.428520
v -0.587949 4.725628 -0.398476
v -0.665588 4.771674 -0.144834
v -0.665874 4.771674 0.145291
v -0.588000 4.729289 0.413548
v -0.665266 4.475788 0.432456
v -0.689492 4.114715 0.466134
v -0.644129 3.807431 0.447468
v -0.769805 4.477132 -0.150632
v -0.799833 4.120232 -0.143599
v -0.769805 4.477132 0.154568
v -0.799833 4.120232 0.149502
v -0.495298 3.685459 0.489982
v -0.445908 4.655927 0.438281
v -0.499187 3.724754 -0.380639
v -0.445857 4.652267 -0.412450
v -0.560965 3.662977 -0.222138
v -0.591997 3.631945 0.066610
v -0.561594 3.662977 0.285378
v -0.556446 3.886358 0.501761
v -0.538346 4.225120 0.507406
v -0.508598 4.487424 0.492650
v -0.507686 4.717704 0.266034
v -0.540237 4.756103 0.003745
v -0.507635 4.714044 -0.240202
v -0.507922 4.480019 -0.477954
v -0.538954 4.228742 -0.489107
v -0.560965 3.897002 -0.437486
v -0.511885 3.669489 -0.413766
v -0.273610 4.714044 -0.474227
v 0.000000 4.795839 -0.505259
v -0.323050 3.652333 0.546829
v 0.000000 3.621302 0.575385
v 0.000000 4.799500 0.531091
v -0.273661 4.717704 0.500059
v -0.688634 3.869835 0.301618
v -0.684867 4.228742 0.278670
v -0.641394 4.507570 0.271545
v -0.737910 3.866092 0.009086
v -0.733723 4.228742 0.007348
v -0.684867 4.510928 0.007348
v -0.693153 3.880478 -0.237343
v -0.684867 4.228742 -0.263974
v -0.640110 4.496542 -0.260453
v -0.489241 3.880478 -0.536043
v -0.390689 4.428165 -0.591765
v -0.290420 4.496542 -0.610142
v 0.000000 4.397122 -0.676378
v 0.000000 4.549996 -0.619065
v 0.000000 3.851827 0.668188
v 0.000000 4.214477 0.740780
v 0.000000 4.569097 0.669595
v -0.338337 3.866213 0.627003
v -0.419265 4.225120 0.647702
v -0.291096 4.503948 0.624838
v -0.528409 3.537301 -0.213622
v -0.542794 3.492544 0.032806
v -0.410696 3.478642 0.404847
v 0.000000 3.474511 0.476281
v 0.000000 4.890989 -0.271111
v -0.290134 4.846232 -0.256726
v 0.000000 4.950872 0.003745
v -0.306090 4.902016 0.003745
v 0.000000 4.894650 0.296943
v -0.290184 4.849893 0.282557
v -0.530076 3.693865 -0.301388
v -0.576481 3.647461 -0.077764
v -0.576796 3.647461 0.175994
v -0.526187 3.668896 0.410732
v -0.525872 3.785909 0.495872
v -0.544833 4.048606 0.529437
v -0.522830 4.350759 0.501830
v -0.476797 4.569803 0.469170
v -0.476797 4.686816 0.352158
v -0.524721 4.740587 0.129383
v -0.523438 4.729560 -0.118291
v -0.476746 4.683156 -0.326326
v -0.477033 4.566143 -0.447065
v -0.523438 4.354381 -0.483531
v -0.549959 4.062872 -0.463297
v -0.530076 3.810878 -0.409063
v -0.490181 3.697122 -0.408743
v -0.359734 4.683156 -0.443339
v -0.147972 4.729560 -0.489743
v -0.409174 3.668896 0.518406
v -0.170576 3.636817 0.561107
v -0.148022 4.733220 0.515575
v -0.359785 4.686816 0.469170
v -0.684491 4.043967 0.313196
v -0.662489 4.362642 0.276909
v -0.715532 3.873285 0.132300
v -0.709295 4.228742 0.143009
v -0.662489 4.503736 0.141248
v -0.735816 4.047417 0.008217
v -0.709295 4.369835 0.007348
v -0.715532 3.873285 -0.114128
v -0.709295 4.228742 -0.128313
v -0.662489 4.503736 -0.126552
v -0.689010 4.054610 -0.250658
v -0.662489 4.362642 -0.262213
v -0.622540 3.878096 0.401689
v -0.611303 4.225120 0.394840
v -0.575300 4.499308 0.380296
v -0.575300 4.616321 0.263284
v -0.611910 4.628002 0.007348
v -0.573729 4.605293 -0.248464
v -0.574016 4.488281 -0.369203
v -0.611910 4.228742 -0.376541
v -0.627059 3.888740 -0.337414
v -0.627059 3.771727 -0.229740
v -0.664953 3.749019 0.037848
v -0.622855 3.761084 0.316549
v -0.439965 4.093128 -0.571182
v -0.325199 4.418597 -0.619773
v -0.249665 4.397122 -0.652891
v -0.156520 4.523270 -0.614603
v 0.000000 4.478651 -0.647721
v -0.509748 3.888740 -0.498306
v -0.449466 4.267260 -0.559255
v -0.399171 4.488281 -0.544048
v -0.282159 4.605293 -0.544048
v 0.000000 4.698300 -0.564025
v -0.500563 3.774984 -0.474904
v 0.000000 4.033152 0.704484
v 0.000000 4.416977 0.683938
v -0.177915 3.859020 0.647596
v -0.220639 4.225120 0.671190
v -0.157196 4.511140 0.647217
v -0.376542 4.040344 0.660404
v -0.354539 4.359020 0.638072
v 0.000000 4.678804 0.607651
v -0.281315 4.605331 0.569756
v -0.399847 4.495686 0.558744
v -0.478806 4.225120 0.577554
v -0.447088 3.874474 0.566184
v -0.330997 3.761084 0.585115
v 0.000000 3.738375 0.619985
v -0.535601 3.514923 -0.090408
v -0.476745 3.485593 0.218827
v -0.201303 3.476577 0.429023
v -0.520147 3.603395 -0.313694
v 0.000000 3.542584 0.548884
v -0.353778 3.570809 0.441246
v -0.470790 3.570809 0.333571
v -0.552040 3.562244 0.038167
v -0.529332 3.600139 -0.229421
v -0.156233 4.868611 -0.263919
v 0.000000 4.926444 -0.137348
v -0.298897 4.879638 -0.130155
v -0.164997 4.926444 0.003745
v 0.000000 4.926444 0.144838
v -0.298897 4.879638 0.137645
v -0.156284 4.872271 0.289750
v 0.000000 4.818033 -0.388185
v -0.281872 4.780138 -0.365477
v -0.398884 4.780138 -0.248464
v -0.423164 4.829060 0.003745
v -0.398935 4.783798 0.274296
v -0.281923 4.783798 0.391308
v 0.000000 4.821693 0.414017
v -0.152153 4.802746 0.402663
v -0.379360 4.735307 0.371733
v -0.411809 4.810112 0.133514
v -0.411809 4.810112 -0.126025
v -0.379309 4.731647 -0.345901
v -0.152102 4.799086 -0.376831
v -0.161400 4.903041 0.141242
v -0.161400 4.903041 -0.133752
v -0.540686 3.581192 -0.095627
v -0.511415 3.566527 0.185869
v -0.442242 3.625175 0.402937
v -0.188199 3.562019 0.472013
v -0.509756 3.648630 -0.319082
v -0.174549 3.749730 0.602550
v -0.459145 3.773496 0.563575
v -0.460687 4.044476 0.594921
v -0.438684 4.354889 0.569951
v -0.379360 4.589378 0.517662
v -0.151545 4.616686 0.588703
v -0.188275 4.362617 0.661005
v -0.197017 4.036748 0.682444
v -0.152389 4.626415 -0.554037
v -0.379596 4.585718 -0.495557
v -0.424319 4.451530 -0.548435
v -0.479607 4.078000 -0.528780
v -0.499964 3.792931 -0.453524
v -0.173910 4.414524 -0.633747
v -0.646164 3.760373 0.154147
v -0.646006 3.760373 -0.095946
v -0.578568 3.791303 -0.319401
v -0.619485 4.058741 -0.356978
v -0.592963 4.358511 -0.372872
v -0.525238 4.585718 -0.345901
v -0.592963 4.616648 -0.122421
v -0.594247 4.627675 0.133514
v -0.525289 4.589378 0.371733
v -0.592355 4.354889 0.391171
v -0.614966 4.048098 0.419515
v -0.574363 3.773496 0.406210
v -0.685892 4.366239 -0.127433
v -0.712413 4.051013 -0.121221
v -0.685892 4.366239 0.142129
v -0.712413 4.051013 0.137655
v 0.554611 3.707755 0.542315
v 0.498125 4.804635 0.488895
v 0.558417 3.750838 -0.437314
v 0.498074 4.800975 -0.473823
v 0.628362 3.680893 -0.257858
v 0.663496 3.645759 0.069065
v 0.629075 3.680893 0.316755
v 0.623235 3.931592 0.559254
v 0.602833 4.317835 0.567662
v 0.568070 4.609615 0.558840
v 0.568070 4.874580 0.293875
v 0.604724 4.917081 -0.001635
v 0.568020 4.870920 -0.278803
v 0.568306 4.605955 -0.547495
v 0.603441 4.321457 -0.560123
v 0.628362 3.945858 -0.501677
v 0.568733 3.688267 -0.477872
v 0.303054 4.870920 -0.543768
v 0.359591 3.670250 0.606678
v 0.303105 4.874580 0.558840
v 0.773507 3.916507 0.329047
v 0.768645 4.321457 0.309161
v 0.717735 4.628323 0.312583
v 0.828701 3.910862 0.003936
v 0.823960 4.321457 0.001968
v 0.769929 4.651978 -0.001635
v 0.778026 3.927150 -0.275073
v 0.768645 4.321457 -0.305225
v 0.717684 4.624663 -0.297511
v 0.543095 3.927150 -0.616315
v 0.431514 4.467242 -0.679404
v 0.322049 4.675426 -0.697159
v 0.376978 3.912884 0.696975
v 0.468009 4.317835 0.726506
v 0.321205 4.624701 0.712107
v 0.587441 3.538602 -0.251268
v 0.603729 3.487928 0.027740
v 0.460097 3.503585 0.406463
v 0.321762 5.020584 -0.297511
v 0.339621 5.082285 -0.001635
v 0.323333 5.031611 0.301571
v 0.593389 3.715866 -0.347586
v 0.645929 3.663326 -0.094396
v 0.646285 3.663326 0.192910
v 0.589583 3.689003 0.452587
v 0.589227 3.821485 0.548983
v 0.610775 4.119392 0.586510
v 0.586549 4.471111 0.557745
v 0.533098 4.707125 0.523867
v 0.533098 4.839608 0.391385
v 0.587157 4.899514 0.140614
v 0.586870 4.899514 -0.140157
v 0.533047 4.835948 -0.376313
v 0.533047 4.703465 -0.508795
v 0.585873 4.463706 -0.553809
v 0.615901 4.133657 -0.530900
v 0.593389 3.848348 -0.469495
v 0.548220 3.719552 -0.469134
v 0.400564 4.835948 -0.508795
v 0.160805 4.888487 -0.561335
v 0.457101 3.689003 0.574496
v 0.186958 3.652683 0.622843
v 0.160856 4.892148 0.576407
v 0.400615 4.839608 0.523867
v 0.768817 4.113660 0.342156
v 0.744591 4.484087 0.303564
v 0.803363 3.919006 0.143440
v 0.796302 4.321457 0.155565
v 0.744591 4.643834 0.149968
v 0.826330 4.116160 0.002952
v 0.796302 4.481204 0.001968
v 0.803364 3.919006 -0.135569
v 0.796302 4.321457 -0.151629
v 0.743021 4.632807 -0.145908
v 0.773336 4.124303 -0.290149
v 0.743308 4.473060 -0.303232
v 0.698675 3.925861 0.442349
v 0.685435 4.317835 0.440213
v 0.642902 4.618969 0.435711
v 0.642902 4.751452 0.303229
v 0.687326 4.784530 -0.001635
v 0.642852 4.747791 -0.288157
v 0.642852 4.615309 -0.420640
v 0.686043 4.321457 -0.432674
v 0.703194 3.936504 -0.388375
v 0.703194 3.804022 -0.266465
v 0.746099 3.778311 0.036500
v 0.699032 3.793378 0.345953
v 0.487304 4.167914 -0.656100
v 0.361426 4.567434 -0.708063
v 0.275906 4.439704 -0.745559
v 0.170446 4.705687 -0.702210
v 0.570373 3.936504 -0.570537
v 0.502122 4.365067 -0.639545
v 0.445178 4.666072 -0.622327
v 0.312408 4.798555 -0.618600
v 0.555914 3.807708 -0.547094
v 0.195347 3.904741 0.720290
v 0.243122 4.317835 0.753098
v 0.169602 4.632845 0.737444
v 0.420234 4.110038 0.734792
v 0.394489 4.473098 0.723011
v 0.312459 4.751452 0.633672
v 0.444334 4.615347 0.637275
v 0.535421 4.317835 0.647084
v 0.500107 3.922238 0.628114
v 0.367981 3.789756 0.653628
v 0.595585 3.513265 -0.111764
v 0.528947 3.480058 0.238354
v 0.221150 3.469850 0.479392
v 0.578087 3.613434 -0.364570
v 0.393783 3.576541 0.493230
v 0.526265 3.576541 0.371321
v 0.618258 3.566844 0.036862
v 0.592547 3.609748 -0.266104
v 0.170159 5.045921 -0.305655
v 0.331477 5.056949 -0.153238
v 0.179874 5.109943 -0.001635
v 0.331477 5.056949 0.149968
v 0.171730 5.056949 0.309715
v 0.312408 4.945752 -0.420640
v 0.444891 4.945752 -0.288157
v 0.472172 4.999683 -0.001635
v 0.446461 4.956779 0.292217
v 0.312459 4.949412 0.435711
v 0.165533 4.970865 0.448567
v 0.422778 4.894510 0.413548
v 0.459317 4.978231 0.145291
v 0.459317 4.978231 -0.148561
v 0.422728 4.890850 -0.398476
v 0.165482 4.967204 -0.433495
v 0.175802 5.083446 0.154040
v 0.175802 5.083446 -0.157310
v 0.605402 3.588295 -0.114621
v 0.572261 3.571692 0.204091
v 0.489424 3.627450 0.495960
v 0.201794 3.555944 0.574169
v 0.570383 3.664650 -0.367619
v 0.190849 3.776901 0.673368
v 0.478300 3.803809 0.603107
v 0.515504 4.114715 0.660651
v 0.491279 4.475788 0.634872
v 0.422778 4.729289 0.578770
v 0.165533 4.764307 0.655124
v 0.207764 4.484537 0.737964
v 0.216975 4.105966 0.759746
v 0.165482 4.822469 -0.629909
v 0.422728 4.725628 -0.563698
v 0.473650 4.490188 -0.630936
v 0.536248 4.150785 -0.605041
v 0.559297 3.828028 -0.519835
v 0.190135 4.582564 -0.723885
v 0.724824 3.791166 0.168175
v 0.724646 3.791166 -0.114982
v 0.648292 3.826185 -0.367980
v 0.694618 4.128981 -0.410524
v 0.664591 4.468383 -0.428520
v 0.587949 4.725628 -0.398476
v 0.665588 4.771674 -0.144834
v 0.665874 4.771674 0.145291
v 0.588000 4.729289 0.413548
v 0.665266 4.475788 0.432456
v 0.689492 4.114715 0.466134
v 0.644129 3.807431 0.447468
v 0.769805 4.477132 -0.150632
v 0.799833 4.120232 -0.143599
v 0.769805 4.477132 0.154568
v 0.799833 4.120232 0.149502
v 0.495298 3.685459 0.489982
v 0.445908 4.655927 0.438281
v 0.499187 3.724754 -0.380639
v 0.445857 4.652267 -0.412450
v 0.560965 3.662977 -0.222138
v 0.591997 3.631945 0.066610
v 0.561594 3.662977 0.285378
v 0.556446 3.886358 0.501761
v 0.538346 4.225120 0.507406
v 0.508598 4.487424 0.492650
v 0.507686 4.717704 0.266034
v 0.540237 4.756103 0.003745
v 0.507635 4.714044 -0.240202
v 0.507922 4.480019 -0.477954
v 0.538954 4.228742 -0.489107
v 0.560965 3.897002 -0.437486
v 0.511885 3.669489 -0.413766
v 0.273610 4.714044 -0.474227
v 0.323050 3.652333 0.546829
v 0.273661 4.717704 0.500059
v 0.688634 3.869835 0.301618
v 0.684867 4.228742 0.278670
v 0.641394 4.507570 0.271545
v 0.737910 3.866092 0.009086
v 0.733723 4.228742 0.007348
v 0.684867 4.510928 0.007348
v 0.693153 3.880478 -0.237343
v 0.684867 4.228742 -0.263974
v 0.640110 4.496542 -0.260453
v 0.489241 3.880478 -0.536043
v 0.390689 4.428165 -0.591765
v 0.290420 4.496542 -0.610142
v 0.338337 3.866213 0.627003
v 0.419265 4.225120 0.647702
v 0.291096 4.503948 0.624838
v 0.528409 3.537301 -0.213622
v 0.542794 3.492544 0.032806
v 0.410696 3.478642 0.404847
v 0.290134 4.846232 -0.256726
v 0.306090 4.902016 0.003745
v 0.290184 4.849893 0.282557
v 0.530076 3.693865 -0.301388
v 0.576481 3.647461 -0.077764
v 0.576796 3.647461 0.175994
v 0.526187 3.668896 0.410732
v 0.525872 3.785909 0.495872
v 0.544833 4.048606 0.529437
v 0.522830 4.350759 0.501830
v 0.476797 4.569803 0.469170
v 0.476797 4.686816 0.352158
v 0.524721 4.740587 0.129383
v 0.523438 4.729560 -0.118291
v 0.476746 4.683156 -0.326326
v 0.477033 4.566143 -0.447065
v 0.523438 4.354381 -0.483531
v 0.549959 4.062872 -0.463297
v 0.530076 3.810878 -0.409063
v 0.490181 3.697122 -0.408743
v 0.359734 4.683156 -0.443339
v 0.147972 4.729560 -0.489743
v 0.409174 3.668896 0.518406
v 0.170576 3.636817 0.561107
v 0.148022 4.733220 0.515575
v 0.359785 4.686816 0.469170
v 0.684491 4.043967 0.313196
v 0.662489 4.362642 0.276909
v 0.715532 3.873285 0.132300
v 0.709295 4.228742 0.143009
v 0.662489 4.503736 0.141248
v 0.735816 4.047417 0.008217
v 0.709295 4.369835 0.007348
v 0.715532 3.873285 -0.114128
v 0.709295 4.228742 -0.128313
v 0.662489 4.503736 -0.126552
v 0.689010 4.054610 -0.250658
v 0.662489 4.362642 -0.262213
v 0.622540 3.878096 0.401689
v 0.611303 4.225120 0.394840
v 0.575300 4.499308 0.380296
v 0.575300 4.616321 0.263284
v 0.611910 4.628002 0.007348
v 0.573729 4.605293 -0.248464
v 0.574016 4.488281 -0.369203
v 0.611910 4.228742 -0.376541
v 0.627059 3.888740 -0.337414
v 0.627059 3.771727 -0.229740
v 0.664953 3.749019 0.037848
v 0.622855 3.761084 0.316549
v 0.439965 4.093128 -0.571182
v 0.325199 4.418059 -0.619773
v 0.249665 4.397122 -0.652891
v 0.156520 4.523270 -0.614603
v 0.509748 3.888740 -0.498306
v 0.449466 4.267260 -0.559255
v 0.399171 4.488281 -0.544048
v 0.282159 4.605293 -0.544048
v 0.500563 3.774984 -0.474904
v 0.177915 3.859020 0.647596
v 0.220639 4.225120 0.671190
v 0.157196 4.511140 0.647217
v 0.376542 4.040344 0.660404
v 0.354539 4.359020 0.638072
v 0.281315 4.605331 0.569756
v 0.399847 4.495686 0.558744
v 0.478806 4.225120 0.577554
v 0.447088 3.874474 0.566184
v 0.330997 3.761084 0.585115
v 0.535601 3.514923 -0.090408
v 0.476745 3.485593 0.218827
v 0.201303 3.476577 0.429023
v 0.520147 3.603395 -0.313694
v 0.353778 3.570809 0.441246
v 0.470790 3.570809 0.333571
v 0.552040 3.562244 0.038167
v 0.529332 3.600139 -0.229421
v 0.156233 4.868611 -0.263919
v 0.298897 4.879638 -0.130155
v 0.164997 4.926444 0.003745
v 0.298897 4.879638 0.137645
v 0.156284 4.872271 0.289750
v 0.281872 4.780138 -0.365477
v 0.398884 4.780138 -0.248464
v 0.423164 4.829060 0.003745
v 0.398935 4.783798 0.274296
v 0.281923 4.783798 0.391308
v 0.152153 4.802746 0.402663
v 0.379360 4.735307 0.371733
v 0.411809 4.810112 0.133514
v 0.411809 4.810112 -0.126025
v 0.379309 4.731647 -0.345901
v 0.152102 4.799086 -0.376831
v 0.161400 4.903041 0.141242
v 0.161400 4.903041 -0.133752
v 0.540686 3.581192 -0.095627
v 0.511415 3.566527 0.185869
v 0.442242 3.625175 0.402937
v 0.188199 3.562019 0.472013
v 0.509756 3.648630 -0.319082
v 0.174549 3.749730 0.602550
v 0.459145 3.773496 0.563575
v 0.460687 4.044476 0.594921
v 0.438684 4.354889 0.569951
v 0.379360 4.589378 0.517662
v 0.151545 4.616686 0.588703
v 0.188275 4.362617 0.661005
v 0.197017 4.036748 0.682444
v 0.152389 4.626415 -0.554037
v 0.379596 4.585718 -0.495557
v 0.424319 4.457458 -0.561264
v 0.479607 4.078000 -0.528780
v 0.499964 3.792931 -0.453524
v 0.173910 4.414524 -0.633747
v 0.646164 3.760373 0.154147
v 0.646006 3.760373 -0.095946
v 0.578568 3.791303 -0.319401
v 0.619485 4.058741 -0.356978
v 0.592963 4.358511 -0.372872
v 0.525238 4.585718 -0.345901
v 0.592963 4.616648 -0.122421
v 0.594247 4.627675 0.133514
v 0.525289 4.589378 0.371733
v 0.592355 4.354889 0.391171
v 0.614966 4.048098 0.419515
v 0.574363 3.773496 0.406210
v 0.685892 4.366239 -0.127433
v 0.712413 4.051013 -0.121221
v 0.685892 4.366239 0.142129
v 0.712413 4.051013 0.137655
vn -0.9840 0.0121 0.1776
vn -0.9841 0.0121 0.1774
vn -0.9725 0.1597 0.1698
vn -0.9740 0.1530 0.1669
vn -0.9732 0.1529 0.1720
vn -0.9840 0.0102 -0.1776
vn -0.9841 0.0102 -0.1774
vn -0.9841 0.0100 -0.1774
vn -0.9840 0.0100 -0.1776
vn -0.9704 0.1680 -0.1733
vn -0.9701 0.1713 -0.1722
vn -0.9704 0.1683 -0.1730
vn -0.7774 -0.3687 0.5097
vn -0.8397 0.0853 0.5363
vn -0.8359 0.0855 0.5422
vn -0.8398 0.0855 0.5361
vn -0.8412 0.1220 0.5267
vn -0.8425 0.1179 0.5256
vn -0.8429 0.1220 0.5241
vn -0.7503 0.4786 0.4560
vn -0.8367 0.5214 0.1678
vn -0.8367 0.5214 0.1677
vn -0.8269 0.5182 -0.2184
vn -0.7644 0.4559 -0.4559
vn -0.8426 0.1401 -0.5200
vn -0.8362 -0.0258 -0.5479
vn -0.8375 -0.0275 -0.5457
vn -0.8375 -0.0274 -0.5457
vn -0.8377 -0.0272 -0.5455
vn -0.7353 -0.4469 -0.5096
vn -0.8313 -0.5286 -0.1718
vn -0.8532 -0.4870 0.1865
vn -0.8534 -0.4875 0.1844
vn -0.8534 -0.4876 0.1845
vn -0.0936 0.2107 -0.9731
vn -0.0826 0.2080 -0.9746
vn -0.0823 0.2028 -0.9757
vn -0.9316 -0.1637 -0.3246
vn -0.6175 0.0196 -0.7863
vn -0.5814 0.1933 -0.7903
vn -0.5546 0.5433 -0.6303
vn -0.1513 0.7157 -0.6818
vn -0.1189 0.0207 0.9927
vn -0.1115 0.0141 0.9937
vn -0.1194 0.0143 0.9927
vn -0.1226 0.0832 0.9890
vn -0.1677 0.5241 0.8350
vn -0.1677 0.5213 0.8367
vn -0.1681 0.5214 0.8366
vn -0.4559 0.4559 0.7644
vn -0.5784 0.1260 0.8059
vn -0.6853 0.0383 0.7272
vn -0.4730 -0.2461 0.8460
vn -0.1317 -0.3491 0.9278
vn -0.1272 -0.3456 0.9297
vn -0.1317 -0.3418 0.9305
vn -0.9894 -0.0002 -0.1453
vn -0.1466 -0.3757 0.9151
vn -0.3420 -0.6692 0.6597
vn -0.8448 -0.4248 0.3253
vn -0.9838 -0.1517 -0.0954
vn -0.1689 0.9708 -0.1705
vn -0.1697 0.9706 0.1705
vn -0.1705 0.9705 0.1705
vn -0.1678 0.8367 -0.5213
vn -0.4786 0.7503 -0.4560
vn -0.5223 0.8358 -0.1691
vn -0.5233 0.8349 -0.1704
vn -0.5344 0.8249 0.1843
vn -0.4559 0.7644 0.4559
vn -0.1677 0.8356 0.5231
vn -0.1677 0.8356 0.5232
vn -0.1678 0.8367 0.5213
vn -0.1490 0.8385 0.5241
vn -0.1491 0.8394 0.5227
vn -0.1489 0.8377 0.5255
vn -0.1677 0.8345 0.5249
vn -0.4560 0.7503 0.4786
vn -0.4746 0.7371 0.4810
vn -0.4815 0.7457 0.4604
vn -0.5213 0.8367 0.1678
vn -0.5214 0.8367 0.1678
vn -0.5214 0.8367 0.1677
vn -0.5214 0.8367 -0.1678
vn -0.5161 0.8213 -0.2431
vn -0.5176 0.8205 -0.2426
vn -0.5177 0.8205 -0.2425
vn -0.5192 0.8197 -0.2420
vn -0.4755 0.7401 -0.4755
vn -0.4560 0.7503 -0.4786
vn -0.4559 0.7644 -0.4559
vn -0.1494 0.8393 -0.5227
vn -0.1497 0.8393 -0.5227
vn -0.1491 0.8394 -0.5227
vn -0.1677 0.8367 -0.5213
vn -0.1507 0.9740 0.1692
vn -0.1512 0.9739 0.1692
vn -0.1502 0.9741 0.1692
vn -0.1689 0.9708 0.1705
vn -0.1502 0.9741 -0.1692
vn -0.1521 0.9574 -0.2454
vn -0.1707 0.9532 -0.2496
vn -0.8842 -0.4454 -0.1404
vn -0.8888 -0.4365 -0.1397
vn -0.8845 -0.4449 -0.1406
vn -0.8886 -0.4368 -0.1400
vn -0.9897 -0.1119 -0.0894
vn -0.7599 -0.6144 0.2123
vn -0.7876 -0.5773 0.2155
vn -0.9182 -0.2685 0.2914
vn -0.4850 -0.6979 0.5270
vn -0.6882 -0.6376 0.3462
vn -0.5568 -0.5690 0.6051
vn -0.2654 -0.5844 0.7668
vn -0.3309 -0.6269 0.7054
vn -0.1653 -0.7010 0.6938
vn -0.8569 -0.3182 -0.4056
vn -0.9248 -0.1533 -0.3483
vn -0.9459 0.3198 0.0543
vn -0.1270 -0.3801 0.9162
vn -0.1178 -0.3744 0.9198
vn -0.1268 -0.3738 0.9188
vn -0.1178 -0.3808 0.9171
vn -0.1226 -0.3496 0.9288
vn -0.4067 -0.2356 0.8827
vn -0.3935 -0.3268 0.8593
vn -0.4583 -0.2956 0.8382
vn -0.5489 -0.1340 0.8251
vn -0.5436 -0.2277 0.8079
vn -0.6857 -0.0744 0.7241
vn -0.6844 0.1831 0.7057
vn -0.6813 0.2896 0.6723
vn -0.5797 0.2619 0.7716
vn -0.4805 0.4588 0.7474
vn -0.4748 0.4796 0.7379
vn -0.4560 0.4786 0.7503
vn -0.1677 0.5270 0.8332
vn -0.2995 0.5116 0.8053
vn -0.2398 0.5954 0.7668
vn -0.1025 0.0920 0.9905
vn -0.1261 0.0901 0.9879
vn -0.1416 0.0235 0.9896
vn -0.1277 -0.1983 0.9718
vn -0.1199 -0.2094 0.9704
vn -0.1282 -0.2089 0.9695
vn -0.1198 -0.1991 0.9726
vn -0.1111 0.0203 0.9936
vn -0.1247 0.5180 -0.8462
vn -0.1424 0.5331 -0.8340
vn -0.1704 0.7174 -0.6756
vn -0.5441 0.5628 -0.6222
vn -0.5426 0.5774 -0.6101
vn -0.4559 0.4559 -0.7644
vn -0.6763 0.2337 -0.6986
vn -0.6160 0.1492 -0.7735
vn -0.5694 0.1205 -0.8132
vn -0.7867 0.0551 -0.6148
vn -0.7195 -0.0266 -0.6940
vn -0.6368 -0.0482 -0.7695
vn -0.9570 0.1408 0.2536
vn -0.9036 -0.3177 -0.2875
vn -0.7760 -0.3769 -0.5056
vn -0.0953 0.2025 -0.9746
vn -0.3898 0.0093 -0.9208
vn -0.0861 0.1606 -0.9833
vn -0.8533 -0.4870 0.1865
vn -0.8393 -0.5215 0.1539
vn -0.8560 -0.5002 0.1307
vn -0.8347 -0.5286 -0.1545
vn -0.8254 -0.5429 -0.1547
vn -0.8215 -0.5439 -0.1713
vn -0.7504 -0.4476 -0.4864
vn -0.7366 -0.4698 -0.4865
vn -0.7254 -0.4661 -0.5065
vn -0.8349 -0.0239 -0.5499
vn -0.8346 -0.0281 -0.5501
vn -0.8348 -0.0241 -0.5500
vn -0.8347 -0.0240 -0.5501
vn -0.8376 -0.0236 -0.5457
vn -0.8333 0.1418 -0.5343
vn -0.8339 0.1367 -0.5348
vn -0.8344 0.1320 -0.5351
vn -0.8332 0.1416 -0.5345
vn -0.8361 0.1566 -0.5257
vn -0.7504 0.4635 -0.4712
vn -0.7401 0.4755 -0.4755
vn -0.7503 0.4786 -0.4560
vn -0.8446 0.4986 -0.1951
vn -0.8446 0.4986 -0.1952
vn -0.8452 0.4988 -0.1919
vn -0.8440 0.4984 -0.1983
vn -0.8358 0.5209 -0.1737
vn -0.8332 0.5202 0.1875
vn -0.8331 0.5202 0.1878
vn -0.8331 0.5202 0.1881
vn -0.7401 0.4755 0.4755
vn -0.7503 0.4560 0.4786
vn -0.7644 0.4559 0.4559
vn -0.8360 0.1329 0.5324
vn -0.8370 0.1375 0.5297
vn -0.8349 0.1282 0.5353
vn -0.8422 0.1140 0.5270
vn -0.8380 -0.0219 0.5453
vn -0.8378 -0.0259 0.5454
vn -0.8379 -0.0220 0.5453
vn -0.8378 -0.0258 0.5454
vn -0.8358 0.0854 0.5424
vn -0.8036 -0.4712 0.3636
vn -0.8339 -0.3233 0.4473
vn -0.8001 -0.3214 0.5066
vn -0.9706 0.1663 -0.1739
vn -0.9708 0.1654 -0.1739
vn -0.9705 0.1672 -0.1739
vn -0.9695 0.1585 -0.1868
vn -0.9840 0.0102 -0.1779
vn -0.9840 0.0100 -0.1779
vn -0.9840 0.0103 -0.1779
vn -0.9840 0.0103 -0.1776
vn -0.9841 0.0104 -0.1774
vn -0.9719 0.1627 0.1702
vn -0.9705 0.1672 0.1739
vn -0.9733 0.1580 0.1664
vn -0.9730 0.1593 0.1667
vn -0.9728 0.1605 0.1670
vn -0.9840 0.0121 0.1778
vn -0.9872 0.0127 0.1592
vn -0.9872 0.0195 0.1586
vn -0.9864 0.0163 0.1633
vn -0.9857 0.0199 0.1674
vn -0.1085 0.2125 -0.9711
vn 0.9840 -0.0121 -0.1776
vn 0.9841 -0.0121 -0.1774
vn 0.9715 -0.1642 -0.1708
vn 0.9706 -0.1672 -0.1730
vn 0.9708 -0.1672 -0.1721
vn 0.9724 -0.1621 -0.1677
vn 0.9840 -0.0102 0.1776
vn 0.9840 -0.0100 0.1776
vn 0.9841 -0.0100 0.1774
vn 0.9841 -0.0102 0.1774
vn 0.9708 -0.1663 0.1730
vn 0.9709 -0.1655 0.1730
vn 0.9711 -0.1655 0.1721
vn 0.9709 -0.1664 0.1721
vn 0.7774 0.3687 -0.5097
vn 0.8373 -0.0954 -0.5383
vn 0.8373 -0.0957 -0.5383
vn 0.8384 -0.1362 -0.5278
vn 0.8386 -0.1411 -0.5261
vn 0.8404 -0.1402 -0.5235
vn 0.8403 -0.1405 -0.5236
vn 0.7519 -0.4775 -0.4546
vn 0.8519 -0.5031 -0.1451
vn 0.8517 -0.5036 -0.1448
vn 0.8518 -0.5037 -0.1439
vn 0.8356 -0.5221 0.1711
vn 0.8349 -0.5226 0.1727
vn 0.8355 -0.5210 0.1745
vn 0.7644 -0.4639 0.4478
vn 0.8365 -0.1370 0.5306
vn 0.8371 -0.1322 0.5308
vn 0.8398 -0.1324 0.5265
vn 0.8391 -0.1373 0.5264
vn 0.8362 0.0258 0.5479
vn 0.8377 0.0272 0.5455
vn 0.8375 0.0274 0.5457
vn 0.8376 0.0275 0.5457
vn 0.7353 0.4469 0.5096
vn 0.8313 0.5286 0.1718
vn 0.8532 0.4870 -0.1866
vn 0.8534 0.4876 -0.1845
vn 0.8534 0.4875 -0.1844
vn 0.1264 -0.2659 0.9557
vn 0.9557 0.1314 0.2636
vn 0.6270 -0.0191 0.7788
vn 0.4868 -0.3520 0.7995
vn 0.4559 -0.4990 0.7370
vn 0.3004 -0.5034 0.8102
vn 0.1190 -0.0425 -0.9920
vn 0.1527 -0.1393 -0.9784
vn 0.1679 -0.5277 -0.8327
vn 0.4559 -0.4559 -0.7644
vn 0.5703 -0.1682 -0.8041
vn 0.6844 -0.0579 -0.7268
vn 0.6056 0.0890 -0.7908
vn 0.1321 0.3781 -0.9163
vn 0.9922 -0.0662 0.1056
vn 0.2546 0.5629 -0.7863
vn 0.4853 0.6932 -0.5328
vn 0.9026 0.3219 -0.2859
vn 0.9906 0.1043 0.0883
vn 0.1689 -0.9708 0.1705
vn 0.1707 -0.9634 -0.2067
vn 0.1678 -0.8367 0.5213
vn 0.4786 -0.7503 0.4560
vn 0.5509 -0.8074 0.2113
vn 0.5500 -0.8089 0.2076
vn 0.5489 -0.8078 0.2148
vn 0.5193 -0.8302 -0.2027
vn 0.5192 -0.8301 -0.2032
vn 0.4559 -0.7644 -0.4559
vn 0.1678 -0.8367 -0.5213
vn 0.1677 -0.8367 -0.5213
vn 0.2845 -0.8887 -0.3595
vn 0.1440 -0.8401 -0.5230
vn 0.4560 -0.7503 -0.4786
vn 0.4755 -0.7401 -0.4755
vn 0.4786 -0.7503 -0.4560
vn 0.5193 -0.8303 -0.2022
vn 0.5214 -0.8367 -0.1678
vn 0.5214 -0.8367 0.1678
vn 0.5151 -0.8188 0.2533
vn 0.5518 -0.8058 0.2149
vn 0.4755 -0.7401 0.4755
vn 0.4560 -0.7503 0.4786
vn 0.4559 -0.7644 0.4559
vn 0.1440 -0.8401 0.5230
vn 0.2846 -0.8887 0.3595
vn 0.1677 -0.8367 0.5213
vn 0.1464 -0.9680 -0.2039
vn 0.1447 -0.9749 -0.1692
vn 0.1689 -0.9708 -0.1705
vn 0.1447 -0.9749 0.1692
vn 0.1464 -0.9556 0.2559
vn 0.1707 -0.9503 0.2604
vn 0.8842 0.4454 0.1404
vn 0.8845 0.4449 0.1406
vn 0.8888 0.4365 0.1397
vn 0.8886 0.4368 0.1400
vn 0.9949 0.0595 0.0814
vn 0.7599 0.6144 -0.2123
vn 0.7876 0.5773 -0.2155
vn 0.9303 0.2171 -0.2956
vn 0.3496 0.8564 -0.3800
vn 0.6170 0.6714 -0.4105
vn 0.6709 0.1349 -0.7291
vn 0.1484 0.7528 -0.6413
vn 0.1456 0.3553 -0.9233
vn 0.2791 0.5623 -0.7784
vn 0.8569 0.3182 0.4055
vn 0.9248 0.1533 0.3483
vn 0.9095 -0.4011 -0.1088
vn 0.1253 0.3417 -0.9314
vn 0.1127 0.3499 -0.9300
vn 0.1190 0.3850 -0.9152
vn 0.5413 0.3972 -0.7411
vn 0.2594 0.4121 -0.8734
vn 0.3372 0.1913 -0.9218
vn 0.5598 0.1420 -0.8164
vn 0.5436 0.2277 -0.8079
vn 0.6862 0.0546 -0.7253
vn 0.6841 -0.1854 -0.7054
vn 0.6641 -0.3086 -0.6809
vn 0.5618 -0.2680 -0.7827
vn 0.4830 -0.4243 -0.7660
vn 0.4829 -0.4463 -0.7534
vn 0.4589 -0.4805 -0.7473
vn 0.1686 -0.4840 -0.8587
vn 0.2949 -0.4725 -0.8305
vn 0.3110 -0.5105 -0.8017
vn 0.1265 -0.1172 -0.9850
vn 0.2370 -0.2096 -0.9486
vn 0.1639 -0.1087 -0.9805
vn 0.1282 0.2089 -0.9695
vn 0.1164 0.1990 -0.9731
vn 0.2162 0.0797 -0.9731
vn 0.1739 -0.4137 0.8936
vn 0.1397 -0.5140 0.8463
vn 0.1596 -0.5349 0.8297
vn 0.4755 -0.4755 0.7401
vn 0.4786 -0.4560 0.7503
vn 0.4560 -0.4810 0.7488
vn 0.6770 -0.2844 0.6788
vn 0.6350 -0.1237 0.7626
vn 0.5921 -0.1962 0.7816
vn 0.8008 -0.0610 0.5958
vn 0.7195 0.0266 0.6940
vn 0.6368 0.0482 0.7695
vn 0.8959 -0.2122 -0.3904
vn 0.9035 0.3177 0.2875
vn 0.7760 0.3769 0.5056
vn 0.1533 -0.5226 0.8387
vn 0.3833 -0.0718 0.9208
vn 0.0772 -0.1729 0.9819
vn 0.8533 0.4870 -0.1865
vn 0.8377 0.5252 -0.1500
vn 0.8562 0.5012 -0.1254
vn 0.8347 0.5286 0.1545
vn 0.8254 0.5429 0.1547
vn 0.8215 0.5439 0.1713
vn 0.7504 0.4476 0.4864
vn 0.7366 0.4698 0.4865
vn 0.7254 0.4661 0.5065
vn 0.8349 0.0239 0.5499
vn 0.8346 0.0281 0.5501
vn 0.8348 0.0241 0.5500
vn 0.8347 0.0240 0.5501
vn 0.8376 0.0236 0.5457
vn 0.8333 -0.1418 0.5344
vn 0.8344 -0.1320 0.5351
vn 0.8332 -0.1416 0.5345
vn 0.8332 -0.1415 0.5345
vn 0.8384 -0.1422 0.5262
vn 0.7504 -0.4645 0.4702
vn 0.7322 -0.4899 0.4731
vn 0.7503 -0.4786 0.4560
vn 0.8355 -0.5227 0.1694
vn 0.8344 -0.5240 0.1710
vn 0.8367 -0.5214 0.1678
vn 0.8461 -0.4961 0.1948
vn 0.8520 -0.5029 -0.1457
vn 0.8516 -0.5036 -0.1457
vn 0.8524 -0.5021 -0.1458
vn 0.8280 -0.5310 -0.1801
vn 0.7425 -0.4737 -0.4737
vn 0.7541 -0.4471 -0.4811
vn 0.7644 -0.4559 -0.4559
vn 0.8333 -0.1420 -0.5343
vn 0.8368 -0.1420 -0.5288
vn 0.8344 -0.1320 -0.5351
vn 0.8381 -0.1315 -0.5294
vn 0.8418 -0.1311 -0.5236
vn 0.8384 0.0185 -0.5448
vn 0.8351 0.0185 -0.5498
vn 0.8350 0.0264 -0.5497
vn 0.8381 0.0262 -0.5448
vn 0.8374 -0.0952 -0.5383
vn 0.8027 0.4799 -0.3541
vn 0.8339 0.3232 -0.4473
vn 0.7985 0.3101 -0.5160
vn 0.9706 -0.1663 0.1739
vn 0.9708 -0.1654 0.1739
vn 0.9705 -0.1672 0.1739
vn 0.9706 -0.1672 0.1730
vn 0.9708 -0.1672 0.1721
vn 0.9840 -0.0102 0.1779
vn 0.9840 -0.0100 0.1779
vn 0.9840 -0.0103 0.1779
vn 0.9840 -0.0103 0.1776
vn 0.9841 -0.0103 0.1774
vn 0.9706 -0.1663 -0.1739
vn 0.9705 -0.1672 -0.1739
vn 0.9708 -0.1654 -0.1739
vn 0.9724 -0.1613 -0.1687
vn 0.9740 -0.1571 -0.1634
vn 0.9840 -0.0121 -0.1778
vn 0.9875 -0.0128 -0.1574
vn 0.9867 -0.0168 -0.1619
vn 0.9874 -0.0200 -0.1567
vn 0.9859 -0.0208 -0.1663
vn 0.0335 -0.8020 0.5964
vn 0.5994 -0.4485 -0.6629
vn 0.0887 -0.9809 -0.1730
vn -0.1647 -0.9804 0.1086
vn 0.8257 -0.1739 -0.5366
vn 0.0192 -0.9921 -0.1237
vn 0.0808 -0.9946 -0.0659
vn 0.7183 -0.2722 -0.6402
vn 0.3056 -0.8059 -0.5071
vn -0.1179 -0.9757 0.1848
vn -0.0388 -0.9126 -0.4070
vn -0.3058 -0.9049 -0.2961
vn 0.9853 0.0142 0.1704
vn 0.9840 0.0121 0.1776
vn 0.9841 0.0121 0.1774
vn 0.9840 0.0201 0.1773
vn 0.9725 0.1597 0.1698
vn 0.9732 0.1529 0.1720
vn 0.9740 0.1532 0.1668
vn 0.9840 0.0102 -0.1776
vn 0.9840 0.0100 -0.1776
vn 0.9841 0.0100 -0.1774
vn 0.9841 0.0102 -0.1774
vn 0.9704 0.1680 -0.1733
vn 0.9704 0.1683 -0.1730
vn 0.9701 0.1713 -0.1722
vn 0.7774 -0.3687 0.5097
vn 0.8398 0.0853 0.5362
vn 0.8398 0.0855 0.5361
vn 0.8359 0.0855 0.5422
vn 0.8412 0.1220 0.5267
vn 0.8429 0.1220 0.5241
vn 0.8425 0.1179 0.5256
vn 0.7503 0.4786 0.4560
vn 0.8367 0.5214 0.1678
vn 0.8367 0.5214 0.1677
vn 0.8269 0.5182 -0.2184
vn 0.7644 0.4559 -0.4559
vn 0.8426 0.1401 -0.5200
vn 0.8362 -0.0258 -0.5479
vn 0.8377 -0.0272 -0.5455
vn 0.8375 -0.0274 -0.5457
vn 0.8375 -0.0275 -0.5457
vn 0.7353 -0.4469 -0.5096
vn 0.8313 -0.5286 -0.1718
vn 0.8532 -0.4870 0.1865
vn 0.8534 -0.4876 0.1843
vn 0.8534 -0.4875 0.1844
vn 0.0936 0.2107 -0.9731
vn 0.0823 0.2028 -0.9757
vn 0.0826 0.2080 -0.9746
vn 0.9316 -0.1637 -0.3246
vn 0.6175 0.0196 -0.7863
vn 0.5814 0.1933 -0.7903
vn 0.5546 0.5433 -0.6303
vn 0.1513 0.7157 -0.6818
vn 0.1189 0.0207 0.9927
vn 0.1194 0.0143 0.9927
vn 0.1115 0.0141 0.9937
vn 0.1226 0.0832 0.9890
vn 0.1677 0.5241 0.8350
vn 0.1681 0.5214 0.8366
vn 0.1677 0.5213 0.8367
vn 0.4559 0.4559 0.7644
vn 0.5785 0.1260 0.8059
vn 0.6853 0.0383 0.7272
vn 0.4730 -0.2461 0.8460
vn 0.1317 -0.3491 0.9278
vn 0.1317 -0.3418 0.9305
vn 0.1272 -0.3456 0.9297
vn 0.9894 -0.0002 -0.1453
vn 0.1466 -0.3757 0.9151
vn 0.3420 -0.6692 0.6597
vn 0.8448 -0.4248 0.3253
vn 0.9838 -0.1517 -0.0954
vn 0.1689 0.9708 -0.1705
vn 0.1697 0.9706 0.1705
vn 0.1705 0.9705 0.1705
vn 0.1678 0.8367 -0.5213
vn 0.4786 0.7503 -0.4560
vn 0.5223 0.8358 -0.1691
vn 0.5233 0.8349 -0.1704
vn 0.5344 0.8249 0.1843
vn 0.4559 0.7644 0.4559
vn 0.1677 0.8356 0.5231
vn 0.1678 0.8367 0.5213
vn 0.1677 0.8356 0.5232
vn 0.1490 0.8385 0.5241
vn 0.1491 0.8394 0.5227
vn 0.1489 0.8377 0.5255
vn 0.1677 0.8345 0.5249
vn 0.4560 0.7503 0.4786
vn 0.4746 0.7371 0.4810
vn 0.4815 0.7457 0.4604
vn 0.5213 0.8367 0.1678
vn 0.5214 0.8367 0.1678
vn 0.5214 0.8367 0.1677
vn 0.5214 0.8367 -0.1678
vn 0.5161 0.8213 -0.2431
vn 0.5177 0.8205 -0.2425
vn 0.5176 0.8205 -0.2426
vn 0.5192 0.8197 -0.2420
vn 0.4755 0.7401 -0.4755
vn 0.4560 0.7503 -0.4786
vn 0.4559 0.7644 -0.4559
vn 0.1494 0.8393 -0.5227
vn 0.1497 0.8393 -0.5227
vn 0.1491 0.8394 -0.5227
vn 0.1677 0.8367 -0.5213
vn 0.1507 0.9740 0.1692
vn 0.1512 0.9739 0.1692
vn 0.1502 0.9741 0.1692
vn 0.1689 0.9708 0.1705
vn 0.1502 0.9741 -0.1692
vn 0.1521 0.9574 -0.2454
vn 0.1707 0.9532 -0.2496
vn 0.8842 -0.4454 -0.1404
vn 0.8845 -0.4449 -0.1406
vn 0.8888 -0.4365 -0.1397
vn 0.8886 -0.4368 -0.1400
vn 0.9897 -0.1119 -0.0894
vn 0.7599 -0.6144 0.2123
vn 0.7876 -0.5773 0.2155
vn 0.9182 -0.2685 0.2914
vn 0.4850 -0.6979 0.5270
vn 0.6882 -0.6376 0.3462
vn 0.5568 -0.5690 0.6051
vn 0.2654 -0.5844 0.7668
vn 0.3309 -0.6269 0.7054
vn 0.1653 -0.7010 0.6938
vn 0.8569 -0.3182 -0.4056
vn 0.9248 -0.1533 -0.3483
vn 0.9459 0.3198 0.0543
vn 0.1270 -0.3801 0.9162
vn 0.1268 -0.3738 0.9188
vn 0.1178 -0.3744 0.9198
vn 0.1178 -0.3808 0.9171
vn 0.1226 -0.3496 0.9288
vn 0.4067 -0.2356 0.8827
vn 0.3935 -0.3268 0.8593
vn 0.4583 -0.2956 0.8382
vn 0.5489 -0.1340 0.8251
vn 0.5436 -0.2277 0.8079
vn 0.6857 -0.0744 0.7241
vn 0.6844 0.1831 0.7057
vn 0.6813 0.2896 0.6723
vn 0.5797 0.2619 0.7716
vn 0.4805 0.4588 0.7474
vn 0.4748 0.4796 0.7379
vn 0.4560 0.4786 0.7503
vn 0.1677 0.5270 0.8332
vn 0.2995 0.5116 0.8053
vn 0.2398 0.5954 0.7668
vn 0.1025 0.0920 0.9905
vn 0.1261 0.0901 0.9879
vn 0.1416 0.0235 0.9896
vn 0.1277 -0.1983 0.9718
vn 0.1282 -0.2089 0.9695
vn 0.1199 -0.2094 0.9704
vn 0.1198 -0.1991 0.9726
vn 0.1111 0.0203 0.9936
vn 0.1247 0.5180 -0.8462
vn 0.1424 0.5331 -0.8340
vn 0.1704 0.7174 -0.6756
vn 0.5441 0.5628 -0.6222
vn 0.5426 0.5774 -0.6101
vn 0.4559 0.4559 -0.7644
vn 0.6763 0.2337 -0.6986
vn 0.6160 0.1492 -0.7735
vn 0.5694 0.1205 -0.8132
vn 0.7867 0.0551 -0.6148
vn 0.7195 -0.0266 -0.6940
vn 0.6368 -0.0482 -0.7695
vn 0.9570 0.1408 0.2536
vn 0.9036 -0.3177 -0.2875
vn 0.7760 -0.3769 -0.5056
vn 0.0953 0.2025 -0.9746
vn 0.3898 0.0093 -0.9208
vn 0.0861 0.1606 -0.9833
vn 0.8533 -0.4870 0.1865
vn 0.8393 -0.5215 0.1539
vn 0.8560 -0.5002 0.1307
vn 0.8347 -0.5286 -0.1545
vn 0.8254 -0.5429 -0.1547
vn 0.8215 -0.5439 -0.1713
vn 0.7504 -0.4476 -0.4864
vn 0.7366 -0.4698 -0.4865
vn 0.7254 -0.4661 -0.5065
vn 0.8349 -0.0239 -0.5499
vn 0.8346 -0.0281 -0.5501
vn 0.8348 -0.0241 -0.5500
vn 0.8348 -0.0240 -0.5501
vn 0.8376 -0.0236 -0.5457
vn 0.8333 0.1417 -0.5343
vn 0.8344 0.1320 -0.5351
vn 0.8339 0.1367 -0.5348
vn 0.8332 0.1416 -0.5345
vn 0.8361 0.1566 -0.5257
vn 0.7504 0.4635 -0.4712
vn 0.7401 0.4755 -0.4755
vn 0.7503 0.4786 -0.4560
vn 0.8446 0.4986 -0.1951
vn 0.8452 0.4988 -0.1919
vn 0.8446 0.4986 -0.1952
vn 0.8440 0.4984 -0.1983
vn 0.8358 0.5209 -0.1737
vn 0.8332 0.5202 0.1875
vn 0.8331 0.5202 0.1878
vn 0.8331 0.5202 0.1881
vn 0.7401 0.4755 0.4755
vn 0.7503 0.4560 0.4786
vn 0.7644 0.4559 0.4559
vn 0.8360 0.1329 0.5324
vn 0.8370 0.1375 0.5297
vn 0.8349 0.1282 0.5353
vn 0.8422 0.1140 0.5270
vn 0.8380 -0.0219 0.5453
vn 0.8379 -0.0220 0.5453
vn 0.8378 -0.0259 0.5454
vn 0.8378 -0.0258 0.5454
vn 0.8358 0.0854 0.5424
vn 0.8036 -0.4712 0.3636
vn 0.8339 -0.3233 0.4473
vn 0.8001 -0.3214 0.5066
vn 0.9706 0.1663 -0.1739
vn 0.9708 0.1654 -0.1739
vn 0.9705 0.1672 -0.1739
vn 0.9695 0.1585 -0.1868
vn 0.9840 0.0102 -0.1779
vn 0.9840 0.0100 -0.1779
vn 0.9840 0.0103 -0.1779
vn 0.9840 0.0103 -0.1776
vn 0.9841 0.0104 -0.1774
vn 0.9719 0.1627 0.1702
vn 0.9705 0.1672 0.1739
vn 0.9733 0.1580 0.1664
vn 0.9730 0.1593 0.1667
vn 0.9728 0.1605 0.1670
vn 0.9840 0.0121 0.1778
vn 0.9872 0.0127 0.1592
vn 0.9872 0.0195 0.1586
vn 0.9857 0.0199 0.1674
vn 0.1085 0.2125 -0.9711
vn -0.9840 -0.0121 -0.1776
vn -0.9841 -0.0121 -0.1774
vn -0.9715 -0.1642 -0.1708
vn -0.9724 -0.1621 -0.1677
vn -0.9708 -0.1672 -0.1721
vn -0.9706 -0.1672 -0.1730
vn -0.9840 -0.0102 0.1776
vn -0.9841 -0.0102 0.1774
vn -0.9841 -0.0100 0.1774
vn -0.9840 -0.0100 0.1776
vn -0.9708 -0.1663 0.1730
vn -0.9709 -0.1664 0.1721
vn -0.9711 -0.1655 0.1721
vn -0.9709 -0.1655 0.1730
vn -0.7774 0.3687 -0.5097
vn -0.8373 -0.0954 -0.5383
vn -0.8373 -0.0957 -0.5383
vn -0.8384 -0.1362 -0.5278
vn -0.8403 -0.1404 -0.5236
vn -0.8404 -0.1402 -0.5235
vn -0.8386 -0.1411 -0.5261
vn -0.7519 -0.4775 -0.4546
vn -0.8519 -0.5031 -0.1451
vn -0.8518 -0.5037 -0.1439
vn -0.8517 -0.5036 -0.1448
vn -0.8356 -0.5221 0.1711
vn -0.8355 -0.5210 0.1745
vn -0.8349 -0.5226 0.1727
vn -0.7644 -0.4639 0.4478
vn -0.8365 -0.1370 0.5306
vn -0.8391 -0.1373 0.5264
vn -0.8398 -0.1324 0.5265
vn -0.8371 -0.1322 0.5308
vn -0.8362 0.0258 0.5479
vn -0.8376 0.0275 0.5457
vn -0.8375 0.0274 0.5457
vn -0.8377 0.0272 0.5454
vn -0.7353 0.4469 0.5096
vn -0.8313 0.5286 0.1718
vn -0.8532 0.4870 -0.1865
vn -0.8534 0.4875 -0.1844
vn -0.8534 0.4876 -0.1842
vn -0.1264 -0.2659 0.9557
vn -0.9557 0.1314 0.2636
vn -0.6270 -0.0191 0.7788
vn -0.4174 -0.4260 0.8027
vn -0.4559 -0.4990 0.7370
vn -0.3004 -0.5034 0.8102
vn -0.1190 -0.0425 -0.9920
vn -0.1527 -0.1393 -0.9784
vn -0.1679 -0.5277 -0.8327
vn -0.4559 -0.4559 -0.7644
vn -0.5703 -0.1682 -0.8041
vn -0.6844 -0.0579 -0.7268
vn -0.6056 0.0890 -0.7908
vn -0.1321 0.3781 -0.9163
vn -0.9922 -0.0662 0.1056
vn -0.2546 0.5629 -0.7863
vn -0.4853 0.6932 -0.5328
vn -0.9026 0.3219 -0.2859
vn -0.9906 0.1043 0.0883
vn -0.1689 -0.9708 0.1705
vn -0.1707 -0.9634 -0.2067
vn -0.1678 -0.8367 0.5213
vn -0.4786 -0.7503 0.4560
vn -0.5509 -0.8074 0.2113
vn -0.5489 -0.8078 0.2149
vn -0.5500 -0.8089 0.2076
vn -0.5193 -0.8302 -0.2027
vn -0.5192 -0.8301 -0.2032
vn -0.4559 -0.7644 -0.4559
vn -0.1678 -0.8367 -0.5213
vn -0.1677 -0.8367 -0.5213
vn -0.2845 -0.8887 -0.3595
vn -0.1440 -0.8401 -0.5230
vn -0.4560 -0.7503 -0.4786
vn -0.4755 -0.7401 -0.4755
vn -0.4786 -0.7503 -0.4560
vn -0.5193 -0.8303 -0.2022
vn -0.5214 -0.8367 -0.1678
vn -0.5214 -0.8367 0.1678
vn -0.5151 -0.8188 0.2533
vn -0.5518 -0.8058 0.2149
vn -0.4755 -0.7401 0.4755
vn -0.4560 -0.7503 0.4786
vn -0.4559 -0.7644 0.4559
vn -0.1440 -0.8401 0.5230
vn -0.2846 -0.8887 0.3595
vn -0.1677 -0.8367 0.5213
vn -0.1464 -0.9680 -0.2039
vn -0.1447 -0.9749 -0.1692
vn -0.1689 -0.9708 -0.1705
vn -0.1447 -0.9749 0.1692
vn -0.1464 -0.9556 0.2559
vn -0.1707 -0.9503 0.2604
vn -0.8842 0.4454 0.1404
vn -0.8888 0.4365 0.1397
vn -0.8845 0.4449 0.1406
vn -0.8886 0.4368 0.1400
vn -0.9949 0.0595 0.0814
vn -0.7599 0.6144 -0.2123
vn -0.7876 0.5773 -0.2155
vn -0.9303 0.2171 -0.2956
vn -0.3496 0.8564 -0.3800
vn -0.6170 0.6714 -0.4105
vn -0.6709 0.1349 -0.7291
vn -0.1484 0.7528 -0.6413
vn -0.1456 0.3553 -0.9233
vn -0.2791 0.5623 -0.7784
vn -0.8569 0.3182 0.4055
vn -0.9248 0.1533 0.3483
vn -0.9095 -0.4011 -0.1088
vn -0.1253 0.3417 -0.9314
vn -0.1127 0.3499 -0.9300
vn -0.1190 0.3850 -0.9152
vn -0.5413 0.3972 -0.7411
vn -0.2594 0.4121 -0.8734
vn -0.3372 0.1913 -0.9218
vn -0.5598 0.1420 -0.8164
vn -0.5436 0.2277 -0.8079
vn -0.6862 0.0546 -0.7253
vn -0.6841 -0.1854 -0.7054
vn -0.6641 -0.3086 -0.6809
vn -0.5618 -0.2680 -0.7827
vn -0.4830 -0.4243 -0.7660
vn -0.4829 -0.4463 -0.7534
vn -0.4589 -0.4805 -0.7473
vn -0.1686 -0.4840 -0.8587
vn -0.2949 -0.4725 -0.8305
vn -0.3110 -0.5105 -0.8017
vn -0.1265 -0.1172 -0.9850
vn -0.2370 -0.2096 -0.9486
vn -0.1639 -0.1087 -0.9805
vn -0.1282 0.2089 -0.9695
vn -0.1164 0.1990 -0.9731
vn -0.2162 0.0797 -0.9731
vn -0.1739 -0.4137 0.8936
vn -0.1397 -0.5140 0.8463
vn -0.1596 -0.5349 0.8297
vn -0.4755 -0.4755 0.7401
vn -0.4786 -0.4560 0.7503
vn -0.4560 -0.4810 0.7488
vn -0.5827 -0.1605 0.7967
vn -0.6566 -0.0930 0.7484
vn -0.6417 -0.2713 0.7174
vn -0.8008 -0.0610 0.5958
vn -0.7195 0.0266 0.6940
vn -0.6368 0.0482 0.7695
vn -0.8959 -0.2122 -0.3904
vn -0.9035 0.3177 0.2875
vn -0.7760 0.3769 0.5056
vn -0.1533 -0.5226 0.8387
vn -0.3813 -0.0808 0.9209
vn -0.0775 -0.1725 0.9820
vn -0.8533 0.4870 -0.1865
vn -0.8377 0.5252 -0.1500
vn -0.8562 0.5012 -0.1254
vn -0.8347 0.5286 0.1545
vn -0.8254 0.5429 0.1547
vn -0.8215 0.5439 0.1713
vn -0.7504 0.4476 0.4864
vn -0.7366 0.4698 0.4865
vn -0.7254 0.4661 0.5065
vn -0.8349 0.0238 0.5499
vn -0.8346 0.0281 0.5501
vn -0.8348 0.0241 0.5500
vn -0.8347 0.0240 0.5501
vn -0.8376 0.0236 0.5457
vn -0.8333 -0.1418 0.5343
vn -0.8344 -0.1320 0.5351
vn -0.8332 -0.1416 0.5345
vn -0.8332 -0.1415 0.5345
vn -0.8384 -0.1422 0.5262
vn -0.7504 -0.4645 0.4702
vn -0.7322 -0.4899 0.4731
vn -0.7503 -0.4786 0.4560
vn -0.8355 -0.5227 0.1694
vn -0.8344 -0.5240 0.1710
vn -0.8367 -0.5214 0.1678
vn -0.8461 -0.4961 0.1948
vn -0.8520 -0.5029 -0.1457
vn -0.8516 -0.5036 -0.1457
vn -0.8524 -0.5021 -0.1458
vn -0.8280 -0.5310 -0.1801
vn -0.7425 -0.4737 -0.4737
vn -0.7541 -0.4471 -0.4811
vn -0.7644 -0.4559 -0.4559
vn -0.8332 -0.1421 -0.5343
vn -0.8368 -0.1420 -0.5288
vn -0.8344 -0.1320 -0.5351
vn -0.8381 -0.1315 -0.5294
vn -0.8418 -0.1311 -0.5236
vn -0.8384 0.0185 -0.5448
vn -0.8350 0.0264 -0.5496
vn -0.8351 0.0185 -0.5498
vn -0.8381 0.0262 -0.5448
vn -0.8374 -0.0952 -0.5383
vn -0.8027 0.4799 -0.3541
vn -0.8339 0.3232 -0.4473
vn -0.7985 0.3101 -0.5160
vn -0.9706 -0.1663 0.1739
vn -0.9708 -0.1654 0.1739
vn -0.9705 -0.1672 0.1739
vn -0.9706 -0.1672 0.1730
vn -0.9708 -0.1672 0.1721
vn -0.9840 -0.0102 0.1779
vn -0.9840 -0.0100 0.1779
vn -0.9840 -0.0103 0.1779
vn -0.9840 -0.0103 0.1776
vn -0.9841 -0.0103 0.1774
vn -0.9706 -0.1663 -0.1739
vn -0.9705 -0.1672 -0.1739
vn -0.9708 -0.1654 -0.1739
vn -0.9724 -0.1613 -0.1687
vn -0.9740 -0.1571 -0.1634
vn -0.9840 -0.0121 -0.1778
vn -0.9875 -0.0128 -0.1574
vn -0.9874 -0.0200 -0.1567
vn -0.9867 -0.0168 -0.1619
vn -0.9859 -0.0208 -0.1663
vn -0.0358 -0.8059 0.5910
vn -0.5994 -0.4485 -0.6629
vn -0.0887 -0.9809 -0.1730
vn 0.1647 -0.9804 0.1086
vn -0.8257 -0.1739 -0.5366
vn -0.0192 -0.9921 -0.1237
vn -0.0808 -0.9946 -0.0659
vn -0.7183 -0.2722 -0.6402
vn -0.3056 -0.8059 -0.5071
vn 0.1179 -0.9757 0.1848
vn 0.0388 -0.9126 -0.4070
vn 0.3058 -0.9049 -0.2961
vt 0.742688 0.296130
vt 0.757254 0.260409
vt 0.728876 0.249751
vt 0.714965 0.286379
vt 0.768584 0.232721
vt 0.780464 0.203240
vt 0.754130 0.191871
vt 0.740878 0.221607
vt 0.687773 0.274273
vt 0.701050 0.237105
vt 0.673377 0.223397
vt 0.660504 0.261183
vt 0.713654 0.209127
vt 0.728244 0.182114
vt 0.702033 0.169748
vt 0.686392 0.195714
vt 0.787752 0.376127
vt 0.789784 0.350781
vt 0.763966 0.344113
vt 0.764063 0.371816
vt 0.806300 0.317300
vt 0.814564 0.278888
vt 0.785769 0.270290
vt 0.778715 0.309363
vt 0.824173 0.249960
vt 0.834148 0.223938
vt 0.808297 0.216375
vt 0.796333 0.241192
vt 0.841555 0.201079
vt 0.848536 0.177895
vt 0.830748 0.166725
vt 0.819745 0.191693
vt 0.792750 0.177561
vt 0.805105 0.151699
vt 0.780528 0.139737
vt 0.767140 0.165761
vt 0.741888 0.154430
vt 0.756098 0.128956
vt 0.730231 0.120343
vt 0.715460 0.144751
vt 0.694352 0.133746
vt 0.710466 0.113482
vt 0.690573 0.107083
vt 0.673069 0.122279
vt 0.661605 0.180087
vt 0.678926 0.154567
vt 0.655449 0.138180
vt 0.637091 0.162562
vt 0.634223 0.247689
vt 0.647119 0.207942
vt 0.621395 0.190740
vt 0.608085 0.233035
vt 0.617963 0.314500
vt 0.625680 0.289001
vt 0.600297 0.276581
vt 0.595919 0.301100
vt 0.669267 0.342913
vt 0.676549 0.312924
vt 0.651066 0.300143
vt 0.639895 0.327187
vt 0.727225 0.363508
vt 0.728966 0.332966
vt 0.702428 0.324113
vt 0.699929 0.355645
vt 0.611376 0.062291
vt 0.635541 0.049180
vt 0.632790 0.013384
vt 0.603305 0.023087
vt 0.582765 0.301091
vt 0.582093 0.271838
vt 0.571137 0.269418
vt 0.575925 0.302894
vt 0.589258 0.218741
vt 0.605802 0.164719
vt 0.606695 0.128706
vt 0.577645 0.208022
vt 0.619835 0.136389
vt 0.648403 0.107422
vt 0.636853 0.081491
vt 0.618473 0.099796
vt 0.665052 0.099206
vt 0.688626 0.085857
vt 0.686923 0.064241
vt 0.665682 0.070187
vt 0.664322 0.040068
vt 0.685155 0.035549
vt 0.681871 0.002896
vt 0.661499 0.006020
vt 0.917893 0.349455
vt 0.925992 0.302671
vt 0.882160 0.294974
vt 0.879355 0.337004
vt 0.938139 0.265694
vt 0.946542 0.230967
vt 0.916169 0.234288
vt 0.900863 0.265763
vt 0.939910 0.194646
vt 0.929265 0.160242
vt 0.903906 0.172120
vt 0.911577 0.202479
vt 0.887282 0.206734
vt 0.884782 0.181032
vt 0.865835 0.189836
vt 0.863460 0.210863
vt 0.875604 0.260332
vt 0.888167 0.233262
vt 0.860093 0.231710
vt 0.851742 0.257401
vt 0.856364 0.330514
vt 0.862696 0.290636
vt 0.843033 0.286127
vt 0.833735 0.323797
vt 0.833907 0.390462
vt 0.842529 0.367321
vt 0.816505 0.356970
vt 0.811809 0.378668
vt 0.887833 0.418552
vt 0.902488 0.392443
vt 0.869071 0.377262
vt 0.856081 0.401216
vt 0.602621 0.349607
vt 0.600898 0.360757
vt 0.620833 0.385555
vt 0.622020 0.369859
vt 0.856410 0.460476
vt 0.893770 0.481285
vt 0.904682 0.464315
vt 0.872382 0.443099
vt 0.802368 0.422646
vt 0.813561 0.441932
vt 0.841983 0.424172
vt 0.823897 0.412895
vt 0.728254 0.418893
vt 0.733483 0.441457
vt 0.783177 0.449329
vt 0.770439 0.428493
vt 0.653626 0.388070
vt 0.649726 0.403234
vt 0.680868 0.419723
vt 0.687517 0.404456
vt 0.787951 0.045146
vt 0.778047 0.074714
vt 0.808008 0.086902
vt 0.822634 0.058068
vt 0.854709 0.077169
vt 0.836484 0.102434
vt 0.863115 0.121409
vt 0.884525 0.100034
vt 0.719037 0.034512
vt 0.717329 0.064165
vt 0.747844 0.066476
vt 0.753434 0.036487
vt 0.713830 0.089053
vt 0.738696 0.093547
vt 0.766497 0.101822
vt 0.794212 0.113209
vt 0.820708 0.127324
vt 0.846192 0.143346
vt 0.866999 0.162394
vt 0.909763 0.129814
vt 0.885826 0.146574
vt 0.937678 0.110007
vt 0.958491 0.146096
vt 0.908755 0.075411
vt 0.719884 0.000148
vt 0.759261 0.002526
vt 0.875751 0.047480
vt 0.838710 0.025721
vt 0.798999 0.010445
vt 0.663511 0.373550
vt 0.699019 0.388481
vt 0.629711 0.355287
vt 0.727809 0.394116
vt 0.755931 0.397682
vt 0.786726 0.401694
vt 0.807224 0.401018
vt 0.836702 0.479444
vt 0.880464 0.499852
vt 0.610955 0.340643
vt 0.593469 0.325443
vt 0.585131 0.329121
vt 0.580329 0.335759
vt 0.921684 0.438265
vt 0.938444 0.409799
vt 0.980456 0.215310
vt 0.970469 0.174467
vt 0.974913 0.312350
vt 0.981157 0.255321
vt 0.959580 0.364016
vt 0.587620 0.089447
vt 0.571137 0.032799
vt 0.391695 0.444970
vt 0.419345 0.440359
vt 0.421243 0.406212
vt 0.393955 0.412176
vt 0.394750 0.387291
vt 0.420906 0.379891
vt 0.416763 0.353949
vt 0.393921 0.363118
vt 0.446957 0.432306
vt 0.474242 0.422263
vt 0.473992 0.383978
vt 0.448081 0.396380
vt 0.445463 0.368754
vt 0.469361 0.355171
vt 0.462181 0.328462
vt 0.439872 0.342383
vt 0.307310 0.493490
vt 0.332640 0.499469
vt 0.348589 0.478847
vt 0.321525 0.475479
vt 0.326800 0.445741
vt 0.353333 0.448163
vt 0.366924 0.415924
vt 0.339691 0.416078
vt 0.343633 0.394037
vt 0.368994 0.392661
vt 0.370529 0.367585
vt 0.348518 0.369772
vt 0.347853 0.352780
vt 0.368543 0.346954
vt 0.363426 0.328046
vt 0.348403 0.334586
vt 0.390199 0.338617
vt 0.411539 0.330364
vt 0.403004 0.306246
vt 0.384194 0.316932
vt 0.432146 0.318229
vt 0.452267 0.304783
vt 0.440507 0.283112
vt 0.422284 0.295815
vt 0.468449 0.289632
vt 0.484751 0.271723
vt 0.468204 0.260399
vt 0.454527 0.272260
vt 0.491527 0.337818
vt 0.511294 0.316664
vt 0.499186 0.286806
vt 0.480480 0.309562
vt 0.499930 0.410892
vt 0.524861 0.397832
vt 0.520799 0.350322
vt 0.498113 0.368635
vt 0.493797 0.476949
vt 0.517644 0.467198
vt 0.521385 0.442808
vt 0.495542 0.452215
vt 0.437817 0.496286
vt 0.470349 0.486155
vt 0.469611 0.459952
vt 0.442624 0.468713
vt 0.374442 0.503261
vt 0.404047 0.502257
vt 0.414955 0.474808
vt 0.387201 0.477948
vt 0.495708 0.164499
vt 0.453434 0.119419
vt 0.443254 0.129548
vt 0.475841 0.168747
vt 0.529098 0.469252
vt 0.533867 0.472341
vt 0.548251 0.439305
vt 0.538789 0.440263
vt 0.543014 0.384645
vt 0.553267 0.375055
vt 0.528649 0.252456
vt 0.534799 0.319883
vt 0.517688 0.263581
vt 0.521204 0.220878
vt 0.500832 0.209220
vt 0.508874 0.251186
vt 0.484977 0.242680
vt 0.477397 0.211414
vt 0.454339 0.215072
vt 0.463132 0.237609
vt 0.457264 0.177992
vt 0.423725 0.148967
vt 0.410412 0.162200
vt 0.438042 0.187652
vt 0.222925 0.409138
vt 0.257045 0.427022
vt 0.280021 0.403500
vt 0.246621 0.385724
vt 0.256331 0.363823
vt 0.281980 0.379481
vt 0.286150 0.354155
vt 0.267976 0.341061
vt 0.281527 0.325625
vt 0.297621 0.338728
vt 0.311125 0.321140
vt 0.297002 0.308137
vt 0.313372 0.347300
vt 0.329009 0.355806
vt 0.333263 0.340583
vt 0.322112 0.330943
vt 0.300425 0.386498
vt 0.319296 0.392050
vt 0.325679 0.370367
vt 0.305578 0.363057
vt 0.278114 0.434966
vt 0.299880 0.440840
vt 0.313813 0.412802
vt 0.296593 0.408764
vt 0.261005 0.479779
vt 0.283934 0.484544
vt 0.295021 0.468709
vt 0.265371 0.462693
vt 0.190169 0.450623
vt 0.229089 0.470218
vt 0.237074 0.451556
vt 0.201655 0.432999
vt 0.496419 0.511529
vt 0.471979 0.526750
vt 0.466780 0.540665
vt 0.494090 0.522382
vt 0.176145 0.492978
vt 0.178323 0.468900
vt 0.134949 0.435995
vt 0.123605 0.447271
vt 0.269333 0.522398
vt 0.246613 0.497818
vt 0.220975 0.489428
vt 0.232315 0.520049
vt 0.345353 0.545640
vt 0.292543 0.537330
vt 0.249364 0.548573
vt 0.328463 0.560777
vt 0.435377 0.538015
vt 0.394829 0.546019
vt 0.394610 0.560462
vt 0.433053 0.551778
vt 0.384756 0.230229
vt 0.367075 0.245308
vt 0.381032 0.265108
vt 0.399402 0.251438
vt 0.349082 0.260708
vt 0.329752 0.277210
vt 0.343391 0.293264
vt 0.363204 0.278709
vt 0.419944 0.201773
vt 0.402368 0.215390
vt 0.417242 0.238195
vt 0.436007 0.226949
vt 0.446626 0.249036
vt 0.430465 0.259774
vt 0.412193 0.272232
vt 0.393514 0.284975
vt 0.374323 0.297318
vt 0.353731 0.310450
vt 0.337995 0.320817
vt 0.313580 0.292443
vt 0.327460 0.307344
vt 0.297179 0.274743
vt 0.284054 0.287790
vt 0.312996 0.259022
vt 0.396726 0.175801
vt 0.380538 0.191890
vt 0.331230 0.240897
vt 0.347790 0.224437
vt 0.364789 0.207542
vt 0.431283 0.523896
vt 0.390262 0.530039
vt 0.469797 0.512776
vt 0.357986 0.526522
vt 0.327349 0.520921
vt 0.291058 0.511509
vt 0.272161 0.500895
vt 0.172015 0.511508
vt 0.109615 0.461177
vt 0.491679 0.502146
vt 0.511510 0.490075
vt 0.517472 0.494515
vt 0.519217 0.501680
vt 0.151024 0.420017
vt 0.166455 0.404679
vt 0.253792 0.317870
vt 0.268094 0.303654
vt 0.210816 0.360586
vt 0.236002 0.335552
vt 0.188948 0.382322
vt 0.514439 0.184654
vt 0.465517 0.107394
vt 0.570841 0.425620
vt 0.555072 0.462428
vt 0.539139 0.498298
vt 0.441225 0.562432
vt 0.400603 0.571955
vt 0.327653 0.571955
vt 0.262830 0.560770
vt 0.480232 0.548008
vt 0.547785 0.240434
vt 0.569147 0.346542
vt 0.169420 0.522211
vt 0.101406 0.469336
vt 0.512007 0.525313
vt 0.480290 0.092693
vt 0.534173 0.178801
vt 0.809606 0.796130
vt 0.837328 0.786379
vt 0.823418 0.749751
vt 0.795039 0.760409
vt 0.783710 0.732721
vt 0.811416 0.721607
vt 0.798164 0.691871
vt 0.771830 0.703240
vt 0.864520 0.774273
vt 0.891790 0.761183
vt 0.878917 0.723397
vt 0.851244 0.737105
vt 0.838640 0.709127
vt 0.865902 0.695714
vt 0.850261 0.669748
vt 0.824049 0.682114
vt 0.764541 0.876127
vt 0.788230 0.871816
vt 0.788327 0.844113
vt 0.762510 0.850781
vt 0.745994 0.817300
vt 0.773579 0.809363
vt 0.766524 0.770290
vt 0.737730 0.778888
vt 0.728121 0.749960
vt 0.755960 0.741192
vt 0.743997 0.716375
vt 0.718146 0.723938
vt 0.710739 0.701079
vt 0.732549 0.691693
vt 0.721545 0.666725
vt 0.703758 0.677895
vt 0.759544 0.677561
vt 0.785154 0.665761
vt 0.771765 0.639737
vt 0.747189 0.651699
vt 0.810406 0.654430
vt 0.836834 0.644751
vt 0.822063 0.620343
vt 0.796196 0.628956
vt 0.857942 0.633746
vt 0.879225 0.622279
vt 0.861721 0.607083
vt 0.841828 0.613482
vt 0.890689 0.680087
vt 0.915203 0.662562
vt 0.896845 0.638180
vt 0.873367 0.654567
vt 0.918071 0.747689
vt 0.944209 0.733035
vt 0.930899 0.690740
vt 0.905175 0.707942
vt 0.934330 0.814500
vt 0.956375 0.801100
vt 0.951997 0.776581
vt 0.926613 0.789001
vt 0.883027 0.842913
vt 0.912399 0.827187
vt 0.901228 0.800143
vt 0.875744 0.812924
vt 0.825068 0.863508
vt 0.852365 0.855645
vt 0.849866 0.824113
vt 0.823328 0.832966
vt 0.940918 0.562291
vt 0.948989 0.523087
vt 0.919504 0.513384
vt 0.916753 0.549180
vt 0.969529 0.801091
vt 0.976369 0.802894
vt 0.981157 0.769418
vt 0.970201 0.771838
vt 0.963036 0.718741
vt 0.974649 0.708022
vt 0.945599 0.628706
vt 0.946492 0.664719
vt 0.932459 0.636389
vt 0.933820 0.599796
vt 0.915441 0.581491
vt 0.903891 0.607422
vt 0.887242 0.599206
vt 0.886612 0.570187
vt 0.865371 0.564241
vt 0.863667 0.585857
vt 0.887971 0.540068
vt 0.890795 0.506020
vt 0.870423 0.502896
vt 0.867138 0.535549
vt 0.634401 0.849455
vt 0.672939 0.837004
vt 0.670133 0.794974
vt 0.626302 0.802671
vt 0.614155 0.765694
vt 0.651430 0.765763
vt 0.636124 0.734288
vt 0.605752 0.730967
vt 0.612384 0.694645
vt 0.640716 0.702479
vt 0.648388 0.672119
vt 0.623028 0.660242
vt 0.665012 0.706734
vt 0.688833 0.710863
vt 0.686459 0.689836
vt 0.667512 0.681032
vt 0.676689 0.760332
vt 0.700551 0.757401
vt 0.692201 0.731710
vt 0.664127 0.733262
vt 0.695930 0.830514
vt 0.718559 0.823797
vt 0.709261 0.786127
vt 0.689598 0.790636
vt 0.718387 0.890462
vt 0.740485 0.878668
vt 0.735789 0.856970
vt 0.709765 0.867321
vt 0.664461 0.918552
vt 0.696213 0.901216
vt 0.683223 0.877262
vt 0.649806 0.892443
vt 0.949672 0.849607
vt 0.930274 0.869858
vt 0.931460 0.885555
vt 0.951396 0.860757
vt 0.695883 0.960476
vt 0.679912 0.943098
vt 0.647612 0.964314
vt 0.658524 0.981285
vt 0.749925 0.922646
vt 0.728397 0.912895
vt 0.710311 0.924171
vt 0.738733 0.941932
vt 0.824040 0.918893
vt 0.781855 0.928493
vt 0.769117 0.949329
vt 0.818810 0.941457
vt 0.898668 0.888070
vt 0.864777 0.904456
vt 0.871426 0.919723
vt 0.902567 0.903234
vt 0.764343 0.545146
vt 0.729659 0.558068
vt 0.744286 0.586902
vt 0.774247 0.574714
vt 0.697585 0.577169
vt 0.667769 0.600034
vt 0.689179 0.621409
vt 0.715809 0.602434
vt 0.833257 0.534512
vt 0.798860 0.536487
vt 0.804450 0.566476
vt 0.834965 0.564165
vt 0.838464 0.589053
vt 0.813598 0.593547
vt 0.785796 0.601821
vt 0.758082 0.613209
vt 0.731586 0.627324
vt 0.706102 0.643346
vt 0.685295 0.662394
vt 0.642530 0.629814
vt 0.666468 0.646574
vt 0.614616 0.610007
vt 0.593803 0.646096
vt 0.643538 0.575411
vt 0.832409 0.500148
vt 0.793033 0.502526
vt 0.676543 0.547480
vt 0.713584 0.525721
vt 0.753294 0.510445
vt 0.888783 0.873550
vt 0.853274 0.888481
vt 0.922582 0.855287
vt 0.824485 0.894115
vt 0.796363 0.897681
vt 0.765568 0.901694
vt 0.745069 0.901018
vt 0.715592 0.979444
vt 0.671829 0.999852
vt 0.941339 0.840643
vt 0.958825 0.825442
vt 0.967163 0.829121
vt 0.971964 0.835759
vt 0.630610 0.938265
vt 0.613849 0.909799
vt 0.571837 0.715310
vt 0.581825 0.674467
vt 0.577381 0.812350
vt 0.571137 0.755321
vt 0.592714 0.864016
vt 0.964674 0.589447
vt 0.981157 0.532799
vt 0.127515 0.179205
vt 0.160323 0.177146
vt 0.166447 0.149896
vt 0.132291 0.151584
vt 0.185213 0.176502
vt 0.209383 0.177477
vt 0.218687 0.154693
vt 0.192767 0.150394
vt 0.140507 0.124021
vt 0.176436 0.123122
vt 0.188983 0.097289
vt 0.150710 0.096797
vt 0.204044 0.125911
vt 0.230390 0.131659
vt 0.244438 0.109442
vt 0.217757 0.102104
vt 0.078490 0.263292
vt 0.096586 0.249187
vt 0.093381 0.222103
vt 0.072663 0.237926
vt 0.126356 0.244093
vt 0.156097 0.231383
vt 0.156414 0.204153
vt 0.124093 0.217546
vt 0.178162 0.227574
vt 0.202457 0.222836
vt 0.204776 0.200840
vt 0.179690 0.202223
vt 0.219446 0.223602
vt 0.237644 0.223162
vt 0.244275 0.208178
vt 0.225397 0.202948
vt 0.233863 0.181344
vt 0.255515 0.187477
vt 0.266315 0.168731
vt 0.242245 0.160055
vt 0.254506 0.139523
vt 0.276865 0.149513
vt 0.289685 0.131363
vt 0.268078 0.119483
vt 0.283342 0.103390
vt 0.300633 0.117401
vt 0.312596 0.103779
vt 0.301396 0.087175
vt 0.235205 0.080057
vt 0.263447 0.091275
vt 0.286353 0.072752
vt 0.256357 0.060455
vt 0.162233 0.071174
vt 0.204453 0.073263
vt 0.222881 0.050686
vt 0.175444 0.046314
vt 0.096152 0.076902
vt 0.120893 0.075308
vt 0.130458 0.049517
vt 0.106048 0.053112
vt 0.076477 0.132768
vt 0.104077 0.128130
vt 0.112999 0.101195
vt 0.086804 0.100295
vt 0.069122 0.196102
vt 0.094511 0.183497
vt 0.097816 0.155762
vt 0.070303 0.166502
vt 0.408582 0.076913
vt 0.404241 0.096755
vt 0.104064 0.041644
vt 0.133111 0.032123
vt 0.134128 0.022665
vt 0.101004 0.036856
vt 0.188751 0.028232
vt 0.253422 0.036884
vt 0.320744 0.043537
vt 0.198411 0.018031
vt 0.312083 0.053596
vt 0.322242 0.062949
vt 0.363946 0.071562
vt 0.352291 0.051046
vt 0.330453 0.087049
vt 0.335332 0.108991
vt 0.357802 0.117962
vt 0.361596 0.094952
vt 0.394895 0.115271
vt 0.385121 0.134426
vt 0.162336 0.348185
vt 0.185893 0.324631
vt 0.168318 0.291126
vt 0.144657 0.313958
vt 0.207853 0.315054
vt 0.230686 0.303546
vt 0.217701 0.285294
vt 0.192349 0.289312
vt 0.246203 0.290089
vt 0.263784 0.274720
vt 0.250866 0.260518
vt 0.233197 0.273917
vt 0.224719 0.258115
vt 0.241129 0.249474
vt 0.231556 0.238265
vt 0.216307 0.242428
vt 0.185442 0.270825
vt 0.208915 0.265814
vt 0.201725 0.245669
vt 0.180003 0.251922
vt 0.136840 0.292842
vt 0.163153 0.274523
vt 0.159218 0.257279
vt 0.131096 0.271041
vt 0.091923 0.309679
vt 0.109035 0.305417
vt 0.103197 0.275732
vt 0.087296 0.286722
vt 0.120653 0.380689
vt 0.138347 0.369310
vt 0.120002 0.333780
vt 0.101292 0.341652
vt 0.061590 0.074069
vt 0.050723 0.076332
vt 0.032275 0.103532
vt 0.046222 0.098417
vt 0.078214 0.394457
vt 0.102305 0.392424
vt 0.049354 0.301093
vt 0.051480 0.338125
vt 0.082033 0.349650
vt 0.073798 0.323962
vt 0.026569 0.224932
vt 0.011330 0.241731
vt 0.023059 0.320904
vt 0.034561 0.277793
vt 0.034735 0.134953
vt 0.020958 0.137193
vt 0.012043 0.175584
vt 0.026487 0.175453
vt 0.342221 0.187438
vt 0.321101 0.172663
vt 0.307320 0.190950
vt 0.327035 0.205026
vt 0.311526 0.222926
vt 0.293611 0.208695
vt 0.278936 0.228421
vt 0.294908 0.242156
vt 0.370892 0.152430
vt 0.345812 0.136208
vt 0.334452 0.154903
vt 0.357167 0.169919
vt 0.323801 0.125442
vt 0.312959 0.141544
vt 0.300387 0.159744
vt 0.287529 0.178348
vt 0.275069 0.197465
vt 0.261813 0.217979
vt 0.251350 0.233651
vt 0.279578 0.258236
vt 0.264760 0.244268
vt 0.048829 0.139133
vt 0.042439 0.180118
vt 0.060182 0.100685
vt 0.045762 0.212415
vt 0.051180 0.243087
vt 0.060374 0.279434
vt 0.070874 0.298396
vt 0.059659 0.398475
vt 0.070944 0.078866
vt 0.083135 0.059107
vt 0.078732 0.053118
vt 0.071578 0.051330
vt 0.388516 0.058082
vt 0.147954 0.000148
vt 0.111045 0.015709
vt 0.075080 0.031428
vt 0.010355 0.128956
vt 0.000587 0.169521
vt 0.000148 0.242473
vt 0.010942 0.307363
vt 0.025015 0.090036
vt 0.332885 0.024472
vt 0.227017 0.002347
vt 0.048940 0.401006
vt 0.047901 0.058397
vt 0.394463 0.038378
s 1
f 191/1/1 80/2/2 28/3/2 82/4/1
f 190/5/3 81/6/4 29/7/5 83/8/5
f 189/9/6 85/10/7 31/11/8 87/12/9
f 188/13/10 86/14/11 32/15/11 88/16/12
f 187/17/13 89/18/13 24/19/13 100/20/13
f 186/21/14 90/22/15 25/23/16 77/24/16
f 185/25/17 91/26/18 26/27/19 78/28/19
f 184/29/20 62/30/20 11/31/20 92/32/20
f 183/33/21 63/34/22 12/35/22 93/36/21
f 182/37/23 64/38/23 13/39/23 94/40/23
f 181/41/24 65/42/24 4/43/24 66/44/24
f 180/45/25 95/46/25 14/47/25 67/48/25
f 179/49/26 96/50/27 15/51/28 68/52/29
f 178/53/30 97/54/30 16/55/30 69/56/30
f 177/57/31 84/58/31 30/59/31 98/60/31
f 176/61/32 79/62/33 27/63/33 99/64/34
f 175/65/35 104/66/36 37/67/36 105/68/37
f 174/69/38 106/70/38 33/71/38 111/72/38
f 173/73/39 107/74/39 34/75/39 101/76/39
f 172/77/40 108/78/40 35/79/40 102/80/40
f 171/81/41 71/82/41 18/83/41 109/84/41
f 170/85/42 72/86/42 19/87/42 110/88/42
f 169/89/43 115/90/44 42/91/45 117/92/45
f 168/93/46 116/94/46 43/95/46 118/96/46
f 167/97/47 75/98/48 23/99/48 120/100/49
f 166/101/50 76/102/50 2/103/50 61/104/50
f 165/105/51 121/106/51 10/107/51 60/108/51
f 164/109/52 122/110/52 9/111/52 59/112/52
f 163/113/53 123/114/53 8/115/53 58/116/53
f 162/117/54 114/118/55 41/119/56 124/120/56
f 161/121/57 129/122/57 44/123/57 134/124/57
f 160/125/58 130/126/58 21/127/58 74/128/58
f 159/129/59 131/130/59 20/131/59 73/132/59
f 158/133/60 127/134/60 46/135/60 132/136/60
f 157/137/61 126/138/61 45/139/61 133/140/61
f 156/141/62 137/142/62 51/143/62 138/144/62
f 155/145/63 140/146/63 53/147/64 141/148/64
f 154/149/65 143/150/65 49/151/65 135/152/65
f 153/153/66 65/42/66 13/39/66 144/154/66
f 152/155/67 64/38/68 12/35/68 145/156/67
f 151/157/69 63/34/69 11/31/69 146/158/69
f 150/159/70 62/30/70 2/103/70 76/102/70
f 149/160/71 147/161/72 23/99/73 75/98/73
f 148/162/74 149/160/74 75/98/75 22/163/75
f 52/164/76 141/148/76 149/160/74 148/162/74
f 141/148/77 53/147/77 147/161/72 149/160/71
f 147/161/78 150/159/78 76/102/78 23/99/78
f 53/147/79 146/158/79 150/159/79 147/161/79
f 146/158/80 11/31/80 62/30/80 150/159/80
f 140/146/81 151/157/81 146/158/81 53/147/81
f 51/143/82 145/156/82 151/157/81 140/146/81
f 145/156/82 12/35/83 63/34/83 151/157/81
f 137/142/84 152/155/67 145/156/67 51/143/84
f 49/151/85 144/154/86 152/155/87 137/142/85
f 144/154/86 13/39/88 64/38/88 152/155/87
f 143/150/89 153/153/89 144/154/89 49/151/89
f 18/83/90 71/82/90 153/153/90 143/150/90
f 71/82/91 4/43/91 65/42/91 153/153/91
f 142/165/92 154/149/92 135/152/93 48/166/93
f 19/87/94 72/86/94 154/149/92 142/165/92
f 72/86/95 18/83/95 143/150/65 154/149/65
f 139/167/96 155/145/96 141/148/97 52/164/97
f 50/168/98 138/144/98 155/145/96 139/167/96
f 138/144/99 51/143/99 140/146/63 155/145/63
f 136/169/100 156/141/100 138/144/100 50/168/100
f 48/166/101 135/152/101 156/141/101 136/169/101
f 135/152/102 49/151/102 137/142/102 156/141/102
f 55/170/103 157/137/104 133/140/105 6/171/105
f 5/172/106 134/124/106 157/137/104 55/170/103
f 134/124/107 44/123/107 126/138/107 157/137/107
f 56/173/108 158/133/108 132/136/108 7/174/108
f 6/171/109 133/140/109 158/133/109 56/173/109
f 133/140/110 45/139/110 127/134/110 158/133/110
f 57/175/111 159/129/111 73/132/111 1/176/111
f 7/174/112 132/136/112 159/129/112 57/175/112
f 132/136/113 46/135/113 131/130/113 159/129/113
f 131/130/114 160/125/114 74/128/114 20/131/114
f 46/135/115 128/177/115 160/125/115 131/130/115
f 128/177/116 47/178/116 130/126/116 160/125/116
f 54/179/117 161/121/117 134/124/117 5/172/117
f 3/180/118 70/181/118 161/121/118 54/179/118
f 70/181/119 17/182/119 129/122/119 161/121/119
f 74/128/120 162/117/121 124/120/122 20/131/122
f 21/127/123 125/183/123 162/117/121 74/128/120
f 125/183/124 38/184/124 114/118/55 162/117/54
f 73/132/125 163/113/125 58/116/125 1/176/125
f 20/131/126 124/120/126 163/113/126 73/132/126
f 124/120/127 41/119/127 123/114/127 163/113/127
f 123/114/128 164/109/128 59/112/128 8/115/128
f 41/119/129 117/92/129 164/109/129 123/114/129
f 117/92/130 42/91/130 122/110/130 164/109/130
f 122/110/131 165/105/131 60/108/131 9/111/131
f 42/91/132 118/96/132 165/105/132 122/110/132
f 118/96/133 43/95/133 121/106/133 165/105/133
f 121/106/134 166/101/134 61/104/134 10/107/134
f 43/95/135 120/100/135 166/101/135 121/106/135
f 120/100/136 23/99/136 76/102/136 166/101/136
f 116/94/137 167/97/47 120/100/49 43/95/137
f 40/185/138 119/186/138 167/97/138 116/94/138
f 119/186/139 22/163/139 75/98/139 167/97/139
f 115/90/140 168/93/140 118/96/140 42/91/140
f 39/187/141 113/188/141 168/93/141 115/90/141
f 113/188/142 40/185/142 116/94/142 168/93/142
f 114/118/143 169/89/144 117/92/145 41/119/145
f 38/184/146 112/189/146 169/89/144 114/118/143
f 112/189/147 39/187/147 115/90/44 169/89/43
f 104/66/148 170/85/148 110/88/148 37/67/148
f 35/79/149 109/84/149 170/85/149 104/66/149
f 109/84/150 18/83/150 72/86/150 170/85/150
f 108/78/151 171/81/151 109/84/151 35/79/151
f 14/47/152 66/44/152 171/81/152 108/78/152
f 66/44/153 4/43/153 71/82/153 171/81/153
f 107/74/154 172/77/154 102/80/154 34/75/154
f 15/51/155 67/48/155 172/77/155 107/74/155
f 67/48/156 14/47/156 108/78/156 172/77/156
f 106/70/157 173/73/157 101/76/157 33/71/157
f 16/55/158 68/52/158 173/73/158 106/70/158
f 68/52/159 15/51/159 107/74/159 173/73/159
f 70/181/160 174/69/160 111/72/160 17/182/160
f 3/180/161 69/56/161 174/69/161 70/181/161
f 69/56/162 16/55/162 106/70/162 174/69/162
f 103/190/163 175/65/35 105/68/37 36/191/163
f 102/80/164 103/190/164 34/75/164
f 102/80/165 35/79/165 104/66/165 175/65/165
f 56/173/166 176/61/32 99/64/34 6/171/166
f 7/174/167 100/20/167 176/61/167 56/173/167
f 100/20/168 24/19/168 79/62/168 176/61/168
f 55/170/169 177/57/169 98/60/169 5/172/169
f 6/171/170 99/64/170 177/57/170 55/170/170
f 99/64/171 27/63/171 84/58/171 177/57/171
f 54/179/172 178/53/172 69/56/172 3/180/172
f 5/172/173 98/60/173 178/53/173 54/179/173
f 98/60/174 30/59/174 97/54/174 178/53/174
f 97/54/175 179/49/26 68/52/29 16/55/176
f 30/59/177 87/12/178 179/49/26 97/54/175
f 87/12/178 31/11/179 96/50/27 179/49/26
f 96/50/180 180/45/181 67/48/182 15/51/182
f 31/11/183 88/16/183 180/45/181 96/50/180
f 88/16/184 32/15/184 95/46/184 180/45/184
f 95/46/185 181/41/185 66/44/185 14/47/185
f 32/15/186 94/40/186 181/41/186 95/46/186
f 94/40/187 13/39/187 65/42/187 181/41/187
f 86/14/188 182/37/189 94/40/190 32/15/190
f 29/7/191 93/36/191 182/37/189 86/14/188
f 93/36/192 12/35/192 64/38/192 182/37/192
f 81/6/21 183/33/21 93/36/21 29/7/21
f 26/27/193 92/32/194 183/33/194 81/6/193
f 92/32/194 11/31/195 63/34/195 183/33/194
f 91/26/196 184/29/196 92/32/196 26/27/196
f 10/107/197 61/104/197 184/29/197 91/26/197
f 61/104/198 2/103/198 62/30/198 184/29/198
f 90/22/199 185/25/199 78/28/200 25/23/200
f 9/111/201 60/108/201 185/25/199 90/22/199
f 60/108/202 10/107/202 91/26/18 185/25/17
f 89/18/203 186/21/204 77/24/205 24/19/205
f 8/115/206 59/112/206 186/21/204 89/18/203
f 59/112/207 9/111/207 90/22/15 186/21/14
f 57/175/208 187/17/208 100/20/208 7/174/208
f 1/176/209 58/116/209 187/17/209 57/175/209
f 58/116/210 8/115/210 89/18/210 187/17/210
f 85/10/211 188/13/10 88/16/12 31/11/212
f 28/3/213 83/8/213 188/13/10 85/10/211
f 83/8/214 29/7/214 86/14/214 188/13/214
f 84/58/215 189/9/6 87/12/9 30/59/216
f 27/63/217 82/4/218 189/9/6 84/58/215
f 82/4/218 28/3/219 85/10/7 189/9/6
f 80/2/220 190/5/3 83/8/221 28/3/221
f 25/23/222 78/28/223 190/5/3 80/2/220
f 78/28/223 26/27/224 81/6/4 190/5/3
f 79/62/225 191/1/1 82/4/1 27/63/225
f 24/19/226 77/24/227 191/1/228 79/62/226
f 77/24/227 25/23/229 80/2/229 191/1/228
f 102/80/230 175/65/230 103/190/230
f 382/192/231 273/193/231 219/194/232 271/195/232
f 381/196/233 274/197/234 220/198/235 272/199/236
f 380/200/237 278/201/238 222/202/239 276/203/240
f 379/204/241 279/205/242 223/206/243 277/207/244
f 378/208/245 291/209/245 215/210/245 280/211/245
f 377/212/246 268/213/247 216/214/247 281/215/246
f 376/216/248 269/217/249 217/218/250 282/219/251
f 375/220/252 283/221/252 202/222/252 253/223/252
f 374/224/253 284/225/254 203/226/255 254/227/255
f 373/228/256 285/229/257 204/230/258 255/231/258
f 372/232/259 257/233/259 195/234/259 256/235/259
f 371/236/260 258/237/261 205/238/262 286/239/263
f 370/240/264 259/241/265 206/242/266 287/243/267
f 369/244/268 260/245/268 207/246/268 288/247/268
f 368/248/269 289/249/269 221/250/269 275/251/269
f 367/252/270 290/253/271 218/254/272 270/255/272
f 366/256/273 296/257/273 228/258/273 295/259/273
f 365/260/274 302/261/274 224/262/274 297/263/274
f 364/264/275 292/265/275 225/266/275 298/267/275
f 363/268/276 293/269/276 226/270/276 299/271/276
f 362/272/277 300/273/277 209/274/277 262/275/277
f 361/276/278 301/277/278 210/278/278 263/279/278
f 360/280/279 308/281/279 233/282/279 306/283/279
f 359/284/280 309/285/280 234/286/280 307/287/280
f 358/288/281 311/289/281 214/290/281 266/291/281
f 357/292/282 252/293/282 193/294/282 267/295/282
f 356/296/283 251/297/283 201/298/283 312/299/283
f 355/300/284 250/301/284 200/302/284 313/303/284
f 354/304/285 249/305/285 199/306/285 314/307/285
f 353/308/286 315/309/286 232/310/286 305/311/286
f 352/312/287 325/313/287 235/314/287 320/315/287
f 351/316/288 265/317/288 212/318/288 321/319/288
f 350/320/289 264/321/289 211/322/289 322/323/289
f 349/324/290 323/325/290 237/326/290 318/327/290
f 348/328/291 324/329/291 236/330/291 317/331/291
f 347/332/292 329/333/292 242/334/292 328/335/292
f 346/336/293 332/337/293 244/338/293 331/339/293
f 345/340/294 326/341/294 240/342/294 334/343/294
f 344/344/295 335/345/295 204/230/295 256/235/295
f 343/346/296 336/347/297 203/226/297 255/231/298
f 342/348/299 337/349/299 202/222/300 254/227/300
f 341/350/301 267/295/301 193/294/301 253/223/301
f 340/351/302 266/291/303 214/290/303 338/352/302
f 339/353/304 213/354/304 266/291/304 340/351/304
f 243/355/305 339/353/305 340/351/305 332/337/305
f 332/337/302 340/351/302 338/352/302 244/338/302
f 338/352/306 214/290/306 267/295/306 341/350/306
f 244/338/307 338/352/307 341/350/307 337/349/307
f 337/349/308 341/350/308 253/223/308 202/222/308
f 331/339/309 244/338/309 337/349/299 342/348/299
f 242/334/310 331/339/310 342/348/310 336/347/310
f 336/347/310 342/348/310 254/227/310 203/226/310
f 328/335/311 242/334/311 336/347/311 343/346/311
f 240/342/312 328/335/312 343/346/312 335/345/312
f 335/345/313 343/346/296 255/231/298 204/230/313
f 334/343/314 240/342/314 335/345/314 344/344/314
f 209/274/315 334/343/315 344/344/315 262/275/315
f 262/275/316 344/344/316 256/235/316 195/234/316
f 333/356/317 239/357/317 326/341/317 345/340/317
f 210/278/318 333/356/318 345/340/318 263/279/318
f 263/279/319 345/340/294 334/343/294 209/274/319
f 330/358/320 243/355/320 332/337/320 346/336/320
f 241/359/321 330/358/321 346/336/321 329/333/321
f 329/333/322 346/336/322 331/339/322 242/334/322
f 327/360/323 241/359/323 329/333/323 347/332/323
f 239/357/324 327/360/324 347/332/324 326/341/324
f 326/341/325 347/332/325 328/335/325 240/342/325
f 246/361/326 197/362/327 324/329/327 348/328/328
f 196/363/329 246/361/326 348/328/328 325/313/329
f 325/313/330 348/328/330 317/331/330 235/314/330
f 247/364/331 198/365/331 323/325/331 349/324/331
f 197/362/332 247/364/332 349/324/332 324/329/332
f 324/329/333 349/324/333 318/327/333 236/330/333
f 248/366/334 192/367/334 264/321/334 350/320/334
f 198/365/335 248/366/335 350/320/335 323/325/335
f 323/325/336 350/320/336 322/323/336 237/326/336
f 322/323/337 211/322/337 265/317/337 351/316/337
f 237/326/338 322/323/338 351/316/338 319/368/338
f 319/368/339 351/316/339 321/319/339 238/369/339
f 245/370/340 196/363/340 325/313/340 352/312/340
f 194/371/341 245/370/341 352/312/341 261/372/341
f 261/372/342 352/312/342 320/315/342 208/373/342
f 265/317/343 211/322/343 315/309/343 353/308/343
f 212/318/344 265/317/344 353/308/344 316/374/344
f 316/374/345 353/308/345 305/311/345 229/375/345
f 264/321/346 192/367/346 249/305/346 354/304/346
f 211/322/347 264/321/347 354/304/347 315/309/347
f 315/309/348 354/304/348 314/307/348 232/310/348
f 314/307/349 199/306/349 250/301/349 355/300/349
f 232/310/350 314/307/350 355/300/350 308/281/350
f 308/281/351 355/300/351 313/303/351 233/282/351
f 313/303/352 200/302/352 251/297/352 356/296/352
f 233/282/353 313/303/353 356/296/353 309/285/353
f 309/285/354 356/296/354 312/299/354 234/286/354
f 312/299/355 201/298/355 252/293/355 357/292/355
f 234/286/356 312/299/356 357/292/356 311/289/356
f 311/289/357 357/292/357 267/295/357 214/290/357
f 307/287/358 234/286/358 311/289/358 358/288/358
f 231/376/359 307/287/359 358/288/359 310/377/359
f 310/377/360 358/288/360 266/291/360 213/354/360
f 306/283/361 233/282/361 309/285/361 359/284/361
f 230/378/362 306/283/362 359/284/362 304/379/362
f 304/379/363 359/284/363 307/287/363 231/376/363
f 305/311/364 232/310/364 308/281/364 360/280/364
f 229/375/365 305/311/365 360/280/365 303/380/365
f 303/380/366 360/280/366 306/283/366 230/378/366
f 295/259/367 228/258/367 301/277/367 361/276/367
f 226/270/368 295/259/368 361/276/368 300/273/368
f 300/273/369 361/276/369 263/279/369 209/274/369
f 299/271/370 226/270/370 300/273/370 362/272/370
f 205/238/371 299/271/371 362/272/371 257/233/371
f 257/233/372 362/272/372 262/275/372 195/234/372
f 298/267/373 225/266/373 293/269/373 363/268/373
f 206/242/374 298/267/374 363/268/374 258/237/374
f 258/237/375 363/268/375 299/271/375 205/238/375
f 297/263/376 224/262/376 292/265/376 364/264/376
f 207/246/377 297/263/377 364/264/377 259/241/377
f 259/241/378 364/264/378 298/267/378 206/242/378
f 261/372/379 208/373/379 302/261/379 365/260/379
f 194/371/380 261/372/380 365/260/380 260/245/380
f 260/245/381 365/260/381 297/263/381 207/246/381
f 294/381/382 227/382/382 296/257/382 366/256/382
f 293/269/383 225/266/383 294/381/383
f 293/269/384 366/256/384 295/259/384 226/270/384
f 247/364/385 197/362/385 290/253/271 367/252/270
f 198/365/386 247/364/386 367/252/386 291/209/386
f 291/209/387 367/252/387 270/255/387 215/210/387
f 246/361/388 196/363/388 289/249/388 368/248/388
f 197/362/389 246/361/389 368/248/389 290/253/389
f 290/253/390 368/248/390 275/251/390 218/254/390
f 245/370/391 194/371/391 260/245/391 369/244/391
f 196/363/392 245/370/392 369/244/392 289/249/392
f 289/249/393 369/244/393 288/247/393 221/250/393
f 288/247/394 207/246/395 259/241/265 370/240/264
f 221/250/396 288/247/394 370/240/264 278/201/397
f 278/201/397 370/240/264 287/243/267 222/202/398
f 287/243/399 206/242/400 258/237/261 371/236/260
f 222/202/401 287/243/399 371/236/260 279/205/402
f 279/205/402 371/236/260 286/239/263 223/206/403
f 286/239/404 205/238/404 257/233/404 372/232/404
f 223/206/405 286/239/405 372/232/405 285/229/405
f 285/229/406 372/232/406 256/235/406 204/230/406
f 277/207/407 223/206/408 285/229/257 373/228/256
f 220/198/409 277/207/407 373/228/256 284/225/409
f 284/225/410 373/228/410 255/231/410 203/226/410
f 272/199/411 220/198/412 284/225/254 374/224/253
f 217/218/413 272/199/411 374/224/253 283/221/413
f 283/221/414 374/224/414 254/227/414 202/222/414
f 282/219/415 217/218/415 283/221/415 375/220/415
f 201/298/416 282/219/416 375/220/416 252/293/416
f 252/293/417 375/220/417 253/223/417 193/294/417
f 281/215/418 216/214/419 269/217/249 376/216/248
f 200/302/420 281/215/418 376/216/248 251/297/421
f 251/297/421 376/216/248 282/219/251 201/298/422
f 280/211/423 215/210/424 268/213/424 377/212/425
f 199/306/426 280/211/423 377/212/425 250/301/426
f 250/301/427 377/212/246 281/215/246 200/302/427
f 248/366/428 198/365/428 291/209/428 378/208/428
f 192/367/429 248/366/429 378/208/429 249/305/429
f 249/305/430 378/208/430 280/211/430 199/306/430
f 276/203/431 222/202/432 279/205/242 379/204/241
f 219/194/433 276/203/431 379/204/241 274/197/434
f 274/197/434 379/204/241 277/207/244 220/198/435
f 275/251/436 221/250/437 278/201/238 380/200/237
f 218/254/438 275/251/436 380/200/237 273/193/439
f 273/193/439 380/200/237 276/203/240 219/194/440
f 271/195/441 219/194/442 274/197/234 381/196/233
f 216/214/443 271/195/441 381/196/233 269/217/444
f 269/217/444 381/196/233 272/199/236 217/218/445
f 270/255/446 218/254/446 273/193/231 382/192/231
f 215/210/447 270/255/447 382/192/448 268/213/449
f 268/213/449 382/192/448 271/195/450 216/214/450
f 293/269/451 294/381/451 366/256/451
f 33/383/452 224/262/452 302/261/452 111/384/452
f 111/384/452 302/261/452 208/373/452 17/385/452
f 126/386/453 317/331/453 236/330/453 45/387/453
f 127/388/454 318/327/454 237/326/454 46/389/454
f 44/390/453 235/314/453 317/331/453 126/386/453
f 34/391/455 225/266/455 292/265/455 101/392/455
f 128/393/456 319/368/456 238/369/456 47/394/456
f 45/387/457 236/330/457 318/327/457 127/388/457
f 101/392/458 292/265/458 224/262/458 33/383/458
f 129/395/459 320/315/459 235/314/459 44/390/459
f 46/389/460 237/326/460 319/368/460 128/393/460
f 36/396/461 227/382/461 294/381/461 103/397/461
f 17/385/459 208/373/459 320/315/459 129/395/459
f 103/397/462 294/381/462 225/266/462 34/391/462
f 550/398/463 452/399/464 407/400/465 450/401/466
f 549/402/467 453/403/468 408/404/468 451/405/469
f 548/406/470 457/407/471 410/408/472 455/409/473
f 547/410/474 458/411/475 411/412/476 456/413/476
f 546/414/477 470/415/477 403/416/477 459/417/477
f 545/418/478 447/419/479 404/420/479 460/421/480
f 544/422/481 448/423/482 405/424/482 461/425/483
f 543/426/484 462/427/484 393/428/484 432/429/484
f 542/430/485 463/431/485 394/432/486 433/433/486
f 541/434/487 464/435/487 395/436/487 434/437/487
f 540/438/488 436/439/488 386/440/488 435/441/488
f 539/442/489 437/443/489 396/444/489 465/445/489
f 538/446/490 438/447/491 397/448/492 466/449/493
f 537/450/494 439/451/494 398/452/494 467/453/494
f 536/454/495 468/455/495 409/456/495 454/457/495
f 535/458/496 469/459/497 406/460/498 449/461/498
f 534/462/499 105/463/500 37/464/501 474/465/501
f 533/466/502 479/467/502 412/468/502 475/469/502
f 532/470/503 471/471/503 413/472/503 476/473/503
f 531/474/504 472/475/504 414/476/504 477/477/504
f 530/478/505 478/479/505 400/480/505 441/481/505
f 529/482/506 110/483/506 19/484/506 442/485/506
f 528/486/507 483/487/508 416/488/508 481/489/509
f 527/490/510 484/491/510 417/492/510 482/493/510
f 526/494/511 485/495/512 402/496/513 445/497/513
f 525/498/514 431/499/514 384/500/514 446/501/514
f 524/502/515 430/503/515 392/504/515 486/505/515
f 523/506/516 429/507/516 391/508/516 487/509/516
f 522/510/517 428/511/517 390/512/517 488/513/517
f 521/514/518 489/515/519 415/516/519 480/517/520
f 520/518/521 497/519/521 418/520/521 493/521/521
f 519/522/522 444/523/522 21/524/522 130/525/522
f 518/526/523 443/527/523 401/528/523 494/529/523
f 517/530/524 495/531/524 420/532/524 491/533/524
f 516/534/525 496/535/525 419/536/525 490/537/525
f 515/538/526 500/539/526 422/540/526 499/541/526
f 514/542/527 502/543/528 423/544/528 501/545/527
f 513/546/529 498/547/529 421/548/529 503/549/529
f 512/550/530 504/551/530 395/436/530 435/441/530
f 511/552/531 505/553/531 394/432/532 434/437/532
f 510/554/533 506/555/533 393/428/533 433/433/533
f 509/556/534 446/501/534 384/500/534 432/429/534
f 508/557/535 445/497/536 402/496/536 507/558/537
f 148/559/538 22/560/539 445/497/539 508/557/538
f 52/561/540 148/559/538 508/557/538 502/543/540
f 502/543/541 508/557/535 507/558/537 423/544/541
f 507/558/542 402/496/542 446/501/542 509/556/542
f 423/544/543 507/558/543 509/556/543 506/555/543
f 506/555/544 509/556/544 432/429/544 393/428/544
f 501/545/545 423/544/545 506/555/545 510/554/545
f 422/540/546 501/545/545 510/554/545 505/553/546
f 505/553/546 510/554/545 433/433/547 394/432/547
f 499/541/548 422/540/548 505/553/531 511/552/531
f 421/548/549 499/541/549 511/552/550 504/551/551
f 504/551/551 511/552/550 434/437/552 395/436/552
f 503/549/553 421/548/553 504/551/553 512/550/553
f 400/480/554 503/549/554 512/550/554 441/481/554
f 441/481/555 512/550/555 435/441/555 386/440/555
f 142/562/556 48/563/557 498/547/557 513/546/556
f 19/484/558 142/562/556 513/546/556 442/485/558
f 442/485/559 513/546/529 503/549/529 400/480/559
f 139/564/560 52/561/561 502/543/561 514/542/560
f 50/565/562 139/564/560 514/542/560 500/539/562
f 500/539/563 514/542/527 501/545/527 422/540/563
f 136/566/564 50/565/564 500/539/564 515/538/564
f 48/563/565 136/566/565 515/538/565 498/547/565
f 498/547/566 515/538/566 499/541/566 421/548/566
f 425/567/567 388/568/568 496/535/568 516/534/569
f 387/569/570 425/567/567 516/534/569 497/519/570
f 497/519/571 516/534/571 490/537/571 418/520/571
f 426/570/572 389/571/572 495/531/572 517/530/572
f 388/568/573 426/570/573 517/530/573 496/535/573
f 496/535/574 517/530/574 491/533/574 419/536/574
f 427/572/575 383/573/575 443/527/575 518/526/575
f 389/571/576 427/572/576 518/526/576 495/531/576
f 495/531/577 518/526/577 494/529/577 420/532/577
f 494/529/578 401/528/578 444/523/578 519/522/578
f 420/532/579 494/529/579 519/522/579 492/574/579
f 492/574/580 519/522/580 130/525/580 47/575/580
f 424/576/581 387/569/581 497/519/581 520/518/581
f 385/577/582 424/576/582 520/518/582 440/578/582
f 440/578/583 520/518/583 493/521/583 399/579/583
f 444/523/584 401/528/585 489/515/585 521/514/586
f 21/524/587 444/523/584 521/514/586 125/580/587
f 125/580/588 521/514/518 480/517/520 38/581/588
f 443/527/589 383/573/589 428/511/589 522/510/589
f 401/528/590 443/527/590 522/510/590 489/515/590
f 489/515/591 522/510/591 488/513/591 415/516/591
f 488/513/592 390/512/592 429/507/592 523/506/592
f 415/516/593 488/513/593 523/506/593 483/487/593
f 483/487/594 523/506/594 487/509/594 416/488/594
f 487/509/595 391/508/595 430/503/595 524/502/595
f 416/488/596 487/509/596 524/502/596 484/491/596
f 484/491/597 524/502/597 486/505/597 417/492/597
f 486/505/598 392/504/598 431/499/598 525/498/598
f 417/492/599 486/505/599 525/498/599 485/495/599
f 485/495/600 525/498/600 446/501/600 402/496/600
f 482/493/601 417/492/601 485/495/512 526/494/511
f 40/582/602 482/493/602 526/494/602 119/583/602
f 119/583/603 526/494/603 445/497/603 22/560/603
f 481/489/604 416/488/604 484/491/604 527/490/604
f 39/584/605 481/489/605 527/490/605 113/585/605
f 113/585/606 527/490/606 482/493/606 40/582/606
f 480/517/607 415/516/608 483/487/608 528/486/609
f 38/581/610 480/517/607 528/486/609 112/586/610
f 112/586/611 528/486/507 481/489/509 39/584/611
f 474/465/612 37/464/612 110/483/612 529/482/612
f 414/476/613 474/465/613 529/482/613 478/479/613
f 478/479/614 529/482/614 442/485/614 400/480/614
f 477/477/615 414/476/615 478/479/615 530/478/615
f 396/444/616 477/477/616 530/478/616 436/439/616
f 436/439/617 530/478/617 441/481/617 386/440/617
f 476/473/618 413/472/618 472/475/618 531/474/618
f 397/448/619 476/473/619 531/474/619 437/443/619
f 437/443/620 531/474/620 477/477/620 396/444/620
f 475/469/621 412/468/621 471/471/621 532/470/621
f 398/452/622 475/469/622 532/470/622 438/447/622
f 438/447/623 532/470/623 476/473/623 397/448/623
f 440/578/624 399/579/624 479/467/624 533/466/624
f 385/577/625 440/578/625 533/466/625 439/451/625
f 439/451/626 533/466/626 475/469/626 398/452/626
f 473/587/627 36/588/627 105/463/500 534/462/499
f 472/475/628 413/472/628 473/587/628
f 472/475/629 534/462/629 474/465/629 414/476/629
f 426/570/630 388/568/630 469/459/497 535/458/496
f 389/571/631 426/570/631 535/458/631 470/415/631
f 470/415/632 535/458/632 449/461/632 403/416/632
f 425/567/633 387/569/633 468/455/633 536/454/633
f 388/568/634 425/567/634 536/454/634 469/459/634
f 469/459/635 536/454/635 454/457/635 406/460/635
f 424/576/636 385/577/636 439/451/636 537/450/636
f 387/569/637 424/576/637 537/450/637 468/455/637
f 468/455/638 537/450/638 467/453/638 409/456/638
f 467/453/639 398/452/640 438/447/491 538/446/490
f 409/456/641 467/453/639 538/446/490 457/407/642
f 457/407/642 538/446/490 466/449/493 410/408/643
f 466/449/644 397/448/645 437/443/645 539/442/646
f 410/408/647 466/449/644 539/442/646 458/411/647
f 458/411/648 539/442/648 465/445/648 411/412/648
f 465/445/649 396/444/649 436/439/649 540/438/649
f 411/412/650 465/445/650 540/438/650 464/435/650
f 464/435/651 540/438/651 435/441/651 395/436/651
f 456/413/652 411/412/653 464/435/653 541/434/654
f 408/404/655 456/413/652 541/434/654 463/431/655
f 463/431/656 541/434/656 434/437/656 394/432/656
f 451/405/485 408/404/485 463/431/485 542/430/485
f 405/424/657 451/405/657 542/430/658 462/427/658
f 462/427/658 542/430/658 433/433/659 393/428/659
f 461/425/660 405/424/660 462/427/660 543/426/660
f 392/504/661 461/425/661 543/426/661 431/499/661
f 431/499/662 543/426/662 432/429/662 384/500/662
f 460/421/663 404/420/664 448/423/664 544/422/663
f 391/508/665 460/421/663 544/422/663 430/503/665
f 430/503/666 544/422/481 461/425/483 392/504/666
f 459/417/667 403/416/668 447/419/668 545/418/669
f 390/512/670 459/417/667 545/418/669 429/507/670
f 429/507/671 545/418/478 460/421/480 391/508/671
f 427/572/672 389/571/672 470/415/672 546/414/672
f 383/573/673 427/572/673 546/414/673 428/511/673
f 428/511/674 546/414/674 459/417/674 390/512/674
f 455/409/675 410/408/676 458/411/475 547/410/474
f 407/400/677 455/409/675 547/410/474 453/403/677
f 453/403/678 547/410/678 456/413/678 408/404/678
f 454/457/679 409/456/680 457/407/471 548/406/470
f 406/460/681 454/457/679 548/406/470 452/399/682
f 452/399/682 548/406/470 455/409/473 407/400/683
f 450/401/684 407/400/685 453/403/685 549/402/467
f 404/420/686 450/401/684 549/402/467 448/423/687
f 448/423/687 549/402/467 451/405/469 405/424/688
f 449/461/689 406/460/689 452/399/464 550/398/463
f 403/416/690 449/461/690 550/398/463 447/419/691
f 447/419/691 550/398/463 450/401/466 404/420/692
f 472/475/693 473/587/693 534/462/693
f 718/589/694 618/590/695 575/591/695 620/592/694
f 717/593/696 619/594/697 576/595/698 621/596/699
f 716/597/700 623/598/701 578/599/702 625/600/703
f 715/601/704 624/602/705 579/603/706 626/604/707
f 714/605/708 627/606/708 571/607/708 638/608/708
f 713/609/709 628/610/709 572/611/710 615/612/710
f 712/613/711 629/614/712 573/615/713 616/616/714
f 711/617/715 600/618/715 561/619/715 630/620/715
f 710/621/716 601/622/717 562/623/717 631/624/718
f 709/625/719 602/626/720 563/627/720 632/628/721
f 708/629/722 603/630/722 554/631/722 604/632/722
f 707/633/723 633/634/724 564/635/725 605/636/726
f 706/637/727 634/638/728 565/639/729 606/640/730
f 705/641/731 635/642/731 566/643/731 607/644/731
f 704/645/732 622/646/732 577/647/732 636/648/732
f 703/649/733 617/650/734 574/651/734 637/652/735
f 702/653/736 642/654/736 228/258/736 296/257/736
f 701/655/737 643/656/737 580/657/737 647/658/737
f 700/659/738 644/660/738 581/661/738 639/662/738
f 699/663/739 645/664/739 582/665/739 640/666/739
f 698/667/740 609/668/740 568/669/740 646/670/740
f 697/671/741 610/672/741 210/278/741 301/277/741
f 696/673/742 649/674/742 584/675/742 651/676/742
f 695/677/743 650/678/743 585/679/743 652/680/743
f 694/681/744 613/682/744 570/683/744 653/684/744
f 693/685/745 614/686/745 552/687/745 599/688/745
f 692/689/746 654/690/746 560/691/746 598/692/746
f 691/693/747 655/694/747 559/695/747 597/696/747
f 690/697/748 656/698/748 558/699/748 596/700/748
f 689/701/749 648/702/749 583/703/749 657/704/749
f 688/705/750 661/706/750 586/707/750 665/708/750
f 687/709/751 321/319/751 212/318/751 612/710/751
f 686/711/752 662/712/752 569/713/752 611/714/752
f 685/715/753 659/716/753 588/717/753 663/718/753
f 684/719/754 658/720/754 587/721/754 664/722/754
f 683/723/755 667/724/755 590/725/755 668/726/755
f 682/727/756 669/728/756 591/729/756 670/730/756
f 681/731/757 671/732/757 589/733/757 666/734/757
f 680/735/758 603/630/758 563/627/758 672/736/758
f 679/737/759 602/626/760 562/623/761 673/738/761
f 678/739/762 601/622/763 561/619/763 674/740/762
f 677/741/764 600/618/764 552/687/764 614/686/764
f 676/742/765 675/743/765 570/683/766 613/682/766
f 339/353/767 676/742/767 613/682/767 213/354/767
f 243/355/768 670/730/768 676/742/768 339/353/768
f 670/730/765 591/729/765 675/743/765 676/742/765
f 675/743/769 677/741/769 614/686/769 570/683/769
f 591/729/770 674/740/770 677/741/770 675/743/770
f 674/740/771 561/619/771 600/618/771 677/741/771
f 669/728/772 678/739/762 674/740/762 591/729/772
f 590/725/773 673/738/773 678/739/773 669/728/773
f 673/738/773 562/623/773 601/622/773 678/739/773
f 667/724/774 679/737/774 673/738/774 590/725/774
f 589/733/775 672/736/775 679/737/775 667/724/775
f 672/736/776 563/627/776 602/626/760 679/737/759
f 671/732/777 680/735/777 672/736/777 589/733/777
f 568/669/778 609/668/778 680/735/778 671/732/778
f 609/668/779 554/631/779 603/630/779 680/735/779
f 333/356/780 681/731/780 666/734/780 239/357/780
f 210/278/781 610/672/781 681/731/781 333/356/781
f 610/672/782 568/669/782 671/732/757 681/731/757
f 330/358/783 682/727/783 670/730/783 243/355/783
f 241/359/784 668/726/784 682/727/784 330/358/784
f 668/726/785 590/725/785 669/728/785 682/727/785
f 327/360/786 683/723/786 668/726/786 241/359/786
f 239/357/787 666/734/787 683/723/787 327/360/787
f 666/734/788 589/733/788 667/724/788 683/723/788
f 593/744/789 684/719/790 664/722/791 556/745/791
f 555/746/792 665/708/792 684/719/790 593/744/789
f 665/708/793 586/707/793 658/720/793 684/719/793
f 594/747/794 685/715/794 663/718/794 557/748/794
f 556/745/795 664/722/795 685/715/795 594/747/795
f 664/722/796 587/721/796 659/716/796 685/715/796
f 595/749/797 686/711/797 611/714/797 551/750/797
f 557/748/798 663/718/798 686/711/798 595/749/798
f 663/718/799 588/717/799 662/712/799 686/711/799
f 662/712/800 687/709/800 612/710/800 569/713/800
f 588/717/801 660/751/801 687/709/801 662/712/801
f 660/751/802 238/369/802 321/319/802 687/709/802
f 592/752/803 688/705/803 665/708/803 555/746/803
f 553/753/804 608/754/804 688/705/804 592/752/804
f 608/754/805 567/755/805 661/706/805 688/705/805
f 612/710/806 689/701/806 657/704/806 569/713/806
f 212/318/807 316/374/807 689/701/807 612/710/807
f 316/374/808 229/375/808 648/702/808 689/701/808
f 611/714/809 690/697/809 596/700/809 551/750/809
f 569/713/810 657/704/810 690/697/810 611/714/810
f 657/704/811 583/703/811 656/698/811 690/697/811
f 656/698/812 691/693/812 597/696/812 558/699/812
f 583/703/813 651/676/813 691/693/813 656/698/813
f 651/676/814 584/675/814 655/694/814 691/693/814
f 655/694/815 692/689/815 598/692/815 559/695/815
f 584/675/816 652/680/816 692/689/816 655/694/816
f 652/680/817 585/679/817 654/690/817 692/689/817
f 654/690/818 693/685/818 599/688/818 560/691/818
f 585/679/819 653/684/819 693/685/819 654/690/819
f 653/684/820 570/683/820 614/686/820 693/685/820
f 650/678/821 694/681/821 653/684/821 585/679/821
f 231/376/822 310/377/822 694/681/822 650/678/822
f 310/377/823 213/354/823 613/682/823 694/681/823
f 649/674/824 695/677/824 652/680/824 584/675/824
f 230/378/825 304/379/825 695/677/825 649/674/825
f 304/379/826 231/376/826 650/678/826 695/677/826
f 648/702/827 696/673/827 651/676/827 583/703/827
f 229/375/828 303/380/828 696/673/828 648/702/828
f 303/380/829 230/378/829 649/674/829 696/673/829
f 642/654/830 697/671/830 301/277/830 228/258/830
f 582/665/831 646/670/831 697/671/831 642/654/831
f 646/670/832 568/669/832 610/672/832 697/671/832
f 645/664/833 698/667/833 646/670/833 582/665/833
f 564/635/834 604/632/834 698/667/834 645/664/834
f 604/632/835 554/631/835 609/668/835 698/667/835
f 644/660/836 699/663/836 640/666/836 581/661/836
f 565/639/837 605/636/837 699/663/837 644/660/837
f 605/636/838 564/635/838 645/664/838 699/663/838
f 643/656/839 700/659/839 639/662/839 580/657/839
f 566/643/840 606/640/840 700/659/840 643/656/840
f 606/640/841 565/639/841 644/660/841 700/659/841
f 608/754/842 701/655/842 647/658/842 567/755/842
f 553/753/843 607/644/843 701/655/843 608/754/843
f 607/644/844 566/643/844 643/656/844 701/655/844
f 641/756/845 702/653/845 296/257/845 227/382/845
f 640/666/846 641/756/846 581/661/846
f 640/666/847 582/665/847 642/654/847 702/653/847
f 594/747/848 703/649/733 637/652/735 556/745/848
f 557/748/849 638/608/849 703/649/849 594/747/849
f 638/608/850 571/607/850 617/650/850 703/649/850
f 593/744/851 704/645/851 636/648/851 555/746/851
f 556/745/852 637/652/852 704/645/852 593/744/852
f 637/652/853 574/651/853 622/646/853 704/645/853
f 592/752/854 705/641/854 607/644/854 553/753/854
f 555/746/855 636/648/855 705/641/855 592/752/855
f 636/648/856 577/647/856 635/642/856 705/641/856
f 635/642/857 706/637/727 606/640/730 566/643/858
f 577/647/859 625/600/860 706/637/727 635/642/857
f 625/600/860 578/599/861 634/638/728 706/637/727
f 634/638/862 707/633/723 605/636/726 565/639/863
f 578/599/864 626/604/865 707/633/723 634/638/862
f 626/604/865 579/603/866 633/634/724 707/633/723
f 633/634/867 708/629/867 604/632/867 564/635/867
f 579/603/868 632/628/868 708/629/868 633/634/868
f 632/628/869 563/627/869 603/630/869 708/629/869
f 624/602/870 709/625/719 632/628/721 579/603/871
f 576/595/872 631/624/872 709/625/719 624/602/870
f 631/624/873 562/623/873 602/626/873 709/625/873
f 619/594/874 710/621/716 631/624/718 576/595/875
f 573/615/876 630/620/876 710/621/716 619/594/874
f 630/620/877 561/619/877 601/622/877 710/621/877
f 629/614/878 711/617/878 630/620/878 573/615/878
f 560/691/879 599/688/879 711/617/879 629/614/879
f 599/688/880 552/687/880 600/618/880 711/617/880
f 628/610/881 712/613/711 616/616/714 572/611/882
f 559/695/883 598/692/884 712/613/711 628/610/881
f 598/692/884 560/691/885 629/614/712 712/613/711
f 627/606/886 713/609/887 615/612/888 571/607/888
f 558/699/889 597/696/889 713/609/887 627/606/886
f 597/696/890 559/695/890 628/610/709 713/609/709
f 595/749/891 714/605/891 638/608/891 557/748/891
f 551/750/892 596/700/892 714/605/892 595/749/892
f 596/700/893 558/699/893 627/606/893 714/605/893
f 623/598/894 715/601/704 626/604/707 578/599/895
f 575/591/896 621/596/897 715/601/704 623/598/894
f 621/596/897 576/595/898 624/602/705 715/601/704
f 622/646/899 716/597/700 625/600/703 577/647/900
f 574/651/901 620/592/902 716/597/700 622/646/899
f 620/592/902 575/591/903 623/598/701 716/597/700
f 618/590/904 717/593/696 621/596/699 575/591/905
f 572/611/906 616/616/907 717/593/696 618/590/904
f 616/616/907 573/615/908 619/594/697 717/593/696
f 617/650/909 718/589/694 620/592/694 574/651/909
f 571/607/910 615/612/911 718/589/912 617/650/910
f 615/612/911 572/611/913 618/590/913 718/589/912
f 640/666/914 702/653/914 641/756/914
f 412/757/915 479/758/915 647/658/915 580/657/915
f 479/758/915 399/759/915 567/755/915 647/658/915
f 490/760/916 419/761/916 587/721/916 658/720/916
f 491/762/917 420/763/917 588/717/917 659/716/917
f 418/764/916 490/760/916 658/720/916 586/707/916
f 413/765/918 471/766/918 639/662/918 581/661/918
f 492/767/919 47/394/919 238/369/919 660/751/919
f 419/761/920 491/762/920 659/716/920 587/721/920
f 471/766/921 412/757/921 580/657/921 639/662/921
f 493/768/922 418/764/922 586/707/922 661/706/922
f 420/763/923 492/767/923 660/751/923 588/717/923
f 36/396/924 473/769/924 641/756/924 227/382/924
f 399/759/922 493/768/922 661/706/922 567/755/922
f 473/769/925 413/765/925 581/661/925 641/756/925
